<svg width="260" height="296" viewBox="0 0 260 296" fill="none" xmlns="http://www.w3.org/2000/svg">
<path d="M214.029 232.182V281.584L204.312 275.105V250.81L185.684 237.851L186.493 262.146L178.799 256.86L178.039 211.215L177.99 208.29L178.88 208.88L214.029 232.182Z" fill="#67C2DA"/>
<path d="M178.037 211.215L143.541 235.668V232.322L143.259 232.518L143.227 232.538L143.163 232.584L143.112 235.766L142.904 248.541L142.657 263.913L142.639 265.016L142.352 282.798L152.881 274.699L153.287 250.81L170.7 238.66V262.551L178.797 256.882V256.859L178.037 211.215ZM143.541 264.4V264.558L143.428 264.475L143.541 264.4V262.952L143.572 264.377L143.541 264.4Z" fill="#FEF151"/>
<path d="M143.542 264.403V264.562L143.43 264.478L143.542 264.403Z" fill="#FEF151"/>
<path d="M143.573 264.378L143.541 264.401V262.953L143.573 264.378Z" fill="#FEF151"/>
<path d="M178.037 211.215L143.541 235.669V232.323L177.988 208.29L178.037 211.215Z" fill="#FEF151"/>
<path d="M223.747 275.108V250.002L242.375 237.854L249.663 243.523V207.078L214.029 232.185V281.587L223.747 275.108Z" fill="#FEF151"/>
<path d="M241.562 262.145V237.851L259.382 249.998V274.296L241.562 262.145Z" fill="#67C2DA"/>
<path d="M97.5403 264.561L74.207 247.893V217.224L96.8752 232.558L97.5403 264.561Z" fill="#67C2DA"/>
<path d="M52.2031 248.559L97.5394 281.229V295.896L52.2031 264.561V248.559Z" fill="#67C2DA"/>
<path d="M97.5401 264.559L121.21 248.225V215.555L96.875 232.557L97.5401 264.559Z" fill="#FEF151"/>
<path d="M52.2031 248.558V231.89L74.2062 217.224L74.8713 248.558L62.8793 256.349L52.2031 248.558Z" fill="#FEF151"/>
<path d="M142.906 248.545L142.658 263.917L142.641 265.02L97.541 295.897V281.23L132.195 256.261L142.906 248.545Z" fill="#FEF151"/>
<path d="M143.573 264.378L143.541 264.401V262.953L143.573 264.378Z" fill="#FEF151"/>
<path d="M143.541 231.891V232.323L143.259 232.519L143.227 232.539L143.164 232.585L143.112 235.767L142.905 248.542L142.657 263.914L132.194 256.258L121.207 248.225V215.555L143.222 231.658L143.259 231.684L143.541 231.891Z" fill="#67C2DA"/>
<path d="M143.542 264.403V264.562L143.43 264.478L143.542 264.403Z" fill="#67C2DA"/>
<path d="M143.26 186.724V232.521L143.229 232.541L143.165 232.587L143.113 235.769L121.208 220.624L117.563 218.105L106.74 210.622L107.189 126.307L131.539 144.342V178.608L143.26 186.724Z" fill="#67C2DA"/>
<path d="M131.986 108.724V128.561L142.806 136.678V115.936L131.986 108.724Z" fill="#67C2DA"/>
<path d="M131.537 178.606L157.237 161.022V106.015L142.809 115.934V136.676L131.537 144.34V178.606Z" fill="#FEF151"/>
<path d="M178.877 161.023V210.621L178.037 211.217L143.541 235.67V232.325L143.259 232.52L143.227 232.541C143.227 232.261 143.224 231.968 143.221 231.659C143.123 219.826 142.887 187.095 143.259 186.723L178.877 161.023Z" fill="#FEF151"/>
<path d="M52.2529 160.799L106.964 125.82L106.066 54.0693L87.2297 65.7302V90.3936L70.6367 101.156V126.269L52.6992 137.93C52.6992 137.93 52.25 163.572 52.25 160.799H52.2529Z" fill="#FEF151"/>
<path d="M34.7637 77.8359L70.6388 101.155V126.267L34.7637 102.949V77.8359Z" fill="#67C2DA"/>
<path d="M1.58191 103.85L52.7026 137.931V160.801L0.683594 126.27L1.58191 103.85Z" fill="#67C2DA"/>
<path d="M87.2354 89.9445L68.4023 78.2865V54.0693L87.2354 65.7302V89.9445Z" fill="#67C2DA"/>
<path d="M179.617 18.7841V53.8444L157.078 70.541V106.436L230.542 53.8444V34.6457L205.913 51.7569V0L179.617 18.7841Z" fill="#FEF151"/>
<path d="M155.824 4.17578L179.615 18.785V53.8453L155.824 39.2361V4.17578Z" fill="#67C2DA"/>
<path d="M130.781 54.2607L157.077 70.5399V106.435L130.781 90.1589V54.2607Z" fill="#67C2DA"/>
</svg>
