<svg width="43" height="35" viewBox="0 0 43 35" fill="none" xmlns="http://www.w3.org/2000/svg">
<path d="M28.3304 6.42857H16.6698C16.0912 6.42857 15.6194 5.95536 15.6194 5.375V1.96429C15.6194 0.821429 14.6848 0 13.6611 0C13.3407 0 13.0025 0.0892857 12.6909 0.267857L9.76241 1.96429L2.05396 6.42857L0.976909 7.05357C0.665366 7.23214 0.433935 7.47321 0.273713 7.75C-0.0912375 8.35714 -0.0912375 9.13393 0.273713 9.75C0.433935 10.0268 0.665366 10.2679 0.976909 10.4464L1.75132 10.8929L12.6998 17.2321C13.9994 17.9821 15.6283 17.0446 15.6283 15.5357V11.9464C15.6283 11.3661 16.1001 10.8929 16.6787 10.8929H28.4728C33.5732 10.8929 38.0327 14.6875 38.5045 19.7768C39.0474 25.6161 34.4722 30.5357 28.7576 30.5357H2.49902C1.27065 30.5357 0.273713 31.5357 0.273713 32.7679C0.273713 34 1.27065 35 2.49902 35H28.7576C36.8488 35 43.3912 28.1964 42.9818 20C42.599 12.3214 35.9943 6.42857 28.3393 6.42857H28.3304Z" fill="white"/>
</svg>
