<svg width="231" height="256" viewBox="0 0 231 256" fill="none" xmlns="http://www.w3.org/2000/svg">
<g filter="url(#filter0_d_1147_5062)">
<path d="M176.767 70.9487C176.301 70.9487 175.851 70.7043 175.61 70.2682C175.256 69.6306 175.484 68.8246 176.126 68.4711L198.068 56.3042C198.706 55.9508 199.513 56.182 199.866 56.8196C200.22 57.4572 199.992 58.2632 199.351 58.6167L177.409 70.7835C177.204 70.8959 176.985 70.9487 176.767 70.9487Z" fill="#231F20"/>
<g opacity="0.25">
<path d="M176.839 72.9182C176.373 72.9182 175.923 72.6738 175.682 72.2377C175.328 71.6001 175.556 70.7941 176.198 70.4406L198.593 58.0227C199.231 57.6692 200.038 57.8972 200.392 58.538C200.745 59.1756 200.517 59.9817 199.876 60.3352L177.481 72.7531C177.276 72.8654 177.058 72.9182 176.839 72.9182Z" fill="#231F20"/>
</g>
<path d="M41.0272 48.377C41.9977 45.1563 46.9206 28.3109 42.76 20.5375C41.7694 18.6889 40.2448 18.0447 40.2448 18.0447C36.5241 16.0049 32.5247 19.5444 31.8565 20.155C31.1983 18.2997 29.2775 13.5491 25.3083 11.3113C17.9072 7.13772 11.2952 13.6195 10.2576 20.9199C9.11923 28.9283 12.2993 31.4378 12.2993 31.4378C10.2677 30.4749 7.99765 31.619 6.99696 34.105C6.00298 36.5776 6.54027 39.6877 8.25958 41.3886C5.37503 44.2504 4.21987 48.7897 5.27093 52.403C6.06343 55.1373 7.87676 56.4994 8.54165 56.9456C8.72634 58.1568 9.3778 61.542 11.537 63.2496C14.5727 65.6518 19.6198 63.9844 22.8469 58.1568" fill="url(#paint0_radial_1147_5062)"/>
<path d="M173.972 41.7352C172.458 38.7291 163.653 23.6418 166.407 15.2678C167.061 13.275 169.503 11.725 169.503 11.725C172.814 9.07118 177.367 11.8692 178.13 12.3557C178.459 10.4132 179.526 5.4042 183.049 2.51557C189.617 -2.87252 198.305 1.32455 200.588 8.33644C203.093 16.0294 199.342 20.0956 199.342 20.0956C201.179 18.7972 204.44 18.3611 205.853 20.6391C207.26 22.9037 206.438 27.2283 205.041 29.201C208.375 31.5227 210.333 34.1664 209.923 37.9038C209.614 40.7321 206.371 42.7685 205.79 43.3255C205.816 44.55 206.874 48.0627 205.041 50.1193C202.465 53.0113 197.754 53.4172 193.57 48.2371" fill="url(#paint1_radial_1147_5062)"/>
<path d="M22.0388 54.0283C15.5142 78.2143 11.4577 107.822 15.306 140.801C18.8957 171.543 22.472 186.681 34.7893 201.946C61.3748 234.898 106.188 235.475 113.679 235.573C121.782 235.677 165.89 236.247 193.08 204.999C218.645 175.619 213.373 135.903 208.883 101.773C205.632 77.0837 196.979 43.1246 186.616 33.9555C168.755 18.1536 149.221 34.9452 107.168 37.75C65.7335 40.5111 42.6135 26.5712 28.2848 42.2356C26.3337 44.366 24.0201 46.6675 22.0388 54.0249V54.0283Z" fill="url(#paint2_radial_1147_5062)"/>
<path d="M46.0461 65.061C46.3517 64.4974 47.6949 63.152 47.6949 63.152C54.3673 56.6669 62.712 56.1234 65.8451 55.9187C82.0442 54.8585 103.529 71.3617 116.612 70.6202C129.695 69.8754 149.168 51.0439 165.384 50.2589C168.52 50.1079 176.872 49.702 184.239 55.3886C184.756 55.7711 185.435 56.318 186.157 57.0393C196.543 67.3961 193.239 90.7802 185.455 103.68C172.731 124.763 142.868 126.393 120.356 127.625C99.4119 128.769 61.6643 131.248 48.2355 108.377C38.1782 91.2466 40.9788 74.361 46.0461 65.0644V65.061Z" fill="#005781"/>
<path d="M46.9699 61.9096C47.2755 61.346 48.6187 60.0007 48.6187 60.0007C55.2911 53.5155 63.6358 52.972 66.7689 52.7673C82.968 51.7072 104.453 68.2103 117.536 67.4688C130.618 66.724 150.092 47.8926 166.308 47.1075C169.444 46.9565 177.795 46.5506 185.163 52.2373C185.68 52.6197 186.358 53.1666 187.08 53.8879C197.467 64.2447 194.163 87.6289 186.379 100.529C173.655 121.611 143.792 123.242 121.28 124.473C100.336 125.617 62.5881 128.097 49.1594 105.226C39.1021 88.0952 41.9027 71.2096 46.9699 61.913V61.9096Z" fill="#FDDA8F"/>
<path d="M158.066 94.4716C168.202 94.4716 176.418 86.2628 176.418 76.1367C176.418 66.0106 168.202 57.8018 158.066 57.8018C147.931 57.8018 139.715 66.0106 139.715 76.1367C139.715 86.2628 147.931 94.4716 158.066 94.4716Z" fill="#1B64A6"/>
<path d="M158.062 90.7105C166.118 90.7105 172.649 84.1855 172.649 76.1365C172.649 68.0875 166.118 61.5625 158.062 61.5625C150.006 61.5625 143.475 68.0875 143.475 76.1365C143.475 84.1855 150.006 90.7105 158.062 90.7105Z" fill="#34282A"/>
<path opacity="0.15" d="M156.794 83.9773C162.777 83.9773 167.627 79.1317 167.627 73.1542C167.627 67.1767 162.777 62.3311 156.794 62.3311C150.811 62.3311 145.961 67.1767 145.961 73.1542C145.961 79.1317 150.811 83.9773 156.794 83.9773Z" fill="white"/>
<path opacity="0.2" d="M175.987 92.97C176.729 91.5777 181.239 82.7541 177.461 72.5885C174.432 64.436 167.991 60.5811 166.185 59.5813C163.932 58.3031 159.758 56.3639 154.291 56.2532C143.703 56.0351 136.644 62.8423 135.207 64.2917C136.191 67.1602 142.578 84.8812 160.137 91.0744C166.309 93.2518 171.974 93.3357 175.987 92.97Z" fill="white"/>
<path d="M82.7755 100.01C92.9108 100.01 101.127 91.8009 101.127 81.6748C101.127 71.5487 92.9108 63.3398 82.7755 63.3398C72.6401 63.3398 64.4238 71.5487 64.4238 81.6748C64.4238 91.8009 72.6401 100.01 82.7755 100.01Z" fill="#1B64A6"/>
<path d="M82.7748 96.2486C90.8311 96.2486 97.3621 89.7236 97.3621 81.6746C97.3621 73.6256 90.8311 67.1006 82.7748 67.1006C74.7185 67.1006 68.1875 73.6256 68.1875 81.6746C68.1875 89.7236 74.7185 96.2486 82.7748 96.2486Z" fill="#34282A"/>
<path opacity="0.15" d="M79.9834 88.1072C85.9663 88.1072 90.8164 83.2615 90.8164 77.2841C90.8164 71.3066 85.9663 66.4609 79.9834 66.4609C74.0005 66.4609 69.1504 71.3066 69.1504 77.2841C69.1504 83.2615 74.0005 88.1072 79.9834 88.1072Z" fill="white"/>
<path opacity="0.2" d="M99.1764 97.096C99.9185 95.7036 104.428 86.8801 100.651 76.7145C97.6216 68.5619 91.1809 64.7071 89.3743 63.7073C87.1211 62.429 82.947 60.4899 77.4802 60.3791C66.8923 60.1611 59.8337 66.9683 58.3965 68.4177C59.3804 71.2862 65.7674 89.0071 83.3265 95.2004C89.4986 97.3778 95.1636 97.4616 99.1764 97.096Z" fill="white"/>
<path d="M154.729 105.423C141.407 105.423 130.208 94.9927 129.443 81.5393C129.056 74.7857 131.33 68.2871 135.836 63.2412C140.343 58.1954 146.548 55.2027 153.308 54.8203C167.264 54.0218 179.259 64.7208 180.051 78.6607C180.438 85.4143 178.164 91.9128 173.658 96.9587C169.151 102.005 162.946 104.997 156.186 105.38C155.699 105.407 155.212 105.42 154.729 105.42V105.423ZM154.772 57.464C154.336 57.464 153.896 57.4774 153.456 57.5009C147.415 57.8431 141.867 60.517 137.838 65.0294C133.808 69.5419 131.78 75.3493 132.122 81.3883C132.465 87.4239 135.145 92.9663 139.658 96.9923C144.174 101.018 149.987 103.045 156.031 102.702C168.507 101.995 178.077 91.2788 177.365 78.815C177.023 72.7794 174.346 67.237 169.83 63.2111C165.642 59.4803 160.34 57.464 154.772 57.464Z" fill="#231F20"/>
<path d="M78.4847 109.758C72.2589 109.758 66.3252 107.503 61.6441 103.329C56.5937 98.827 53.5983 92.627 53.2155 85.8735C52.4196 71.9336 63.125 59.9463 77.0776 59.1545C83.834 58.7687 90.3419 61.04 95.3924 65.5424C100.443 70.0447 103.438 76.2447 103.821 82.9983C104.617 96.9382 93.9115 108.926 79.9588 109.717C79.4652 109.744 78.9749 109.758 78.4847 109.758ZM78.5485 61.7949C78.1119 61.7949 77.672 61.8083 77.2321 61.8318C71.191 62.174 65.6435 64.8512 61.6139 69.3603C57.5843 73.8728 55.556 79.6802 55.8985 85.7192C56.2411 91.7548 58.9208 97.2972 63.434 101.323C67.9505 105.349 73.7633 107.372 79.8077 107.033C85.8488 106.691 91.3963 104.017 95.4259 99.5048C99.4556 94.9923 101.484 89.1849 101.141 83.1459C100.799 77.1103 98.1224 71.5679 93.6059 67.5419C89.4184 63.8112 84.1161 61.7949 78.5485 61.7949Z" fill="#231F20"/>
<path d="M102.932 81.3941C102.516 81.3941 102.106 81.2029 101.844 80.8406C101.411 80.24 101.545 79.4013 102.143 78.9651C104.342 77.3749 109.003 74.6305 115.494 74.1407C122.466 73.6106 127.771 75.9322 130.313 77.3648C130.958 77.7272 131.19 78.5458 130.824 79.1933C130.461 79.8374 129.642 80.0689 128.994 79.7032C126.717 78.4216 121.955 76.3449 115.696 76.818C109.863 77.2575 105.686 79.7167 103.714 81.1425C103.476 81.3136 103.201 81.3975 102.929 81.3975L102.932 81.3941Z" fill="#231F20"/>
<path d="M54.2973 82.6324C54.1395 82.6324 53.9783 82.6055 53.8205 82.5451L18.2724 69.0447C17.5806 68.7797 17.2314 68.0047 17.4933 67.3136C17.7586 66.6224 18.5309 66.2735 19.226 66.5352L54.7742 80.0356C55.4659 80.3007 55.8151 81.0757 55.5532 81.7668C55.3484 82.3036 54.838 82.6324 54.2973 82.6324Z" fill="#231F20"/>
<path d="M56.3646 117.587C63.3692 117.189 68.8756 113.851 68.6636 110.133C68.4517 106.415 62.6015 103.723 55.5969 104.122C48.5924 104.521 43.0859 107.858 43.2979 111.576C43.5099 115.295 49.36 117.986 56.3646 117.587Z" fill="#F36C21"/>
<path d="M183.081 110.376C190.086 109.978 195.592 106.64 195.38 102.922C195.168 99.2036 189.318 96.5125 182.314 96.9111C175.309 97.3097 169.803 100.647 170.015 104.365C170.227 108.084 176.077 110.775 183.081 110.376Z" fill="#F36C21"/>
<path d="M164.467 72.6409C166.967 72.4986 168.854 69.9539 168.684 66.957C168.513 63.9602 166.348 61.6461 163.848 61.7883C161.349 61.9306 159.461 64.4753 159.632 67.4722C159.802 70.469 161.967 72.7831 164.467 72.6409Z" fill="white"/>
<path d="M89.7092 78.3957C92.2088 78.2535 94.0967 75.7088 93.9258 72.7119C93.755 69.7151 91.5901 67.401 89.0905 67.5432C86.5908 67.6855 84.703 70.2302 84.8738 73.227C85.0447 76.2239 87.2095 78.538 89.7092 78.3957Z" fill="white"/>
<path d="M106.658 97.8513C108.347 96.6268 111.672 94.5635 116.373 93.7482C121.625 92.839 125.853 93.9663 127.864 94.6473C126.135 102.454 124.405 110.265 122.673 118.072C122.525 118.736 121.662 118.91 121.266 118.357C118.183 114.717 115.003 110.61 111.86 106.014C109.952 103.223 108.223 100.492 106.658 97.8513Z" fill="#F36C21"/>
<mask id="mask0_1147_5062" style="mask-type:luminance" maskUnits="userSpaceOnUse" x="48" y="161" width="141" height="76">
<path d="M121.099 161.772C173.585 161.44 193.431 207.068 187.977 211.688C185.684 213.627 178.229 221.561 164.538 227.157C147.11 234.28 131.808 236.206 121.327 236.763C106.669 237.538 74.9863 235.411 48.6493 216.593C44.2435 213.446 85.1914 162.004 121.102 161.776L121.099 161.772Z" fill="white"/>
</mask>
<g mask="url(#mask0_1147_5062)">
<path d="M22.0349 54.0263C15.5103 78.2123 11.4538 107.82 15.3021 140.799C18.8918 171.541 22.4681 186.679 34.7854 201.944C61.3709 234.896 106.184 235.473 113.676 235.571C121.779 235.675 165.886 236.245 193.076 204.997C218.641 175.617 213.369 135.901 208.879 101.771C205.629 77.0817 196.975 43.1227 186.612 33.9535C168.751 18.1516 149.217 34.9433 107.164 37.748C65.7296 40.5092 42.6096 26.5693 28.2808 42.2336C26.3298 44.364 24.0162 46.6655 22.0349 54.023V54.0263Z" fill="#FDDA8F"/>
</g>
<path d="M154.785 102.891C148.559 102.891 142.626 100.636 137.945 96.4629C132.894 91.9605 129.899 85.7605 129.516 79.0069C128.723 65.067 139.429 53.0797 153.378 52.2879C160.134 51.8988 166.642 54.1734 171.693 58.6758C176.743 63.1782 179.739 69.3782 180.121 76.1317C180.914 90.0716 170.209 102.059 156.259 102.851C155.766 102.878 155.275 102.891 154.785 102.891ZM132.196 78.856C132.908 91.3197 143.64 100.875 156.105 100.17C168.58 99.4622 178.15 88.7464 177.438 76.2827C177.096 70.2471 174.416 64.7047 169.903 60.6787C165.386 56.6527 159.574 54.6263 153.529 54.9686C141.057 55.6765 131.487 66.3956 132.196 78.856Z" fill="#231F20"/>
<path d="M78.5782 111.757C65.2569 111.757 54.0579 101.327 53.2922 87.8732C52.906 81.1197 55.1794 74.6211 59.6859 69.5752C64.1924 64.5293 70.398 61.5367 77.1577 61.1542C91.1104 60.3558 103.109 71.0548 103.901 84.9947C104.287 91.7482 102.014 98.2468 97.5074 103.293C93.0009 108.339 86.7953 111.331 80.0356 111.714C79.5487 111.741 79.0617 111.754 78.5782 111.754V111.757ZM78.6218 63.798C78.1853 63.798 77.7454 63.8114 77.3055 63.8349C71.2644 64.1771 65.7169 66.851 61.6873 71.3634C57.6577 75.8759 55.6294 81.6833 55.9719 87.7223C56.3144 93.7579 58.9942 99.3003 63.5073 103.326C68.0239 107.352 73.8333 109.375 79.8811 109.036C92.3562 108.329 101.927 97.6127 101.215 85.149C100.872 79.1134 98.1958 73.571 93.6793 69.545C89.4918 65.8143 84.1895 63.798 78.6218 63.798Z" fill="#231F20"/>
<path d="M103.009 86.4147C102.592 86.4147 102.183 86.2234 101.921 85.8611C101.484 85.2605 101.618 84.4218 102.219 83.9857C104.419 82.392 109.08 79.651 115.574 79.1612C122.549 78.6311 127.851 80.9528 130.393 82.3853C131.038 82.7477 131.27 83.5663 130.904 84.2138C130.541 84.8579 129.722 85.0894 129.074 84.7237C126.797 83.4421 122.042 81.3654 115.776 81.8385C109.94 82.278 105.766 84.7372 103.794 86.163C103.556 86.3341 103.281 86.418 103.009 86.418V86.4147Z" fill="#231F20"/>
<path d="M54.3715 84.6333C54.2137 84.6333 54.0525 84.6065 53.8947 84.5461L18.3466 71.0457C17.6548 70.7807 17.3056 70.0057 17.5675 69.3145C17.8328 68.6234 18.6051 68.2745 19.3003 68.5362L54.8484 82.0366C55.5401 82.3016 55.8894 83.0766 55.6274 83.7678C55.4226 84.3046 54.9122 84.6333 54.3715 84.6333Z" fill="#231F20"/>
<path d="M104.562 201.935C101.54 201.935 98.6184 200.16 97.1644 197.319C96.8689 196.741 97.0972 196.034 97.6748 195.738C98.2524 195.443 98.961 195.671 99.2565 196.248C100.452 198.58 102.991 199.925 105.439 199.513C107.46 199.174 109.173 197.694 109.905 195.658C110.126 195.047 110.801 194.732 111.409 194.95C112.02 195.171 112.336 195.842 112.118 196.453C111.094 199.288 108.686 201.348 105.828 201.828C105.408 201.898 104.985 201.932 104.562 201.932V201.935Z" fill="#005781"/>
<path d="M124.082 199.214C121.268 199.214 118.726 197.402 117.752 194.702C117.53 194.091 117.849 193.42 118.461 193.199C119.072 192.981 119.743 193.296 119.965 193.907C120.603 195.678 122.259 196.866 124.082 196.866C126.07 196.866 127.863 195.42 128.34 193.427C128.491 192.796 129.126 192.407 129.757 192.558C130.388 192.709 130.778 193.343 130.627 193.974C129.898 197.01 127.145 199.214 124.082 199.214Z" fill="#005781"/>
<path d="M140.858 199.739C139.488 199.739 138.098 199.309 136.906 198.501C135.223 197.36 134.092 195.622 133.719 193.606C133.601 192.968 134.021 192.355 134.659 192.237C135.297 192.12 135.912 192.539 136.029 193.176C136.288 194.569 137.067 195.77 138.225 196.555C139.26 197.259 140.502 197.535 141.63 197.313C143.682 196.907 145.254 194.955 145.365 192.67C145.395 192.022 145.935 191.516 146.597 191.553C147.245 191.583 147.745 192.136 147.715 192.784C147.554 196.132 145.187 199.007 142.087 199.618C141.684 199.699 141.271 199.735 140.858 199.735V199.739Z" fill="#005781"/>
<path d="M115.042 219.606C114.152 219.606 113.215 219.439 112.275 219.103C110.058 218.311 108.05 216.651 106.62 214.433C106.267 213.89 106.425 213.162 106.969 212.809C107.513 212.457 108.242 212.615 108.594 213.158C110.982 216.862 114.904 218.033 116.926 216.768C118.393 215.852 118.699 213.641 118.759 212.987C118.816 212.343 119.387 211.867 120.035 211.924C120.683 211.981 121.16 212.551 121.1 213.198C120.992 214.386 120.495 217.312 118.171 218.761C117.275 219.321 116.197 219.603 115.038 219.603L115.042 219.606Z" fill="#005781"/>
<path d="M136.353 216.945C135.631 216.945 134.913 216.834 134.218 216.602C130.829 215.468 129.553 211.822 129.332 211.1C129.14 210.48 129.49 209.822 130.111 209.634C130.732 209.443 131.39 209.792 131.578 210.413C131.679 210.735 132.616 213.593 134.963 214.378C138.093 215.425 141.528 212.734 142.777 209.564C143.016 208.96 143.697 208.665 144.302 208.903C144.906 209.141 145.202 209.822 144.963 210.426C143.409 214.371 139.836 216.948 136.35 216.948L136.353 216.945Z" fill="#005781"/>
<g style="mix-blend-mode:multiply" opacity="0.28">
<path d="M201.21 193.662C198.933 197.577 196.244 201.372 193.084 205.002C165.894 236.25 121.786 235.68 113.686 235.576C106.191 235.478 61.3785 234.898 34.7963 201.949C22.4757 186.68 18.8994 171.546 15.313 140.801C15.0242 138.315 14.7791 135.849 14.5742 133.403C23.0969 145.659 46.4151 175.666 88.9311 192.115C141.864 212.594 188.453 198.107 201.21 193.662Z" fill="#005781"/>
</g>
<path d="M86.0971 217.838C83.7901 217.707 80.7645 220.009 77.7154 222.72C71.6005 228.158 70.489 235.157 70.0591 237.643C69.9013 240.83 71.9934 243.443 74.9988 243.517C78.1318 243.594 80.8485 240.83 80.6369 237.505C81.7921 243.702 86.0299 246.963 88.4779 246.359C90.6271 245.829 92.4136 242.065 92.0778 237.418C92.615 241.444 96.2384 243.598 98.7401 242.83C100.604 242.256 101.648 239.555 101.191 236.539C100.52 233.848 99.6535 229.473 95.2175 224.595C91.9233 220.972 88.6458 217.979 86.0971 217.835V217.838Z" fill="#F36C21"/>
<path d="M167.355 218.664C165.048 218.533 162.022 220.834 158.973 223.545C152.858 228.983 151.747 235.982 151.317 238.468C151.159 241.655 153.251 244.269 156.257 244.342C159.39 244.42 162.106 241.655 161.895 238.33C163.05 244.527 167.288 247.788 169.736 247.184C171.885 246.654 173.671 242.89 173.336 238.243C173.873 242.269 177.496 244.423 179.998 243.655C181.862 243.081 182.906 240.38 182.449 237.364C181.778 234.673 180.911 230.299 176.475 225.42C173.181 221.797 169.904 218.804 167.355 218.66V218.664Z" fill="#F36C21"/>
<path d="M187.034 132.152L187.001 132.188L141.847 173.004C133.106 180.924 120.435 180.924 111.694 173.004L66.5234 132.152L111.694 110.765C118.854 107.356 133.888 106.651 141.847 110.765L187.034 132.152Z" fill="url(#paint3_linear_1147_5062)"/>
<path d="M160.861 117.438H92.7021C85.9782 117.438 80.5273 123.122 80.5273 130.132V182.252C80.5273 189.262 85.9782 194.946 92.7021 194.946H160.861C167.585 194.946 173.036 189.262 173.036 182.252V130.132C173.036 123.122 167.585 117.438 160.861 117.438Z" fill="white"/>
<path d="M193.54 139.212V206.674C193.54 210.683 190.292 213.947 186.303 213.947H67.2634C63.2745 213.947 60.0273 210.683 60.0273 206.674V139.212C60.0273 135.203 63.2745 131.939 67.2634 131.939H67.6425L112.361 169.199C121.014 176.422 133.558 176.422 142.211 169.199L186.913 131.973C190.622 132.271 193.54 135.402 193.54 139.212Z" fill="url(#paint4_linear_1147_5062)"/>
<path d="M128.533 159.941C125.732 159.941 123.195 159.547 120.923 158.758C118.662 157.969 116.715 156.865 115.081 155.445C113.459 154.025 112.212 152.356 111.34 150.439C110.467 148.509 110.031 146.404 110.031 144.122C110.031 141.78 110.486 139.626 111.395 137.66C112.304 135.693 113.57 133.982 115.191 132.526C116.813 131.07 118.717 129.941 120.904 129.14C123.091 128.339 125.456 127.938 127.999 127.938C130.37 127.938 132.508 128.284 134.412 128.976C136.329 129.656 137.963 130.614 139.314 131.852C140.678 133.09 141.722 134.534 142.447 136.185C143.172 137.823 143.534 139.589 143.534 141.482C143.534 143.121 143.282 144.577 142.779 145.851C142.275 147.126 141.593 148.206 140.733 149.092C139.885 149.966 138.927 150.633 137.858 151.094C136.802 151.555 135.714 151.786 134.596 151.786C133.478 151.786 132.545 151.574 131.795 151.149C131.046 150.712 130.561 150.123 130.339 149.383L130.118 148.8C129.701 149.626 129.135 150.33 128.423 150.912C127.71 151.495 126.758 151.786 125.566 151.786C124.424 151.786 123.374 151.501 122.415 150.93C121.457 150.348 120.695 149.541 120.13 148.509C119.565 147.478 119.282 146.282 119.282 144.923C119.282 143.697 119.516 142.55 119.983 141.482C120.45 140.402 121.095 139.456 121.918 138.643C122.753 137.829 123.699 137.192 124.756 136.731C125.824 136.258 126.955 136.021 128.146 136.021C129.793 136.021 131.089 136.507 132.035 137.477C132.993 138.436 133.472 139.88 133.472 141.81V146.58C133.472 147.247 133.577 147.726 133.786 148.018C134.007 148.297 134.332 148.436 134.762 148.436C135.327 148.436 135.954 148.188 136.642 147.69C137.33 147.192 137.92 146.434 138.411 145.414C138.903 144.395 139.148 143.109 139.148 141.555C139.148 139.674 138.724 137.999 137.877 136.531C137.029 135.062 135.788 133.909 134.154 133.072C132.52 132.223 130.53 131.798 128.183 131.798C126.144 131.798 124.283 132.125 122.6 132.781C120.916 133.424 119.461 134.328 118.232 135.493C117.016 136.658 116.076 138.024 115.412 139.589C114.749 141.143 114.417 142.836 114.417 144.668C114.417 146.962 114.964 148.995 116.057 150.767C117.151 152.538 118.748 153.928 120.849 154.935C122.95 155.943 125.511 156.446 128.533 156.446V159.941ZM126.304 148.327C127.164 148.327 127.87 148.084 128.423 147.599C128.988 147.101 129.516 146.398 130.008 145.487V141.846C130.008 141.094 129.866 140.487 129.584 140.026C129.301 139.565 128.785 139.334 128.036 139.334C127.311 139.334 126.574 139.565 125.824 140.026C125.075 140.487 124.448 141.136 123.945 141.974C123.441 142.799 123.189 143.764 123.189 144.868C123.189 146.033 123.484 146.901 124.074 147.472C124.676 148.042 125.419 148.327 126.304 148.327Z" fill="#F36C21"/>
<path d="M16.7458 130.386C24.1872 128.822 31.6286 127.259 39.07 125.695C44.5369 136.911 53.9158 152.874 69.4366 168.428C86.8984 185.927 104.891 195.657 117.09 200.967L119.122 199.038L118.531 202.524C118.524 202.564 118.521 202.605 118.511 202.645V202.658H118.508C118.464 202.819 118.39 202.974 118.272 203.108C100.472 223.768 74.5879 233.205 53.0629 226.391C22.0683 216.582 0.842159 173.312 16.7458 130.386Z" fill="#005781"/>
<path d="M37.2068 122.343C42.8315 133.548 52.4892 149.495 68.4902 165.025C86.8654 182.86 105.835 192.596 118.431 197.806C119.163 198.108 119.374 199.041 118.847 199.631C100.422 220.315 73.6784 229.792 51.4684 223.022C19.473 213.269 -2.36759 170.034 14.1371 127.077C21.827 125.5 29.5136 123.923 37.2034 122.343H37.2068Z" fill="url(#paint5_radial_1147_5062)"/>
<path d="M80.7298 204.44C75.8842 204.44 71.0083 202.578 67.385 199.113C62.3581 194.302 60.6488 187.404 62.7308 181.422C59.8295 182.472 55.7058 183.274 51.6661 181.653C47.7036 180.066 44.4094 176.389 42.6296 171.568C40.9002 166.888 40.7626 161.574 42.2132 156.454C40.2555 156.223 37.3273 155.478 34.7416 153.217C31.266 150.18 29.7146 145.544 30.6885 141.115C30.8295 140.481 31.4507 140.082 32.0888 140.219C32.7234 140.36 33.123 140.984 32.9854 141.619C32.1962 145.208 33.4622 148.973 36.293 151.445C39.1306 153.925 42.4785 154.196 43.7881 154.2H45.4336L44.8963 155.756C41.1487 166.603 45.8265 176.775 52.5459 179.469C57.4016 181.415 62.5797 179.107 64.5811 178.023L68.3992 175.957L66.1459 179.664C62.7509 185.247 63.933 192.544 69.017 197.408C73.7015 201.891 80.7634 203.32 86.5862 200.971C87.1873 200.726 87.8724 201.018 88.1175 201.619C88.3593 202.219 88.0705 202.904 87.4694 203.149C85.3236 204.014 83.0335 204.434 80.7399 204.434L80.7298 204.44Z" fill="#005781"/>
<path d="M64.2624 213.848C60.2194 213.848 53.4932 212.888 48.708 207.275C45.2929 203.273 44.4064 198.72 44.2284 195.825C30.484 194.751 19.8659 187.753 18.2306 178.574C17.6899 175.534 18.1701 172.3 19.6611 168.958C19.9264 168.364 20.6215 168.099 21.2125 168.365C21.8069 168.63 22.0721 169.324 21.8069 169.914C20.5107 172.82 20.0875 175.594 20.5442 178.164C22.005 186.371 32.472 192.842 45.4306 193.554L46.532 193.614L46.5421 194.718C46.5623 197.13 47.0995 201.77 50.4979 205.756C56.7505 213.086 66.8783 211.358 67.3082 211.281C67.9462 211.164 68.5574 211.59 68.6749 212.227C68.7891 212.865 68.366 213.475 67.7279 213.593C67.5701 213.62 66.237 213.851 64.2658 213.851L64.2624 213.848Z" fill="#005781"/>
<path d="M149.24 200.174C149.213 200.107 149.193 200.04 149.179 199.969L148.303 196.936L150.69 198.147C160.18 191.535 173.706 180.078 186.037 161.26C197.223 144.186 203.301 127.344 206.645 115.629C208.015 114.095 209.389 112.565 210.759 111.032C236.941 161.286 226.934 206.78 205.571 217.18C185.59 226.91 156.15 205.71 149.589 200.654C149.434 200.533 149.324 200.382 149.253 200.217L149.24 200.174Z" fill="#005781"/>
<path d="M205.792 112.756C202.447 124.472 196.369 141.314 185.183 158.387C172.393 177.913 158.309 189.515 148.786 196.003C148.168 196.423 148.144 197.325 148.735 197.782C155.3 202.838 184.737 224.038 204.717 214.308C226.081 203.908 236.088 158.414 209.905 108.16C208.535 109.693 207.162 111.223 205.792 112.756Z" fill="url(#paint6_radial_1147_5062)"/>
<path d="M172.961 199.234C171.342 199.234 169.71 198.992 168.118 198.492C167.5 198.298 167.154 197.637 167.349 197.019C167.544 196.402 168.206 196.06 168.823 196.251C174.247 197.959 180.257 196.147 183.777 191.745C187.618 186.941 187.689 180.191 183.948 175.33L181.141 171.686L185.352 173.541C187.256 174.38 192.118 176.101 196.107 173.991C201.655 171.055 204.412 161.437 199.67 151.798L198.911 150.254L200.624 150.11C201.762 150.013 204.644 149.526 206.786 147.094C208.938 144.652 209.553 141.139 208.384 137.928C208.163 137.318 208.478 136.643 209.09 136.425C209.701 136.204 210.372 136.519 210.594 137.13C212.055 141.149 211.269 145.564 208.549 148.651C206.588 150.875 204.16 151.808 202.431 152.2C204.355 156.766 204.916 161.618 204.002 166.016C203.045 170.626 200.567 174.29 197.206 176.071C193.921 177.809 190.281 177.487 187.571 176.792C190.073 182.1 189.411 188.468 185.61 193.218C182.521 197.08 177.799 199.24 172.957 199.24L172.961 199.234Z" fill="#005781"/>
<path d="M186.829 201.875C185.093 201.875 183.856 201.627 183.714 201.598C183.089 201.469 182.686 200.854 182.818 200.23C182.947 199.606 183.562 199.206 184.187 199.335C184.28 199.355 186.511 199.807 189.134 199.388C192.361 198.872 194.692 197.297 196.057 194.703C197.922 191.169 197.393 186.96 196.914 184.766L196.623 183.432L197.985 183.362C203.854 183.065 208.688 181.096 211.598 177.819C213.589 175.576 214.534 172.847 214.329 169.93C214.164 167.562 213.238 164.988 211.575 162.283C211.241 161.738 211.41 161.027 211.955 160.694C212.501 160.36 213.212 160.528 213.546 161.074C215.404 164.1 216.445 167.026 216.637 169.768C216.885 173.32 215.741 176.633 213.327 179.352C210.229 182.844 205.322 185.031 199.417 185.579C199.833 188.242 199.969 192.239 198.101 195.78C195.373 200.954 190.175 201.872 186.826 201.872L186.829 201.875Z" fill="#005781"/>
</g>
<defs>
<filter id="filter0_d_1147_5062" x="0.888672" y="0.0654297" width="229.549" height="255.189" filterUnits="userSpaceOnUse" color-interpolation-filters="sRGB">
<feFlood flood-opacity="0" result="BackgroundImageFix"/>
<feColorMatrix in="SourceAlpha" type="matrix" values="0 0 0 0 0 0 0 0 0 0 0 0 0 0 0 0 0 0 127 0" result="hardAlpha"/>
<feOffset dy="4"/>
<feGaussianBlur stdDeviation="2"/>
<feComposite in2="hardAlpha" operator="out"/>
<feColorMatrix type="matrix" values="0 0 0 0 0 0 0 0 0 0 0 0 0 0 0 0 0 0 0.25 0"/>
<feBlend mode="normal" in2="BackgroundImageFix" result="effect1_dropShadow_1147_5062"/>
<feBlend mode="normal" in="SourceGraphic" in2="effect1_dropShadow_1147_5062" result="shape"/>
</filter>
<radialGradient id="paint0_radial_1147_5062" cx="0" cy="0" r="1" gradientUnits="userSpaceOnUse" gradientTransform="translate(42.162 38.8883) rotate(176.743) scale(44.2453 44.2053)">
<stop stop-color="#359BDC"/>
<stop offset="0.84" stop-color="#2174BB"/>
</radialGradient>
<radialGradient id="paint1_radial_1147_5062" cx="0" cy="0" r="1" gradientUnits="userSpaceOnUse" gradientTransform="translate(169.593 30.7133) rotate(176.743) scale(40.8403 40.8033)">
<stop stop-color="#359BDC"/>
<stop offset="0.82" stop-color="#2174BB"/>
</radialGradient>
<radialGradient id="paint2_radial_1147_5062" cx="0" cy="0" r="1" gradientUnits="userSpaceOnUse" gradientTransform="translate(112.965 23.459) rotate(-3.25704) scale(209.185 208.995)">
<stop stop-color="#359BDC"/>
<stop offset="0.7" stop-color="#2174BB"/>
</radialGradient>
<linearGradient id="paint3_linear_1147_5062" x1="126.779" y1="85.3708" x2="126.779" y2="178.954" gradientUnits="userSpaceOnUse">
<stop stop-color="#F36C21"/>
<stop offset="1" stop-color="#521D00"/>
</linearGradient>
<linearGradient id="paint4_linear_1147_5062" x1="126.783" y1="131.939" x2="126.783" y2="213.947" gradientUnits="userSpaceOnUse">
<stop stop-color="#F36C21"/>
<stop offset="1" stop-color="#622300"/>
</linearGradient>
<radialGradient id="paint5_radial_1147_5062" cx="0" cy="0" r="1" gradientUnits="userSpaceOnUse" gradientTransform="translate(99.5285 150.239) rotate(176.743) scale(95.173 95.0869)">
<stop stop-color="#359BDC"/>
<stop offset="0.89" stop-color="#2174BB"/>
</radialGradient>
<radialGradient id="paint6_radial_1147_5062" cx="0" cy="0" r="1" gradientUnits="userSpaceOnUse" gradientTransform="translate(128.676 157.635) rotate(-3.25704) scale(80.0445 99.9651)">
<stop stop-color="#359BDC"/>
<stop offset="0.94" stop-color="#2174BB"/>
</radialGradient>
</defs>
</svg>
