<svg width="218" height="164" viewBox="0 0 218 164" fill="none" xmlns="http://www.w3.org/2000/svg">
<path d="M23.1303 60.7643C29.64 56.306 32.2828 50.0171 30.4652 46.4568C28.8726 43.3381 23.9663 42.4207 22.1486 42.2107C10.7241 40.8839 3.24343 48.4652 0.806334 54.0596C0.386218 55.0199 0.283333 57.2448 0.266185 59.9605C0.126861 83.6263 26.024 104.93 26.024 104.93C30.5359 109.071 37.6822 114.914 47.7178 120.369C46.8668 103.04 46.018 85.7098 45.1671 68.38C42.0055 68.2643 37.4228 67.7241 32.2936 65.7521C28.3839 64.2496 25.3274 62.3655 23.1282 60.7643H23.1303Z" fill="#005781"/>
<path d="M23.1761 59.9174C29.5357 55.249 31.9728 48.8765 30.0394 45.3784C28.3461 42.3133 23.4119 41.5567 21.5878 41.4045C10.1247 40.4528 2.89695 48.2721 0.644189 53.9436C0.256225 54.9189 0.226217 57.146 0.299094 59.8596C0.933554 83.5168 27.5123 103.963 27.5123 103.963C32.1571 107.954 39.4899 113.561 49.7012 118.686C48.2844 101.393 46.8698 84.0998 45.4529 66.8065C42.2892 66.7936 37.6915 66.4035 32.5001 64.6009C28.5433 63.2269 25.4267 61.4436 23.1761 59.9153V59.9174Z" fill="url(#paint0_radial_675_2715)"/>
<path d="M45.2404 110.359C42.3082 110.359 39.3545 109.3 37.0803 107.291C33.7494 104.35 32.4826 99.9907 33.6551 96.1174C31.831 96.8634 29.2203 97.4807 26.6053 96.5504C24.0375 95.6395 21.8426 93.3781 20.5822 90.3473C19.3583 87.4043 19.1333 84.0155 19.9263 80.7104C18.6703 80.6139 16.7862 80.2131 15.0779 78.837C12.7822 76.9872 11.6719 74.0678 12.1799 71.217C12.2528 70.8098 12.6408 70.5376 13.0502 70.6104C13.4574 70.6833 13.7296 71.0734 13.6568 71.4807C13.2452 73.7913 14.1519 76.1641 16.0188 77.6688C17.8922 79.1778 20.0357 79.2635 20.8695 79.2335L21.9197 79.1928L21.6175 80.2002C19.5084 87.2221 22.7535 93.5946 27.1069 95.14C30.2535 96.2589 33.4965 94.6492 34.7461 93.9076L37.1275 92.4907L35.7857 94.915C33.7644 98.5674 34.7054 103.195 38.0728 106.168C41.1765 108.907 45.7163 109.64 49.3709 107.99C49.7481 107.819 50.1918 107.988 50.3633 108.365C50.5347 108.742 50.3654 109.186 49.9882 109.358C48.4942 110.033 46.8695 110.361 45.2383 110.361L45.2404 110.359Z" fill="#005781"/>
<path d="M59.9632 102.072C57.6032 102.072 52.594 101.528 49.381 97.2902C47.3511 94.6131 46.9503 91.6787 46.9417 89.8246C38.2222 88.6414 31.7083 83.7929 30.9988 77.8792C30.763 75.9201 31.1874 73.8752 32.2591 71.7982C32.4499 71.4295 32.9022 71.2859 33.2708 71.4746C33.6395 71.6653 33.7831 72.1176 33.5945 72.4841C32.6621 74.2889 32.2913 76.0444 32.4906 77.6991C33.1251 82.987 39.5597 87.4947 47.7905 88.4164L48.4914 88.4957L48.4571 89.1987C48.3821 90.7377 48.5579 93.7192 50.5792 96.3835C54.2959 101.286 60.8141 100.553 61.0906 100.518C61.5022 100.467 61.8751 100.76 61.9266 101.172C61.9759 101.584 61.6843 101.957 61.2728 102.008C61.1978 102.017 60.7155 102.072 59.9674 102.072H59.9632Z" fill="#005781"/>
<path d="M148.471 33.262C147.736 31.2429 143.987 20.6757 146.358 15.5679C146.922 14.3525 147.869 13.8874 147.869 13.8874C150.165 12.4513 152.844 14.5647 153.292 14.9291C153.644 13.7224 154.696 10.6229 157.144 9.0518C161.709 6.1217 166.159 10.0163 167.085 14.6355C168.101 19.7026 166.166 21.4195 166.166 21.4173C167.426 20.7293 168.913 21.3766 169.64 22.9263C170.362 24.4675 170.133 26.4716 169.1 27.6183C171.042 29.3395 171.942 32.1924 171.404 34.5352C170.997 36.3079 169.893 37.2424 169.484 37.5511C169.409 38.3313 169.119 40.5133 167.803 41.6815C165.956 43.3255 162.678 42.4424 160.41 38.8436" fill="url(#paint1_radial_675_2715)"/>
<path d="M63.5089 33.8485C64.3642 31.8765 69.4291 21.9352 67.3714 16.6924C66.8827 15.4449 65.2708 14.5446 65.2708 14.5446C63.0652 12.9735 60.2638 14.9219 59.7943 15.2605C59.5157 14.0345 58.6519 10.8772 56.3005 9.16244C51.9193 5.96442 46.535 8.95667 45.3347 13.5115C44.0164 18.5079 46.5564 20.9664 46.5564 20.9664C45.3389 20.2033 43.2448 20.0447 42.426 21.5494C41.6115 23.0434 42.2931 25.7741 43.2555 26.9809C41.215 28.5842 40.0639 30.3397 40.4605 32.7103C40.7605 34.5044 42.9018 35.6854 43.2898 36.0177C43.3177 36.8 42.7711 39.0785 44.0143 40.3239C45.7591 42.0751 48.777 42.1629 51.257 38.7077" fill="url(#paint2_radial_675_2715)"/>
<path d="M160.776 36.1809C165.811 51.3715 169.472 70.1095 168.216 91.2867C167.045 111.026 165.316 120.811 158.019 130.994C142.274 152.977 113.738 154.971 108.964 155.305C103.805 155.665 75.7153 157.628 57.2538 138.685C39.894 120.871 41.8124 95.3464 43.4371 73.4147C44.6118 57.5489 48.8944 35.5721 55.1639 29.3497C65.9712 18.6239 79.0291 28.6252 105.931 28.8888C132.437 29.1482 146.666 19.417 156.365 28.8888C157.685 30.1771 159.243 31.5617 160.774 36.183L160.776 36.1809Z" fill="url(#paint3_radial_675_2715)"/>
<path d="M145.882 44.0876C145.665 43.7404 144.761 42.928 144.761 42.928C140.272 39.0355 134.935 38.9884 132.931 38.9712C122.569 38.8834 109.475 50.1879 101.111 50.1879C92.7477 50.1879 79.6534 38.8812 69.292 38.9712C67.2878 38.9884 61.9507 39.0334 57.4623 42.928C57.1472 43.1917 56.7357 43.5646 56.3005 44.0512C50.0567 51.0346 53.0125 65.8308 58.4397 73.7744C67.3136 86.7594 86.4031 86.7186 100.796 86.6865C114.184 86.6565 138.33 86.8687 146.057 71.7938C151.845 60.5022 149.446 49.8342 145.882 44.0876Z" fill="#005781"/>
<path d="M145.178 42.1091C144.962 41.7619 144.057 40.9495 144.057 40.9495C139.569 37.057 134.232 37.0099 132.228 36.9927C121.866 36.9048 108.772 48.2094 100.408 48.2094C92.0446 48.2094 78.9503 36.9027 68.5888 36.9927C66.5847 37.0099 61.2475 37.0549 56.7592 40.9495C56.4441 41.2132 56.0325 41.5861 55.5974 42.0727C49.3536 49.056 52.3094 63.8522 57.7366 71.7959C66.6104 84.7808 85.7 84.7401 100.093 84.708C113.481 84.678 137.627 84.8902 145.354 69.8153C151.142 58.5236 148.743 47.8557 145.178 42.1091Z" fill="#FDDA8F"/>
<path d="M134.822 61.0955C134.326 61.0955 133.842 60.8512 133.555 60.4011C132.976 59.4944 130.8 56.4957 127.082 55.9813C123.746 55.5183 120.36 57.2223 118.244 60.4203C117.788 61.1105 116.855 61.3013 116.165 60.8447C115.475 60.3882 115.284 59.4558 115.741 58.7656C118.499 54.5945 123 52.3889 127.491 53.0083C132.483 53.6985 135.33 57.606 136.084 58.787C136.53 59.4858 136.324 60.4139 135.625 60.8598C135.375 61.0184 135.096 61.0955 134.819 61.0955H134.822Z" fill="#231F20"/>
<path d="M86.095 61.0858C85.5999 61.0858 85.1154 60.8414 84.8282 60.3913C84.2495 59.4846 82.0739 56.4859 78.355 55.9715C75.0198 55.5085 71.6332 57.2126 69.5176 60.4106C69.061 61.1008 68.1286 61.2915 67.4384 60.835C66.7483 60.3784 66.5575 59.446 67.014 58.7558C69.7727 54.5847 74.276 52.3791 78.7644 52.9985C83.7565 53.6887 86.603 57.5962 87.3575 58.7773C87.8033 59.476 87.5976 60.4042 86.8988 60.85C86.648 61.0086 86.3694 61.0858 86.0929 61.0858H86.095Z" fill="#231F20"/>
<path opacity="0.15" d="M75.5944 60.183C79.4134 60.183 82.5092 57.0872 82.5092 53.2683C82.5092 49.4494 79.4134 46.3535 75.5944 46.3535C71.7755 46.3535 68.6797 49.4494 68.6797 53.2683C68.6797 57.0872 71.7755 60.183 75.5944 60.183Z" fill="white"/>
<path opacity="0.2" d="M64.0846 66.6018C63.5616 65.7401 60.3678 60.2743 62.4041 53.6554C64.0374 48.3461 68.0028 45.6539 69.1174 44.9487C70.5085 44.0506 73.0977 42.6638 76.5766 42.3937C83.3156 41.8707 88.0611 45.9561 89.03 46.8285C88.507 48.6933 85.0818 60.2293 74.1159 64.8163C70.262 66.4282 66.6545 66.6875 64.0846 66.6018Z" fill="white"/>
<path opacity="0.15" d="M124.692 60.0317C128.511 60.0317 131.607 56.9358 131.607 53.1169C131.607 49.298 128.511 46.2021 124.692 46.2021C120.873 46.2021 117.777 49.298 117.777 53.1169C117.777 56.9358 120.873 60.0317 124.692 60.0317Z" fill="white"/>
<path opacity="0.2" d="M113.182 66.4485C112.659 65.5868 109.465 60.121 111.502 53.5021C113.135 48.1927 117.1 45.5006 118.215 44.7954C119.606 43.8973 122.195 42.5105 125.674 42.2404C132.413 41.7174 137.159 45.8028 138.128 46.6752C137.605 48.54 134.179 60.076 123.214 64.663C119.36 66.2749 115.752 66.5342 113.182 66.4485Z" fill="white"/>
<path d="M77.1551 73.8006C68.2341 73.8006 60.9785 66.5429 60.9785 57.6219C60.9785 48.7009 68.2362 41.4453 77.1551 41.4453C86.074 41.4453 93.3338 48.703 93.3338 57.6219C93.3338 66.5408 86.0761 73.8006 77.1551 73.8006ZM77.1551 43.1601C69.1793 43.1601 62.6933 49.6483 62.6933 57.6219C62.6933 65.5955 69.1815 72.0859 77.1551 72.0859C85.1287 72.0859 91.6191 65.5977 91.6191 57.6219C91.6191 49.6461 85.1309 43.1601 77.1551 43.1601Z" fill="#231F20"/>
<path d="M125.892 73.8006C116.971 73.8006 109.713 66.5429 109.713 57.6219C109.713 48.7009 116.971 41.4453 125.892 41.4453C134.813 41.4453 142.07 48.703 142.07 57.6219C142.07 66.5408 134.813 73.8006 125.892 73.8006ZM125.892 43.1601C117.916 43.1601 111.428 49.6483 111.428 57.6219C111.428 65.5955 117.916 72.0859 125.892 72.0859C133.867 72.0859 140.356 65.5977 140.356 57.6219C140.356 49.6461 133.867 43.1601 125.892 43.1601Z" fill="#231F20"/>
<path d="M93.0882 56.5705C92.8053 56.5705 92.5288 56.4312 92.3659 56.1761C92.1108 55.7774 92.2266 55.248 92.6252 54.9908C94.1942 53.9876 97.4887 52.305 101.951 52.3972C106.108 52.4744 109.177 54.0562 110.637 54.9908C111.035 55.2458 111.151 55.7774 110.896 56.1761C110.641 56.5748 110.109 56.6905 109.711 56.4354C108.403 55.5974 105.653 54.1827 101.919 54.1119C97.911 54.0391 94.9552 55.5352 93.5491 56.4354C93.4054 56.5276 93.2468 56.5705 93.0882 56.5705Z" fill="#231F20"/>
<path d="M141.213 55.5956C140.885 55.5956 140.572 55.407 140.43 55.0876C140.237 54.6546 140.43 54.1488 140.863 53.9558L163.026 44.0553C163.459 43.8624 163.965 44.0553 164.158 44.4882C164.351 44.9212 164.158 45.4271 163.725 45.62L141.562 55.5206C141.448 55.572 141.331 55.5956 141.213 55.5956Z" fill="#231F20"/>
<path d="M62.2635 54.7948C62.1392 54.7948 62.0106 54.7669 61.8906 54.7091L47.2401 47.6357C46.8136 47.4299 46.6357 46.9176 46.8414 46.4911C47.0472 46.0645 47.5595 45.8866 47.986 46.0924L62.6365 53.1658C63.063 53.3716 63.2409 53.8838 63.0352 54.3104C62.8873 54.6169 62.5808 54.7948 62.2635 54.7948Z" fill="#231F20"/>
<path d="M141.21 77.9672C145.689 77.9672 149.319 76.0383 149.319 73.6589C149.319 71.2795 145.689 69.3506 141.21 69.3506C136.732 69.3506 133.102 71.2795 133.102 73.6589C133.102 76.0383 136.732 77.9672 141.21 77.9672Z" fill="#F36C21"/>
<path d="M60.1985 77.9672C64.6768 77.9672 68.3072 76.0383 68.3072 73.6589C68.3072 71.2795 64.6768 69.3506 60.1985 69.3506C55.7202 69.3506 52.0898 71.2795 52.0898 73.6589C52.0898 76.0383 55.7202 77.9672 60.1985 77.9672Z" fill="#F36C21"/>
<path d="M108.446 67.2009C107.325 66.4828 105.133 65.2846 102.108 64.9374C98.728 64.5473 96.0744 65.4197 94.8184 65.9277C96.2052 70.8447 97.5898 75.7639 98.9766 80.681C99.0945 81.099 99.6518 81.1804 99.8833 80.8117C101.716 78.3789 103.594 75.6439 105.431 72.5959C106.545 70.7461 107.548 68.9413 108.449 67.2009H108.446Z" fill="#F36C21"/>
<mask id="mask0_675_2715" style="mask-type:luminance" maskUnits="userSpaceOnUse" x="60" y="108" width="90" height="49">
<path d="M101.557 108.498C68.0957 110.189 57.1062 140.015 60.7501 142.761C62.2805 143.916 67.3197 148.705 76.2493 151.779C87.6139 155.69 97.4352 156.363 104.136 156.338C113.505 156.301 133.619 153.793 149.72 140.836C152.415 138.669 124.451 107.341 101.559 108.498H101.557Z" fill="white"/>
</mask>
<g mask="url(#mask0_675_2715)">
<path d="M160.776 36.1809C165.811 51.3715 169.472 70.1095 168.216 91.2867C167.045 111.026 165.316 120.811 158.019 130.994C142.274 152.977 113.738 154.971 108.964 155.305C103.805 155.665 75.7153 157.628 57.2538 138.685C39.894 120.871 41.8124 95.3464 43.4371 73.4147C44.6118 57.5489 48.8944 35.5721 55.1639 29.3497C65.9712 18.6239 79.0291 28.6252 105.931 28.8888C132.437 29.1482 146.666 19.417 156.365 28.8888C157.685 30.1771 159.243 31.5617 160.774 36.183L160.776 36.1809Z" fill="#FDDA8F"/>
</g>
<g opacity="0.25">
<path d="M77.1787 75.0799C68.2577 75.0799 61 67.8222 61 58.9033C61 49.9845 68.2577 42.7246 77.1787 42.7246C86.0998 42.7246 93.3575 49.9823 93.3575 58.9033C93.3575 67.8244 86.0998 75.0799 77.1787 75.0799ZM77.1787 44.4394C69.203 44.4394 62.7148 50.9276 62.7148 58.9033C62.7148 66.8791 69.203 73.3652 77.1787 73.3652C85.1545 73.3652 91.6427 66.877 91.6427 58.9033C91.6427 50.9297 85.1545 44.4394 77.1787 44.4394Z" fill="#231F20"/>
<path d="M125.915 75.0799C116.994 75.0799 109.736 67.8222 109.736 58.9033C109.736 49.9845 116.994 42.7246 125.915 42.7246C134.836 42.7246 142.092 49.9823 142.092 58.9033C142.092 67.8244 134.834 75.0799 125.915 75.0799ZM125.915 44.4394C117.939 44.4394 111.451 50.9276 111.451 58.9033C111.451 66.8791 117.939 73.3652 125.915 73.3652C133.891 73.3652 140.377 66.877 140.377 58.9033C140.377 50.9297 133.889 44.4394 125.915 44.4394Z" fill="#231F20"/>
<path d="M93.1097 57.8483C92.8268 57.8483 92.5503 57.709 92.3874 57.4539C92.1323 57.0553 92.248 56.5258 92.6467 56.2686C94.2157 55.2655 97.5145 53.5893 101.973 53.675C106.129 53.7522 109.198 55.3319 110.658 56.2686C111.057 56.5237 111.173 57.0553 110.917 57.4539C110.662 57.8526 110.133 57.9684 109.732 57.7133C108.425 56.8752 105.675 55.4605 101.941 55.3898C97.9325 55.3255 94.9766 56.813 93.5705 57.7133C93.4269 57.8055 93.2662 57.8483 93.1097 57.8483Z" fill="#231F20"/>
<path d="M141.236 56.8759C140.908 56.8759 140.595 56.6872 140.454 56.3679C140.261 55.9349 140.454 55.429 140.887 55.2361L163.05 45.3355C163.483 45.1426 163.989 45.3355 164.182 45.7685C164.375 46.2015 164.182 46.7073 163.749 46.9003L141.585 56.8008C141.472 56.8523 141.354 56.8759 141.236 56.8759Z" fill="#231F20"/>
<path d="M62.2882 56.0743C62.1639 56.0743 62.0353 56.0465 61.9153 55.9886L46.9647 48.7695C46.5382 48.5637 46.3603 48.0514 46.566 47.6249C46.7718 47.1983 47.2841 47.0204 47.7106 47.2262L62.6612 54.4453C63.0877 54.6511 63.2656 55.1634 63.0599 55.5899C62.912 55.8964 62.6055 56.0743 62.2882 56.0743Z" fill="#231F20"/>
</g>
<path d="M113.278 133.522C113.102 133.522 112.924 133.514 112.746 133.492C110.909 133.289 109.297 132.063 108.543 130.292C108.38 129.911 108.558 129.471 108.939 129.308C109.321 129.146 109.76 129.323 109.923 129.705C110.466 130.978 111.61 131.859 112.911 132.003C114.482 132.174 116.056 131.229 116.731 129.696C116.898 129.317 117.342 129.146 117.721 129.313C118.1 129.48 118.272 129.924 118.105 130.303C117.241 132.256 115.308 133.522 113.278 133.522Z" fill="#005781"/>
<path d="M100.79 132.493C98.9249 132.493 97.2123 131.216 96.6592 129.381C96.5392 128.984 96.7643 128.566 97.1608 128.446C97.5573 128.326 97.9753 128.551 98.0954 128.948C98.4726 130.202 99.6665 131.055 100.933 130.986C102.095 130.92 103.107 130.101 103.45 128.95C103.568 128.554 103.986 128.326 104.382 128.444C104.779 128.562 105.006 128.98 104.888 129.377C104.365 131.134 102.811 132.382 101.019 132.485C100.942 132.489 100.865 132.491 100.788 132.491L100.79 132.493Z" fill="#005781"/>
<path d="M90.1103 133.437C89.926 133.437 89.7416 133.424 89.5594 133.399C87.5639 133.122 85.9499 131.375 85.7248 129.245C85.6819 128.833 85.9799 128.462 86.3914 128.42C86.803 128.374 87.1738 128.675 87.2166 129.086C87.371 130.542 88.4427 131.729 89.7652 131.913C90.4918 132.012 91.272 131.793 91.9065 131.307C92.616 130.764 93.0683 129.969 93.184 129.071C93.2354 128.66 93.6127 128.37 94.0221 128.422C94.4336 128.473 94.7251 128.85 94.6715 129.26C94.5065 130.559 93.8485 131.71 92.8175 132.498C92.0223 133.107 91.0598 133.437 90.1081 133.437H90.1103Z" fill="#005781"/>
<path d="M107.271 145.175C106.626 145.175 106.022 145.031 105.496 144.744C103.964 143.904 103.539 142.056 103.428 141.302C103.368 140.892 103.651 140.511 104.06 140.451C104.472 140.391 104.851 140.674 104.911 141.083C104.973 141.499 105.248 142.896 106.217 143.428C107.552 144.159 110.008 143.272 111.395 140.822C111.599 140.461 112.057 140.335 112.418 140.539C112.778 140.742 112.904 141.201 112.7 141.561C111.869 143.029 110.649 144.159 109.265 144.744C108.589 145.029 107.91 145.173 107.267 145.173L107.271 145.175Z" fill="#005781"/>
<path d="M93.5857 144.25C91.4422 144.25 89.2087 142.759 88.1199 140.394C87.9463 140.017 88.1113 139.573 88.4864 139.4C88.8637 139.226 89.3095 139.391 89.481 139.766C90.3919 141.743 92.6811 143.333 94.636 142.553C96.0721 141.98 96.5651 140.242 96.6487 139.901C96.7473 139.498 97.1545 139.252 97.5575 139.353C97.9604 139.451 98.2048 139.858 98.1062 140.261C97.9904 140.729 97.3088 143.104 95.1933 143.948C94.6767 144.154 94.1344 144.253 93.5857 144.253V144.25Z" fill="#005781"/>
<g style="mix-blend-mode:multiply" opacity="0.28">
<path d="M51.666 131.744C53.2586 134.16 55.1105 136.481 57.2561 138.683C75.7176 157.629 103.805 155.665 108.965 155.305C113.738 154.971 142.274 152.975 158.02 130.994C165.316 120.808 167.046 111.026 168.216 91.2847C168.31 89.6878 168.377 88.1059 168.417 86.5391C163.432 94.6649 149.66 114.65 123.163 126.686C90.173 141.668 59.9569 134.117 51.666 131.744Z" fill="#005781"/>
</g>
<path d="M126.406 144.234C127.879 144.14 129.821 145.593 131.78 147.312C135.711 150.756 136.455 155.221 136.74 156.807C136.855 158.844 135.535 160.524 133.617 160.584C131.617 160.648 129.87 158.897 129.988 156.771C129.28 160.736 126.59 162.839 125.028 162.466C123.654 162.138 122.494 159.742 122.685 156.771C122.361 159.345 120.059 160.741 118.46 160.263C117.266 159.907 116.589 158.183 116.863 156.254C117.279 154.533 117.811 151.734 120.619 148.596C122.704 146.266 124.781 144.337 126.406 144.232V144.234Z" fill="#F36C21"/>
<path d="M74.5408 145.162C76.0134 145.067 77.9553 146.521 79.9144 148.24C83.8455 151.684 84.5893 156.149 84.8744 157.735C84.9901 159.771 83.6698 161.452 81.7514 161.512C79.7515 161.576 78.0046 159.825 78.1225 157.699C77.4152 161.664 74.7252 163.767 73.1626 163.394C71.7886 163.066 70.629 160.669 70.8198 157.699C70.4961 160.273 68.1941 161.668 66.5951 161.19C65.4012 160.834 64.7238 159.111 64.9982 157.182C65.414 155.461 65.9456 152.661 68.7535 149.523C70.8391 147.194 72.9161 145.264 74.5408 145.159V145.162Z" fill="#F36C21"/>
<path d="M155.152 86.7993C159.951 86.1413 164.75 85.4832 169.549 84.8252C172.627 91.4742 178.024 100.989 187.35 110.469C197.843 121.137 208.956 127.338 216.538 130.802L217.903 129.756L217.399 131.747C217.395 131.771 217.391 131.792 217.382 131.816V131.825H217.38C217.346 131.915 217.292 132.002 217.213 132.077C205.118 143.412 188.281 148.005 174.811 143.369C155.415 136.694 143.459 111.04 155.152 86.8015V86.7993Z" fill="#005781"/>
<path d="M168.48 82.8342C171.659 89.4831 177.234 98.9979 186.867 108.478C197.931 119.367 209.664 125.607 217.503 129.025C217.959 129.225 218.06 129.769 217.702 130.093C205.21 141.419 187.823 146.008 173.914 141.374C153.879 134.699 141.528 109.044 153.607 84.8061C158.565 84.1481 163.52 83.4901 168.478 82.832L168.48 82.8342Z" fill="url(#paint4_radial_675_2715)"/>
<path d="M193.922 131.706C190.617 131.706 187.295 130.452 184.954 128.182C181.93 125.248 181.068 121.231 182.553 117.832C180.678 118.335 178.052 118.65 175.57 117.598C173.266 116.621 171.36 114.565 170.342 111.954C169.217 109.071 169.245 105.835 170.4 102.742C169.168 102.54 167.363 102.011 165.817 100.641C163.685 98.7507 162.855 95.9814 163.65 93.4136C163.772 93.017 164.193 92.7962 164.589 92.9184C164.986 93.0406 165.206 93.4607 165.084 93.8573C164.465 95.8549 165.127 98.0241 166.814 99.5181C168.535 101.044 170.674 101.312 171.515 101.357L172.612 101.415L172.158 102.416C170.797 105.417 170.649 108.611 171.74 111.41C172.612 113.646 174.222 115.397 176.155 116.218C179.201 117.51 182.607 116.34 183.929 115.778L186.534 114.67L184.821 116.923C182.491 119.986 182.976 124.172 186 127.106C188.829 129.852 193.296 130.911 197.114 129.739C197.51 129.616 197.93 129.839 198.05 130.236C198.173 130.632 197.95 131.052 197.553 131.173C196.381 131.533 195.153 131.706 193.922 131.706Z" fill="#005781"/>
<path d="M183.311 136.598C180.96 136.598 175.968 136.105 172.754 132.275C170.733 129.866 170.313 127.221 170.292 125.523C161.574 124.452 155.062 120.045 154.351 114.667C154.113 112.866 154.542 110.991 155.626 109.089C155.832 108.729 156.289 108.603 156.649 108.809C157.009 109.014 157.133 109.471 156.929 109.831C156.012 111.441 155.643 113.001 155.838 114.47C156.469 119.219 162.899 123.273 171.132 124.109L171.844 124.181L171.805 124.895C171.73 126.269 171.904 128.929 173.903 131.313C177.624 135.75 184.168 135.081 184.447 135.051C184.861 135.006 185.229 135.302 185.274 135.713C185.319 136.125 185.024 136.496 184.612 136.541C184.537 136.549 184.057 136.598 183.311 136.598Z" fill="#005781"/>
<path d="M30.7532 42.7806C27.8488 38.6137 18.6256 40.4206 14.0793 42.0925C6.43153 44.9026 2.38042 50.8635 0.933594 53.262C4.44456 54.4881 7.99839 55.7591 11.5887 57.0774C15.2497 58.4213 18.8464 59.7781 22.3809 61.1456C22.1258 61.4414 21.8858 61.7479 21.6629 62.0652C21.2663 62.6332 20.9191 63.2355 20.6233 63.8592C20.3275 64.4851 20.0981 65.1367 19.9117 65.8012C19.8624 65.9662 19.8366 66.1377 19.7981 66.3049C19.7659 66.4742 19.7166 66.6414 19.7016 66.8129C19.6566 67.1537 19.603 67.4945 19.5944 67.8396C19.5644 68.1826 19.5794 68.5276 19.5816 68.8706C19.6073 69.2135 19.6202 69.5565 19.6759 69.8952C19.8581 71.252 20.2846 72.5723 20.9341 73.7684C20.9384 73.7769 20.9512 73.7812 20.9598 73.7769C20.9684 73.7727 20.9727 73.7598 20.9684 73.7512C20.3661 72.538 19.9931 71.2134 19.8645 69.8737C19.8216 69.5394 19.8216 69.2028 19.8088 68.8663C19.8195 68.5298 19.8174 68.1954 19.8581 67.861C19.8795 67.5267 19.9438 67.1966 19.9995 66.8665C20.021 66.7014 20.0746 66.5407 20.1131 66.3778C20.156 66.217 20.1882 66.052 20.2418 65.8934C20.4475 65.2589 20.6919 64.633 20.9984 64.0414C21.307 63.4498 21.6607 62.884 22.0637 62.3524C22.3316 61.9987 22.621 61.6643 22.9275 61.345C22.9425 61.3514 22.9596 61.3557 22.9746 61.3621C30.6503 54.5631 33.3361 46.4759 30.7575 42.7784L30.7532 42.7806Z" fill="url(#paint5_radial_675_2715)"/>
<g opacity="0.2">
<path d="M20.9253 73.7779C20.2244 72.6076 19.7742 71.2808 19.5663 69.9154C19.4677 69.2316 19.427 68.535 19.4656 67.8405C19.5084 67.1461 19.6092 66.4516 19.7914 65.7785C19.8857 65.442 19.9886 65.1076 20.1193 64.784C20.2372 64.456 20.383 64.1388 20.5309 63.8216C20.8374 63.1935 21.2039 62.5955 21.6219 62.0361C22.0399 61.4745 22.5093 60.9536 23.0237 60.4778C23.5424 60.0127 24.1511 59.6183 24.8735 59.4961C24.6441 59.779 24.4105 60.0212 24.1747 60.2592C23.9411 60.4992 23.6989 60.7221 23.4588 60.9493C22.9701 61.393 22.5221 61.8839 22.1234 62.4112C21.7248 62.9385 21.3754 63.5022 21.0646 64.0874C20.9188 64.3853 20.7709 64.6811 20.6509 64.9919C20.518 65.2963 20.413 65.6092 20.3165 65.9264C19.9243 67.1932 19.7978 68.5393 19.9136 69.8747C20.0293 71.21 20.3723 72.5347 20.9274 73.7779H20.9253Z" fill="#2E3192"/>
</g>
<path d="M34.3085 7.29513C33.2297 3.42819 30.7225 1.05597 26.8018 0.171038C26.4521 0.0966734 26.095 0.0594913 25.7379 0H8.85704C8.33626 0.0966734 7.80803 0.141292 7.30213 0.282584C3.42601 1.36086 1.04529 3.8595 0.189714 7.77849C0.0483585 8.41059 0.0185994 9.07243 0.0111596 9.7194C-0.00371988 14.7687 -0.00371988 19.8032 0.0111596 24.8525C0.0185994 28.2212 1.39496 30.9206 4.14767 32.8838C5.76954 34.0365 7.6146 34.5719 9.60102 34.5793C14.7345 34.5793 19.8753 34.6314 25.0088 34.5645C29.123 34.505 32.084 32.512 33.8026 28.7789C34.1894 27.9461 34.301 26.9942 34.5317 26.0944C34.5614 25.9754 34.5763 25.849 34.5986 25.73V8.84934C34.5094 8.32879 34.4573 7.8008 34.3159 7.29513H34.3085ZM23.9523 23.9378C22.1668 25.73 19.8009 26.7116 17.2937 26.7116C14.7791 26.7042 12.4058 25.7151 10.6203 23.923C8.83472 22.1308 7.86011 19.7734 7.86755 17.2748C7.88243 12.1065 12.1082 7.8826 17.2789 7.86773H17.3161C19.8084 7.86773 22.1668 8.84934 23.9523 10.6415C25.7379 12.4263 26.7199 14.7836 26.7199 17.2897C26.7274 19.7883 25.7379 22.1457 23.9523 23.9378ZM26.4967 10.2697C25.2915 10.2251 24.2946 9.18398 24.3318 7.99415C24.369 6.74483 25.3956 5.75579 26.6306 5.79297C27.8656 5.82272 28.87 6.85638 28.8328 8.06108C28.7956 9.33271 27.754 10.3143 26.4967 10.2697Z" fill="url(#paint6_linear_675_2715)"/>
<path d="M22.963 17.1466C22.9705 20.348 20.3619 22.9566 17.153 22.964H17.1382C13.9441 22.964 11.3355 20.3554 11.3281 17.154C11.3281 13.9451 13.9293 11.3365 17.1456 11.3291H17.153C20.3545 11.3291 22.9556 13.9377 22.963 17.1466Z" fill="url(#paint7_linear_675_2715)"/>
<defs>
<radialGradient id="paint0_radial_675_2715" cx="0" cy="0" r="1" gradientUnits="userSpaceOnUse" gradientTransform="translate(40.8981 60.1639) scale(49.6594 49.6594)">
<stop stop-color="#359BDC"/>
<stop offset="0.81" stop-color="#2174BB"/>
</radialGradient>
<radialGradient id="paint1_radial_675_2715" cx="0" cy="0" r="1" gradientUnits="userSpaceOnUse" gradientTransform="translate(147.408 27.3247) scale(28.242 28.242)">
<stop stop-color="#359BDC"/>
<stop offset="0.84" stop-color="#2174BB"/>
</radialGradient>
<radialGradient id="paint2_radial_675_2715" cx="0" cy="0" r="1" gradientUnits="userSpaceOnUse" gradientTransform="translate(65.9032 26.7366) scale(26.0686 26.0686)">
<stop stop-color="#359BDC"/>
<stop offset="0.82" stop-color="#2174BB"/>
</radialGradient>
<radialGradient id="paint3_radial_675_2715" cx="0" cy="0" r="1" gradientUnits="userSpaceOnUse" gradientTransform="translate(101.726 20.105) rotate(180) scale(133.524 133.524)">
<stop stop-color="#359BDC"/>
<stop offset="0.7" stop-color="#2174BB"/>
</radialGradient>
<radialGradient id="paint4_radial_675_2715" cx="0" cy="0" r="1" gradientUnits="userSpaceOnUse" gradientTransform="translate(207.178 100.479) rotate(-180) scale(60.7496 54.6746)">
<stop stop-color="#359BDC"/>
<stop offset="0.89" stop-color="#2174BB"/>
</radialGradient>
<radialGradient id="paint5_radial_675_2715" cx="0" cy="0" r="1" gradientUnits="userSpaceOnUse" gradientTransform="translate(31.1047 46.1608) scale(29.9504 29.9504)">
<stop stop-color="#359BDC"/>
<stop offset="1" stop-color="#2174BB"/>
</radialGradient>
<linearGradient id="paint6_linear_675_2715" x1="17.2993" y1="0" x2="17.2993" y2="34.5986" gradientUnits="userSpaceOnUse">
<stop stop-color="#F36C21"/>
<stop offset="1" stop-color="#873000"/>
</linearGradient>
<linearGradient id="paint7_linear_675_2715" x1="17.1456" y1="11.3291" x2="17.1456" y2="22.964" gradientUnits="userSpaceOnUse">
<stop stop-color="#F36C21"/>
<stop offset="1" stop-color="#873000"/>
</linearGradient>
</defs>
</svg>
