<svg width="1695" height="801" viewBox="0 0 1695 801" fill="none" xmlns="http://www.w3.org/2000/svg">
<path d="M1309.21 202.755C1295.4 208.021 1280.52 211.063 1264.95 211.501C1254.21 211.786 1243.73 210.835 1233.64 208.706C1201.7 201.994 1196.05 178.646 1164.7 170.813C1155.43 168.493 1147.5 168.284 1142.52 168.417C1144 163.607 1145.45 158.949 1146.83 154.443C1169.13 81.5853 1176.43 48.2746 1176.61 35.0606C1176.62 32.9692 1177.4 23.6718 1182.86 14.5837C1186.55 8.42347 1193.18 3.46109 1200.37 3.87938C1211.66 4.56384 1217.97 22.6642 1220.86 30.8587C1224.57 41.3158 1229.95 62.7054 1221.95 92.974C1221.68 94.0197 1221.4 95.0844 1221.07 96.1491C1221.83 94.8182 1222.59 93.4873 1223.33 92.1945C1236.91 68.7705 1250.73 51.6209 1261.55 39.8328C1276.89 23.0634 1283.28 20.0974 1287.8 21.6565C1295.84 24.4133 1297.5 41.3539 1296.89 51.2406C1296.62 55.6706 1295.73 59.7964 1294.61 63.5229C1291.58 73.4477 1286.83 80.1403 1287.42 80.4445C1287.99 80.7487 1291.47 73.1815 1299.64 66.2038C1302.13 64.0743 1305.12 61.5836 1308.39 60.2527C1309.97 59.5873 1311.58 59.207 1313.26 59.2831C1313.77 59.2831 1314.28 59.3211 1314.8 59.4162C1319.64 60.3098 1322.57 64.7017 1323.62 66.2798C1333.75 81.5092 1324.95 116.246 1305.98 141.761C1300.42 149.214 1292.21 158.302 1280.2 166.801C1296.09 169.957 1304.38 184.959 1309.21 202.755Z" fill="#0074C6"/>
<path d="M1232.54 512.684C1212.95 575.769 1155.75 624.69 1090.96 637.485C1026.17 650.3 956.23 627.96 908.437 582.367C860.643 536.793 848.704 456.349 850.624 390.317C941.763 423.381 1039.73 437.526 1136.49 431.594C1182.97 428.761 1215.83 469.24 1232.54 512.684Z" fill="#3B808A"/>
<path d="M1072.79 432.583C1094.02 433.192 1115.29 432.925 1136.49 431.613C1182.95 428.762 1215.82 469.24 1232.54 512.685C1218.68 557.365 1185.88 594.858 1144.93 617.541C1114.36 560.369 1089 497.113 1072.79 432.583Z" fill="#005680"/>
<path d="M850.643 390.336C921.801 416.156 997.123 430.377 1072.79 432.583C1089 497.113 1114.36 560.369 1144.93 617.541C1128.07 626.876 1109.86 633.759 1090.96 637.504C1026.17 650.319 956.23 627.979 908.436 582.386C860.643 536.812 848.704 456.368 850.643 390.336Z" fill="#0074C6"/>
<path d="M873.019 482.492C889.654 491.124 918.493 508.33 929.501 482.169C930.926 478.765 936.326 479.165 937.903 482.131C952.675 509.737 989.689 508.33 1003.04 480.267C1004.23 477.758 1008.51 477.035 1010.32 479.279C1031.86 506.163 1071.59 529.321 1099.53 496.58C1102.18 493.481 1107.22 497.455 1105.12 500.839C1095.45 516.563 1076.09 523.674 1058.09 521.05C1037.6 518.065 1021.29 505.745 1007.9 490.667C990.963 517.457 953.131 518.597 933.987 493.9C918.892 514.757 886.289 503.653 868.418 490.42C863.818 486.979 867.658 479.716 873.019 482.492Z" fill="#005680"/>
<path d="M917.067 569.21C929.482 572.575 939.443 583.831 951.934 588.47C969.081 594.839 995.963 592.881 998.13 569.761C998.472 566.054 1003.38 562.86 1006.34 566.358C1025.35 588.964 1057.63 592.539 1082.22 577.005C1086.63 574.229 1090.18 580.846 1086.23 583.812C1062.18 601.874 1027.92 598.585 1005.87 579.401C1000.39 594.782 984.119 602.368 967.123 602.007C950.356 601.646 919.083 589.991 914.14 572.119C913.626 570.389 915.318 568.735 917.067 569.21Z" fill="#005680"/>
<path d="M1309.21 202.755C1295.4 208.021 1280.52 211.063 1264.95 211.501C1254.21 211.786 1243.73 210.835 1233.64 208.706C1201.7 201.994 1196.05 178.646 1164.7 170.813C1155.43 168.493 1147.5 168.284 1142.52 168.417C1144 163.607 1145.45 158.949 1146.83 154.443C1165.67 132.825 1184.23 118.546 1190.9 113.508C1201.28 105.636 1211.7 98.8489 1221.95 92.9739C1222.42 92.7077 1222.88 92.4415 1223.35 92.1944C1249.32 77.5544 1274.15 68.8655 1294.63 63.5228C1291.6 73.4476 1286.85 80.1402 1287.44 80.4444C1288.01 80.7486 1291.49 73.1814 1299.66 66.2037C1302.15 64.0742 1305.14 61.5835 1308.41 60.2526C1310.08 59.8914 1311.7 59.5682 1313.28 59.283C1313.79 59.283 1314.3 59.321 1314.82 59.416C1319.66 60.3097 1322.59 64.7016 1323.64 66.2797C1333.77 81.5091 1324.97 116.246 1305.99 141.761C1300.44 149.214 1292.23 158.302 1280.22 166.801C1296.09 169.957 1304.38 184.958 1309.21 202.755Z" fill="#005680"/>
<path d="M1677.3 561.947C1673.06 575.731 1667.83 589.706 1661.5 603.737C1647.64 634.5 1627.34 679.58 1579.75 716.18C1564.24 728.12 1548.14 737.379 1531.96 744.509V744.528C1520.84 749.453 1509.7 753.388 1498.71 756.487C1476.31 762.819 1454.55 765.842 1434.85 767.154C1434.47 767.154 1434.11 767.192 1433.75 767.23C1422.26 767.933 1411.52 768.066 1401.81 767.971C1392.59 767.876 1384.24 767.534 1377.06 767.268C1352.51 766.298 1326.45 765.271 1300.02 759.815C1276.74 755.042 1253.14 746.81 1230.06 732.208C1228.64 731.314 1227.27 730.402 1225.88 729.47C1196.97 710.134 1176.15 685.094 1160.35 655.434C1154.12 643.741 1148.66 631.306 1143.79 618.244C1143.79 618.225 1143.77 618.206 1143.77 618.168C1142.67 615.164 1141.57 612.141 1140.5 609.08C1126.17 567.518 1117.08 519.833 1107.44 468.175C1105.24 456.368 1103.07 444.58 1101.02 432.849V432.83C1094.15 393.207 1088.93 354.079 1089.88 316.3C1089.99 312.155 1090.16 308.048 1090.43 303.942C1090.69 299.93 1091 295.956 1091.44 292.001C1091.46 291.716 1091.51 291.45 1091.55 291.165C1091.95 287.248 1092.46 283.351 1093.03 279.491C1097.73 248.538 1107.86 218.707 1126.19 190.51C1150.14 153.682 1181.74 129.327 1190.9 122.387C1250.61 77.1362 1311.22 67.8769 1335.69 64.4546C1352.49 62.116 1401.33 56.6023 1461.73 71.2803C1484.96 76.9081 1535.67 89.2285 1580.97 125.79C1648.53 180.319 1665.04 258.253 1679.75 328.506C1689.86 376.761 1707.22 465.076 1677.3 561.947Z" fill="#0074C6"/>
<path d="M1488.59 739.775C1480.88 728.5 1467.47 712.472 1452.38 712.358C1424.87 712.13 1395.33 756.887 1402.47 782.478C1404.57 789.969 1412.89 790.92 1418.31 786.661C1425.19 781.261 1430.1 773.276 1434.98 765.271C1434.76 770.595 1434.05 775.747 1433.01 781.071C1429.11 801.092 1458.04 809.571 1463.8 789.57C1465.59 783.391 1466.85 775.443 1466.79 767.42C1466.9 767.648 1467.02 767.876 1467.15 768.104C1467.72 769.587 1468.29 771.089 1468.88 772.572C1469.05 773.409 1469.22 774.074 1469.39 774.683C1468.67 780.33 1471.01 785.919 1476.69 789.76C1477.07 790.007 1477.44 790.254 1477.82 790.52C1487.4 796.985 1498.9 790.045 1502.36 780.539C1507.13 767.42 1495.65 750.099 1488.59 739.775Z" fill="#F66A00"/>
<path d="M1223.71 731.39C1233.89 722.264 1250.69 709.868 1265.39 713.328C1292.17 719.621 1310.25 770.12 1297.25 793.296C1293.45 800.065 1285.14 799.038 1280.86 793.601C1275.44 786.718 1272.57 777.801 1269.74 768.865C1268.69 774.093 1268.16 779.265 1267.91 784.683C1266.95 805.065 1236.83 806.434 1235.98 785.634C1235.71 779.208 1236.38 771.184 1238.33 763.408C1238.16 763.598 1237.99 763.788 1237.82 763.997C1236.91 765.309 1236 766.621 1235.08 767.933C1234.72 768.713 1234.4 769.302 1234.09 769.853C1233.47 775.519 1229.87 780.387 1223.43 782.763C1223.01 782.915 1222.59 783.067 1222.16 783.239C1211.32 787.25 1201.78 777.763 1200.67 767.705C1199.15 753.844 1214.42 739.737 1223.71 731.39Z" fill="#F66A00"/>
<path opacity="0.6" d="M1677.3 561.947C1673.06 575.731 1667.83 589.706 1661.5 603.737C1647.64 634.5 1627.34 679.58 1579.75 716.18C1564.24 728.12 1548.14 737.379 1531.96 744.509V744.528C1472.04 771.032 1411.41 768.617 1377.06 767.249C1330.92 765.423 1279.4 763.37 1230.06 732.189C1198.96 712.51 1176.91 686.482 1160.35 655.414C1133.26 604.574 1120.88 540.253 1107.42 468.156C1097.77 416.479 1088.6 365.258 1089.86 316.281C1102.71 321.357 1100.96 370.125 1140.29 440.188C1197.19 541.565 1314.8 642.372 1440.08 651.422C1553.35 659.616 1627.75 589.554 1677.3 561.947Z" fill="#0073B2"/>
<path d="M1531.98 744.509V744.528C1472.05 771.032 1411.43 768.618 1377.08 767.249C1330.94 765.423 1279.42 763.37 1230.08 732.189C1198.98 712.51 1176.93 686.482 1160.37 655.415C1164.27 623.682 1176.8 592.634 1191.28 569.856C1195.18 563.696 1202.99 551.414 1215.41 537.896C1233.35 518.293 1260.98 496.105 1300.29 486.39C1403.92 460.741 1484.24 547.022 1487.93 551.129C1509.26 574.895 1527.36 606.513 1537.21 639.216C1548.35 676.158 1548.99 714.431 1531.98 744.509Z" fill="#FDDA8F"/>
<path d="M1531.98 744.509V744.528C1472.05 771.032 1411.43 768.617 1377.08 767.249C1330.94 765.423 1279.42 763.37 1230.08 732.189C1198.98 712.51 1176.93 686.482 1160.37 655.414C1164.27 623.682 1176.8 592.634 1191.28 569.856C1195.18 563.696 1202.99 551.414 1215.41 537.896C1276.41 598.528 1356.53 645.376 1440.1 651.403C1476.28 654.026 1508.5 648.646 1537.21 639.215C1548.35 676.158 1548.99 714.431 1531.98 744.509Z" fill="#DCB561"/>
<path d="M1140.29 223.859C1144.97 218.592 1159.46 202.26 1178.15 202.907C1195.48 203.496 1198.2 218.06 1224.68 228.099C1231.66 230.742 1248.6 236.217 1267.78 233.936C1288.75 231.445 1294.76 221.787 1319.49 209.143C1334.85 201.291 1363.94 185.985 1397.06 188.457C1405.35 189.065 1438.03 191.499 1462.57 216.045C1503.16 256.656 1486.07 322.441 1483.25 333.278C1470.15 383.72 1431.47 412.924 1422.91 419.483C1382.19 450.702 1338.58 453.231 1298.69 455.551C1269.34 457.262 1227.93 459.144 1184.57 436.804C1169.69 429.142 1151.4 419.73 1136.87 399.329C1114.95 368.547 1117.21 334.704 1120.07 292.286C1123.34 244.26 1136.11 228.574 1140.29 223.859Z" fill="#FED990"/>
<path d="M1241.6 388.91C1243.66 387.313 1257.23 377.046 1278.71 377.56C1298.35 378.016 1310.44 387.123 1312.72 388.91C1295.2 412.372 1277.69 435.853 1260.16 459.315C1253.98 435.853 1247.78 412.391 1241.6 388.91Z" fill="#F66A00"/>
<path d="M1280.92 626.344C1277.88 627.142 1275.61 629.177 1272.82 630.565C1268.98 632.466 1264.55 632.561 1260.39 632.048C1252.08 631.04 1245.94 625.545 1242.33 618.339C1240.41 614.537 1233.9 615.582 1234.7 620.279C1236.62 631.781 1246.43 638.417 1257.08 641.117C1266.18 643.436 1283.33 641.079 1285.39 629.88C1285.88 627.18 1283.18 625.754 1280.92 626.344Z" fill="#28717A"/>
<path d="M1358.14 627.751C1357.67 626.686 1356.66 626.363 1355.59 626.648C1352.86 627.389 1352.36 628.055 1350.59 630.336C1347.78 633.949 1344.53 636.478 1340.38 638.341C1330.92 642.619 1319.91 639.767 1314.95 630.717C1313.33 627.77 1309.45 628.815 1309.42 632.124C1309.23 644.938 1323.54 649.178 1333.96 648.76C1342.49 648.437 1363.26 639.177 1358.14 627.751Z" fill="#28717A"/>
<path d="M1428.75 626.8C1427.99 625.355 1426.31 624.67 1424.89 625.697C1422.72 627.256 1422.21 628.131 1421.09 630.602C1418.82 635.622 1414.81 639.101 1409.85 641.25C1400.17 645.471 1391.51 638.474 1385.84 631.458C1383.24 628.226 1378.44 631.059 1379.66 634.899C1383.31 646.383 1396.07 651.897 1407.36 651.003C1416.68 650.262 1434.45 637.656 1428.75 626.8Z" fill="#28717A"/>
<path d="M1302.99 672.317C1296.49 675.397 1293.2 682.223 1285.6 683.592C1277.23 685.094 1271.2 673.61 1267.42 668.001C1265.03 664.465 1259.63 667.716 1261.05 671.537C1264.93 681.899 1271.62 691.463 1283.24 693.193C1292.48 694.562 1304.97 685.93 1307.82 677.336C1308.77 674.503 1306.28 670.777 1302.99 672.317Z" fill="#28717A"/>
<path d="M1392.97 673.667C1391.89 672.507 1390.52 672.507 1389.39 673.591C1387.27 675.625 1386.83 678.23 1385.74 680.892C1384.15 684.847 1380.78 687.565 1376.98 689.22C1368.27 692.965 1360.75 685.189 1357.51 678.173C1355.88 674.637 1350.48 675.872 1350.86 679.865C1352 691.729 1364.15 699.068 1375.25 698.346C1384.09 697.775 1401.66 682.983 1392.97 673.667Z" fill="#28717A"/>
<path d="M1616.86 550.482C1597.28 613.567 1540.08 662.487 1475.29 675.283C1410.5 688.098 1340.56 665.757 1292.76 620.164C1244.97 574.59 1233.03 494.147 1234.95 428.115C1326.09 461.178 1424.05 475.324 1520.82 469.392C1567.3 466.54 1600.15 507.018 1616.86 550.482Z" fill="#005680"/>
<path d="M1614.66 534.91C1595.07 597.995 1537.87 646.916 1473.08 659.711C1408.29 672.526 1338.35 650.186 1290.56 604.593C1242.76 559.019 1230.82 478.575 1232.74 412.543C1323.88 445.607 1421.85 459.752 1518.61 453.82C1565.08 450.987 1597.93 491.466 1614.66 534.91Z" fill="#0074C6"/>
<path d="M1232.74 412.562C1303.9 438.382 1379.22 452.604 1454.89 454.809C1471.1 519.339 1496.46 582.595 1527.03 639.767C1510.17 649.102 1491.96 655.985 1473.06 659.731C1408.27 672.545 1338.33 650.205 1290.54 604.612C1242.74 559.019 1230.81 478.575 1232.74 412.562Z" fill="#0074C6"/>
<path d="M1255.12 504.718C1271.76 513.35 1300.59 530.557 1311.6 504.395C1313.03 500.992 1318.43 501.391 1320.01 504.357C1334.78 531.964 1371.79 530.557 1385.14 502.494C1386.33 499.984 1390.61 499.261 1392.42 501.505C1413.96 528.389 1453.69 551.547 1481.64 518.807C1484.28 515.708 1489.32 519.681 1487.23 523.066C1477.55 538.789 1458.2 545.9 1440.19 543.276C1419.7 540.291 1403.39 527.971 1390 512.894C1373.06 539.683 1335.23 540.824 1316.09 516.126C1300.99 536.983 1268.39 525.88 1250.52 512.647C1245.92 509.186 1249.76 501.942 1255.12 504.718Z" fill="#005680"/>
<path d="M1299.17 591.417C1311.58 594.782 1321.54 606.038 1334.04 610.677C1351.18 617.047 1378.06 615.088 1380.23 591.969C1380.57 588.261 1385.48 585.067 1388.44 588.565C1407.46 611.172 1439.74 614.746 1464.32 599.213C1468.73 596.437 1472.28 603.053 1468.33 606.019C1444.28 624.081 1410.02 620.792 1387.97 601.608C1382.49 616.99 1366.22 624.576 1349.22 624.215C1332.46 623.853 1301.18 612.198 1296.24 594.326C1295.75 592.596 1297.42 590.961 1299.17 591.417Z" fill="#005680"/>
<path d="M1515.61 210.759C1546.96 218.592 1552.6 241.94 1584.54 248.652C1594.64 250.781 1605.11 251.751 1615.85 251.447C1631.42 251.028 1646.31 247.967 1660.11 242.701C1655.28 224.905 1646.99 209.903 1631.14 206.747C1643.15 198.229 1651.37 189.16 1656.9 181.707C1675.87 156.192 1684.67 121.455 1674.56 106.226C1673.5 104.629 1670.57 100.237 1665.72 99.3432C1659.98 98.2975 1654.64 102.708 1650.59 106.15C1642.39 113.109 1638.95 120.714 1638.34 120.39C1637.55 119.953 1646.8 107.481 1647.83 91.1866C1648.44 81.2999 1646.78 64.3594 1638.72 61.5835C1634.2 60.0244 1627.81 62.9904 1612.45 79.7598C1601.06 92.2133 1586.27 110.599 1572 136.057C1581.23 104.096 1575.63 81.5851 1571.79 70.7667C1568.88 62.5722 1562.57 44.4718 1551.27 43.8064C1544.09 43.3691 1537.45 48.3315 1533.78 54.4917C1528.35 63.5989 1527.55 72.8772 1527.53 74.9876C1527.34 89.0191 1519.13 125.714 1493.44 208.325C1498.4 208.211 1506.33 208.439 1515.61 210.759Z" fill="#005680"/>
<path d="M1515.61 210.759C1546.96 218.592 1552.6 241.94 1584.54 248.652C1594.64 250.781 1605.11 251.751 1615.85 251.447C1631.42 251.028 1646.31 247.967 1660.11 242.701C1655.28 224.905 1646.99 209.903 1631.14 206.747C1643.15 198.229 1651.37 189.16 1656.9 181.707C1675.87 156.192 1684.67 121.455 1674.56 106.226C1673.5 104.629 1670.57 100.237 1665.72 99.3432C1659.98 98.2975 1654.64 102.708 1650.59 106.15C1642.39 113.109 1638.95 120.714 1638.34 120.39C1637.55 119.953 1646.8 107.481 1647.83 91.1866C1648.44 81.2999 1646.78 64.3594 1638.72 61.5835C1634.2 60.0244 1627.81 62.9904 1612.45 79.7598C1601.06 92.2133 1586.27 110.599 1572 136.057C1581.23 104.096 1575.63 81.5851 1571.79 70.7667C1568.88 62.5722 1562.57 44.4718 1551.27 43.8064C1544.09 43.3691 1537.45 48.3315 1533.78 54.4917C1528.35 63.5989 1527.55 72.8772 1527.53 74.9876C1527.34 89.0191 1519.13 125.714 1493.44 208.325C1498.4 208.211 1506.33 208.439 1515.61 210.759Z" fill="#0074C6"/>
<path opacity="0.1" d="M1169.44 385.735C1202.45 385.735 1229.21 355.687 1229.21 318.62C1229.21 281.553 1202.45 251.504 1169.44 251.504C1136.43 251.504 1109.67 281.553 1109.67 318.62C1109.67 355.687 1136.43 385.735 1169.44 385.735Z" fill="white"/>
<path opacity="0.1" d="M1392.21 385.735C1425.22 385.735 1451.98 355.687 1451.98 318.62C1451.98 281.553 1425.22 251.504 1392.21 251.504C1359.2 251.504 1332.44 281.553 1332.44 318.62C1332.44 355.687 1359.2 385.735 1392.21 385.735Z" fill="white"/>
<path opacity="0.43" d="M1633.53 219.562C1633.29 217.851 1631.59 216.805 1630.97 216.406C1630.95 216.425 1630.95 216.406 1630.95 216.406C1622.34 211.139 1569.47 240.914 1545.89 254.584L1489.07 282.609L1453.46 300.177C1445.23 267.418 1419.64 242.207 1387.7 239.336C1385.97 239.183 1384.24 239.088 1382.51 239.088C1347.51 238.613 1317.17 265.802 1309.23 303.447C1307.91 302.173 1306.45 300.976 1304.8 299.854C1299.19 295.956 1292.84 293.389 1286.28 292.287C1285.84 292.192 1285.39 292.134 1284.95 292.058C1284.51 291.982 1284.06 291.925 1283.62 291.887C1283.12 291.849 1282.65 291.792 1282.15 291.754C1281.68 291.716 1281.22 291.678 1280.73 291.659C1280.35 291.64 1279.97 291.64 1279.59 291.64C1276.68 291.564 1273.79 291.792 1270.92 292.325C1262.27 293.903 1253.98 298.238 1247.19 304.55C1240.27 271.182 1215.44 244.83 1183.89 240.4C1182.78 240.248 1181.66 240.115 1180.52 240.001C1178.79 239.849 1177.06 239.754 1175.33 239.754C1155.71 239.488 1137.56 247.929 1123.98 262.037C1114.76 271.62 1107.63 283.826 1103.64 297.705L1091.51 291.127C1091.47 291.412 1091.42 291.678 1091.4 291.963C1090.98 295.918 1090.66 299.911 1090.39 303.903L1100.83 309.569L1101 309.664C1100.92 310.14 1100.87 310.596 1100.77 311.071C1100.52 312.935 1100.28 314.855 1100.14 316.756C1099.53 325.103 1100.07 333.259 1101.57 341.036C1102.5 345.96 1103.81 350.713 1105.5 355.276C1111.09 370.468 1120.54 383.492 1132.59 392.751C1142.94 400.66 1155.18 405.775 1168.53 406.992C1209.53 410.68 1245.58 376.229 1248.87 330.198C1249 328.316 1249.08 326.434 1249.08 324.571C1249.08 322.84 1249.04 321.129 1248.96 319.418C1249.04 319.342 1249.09 319.342 1249.17 319.266C1249.34 319.038 1249.53 318.791 1249.7 318.581C1255.52 311.033 1263.85 305.843 1272.63 304.208C1281.68 302.535 1291.36 304.683 1299.15 310.083C1301.56 311.775 1305.69 315.216 1306.22 319.494C1306.34 320.502 1306.72 321.338 1307.17 322.099C1306.83 365.6 1336.53 402.771 1375.73 406.307C1416.71 410.015 1452.76 375.563 1456.05 329.533C1456.18 327.575 1456.28 325.616 1456.28 323.715C1456.31 319.817 1456.12 315.996 1455.71 312.231C1456.2 311.984 1456.66 311.756 1457.15 311.528C1467.78 306.28 1478.39 301.033 1489.01 295.785C1532 274.548 1574.98 253.291 1617.98 232.054C1622.98 229.829 1634.28 224.372 1633.53 219.562ZM1169.44 394.994C1168.39 394.899 1167.37 394.766 1166.32 394.633C1147.23 391.857 1131 379.689 1121.11 362.672C1116.44 354.668 1113.17 345.599 1111.66 335.902C1110.73 330.046 1110.47 323.981 1110.9 317.783C1111.06 315.768 1111.26 313.752 1111.57 311.794C1112.99 302.078 1116.15 293.047 1120.66 285.119C1132.2 264.718 1152.61 251.485 1175.27 251.827C1176.72 251.827 1178.18 251.922 1179.65 252.055C1212.92 255.059 1238.22 286.298 1238.39 323.069C1238.41 325.122 1238.35 327.175 1238.18 329.267C1235.43 367.654 1206.11 396.611 1172.14 395.166C1171.26 395.147 1170.35 395.071 1169.44 394.994ZM1376.62 394.291C1375.57 394.196 1374.55 394.063 1373.5 393.93C1339.99 389.043 1315.35 355.295 1318.08 317.041C1318.24 315.026 1318.45 313.03 1318.75 311.09C1324.07 274.7 1353.56 248.329 1386.87 251.333C1387.61 251.409 1388.33 251.485 1389.05 251.58C1416.69 255.135 1438.44 278.274 1444.13 307.554C1443.88 308.752 1443.88 310.045 1444.36 311.242C1444.49 311.585 1444.66 311.813 1444.83 312.117C1445.31 315.482 1445.57 318.924 1445.59 322.422C1445.61 324.475 1445.57 326.491 1445.42 328.563C1444.17 345.846 1437.55 361.208 1427.55 372.749C1415.35 386.876 1398.06 395.28 1379.38 394.481C1378.44 394.462 1377.53 394.386 1376.62 394.291Z" fill="#1D262C"/>
<path d="M1633.53 207.071C1627.75 201.918 1583.44 223.422 1546.75 242.587L1488.18 271.467L1454.36 288.142C1446.12 255.402 1420.54 230.171 1388.6 227.3C1351.47 223.935 1318.48 251.922 1310.12 291.45C1308.81 290.176 1307.34 288.959 1305.69 287.819C1295.71 280.917 1283.37 278.16 1271.79 280.308C1263.14 281.886 1254.82 286.221 1248.07 292.534C1240.88 257.987 1214.53 230.989 1181.4 227.985C1161.26 226.179 1142.39 233.537 1127.96 246.998C1117.22 256.961 1108.96 270.308 1104.52 285.689L1093.01 279.453C1092.44 283.331 1091.93 287.21 1091.53 291.127C1091.49 291.412 1091.44 291.678 1091.42 291.963L1101.89 297.629C1101.53 299.987 1101.23 302.344 1101.06 304.74C1100.94 306.356 1100.88 307.972 1100.85 309.569C1100.81 310.083 1100.81 310.577 1100.81 311.052C1100.69 334.381 1109.27 355.885 1123.26 371.304C1134.61 383.777 1149.5 392.276 1166.32 394.595C1167.37 394.728 1168.39 394.861 1169.44 394.956C1170.35 395.051 1171.26 395.109 1172.18 395.128C1210.14 397.01 1243.24 366.342 1249.11 324.552C1249.38 322.574 1249.61 320.578 1249.74 318.543C1249.76 318.41 1249.78 318.277 1249.78 318.144C1250.04 314.513 1250.03 310.938 1249.87 307.383C1249.91 307.307 1250.01 307.288 1250.04 307.231C1255.92 299.321 1264.47 293.827 1273.52 292.154C1275.52 291.773 1277.55 291.602 1279.59 291.602C1279.97 291.602 1280.35 291.602 1280.73 291.621C1281.22 291.64 1281.68 291.659 1282.15 291.716C1282.65 291.735 1283.12 291.792 1283.62 291.849C1284.06 291.887 1284.51 291.963 1284.95 292.02C1285.39 292.096 1285.84 292.154 1286.28 292.249C1291.15 293.199 1295.84 295.158 1300.02 298.048C1302.44 299.721 1306.58 303.162 1307.1 307.459C1307.23 308.429 1307.61 309.284 1308.07 310.064C1307.71 352.386 1335.84 388.758 1373.48 393.911C1374.53 394.044 1375.56 394.177 1376.6 394.272C1377.51 394.367 1378.43 394.424 1379.34 394.443C1417.34 396.325 1450.52 365.562 1456.29 323.677C1456.56 321.624 1456.79 319.57 1456.94 317.479C1457.07 315.482 1457.17 313.467 1457.17 311.49C1457.21 307.668 1457 303.884 1456.6 300.177C1467.45 294.948 1478.27 289.72 1489.13 284.491C1534.81 262.474 1580.49 240.438 1626.2 218.421C1627.01 218.136 1628.99 217.452 1630.93 216.368C1630.93 216.368 1630.93 216.387 1630.95 216.368C1633.33 215.075 1635.66 213.25 1635.72 211.006C1635.76 210.892 1635.72 209.01 1633.53 207.071ZM1239.06 317.232C1238.92 319.209 1238.7 321.148 1238.41 323.05C1234.34 351.132 1215.88 373.32 1192.38 380.602C1185.39 382.788 1177.96 383.625 1170.29 382.94C1147.54 380.887 1128.53 365.619 1118.72 344.401C1114.15 334.552 1111.61 323.449 1111.55 311.775C1111.53 309.778 1111.59 307.744 1111.76 305.729C1111.99 302.592 1112.39 299.531 1112.96 296.545C1114.65 287.533 1117.84 279.206 1122.25 271.829C1133.75 252.359 1153.45 239.754 1175.33 239.754C1177.04 239.754 1178.77 239.849 1180.52 240.001C1181.66 240.115 1182.76 240.248 1183.89 240.4C1217.29 245.401 1241.79 279.092 1239.06 317.232ZM1387.72 239.336C1409.83 241.313 1428.39 255.763 1438.41 276.031C1441.41 282.077 1443.65 288.636 1444.98 295.538C1444.76 296.736 1444.74 298.028 1445.23 299.245C1445.34 299.55 1445.53 299.816 1445.71 300.082C1446.41 305.425 1446.68 310.919 1446.26 316.547C1446.12 318.524 1445.9 320.483 1445.59 322.422C1440.34 358.851 1410.84 385.279 1377.49 382.275C1375.16 382.066 1372.87 381.723 1370.63 381.229C1340.78 374.86 1318.88 345.352 1318.77 311.109C1318.75 309.113 1318.81 307.079 1318.98 305.063C1321.68 267.608 1349.66 239.107 1382.55 239.107C1384.26 239.088 1385.99 239.183 1387.72 239.336Z" fill="#3D2E16"/>
<path d="M1177.65 371.513C1204.54 371.513 1226.34 345.466 1226.34 313.334C1226.34 281.202 1204.54 255.154 1177.65 255.154C1150.76 255.154 1128.96 281.202 1128.96 313.334C1128.96 345.466 1150.76 371.513 1177.65 371.513Z" fill="#00529C"/>
<path d="M1177.12 359.44C1198.54 359.44 1215.9 338.84 1215.9 313.429C1215.9 288.018 1198.54 267.418 1177.12 267.418C1155.7 267.418 1138.34 288.018 1138.34 313.429C1138.34 338.84 1155.7 359.44 1177.12 359.44Z" fill="#1B090C"/>
<path opacity="0.63" d="M1181.28 320.882C1196.7 315.273 1205.25 299.968 1206.57 283.503C1199.46 273.844 1189.04 267.703 1177.37 267.703C1158.43 267.703 1142.67 283.826 1139.29 305.139C1148.47 319.456 1165.67 326.567 1181.28 320.882Z" fill="#333232"/>
<path d="M1160.18 291.545C1166.07 291.545 1170.84 285.433 1170.84 277.894C1170.84 270.354 1166.07 264.242 1160.18 264.242C1154.29 264.242 1149.51 270.354 1149.51 277.894C1149.51 285.433 1154.29 291.545 1160.18 291.545Z" fill="white"/>
<path opacity="0.1" d="M1194.38 257.398C1186.78 253.671 1178.37 251.561 1169.51 251.561C1135.73 251.561 1108.36 281.62 1108.36 318.676C1108.36 333.469 1112.77 347.101 1120.14 358.185C1166.8 353.793 1183.62 302.553 1194.38 257.398Z" fill="white"/>
<path d="M1381.2 367.064C1408.09 367.064 1429.89 341.017 1429.89 308.885C1429.89 276.753 1408.09 250.705 1381.2 250.705C1354.31 250.705 1332.51 276.753 1332.51 308.885C1332.51 341.017 1354.31 367.064 1381.2 367.064Z" fill="#00529C"/>
<path d="M1380.67 355.01C1402.09 355.01 1419.45 334.41 1419.45 308.999C1419.45 283.588 1402.09 262.988 1380.67 262.988C1359.25 262.988 1341.89 283.588 1341.89 308.999C1341.89 334.41 1359.25 355.01 1380.67 355.01Z" fill="#1B090C"/>
<path opacity="0.63" d="M1384.85 316.452C1400.27 310.843 1408.82 295.538 1410.14 279.073C1403.03 269.414 1392.61 263.273 1380.94 263.273C1362 263.273 1346.24 279.396 1342.86 300.709C1352.04 315.026 1369.24 322.118 1384.85 316.452Z" fill="#333232"/>
<path d="M1363.75 287.115C1369.64 287.115 1374.41 281.003 1374.41 273.464C1374.41 265.924 1369.64 259.812 1363.75 259.812C1357.86 259.812 1353.08 265.924 1353.08 273.464C1353.08 281.003 1357.86 287.115 1363.75 287.115Z" fill="white"/>
<path opacity="0.1" d="M1397.93 252.968C1390.33 249.241 1381.92 247.131 1373.06 247.131C1339.28 247.131 1311.91 277.19 1311.91 314.247C1311.91 329.039 1316.32 342.671 1323.69 353.755C1370.35 349.363 1387.17 298.124 1397.93 252.968Z" fill="white"/>
<path d="M1145.33 415.947C1129.25 415.947 1085.9 423.628 1083.51 399.082C1080.6 369.46 1128.87 375.62 1145.33 375.62C1156.42 375.62 1165.5 384.689 1165.5 395.793C1165.48 406.877 1156.42 415.947 1145.33 415.947Z" fill="#F66A00"/>
<path d="M1450.8 423.723C1434.72 423.723 1391.37 431.404 1388.98 406.859C1386.07 377.236 1434.34 383.397 1450.8 383.397C1461.88 383.397 1470.97 392.466 1470.97 403.569C1470.97 414.654 1461.88 423.723 1450.8 423.723Z" fill="#F66A00"/>
<path d="M578.634 193.324C592.17 199.256 606.884 203.04 622.397 204.219C633.119 205.036 643.614 204.599 653.803 202.945C686.027 197.792 692.814 174.749 724.505 168.474C733.878 166.611 741.824 166.782 746.786 167.163C745.531 162.295 744.315 157.561 743.155 152.998C724.448 79.1327 718.783 45.4988 719.258 32.3038C719.334 30.2124 719.011 20.896 714.011 11.5417C710.627 5.21035 704.259 -0.0752411 697.053 0.000810607C685.742 0.133901 678.537 17.911 675.248 25.9345C671.027 36.2014 664.602 57.3058 671.122 87.9166C671.332 88.9813 671.579 90.0461 671.826 91.1298C671.141 89.7609 670.438 88.3919 669.754 87.061C657.358 63.0097 644.374 45.1946 634.165 32.8932C619.66 15.4013 613.424 12.1311 608.823 13.462C600.649 15.8196 598.177 32.665 598.291 42.5518C598.348 46.9818 599.033 51.1646 599.983 54.9292C602.512 64.987 606.941 71.9077 606.333 72.1929C605.744 72.4781 602.645 64.7399 594.812 57.3818C592.436 55.1193 589.584 52.4955 586.371 50.9935C584.832 50.252 583.216 49.7957 581.562 49.7767C581.048 49.7577 580.535 49.7767 580.022 49.8337C575.136 50.4802 571.98 54.739 570.859 56.2601C559.984 70.9761 567.075 106.112 584.775 132.521C589.965 140.24 597.721 149.728 609.299 158.797C593.349 161.23 584.318 175.794 578.634 193.324Z" fill="#0074C6"/>
<path d="M640.021 506.657C656.484 570.617 711.236 622.294 775.322 638.246C839.408 654.217 910.357 635.318 960.317 592.139C1010.28 548.961 1026.15 469.202 1027.46 403.151C934.824 431.727 836.29 441.044 739.923 430.377C693.651 425.244 658.841 464.068 640.021 506.657Z" fill="#3B808A"/>
<path d="M803.515 434.465C782.28 434.047 761.044 432.716 739.923 430.378C693.651 425.244 658.841 464.069 640.021 506.658C651.674 551.965 682.586 591.018 722.376 615.678C755.74 560.065 784.162 498.121 803.515 434.465Z" fill="#005680"/>
<path d="M1027.46 403.151C955.127 425.453 879.198 435.967 803.515 434.465C784.162 498.12 755.74 560.065 722.395 615.658C738.782 625.811 756.634 633.588 775.341 638.246C839.427 654.217 910.376 635.318 960.336 592.139C1010.3 548.961 1026.17 469.202 1027.46 403.151Z" fill="#0074C6"/>
<path d="M1000.6 494.09C983.568 501.904 953.91 517.666 944.215 491.01C942.96 487.549 937.542 487.663 935.812 490.553C919.691 517.4 882.79 514.186 870.852 485.496C869.787 482.929 865.547 481.998 863.627 484.146C840.795 509.928 799.979 531.127 773.667 497.056C771.177 493.843 765.949 497.55 767.869 501.029C776.747 517.209 795.739 525.252 813.857 523.503C834.464 521.525 851.384 510.023 865.471 495.63C881.079 523.218 918.797 526.203 939.139 502.474C953.188 524.054 986.305 514.548 1004.78 502.208C1009.57 499.014 1006.08 491.58 1000.6 494.09Z" fill="#005680"/>
<path d="M952.371 578.545C939.804 581.302 929.31 592.045 916.592 596.075C899.14 601.608 872.391 598.338 871.365 575.123C871.194 571.396 866.46 567.974 863.342 571.32C843.248 592.957 810.815 594.953 787.051 578.241C782.793 575.237 778.895 581.682 782.717 584.839C805.853 604.061 840.225 602.445 863.19 584.363C867.905 599.992 883.779 608.377 900.775 608.852C917.542 609.308 949.348 599.193 955.146 581.606C955.717 579.895 954.12 578.165 952.371 578.545Z" fill="#005680"/>
<path d="M578.634 193.324C592.17 199.256 606.884 203.04 622.397 204.219C633.119 205.036 643.614 204.599 653.803 202.945C686.027 197.792 692.814 174.748 724.505 168.474C733.878 166.611 741.824 166.782 746.786 167.162C745.531 162.295 744.315 157.561 743.155 152.998C725.399 130.486 707.547 115.314 701.141 109.952C691.16 101.587 681.084 94.3048 671.141 87.9354C670.685 87.6502 670.229 87.365 669.773 87.0989C644.545 71.2041 620.192 61.3173 599.983 54.967C602.512 65.0248 606.941 71.9456 606.333 72.2308C605.744 72.5159 602.645 64.7777 594.812 57.4197C592.436 55.1571 589.584 52.5334 586.371 51.0313C584.718 50.594 583.121 50.1757 581.562 49.8145C581.048 49.7955 580.535 49.8145 580.022 49.8715C575.136 50.518 571.98 54.7769 570.859 56.2979C559.984 71.0139 567.075 106.15 584.775 132.559C589.965 140.278 597.721 149.765 609.299 158.835C593.349 161.23 584.318 175.794 578.634 193.324Z" fill="#005680"/>
<path d="M193.376 534.055C196.951 548.03 201.475 562.232 207.102 576.568C219.441 607.958 237.501 653.989 283.241 692.889C298.165 705.571 313.792 715.61 329.59 723.538V723.557C340.464 729.014 351.396 733.482 362.213 737.132C384.266 744.566 405.862 748.654 425.481 750.917C425.862 750.936 426.204 750.993 426.584 751.031C438.01 752.305 448.732 752.97 458.447 753.331C467.667 753.693 476.013 753.75 483.199 753.826C507.761 754.054 533.844 754.301 560.497 750.156C583.995 746.525 607.949 739.452 631.732 726.01C633.195 725.192 634.621 724.356 636.047 723.481C665.875 705.59 687.89 681.595 705.133 652.734C711.92 641.345 718.003 629.196 723.497 616.4C723.497 616.381 723.517 616.362 723.517 616.343C724.771 613.396 726.007 610.43 727.224 607.426C743.592 566.605 754.98 519.434 767.147 468.308C769.922 456.615 772.679 444.96 775.302 433.344V433.325C784.104 394.082 791.234 355.257 792.127 317.479C792.222 313.334 792.241 309.227 792.184 305.101C792.108 301.09 791.994 297.097 791.766 293.123C791.766 292.838 791.728 292.572 791.69 292.268C791.481 288.332 791.158 284.434 790.777 280.537C787.603 249.393 778.934 219.106 762.014 190.035C739.904 152.085 709.524 126.209 700.722 118.832C643.309 70.7099 583.216 58.4846 558.939 53.8834C542.266 50.7273 493.75 42.8179 432.706 54.5299C409.227 59.0169 357.973 68.8276 310.94 103.127C240.79 154.291 220.505 231.312 202.35 300.766C189.897 348.47 168.263 435.834 193.376 534.055Z" fill="#0074C6"/>
<path d="M373.163 720.933C381.433 710.039 395.596 694.695 410.672 695.323C438.162 696.445 465.481 742.589 457.078 767.819C454.625 775.196 446.261 775.748 441.052 771.223C434.436 765.481 429.93 757.267 425.444 749.034C425.406 754.358 425.862 759.549 426.641 764.91C429.55 785.102 400.235 792.137 395.463 771.888C393.98 765.633 393.125 757.628 393.562 749.624C393.429 749.852 393.296 750.061 393.182 750.289C392.536 751.753 391.889 753.217 391.243 754.681C391.034 755.518 390.825 756.164 390.634 756.773C391.091 762.439 388.486 767.914 382.612 771.47C382.232 771.698 381.851 771.926 381.452 772.173C371.566 778.162 360.407 770.652 357.422 760.994C353.297 747.627 365.597 730.896 373.163 720.933Z" fill="#F66A00"/>
<path d="M638.119 725.515C628.405 715.895 612.226 702.7 597.379 705.438C570.326 710.419 549.775 759.967 561.638 783.733C565.098 790.692 573.463 790.045 577.988 784.836C583.729 778.219 587.037 769.454 590.307 760.67C591.086 765.937 591.371 771.146 591.371 776.565C591.333 796.966 621.352 799.799 623.234 779.075C623.804 772.667 623.538 764.625 621.979 756.773C622.131 756.982 622.302 757.172 622.454 757.381C623.31 758.731 624.146 760.1 625.002 761.45C625.325 762.248 625.629 762.857 625.895 763.427C626.256 769.112 629.602 774.15 635.914 776.85C636.332 777.021 636.731 777.211 637.15 777.383C647.777 781.908 657.758 772.914 659.373 762.933C661.56 749.148 647.016 734.318 638.119 725.515Z" fill="#F66A00"/>
<path opacity="0.6" d="M193.376 534.055C196.951 548.03 201.475 562.232 207.102 576.568C219.441 607.958 237.501 653.989 283.241 692.889C298.165 705.571 313.792 715.61 329.59 723.538V723.557C388.144 752.97 448.808 753.521 483.199 753.845C529.376 754.282 580.934 754.757 631.732 726.029C663.765 707.89 687.053 682.983 705.114 652.772C734.657 603.319 750.17 539.683 767.147 468.327C779.314 417.183 790.967 366.475 792.127 317.498C779.048 321.928 778.401 370.734 735.684 438.781C673.879 537.249 551.486 632.181 425.919 635.09C312.404 637.695 241.512 564.058 193.376 534.055Z" fill="#0073B2"/>
<path d="M329.59 723.538V723.557C388.144 752.97 448.808 753.521 483.199 753.845C529.376 754.282 580.934 754.757 631.732 726.029C663.765 707.89 687.053 682.983 705.114 652.772C702.776 620.887 691.768 589.25 678.422 565.807C674.829 559.456 667.624 546.813 655.894 532.705C638.937 512.247 612.435 488.728 573.634 477.111C471.393 446.425 386.927 528.655 383.049 532.591C360.578 555.293 340.959 585.979 329.514 618.168C316.587 654.445 314.077 692.642 329.59 723.538Z" fill="#FDDA8F"/>
<path d="M329.59 723.538V723.557C388.144 752.97 448.808 753.521 483.199 753.845C529.376 754.282 580.934 754.757 631.732 726.029C663.765 707.89 687.053 682.983 705.114 652.772C702.776 620.887 691.768 589.25 678.422 565.807C674.829 559.456 667.624 546.813 655.894 532.705C591.999 590.276 509.681 633.15 425.919 635.071C389.646 635.926 357.726 628.968 329.514 618.149C316.587 654.445 314.077 692.642 329.59 723.538Z" fill="#DCB561"/>
<path d="M746.292 222.68C741.881 217.186 728.212 200.169 709.525 199.903C692.186 199.637 688.765 214.068 661.807 222.794C654.697 225.095 637.53 229.734 618.481 226.521C597.664 223.004 592.132 213.06 568.045 199.218C553.083 190.625 524.795 173.912 491.583 174.749C483.275 174.958 450.5 175.794 424.797 199.085C382.27 237.663 396.11 304.208 398.391 315.159C409.018 366.19 446.223 397.257 454.435 404.216C493.579 437.393 537.019 442.071 576.733 446.33C605.972 449.467 647.226 453.383 691.635 433.211C706.882 426.29 725.589 417.772 741.102 398.113C764.504 368.434 763.896 334.514 763.116 292.021C762.261 243.88 750.246 227.605 746.292 222.68Z" fill="#FED990"/>
<path d="M637.036 382.579C635.078 380.887 622.017 369.974 600.535 369.422C580.896 368.909 568.387 377.427 566.011 379.1C582.36 403.398 598.71 427.697 615.059 451.995C622.378 428.857 629.716 405.718 637.036 382.579Z" fill="#F66A00"/>
<path d="M586.143 617.788C589.147 618.739 591.295 620.868 594.014 622.389C597.759 624.481 602.189 624.785 606.352 624.481C614.698 623.891 621.085 618.701 625.059 611.666C627.15 607.958 633.614 609.308 632.587 613.985C630.097 625.374 619.983 631.515 609.223 633.702C600.002 635.584 583.006 632.371 581.486 621.096C581.143 618.396 583.919 617.084 586.143 617.788Z" fill="#28717A"/>
<path d="M508.959 615.411C509.491 614.366 510.518 614.1 511.563 614.442C514.263 615.316 514.719 616.001 516.373 618.358C518.996 622.104 522.114 624.785 526.183 626.857C535.441 631.591 546.562 629.291 551.961 620.488C553.729 617.617 557.532 618.853 557.418 622.161C556.98 634.957 542.475 638.493 532.095 637.581C523.559 636.858 503.274 626.591 508.959 615.411Z" fill="#28717A"/>
<path d="M438.466 611.019C439.303 609.613 440.995 609.004 442.382 610.107C444.474 611.761 444.949 612.674 445.937 615.183C447.953 620.317 451.793 623.967 456.641 626.382C466.089 631.078 475.1 624.5 481.089 617.788C483.845 614.689 488.503 617.75 487.096 621.534C482.895 632.827 469.891 637.714 458.637 636.25C449.359 635.052 432.23 621.572 438.466 611.019Z" fill="#28717A"/>
<path d="M561.828 662.64C568.159 666.043 571.125 673.021 578.653 674.751C586.942 676.652 593.5 665.491 597.569 660.073C600.135 656.669 605.382 660.168 603.747 663.913C599.356 674.066 592.208 683.307 580.535 684.447C571.239 685.36 559.186 676.139 556.771 667.412C555.973 664.541 558.634 660.928 561.828 662.64Z" fill="#28717A"/>
<path d="M471.907 659.578C473.047 658.476 474.416 658.533 475.481 659.674C477.496 661.803 477.819 664.427 478.769 667.146C480.157 671.176 483.389 674.066 487.115 675.892C495.632 680.055 503.522 672.659 507.096 665.796C508.902 662.335 514.225 663.856 513.655 667.811C511.925 679.618 499.434 686.33 488.389 685.075C479.606 684.086 462.762 668.457 471.907 659.578Z" fill="#28717A"/>
<path d="M333.259 510.403C288.888 559.323 216.361 579.496 152.218 563.753C88.0747 547.992 34.1216 498.216 10.0347 436.709C-14.0523 375.202 9.0841 297.249 38.7222 238.214C107.371 306.679 190.202 360.866 280.428 396.344C323.754 413.399 336.453 463.973 333.259 510.403Z" fill="#005680"/>
<path d="M337.822 495.364C293.45 544.284 220.923 564.457 156.78 548.714C92.6372 532.952 38.6841 483.176 14.5972 421.67C-9.48975 360.163 13.6466 282.21 43.2847 223.175C111.933 291.64 194.764 345.827 284.99 381.305C328.316 398.341 341.016 448.915 337.822 495.364Z" fill="#0074C6"/>
<path d="M24.6732 316.148C36.0988 330.997 54.9957 358.775 76.0028 339.705C78.7404 337.233 83.4551 339.857 83.6452 343.222C85.3942 374.479 119.538 388.853 143.473 369.042C145.621 367.274 149.803 368.414 150.488 371.228C158.663 404.691 184.898 442.47 224.06 424.579C227.767 422.886 230.657 428.609 227.33 430.796C211.931 440.968 191.38 439.238 176.172 429.256C158.853 417.905 149.271 399.843 143.511 380.526C116.838 397.656 82.0863 382.712 75.1473 352.234C52.6573 364.764 27.791 340.941 17.1829 321.395C14.4263 316.319 20.9851 311.376 24.6732 316.148Z" fill="#005680"/>
<path d="M27.9813 413.361C37.8099 421.651 42.0874 436.062 51.4598 445.55C64.3112 458.574 89.5198 468.156 101.231 448.098C103.113 444.884 108.911 444.048 110.109 448.478C117.789 476.997 145.564 493.862 174.385 490.173C179.556 489.508 179.993 497.018 175.145 498.045C145.716 504.262 116.059 486.808 104.158 460.114C92.6946 471.75 74.7483 471.75 59.5015 464.259C44.4638 456.863 21.0423 433.077 24.103 414.806C24.3882 412.981 26.6125 412.201 27.9813 413.361Z" fill="#005680"/>
<path d="M372.08 191.214C340.369 197.488 333.601 220.532 301.378 225.684C291.188 227.319 280.675 227.776 269.972 226.939C254.44 225.76 239.725 221.977 226.189 216.045C231.874 198.515 240.904 183.932 256.892 181.555C245.314 172.467 237.558 162.998 232.387 155.279C214.688 128.87 207.597 93.7344 218.452 79.0184C219.592 77.4783 222.729 73.2194 227.615 72.573C233.394 71.8125 238.527 76.4706 242.406 80.1211C250.238 87.4601 253.318 95.2364 253.926 94.9322C254.744 94.5519 246.094 81.6231 245.885 65.31C245.752 55.4043 248.242 38.5778 256.417 36.2012C261.017 34.8703 267.253 38.1406 281.758 55.6515C292.538 68.6563 306.397 87.7453 319.419 113.869C311.758 81.49 318.469 59.2829 322.822 48.6737C326.13 40.6312 333.316 22.8732 344.628 22.7401C351.833 22.664 358.202 27.9306 361.585 34.2619C366.585 43.6353 366.909 52.9326 366.833 55.043C366.338 69.0746 372.745 106.112 394.36 189.902C389.399 189.522 381.452 189.35 372.08 191.214Z" fill="#005680"/>
<path d="M372.08 191.214C340.369 197.488 333.601 220.532 301.378 225.684C291.188 227.319 280.675 227.776 269.972 226.939C254.44 225.76 239.725 221.977 226.189 216.045C231.874 198.515 240.904 183.932 256.892 181.555C245.314 172.467 237.558 162.998 232.387 155.279C214.688 128.87 207.597 93.7344 218.452 79.0184C219.592 77.4783 222.729 73.2194 227.615 72.573C233.394 71.8125 238.527 76.4706 242.406 80.1211C250.238 87.4601 253.318 95.2364 253.926 94.9322C254.744 94.5519 246.094 81.6231 245.885 65.31C245.752 55.4043 248.242 38.5778 256.417 36.2012C261.017 34.8703 267.253 38.1406 281.758 55.6515C292.538 68.6563 306.397 87.7453 319.419 113.869C311.758 81.49 318.469 59.2829 322.822 48.6737C326.13 40.6312 333.316 22.8732 344.628 22.7401C351.833 22.664 358.202 27.9306 361.585 34.2619C366.585 43.6353 366.909 52.9326 366.833 55.043C366.338 69.0746 372.745 106.112 394.36 189.902C389.399 189.522 381.452 189.35 372.08 191.214Z" fill="#0074C6"/>
<path opacity="0.1" d="M772.267 318.842C774.083 281.82 748.827 250.496 715.856 248.878C682.885 247.26 654.685 275.962 652.869 312.984C651.053 350.007 676.309 381.331 709.28 382.948C742.25 384.566 770.451 355.865 772.267 318.842Z" fill="white"/>
<path opacity="0.1" d="M549.763 307.923C551.579 270.9 526.323 239.576 493.353 237.958C460.382 236.341 432.182 265.042 430.365 302.065C428.549 339.087 453.805 370.411 486.776 372.029C519.747 373.646 547.947 344.945 549.763 307.923Z" fill="white"/>
<path opacity="0.43" d="M268.736 207.451C310.655 230.78 352.536 254.109 394.437 277.437C404.798 283.198 415.14 288.959 425.501 294.72C425.976 294.986 426.432 295.234 426.907 295.5C426.299 299.226 425.919 303.048 425.767 306.927C425.672 308.828 425.672 310.805 425.71 312.763C426.736 358.908 461.051 395.089 502.172 393.378C541.506 391.762 572.969 356.094 574.775 312.63C575.269 311.889 575.706 311.071 575.858 310.083C576.6 305.843 580.877 302.611 583.387 301.033C591.447 296.013 601.219 294.359 610.173 296.469C618.861 298.523 626.922 304.132 632.378 311.946C632.549 312.174 632.701 312.421 632.872 312.668C632.929 312.763 633.005 312.763 633.062 312.84C632.91 314.551 632.777 316.262 632.701 317.992C632.606 319.855 632.587 321.719 632.625 323.62C633.652 369.764 667.967 405.946 709.106 404.254C722.49 403.702 734.98 399.196 745.702 391.8C758.193 383.149 768.268 370.601 774.599 355.695C776.519 351.227 778.059 346.53 779.219 341.663C781.082 333.963 782.013 325.844 781.823 317.479C781.785 315.558 781.633 313.638 781.481 311.756C781.424 311.28 781.367 310.824 781.329 310.349L781.519 310.273L792.222 305.12C792.146 301.109 792.032 297.116 791.804 293.142C791.804 292.857 791.766 292.591 791.728 292.287L779.295 298.276C775.968 284.225 769.466 271.677 760.721 261.657C747.87 246.903 730.132 237.586 710.532 236.883C708.821 236.807 707.091 236.807 705.342 236.883C704.201 236.94 703.08 237.016 701.977 237.111C670.248 239.982 644.146 265.098 635.61 298.067C629.146 291.431 621.066 286.697 612.512 284.681C609.679 284.016 606.789 283.636 603.881 283.56C603.5 283.541 603.12 283.522 602.74 283.522C602.246 283.522 601.789 283.522 601.314 283.541C600.82 283.56 600.325 283.579 599.85 283.598C599.413 283.617 598.957 283.674 598.5 283.712C598.044 283.75 597.607 283.807 597.151 283.864C590.554 284.624 584.071 286.887 578.273 290.518C576.581 291.564 575.041 292.705 573.672 293.903C567.57 255.915 538.597 227.281 503.617 226.026C501.906 225.95 500.176 225.95 498.427 226.026C466.393 227.319 439.588 251.257 429.778 283.579L395.064 264.281L339.685 233.518C316.815 218.707 265.447 186.366 256.588 191.214C256.588 191.214 256.588 191.233 256.569 191.214C255.923 191.575 254.193 192.545 253.869 194.237C252.9 198.99 263.907 205.017 268.736 207.451ZM706.084 392.219C672.073 391.99 644.222 361.646 643.347 323.164C643.29 321.072 643.328 319 643.442 316.965C645.42 280.251 672.225 250.287 705.608 248.918C707.072 248.861 708.555 248.842 710 248.918C732.642 249.698 752.394 263.919 762.926 284.853C767.052 292.99 769.751 302.154 770.702 311.927C770.911 313.904 771.025 315.901 771.082 317.935C771.215 324.152 770.664 330.198 769.447 335.997C767.47 345.618 763.744 354.516 758.687 362.273C747.965 378.776 731.159 390.146 711.958 391.971C710.912 392.047 709.886 392.143 708.84 392.181C707.909 392.219 706.996 392.257 706.084 392.219ZM499.168 381.381C480.48 381.267 463.618 372.027 452.116 357.311C442.686 345.295 436.812 329.609 436.413 312.288C436.356 310.216 436.413 308.2 436.527 306.147C436.717 302.668 437.154 299.226 437.782 295.899C437.953 295.614 438.143 295.386 438.295 295.062C438.827 293.884 438.884 292.591 438.694 291.393C445.823 262.417 468.674 240.381 496.45 238.176C497.172 238.119 497.894 238.062 498.636 238.043C532.057 236.674 560.212 264.471 563.748 301.071C563.957 303.048 564.072 305.025 564.129 307.06C564.984 345.409 538.73 377.883 505.004 381.134C503.959 381.21 502.932 381.305 501.887 381.343C500.993 381.381 500.081 381.419 499.168 381.381Z" fill="#1D262C"/>
<path d="M252.063 185.624C252.025 187.868 254.269 189.807 256.569 191.214C256.588 191.233 256.588 191.214 256.588 191.214C258.47 192.374 260.409 193.153 261.227 193.495C305.788 217.718 350.35 241.978 394.893 266.201C405.482 271.962 416.033 277.704 426.622 283.446C426.033 287.134 425.634 290.899 425.482 294.72C425.387 296.698 425.368 298.694 425.406 300.709C425.463 302.801 425.577 304.873 425.748 306.946C429.474 349.059 461.108 381.419 499.149 381.4C500.062 381.419 500.974 381.4 501.887 381.362C502.932 381.324 503.959 381.248 505.005 381.153C542.855 377.845 572.741 342.899 574.452 300.614C574.965 299.854 575.383 299.036 575.554 298.066C576.277 293.808 580.573 290.556 583.083 289.016C587.398 286.335 592.189 284.605 597.094 283.883C597.55 283.807 597.987 283.769 598.443 283.731C598.9 283.693 599.337 283.636 599.793 283.617C600.287 283.579 600.782 283.56 601.257 283.56C601.732 283.541 602.189 283.541 602.683 283.541C603.063 283.541 603.443 283.56 603.824 283.579C605.858 283.674 607.873 283.959 609.869 284.434C618.823 286.545 627.112 292.458 632.587 300.652C632.625 300.728 632.72 300.747 632.758 300.823C632.435 304.379 632.226 307.953 632.321 311.585C632.321 311.718 632.321 311.851 632.34 311.984C632.378 314.018 632.492 316.015 632.663 318.011C636.484 360.03 668.043 392.295 706.065 392.257C706.977 392.276 707.89 392.257 708.802 392.219C709.848 392.18 710.874 392.104 711.92 392.009C728.821 390.526 744.125 382.769 756.063 370.867C770.816 356.151 780.417 335.104 781.443 311.794C781.462 311.299 781.5 310.824 781.462 310.311C781.519 308.714 781.538 307.117 781.5 305.482C781.443 303.067 781.253 300.709 781.006 298.333L791.747 293.18C791.747 292.895 791.709 292.629 791.671 292.325C791.462 288.389 791.139 284.491 790.758 280.594L778.972 286.259C775.284 270.669 767.698 256.942 757.451 246.465C743.687 232.32 725.19 224.049 705 224.848C671.75 226.217 644.108 251.903 635.249 286.05C628.804 279.415 620.705 274.681 612.15 272.665C600.706 269.965 588.235 272.114 577.931 278.521C576.239 279.567 574.699 280.727 573.33 281.924C566.904 242.035 535.346 212.489 498.084 214.01C466.051 215.303 439.246 239.278 429.436 271.562L396.471 253.253L339.381 221.52C303.678 200.568 260.466 176.916 254.44 181.802C252.197 183.59 252.063 185.453 252.063 185.624ZM701.939 237.092C703.061 236.997 704.182 236.921 705.304 236.864C707.053 236.788 708.783 236.788 710.494 236.864C732.357 237.929 751.406 251.504 761.938 271.486C765.968 279.054 768.763 287.533 770.018 296.621C770.455 299.626 770.702 302.706 770.759 305.862C770.816 307.896 770.778 309.912 770.664 311.908C770.056 323.563 766.957 334.533 761.919 344.135C751.083 364.84 731.349 379.176 708.517 380.107C700.837 380.43 693.46 379.214 686.578 376.685C663.461 368.243 646.104 345.2 643.423 316.946C643.233 315.026 643.1 313.087 643.062 311.09C642.226 272.893 668.347 240.438 701.939 237.092ZM503.598 226.026C536.449 227.643 563.007 257.493 563.862 295.024C563.919 297.059 563.882 299.074 563.767 301.071C561.98 335.275 538.654 363.68 508.541 368.566C506.278 368.947 503.959 369.194 501.621 369.27C468.18 370.639 440.006 342.804 436.546 306.166C436.337 304.227 436.204 302.249 436.166 300.272C436.014 294.625 436.546 289.149 437.535 283.864C437.706 283.598 437.915 283.35 438.048 283.046C438.599 281.848 438.637 280.556 438.466 279.358C440.139 272.532 442.706 266.087 445.994 260.193C456.983 240.438 476.241 226.92 498.408 226.026C500.157 225.95 501.887 225.95 503.598 226.026Z" fill="#3D2E16"/>
<path d="M753.262 312.599C754.836 280.506 734.341 253.421 707.484 252.104C680.627 250.786 657.579 275.734 656.005 307.827C654.43 339.921 674.926 367.005 701.783 368.323C728.64 369.641 751.688 344.692 753.262 312.599Z" fill="#00529C"/>
<path d="M743.896 312.244C745.141 286.863 728.808 265.437 707.415 264.387C686.022 263.338 667.67 283.062 666.425 308.443C665.18 333.824 681.513 355.25 702.906 356.299C724.299 357.349 742.651 337.625 743.896 312.244Z" fill="#1B090C"/>
<path opacity="0.63" d="M700.608 317.574C685.476 311.223 677.7 295.519 677.187 278.996C684.753 269.699 695.476 264.071 707.11 264.642C726.026 265.573 740.969 282.457 743.307 303.903C733.459 317.764 715.931 324.019 700.608 317.574Z" fill="#333232"/>
<path d="M734.467 276.226C734.836 268.696 730.367 262.357 724.483 262.068C718.6 261.78 713.532 267.65 713.162 275.181C712.793 282.711 717.263 289.05 723.146 289.338C729.029 289.627 734.098 283.756 734.467 276.226Z" fill="white"/>
<path opacity="0.1" d="M690.646 253.538C698.422 250.192 706.92 248.5 715.76 248.937C749.504 250.591 775.378 281.943 773.572 318.981C772.85 333.754 767.774 347.139 759.846 357.862C713.479 351.17 699.182 299.169 690.646 253.538Z" fill="white"/>
<path d="M731.882 414.312C747.946 415.091 790.854 424.883 794.466 400.508C798.819 371.057 750.303 374.841 733.859 374.042C722.775 373.491 713.27 382.123 712.737 393.188C712.186 404.254 720.798 413.76 731.882 414.312Z" fill="#F66A00"/>
<path d="M426.394 407.106C442.458 407.885 485.366 417.677 488.978 393.302C493.332 363.851 444.816 367.635 428.371 366.836C417.288 366.285 407.782 374.917 407.25 385.982C406.699 397.048 415.311 406.554 426.394 407.106Z" fill="#F66A00"/>
<path d="M458.96 334.02C462.781 338.735 471.963 337.537 490.195 332.765C533.635 321.434 542.171 319.779 542.684 314.646C542.874 312.707 542.038 310.064 540.27 308.98C537.209 307.098 532.38 310.406 528.388 312.535C521.886 316.015 514.244 317.023 498.94 319.038C486.792 320.635 480.709 321.491 473.313 320.92C466.697 320.407 461.698 319.19 458.941 322.175C456.336 324.951 456.355 330.807 458.96 334.02Z" fill="#3D2E16"/>
<path d="M472.287 258.767C474.207 257.778 475.861 258.33 483.123 260.44C495.29 263.957 494.625 263.577 496.031 264.186C500.29 266.011 503.541 268.254 509.567 273.35C524.339 285.841 532.133 295.481 533.939 297.724C544.243 310.615 543.35 313.581 542.684 314.646C541.696 316.224 539.281 316.585 537.684 316.471C532.704 316.091 530.023 310.539 526.012 304.588C524.13 301.774 516.81 291.089 506.278 283.731C502.039 280.765 495.423 276.145 486.868 275.841C480.67 275.631 476.032 276.259 476.032 276.259C469.91 277.095 467.192 278.521 465.823 277.095C464.568 275.764 465.5 273.065 467.287 267.931C469.15 262.569 470.081 259.889 472.287 258.767Z" fill="#3D2E16"/>
</svg>
