<svg width="95" height="75" viewBox="0 0 95 75" fill="none" xmlns="http://www.w3.org/2000/svg">
<path d="M94.0458 39.411C91.7157 31.794 87.715 24.5966 82.4763 18.5952C80.002 15.76 77.2335 13.1613 74.2478 10.8699C74.236 10.862 74.2261 10.8541 74.2143 10.8462C71.043 8.41495 67.6051 6.30875 63.9954 4.58675C58.6914 1.58605 52.4416 0 45.9154 0C40.0447 0 34.1859 1.25111 28.9708 3.61541C24.6127 5.59158 13.9693 11.5575 9.27551 24.2321C7.83993 28.1076 7.1172 32.1841 7.11522 36.3551C6.33326 35.5473 5.38147 34.8951 4.34082 34.4597C4.09596 34.3573 3.83728 34.306 3.5786 34.306C3.22711 34.306 2.8776 34.3986 2.56758 34.5838C2.03047 34.903 1.67503 35.4586 1.61381 36.0793C1.47954 37.4072 1.74612 38.7588 2.35826 39.9153C2.04232 39.9646 1.74019 40.0887 1.47756 40.2857C0.975998 40.6601 0.683748 41.2492 0.687697 41.8738C0.69757 43.4519 1.16754 45.0104 2.01665 46.3029C2.00282 46.3029 1.989 46.3029 1.97518 46.3029C1.40845 46.3029 0.865417 46.5472 0.488256 46.9767C0.0755517 47.4476 -0.0883453 48.084 0.0459318 48.6948C0.32041 49.9439 1.10238 52.324 3.25278 54.2745C2.92499 54.3199 2.5972 54.3711 2.27335 54.4361C1.65923 54.5583 1.13989 54.9641 0.873315 55.5296C0.606736 56.095 0.624508 56.7531 0.922682 57.3028C1.64936 58.6485 3.32585 61.1192 6.41619 62.6678C6.31746 62.6934 6.2207 62.7171 6.12197 62.7446C5.5197 62.9141 5.03393 63.3594 4.81277 63.9426C4.59161 64.5258 4.66072 65.1818 4.99839 65.7059C6.0647 67.3609 8.47774 70.3833 12.6403 72.0245C14.4728 72.7476 16.4139 73.1141 18.4103 73.1141C21.9864 73.1141 24.8161 71.926 25.8666 71.4157C26.4788 71.1182 26.8796 70.537 26.9606 69.8888C34.8533 74.1623 42.7638 74.8499 46.648 74.8893C46.7941 74.8893 46.9402 74.8912 47.0863 74.8912C53.4941 74.8912 59.9967 73.3288 65.893 70.3754C66.8014 69.9203 67.2141 68.8524 66.8488 67.9067C66.5486 67.1304 65.8042 66.6457 65.0064 66.6457C64.8307 66.6457 64.6549 66.6694 64.4792 66.7186C60.986 67.686 57.3822 68.1747 53.7686 68.1747C53.4922 68.1747 53.2137 68.1727 52.9313 68.1668C49.531 68.0959 46.1662 67.5974 42.9257 66.6852C42.9099 66.6812 42.8941 66.6773 42.8783 66.6733C41.7942 66.3679 40.7733 66.0291 39.7584 65.637C37.0748 64.6046 31.4905 62.457 27.3219 57.8033C24.2276 54.3514 21.937 49.5637 21.0386 44.6656C20.2961 40.6246 20.146 34.505 23.6372 28.2908C23.6491 28.2692 23.6629 28.2475 23.6767 28.2239C23.7932 29.3213 24.119 30.3576 24.6542 31.3191C24.36 31.4807 24.0953 31.6935 23.8722 31.9516C23.3391 32.5683 23.1041 33.3899 23.2245 34.2036C23.3647 35.1493 23.7241 36.0832 24.2355 36.8299C24.8497 37.7323 25.5467 38.4889 26.2892 39.1292C26.072 39.6356 26.0384 40.2286 26.1865 40.9024C26.3781 41.7634 26.7908 42.5062 27.1205 43.1032L27.158 43.1702C27.7603 44.2578 28.641 45.0439 29.7251 45.4852C29.7054 46.2714 30.1082 46.8881 30.2622 47.1245C31.0007 48.2554 32.1026 49.0159 33.4454 49.3253C33.5876 49.3588 33.7317 49.3844 33.8778 49.406C34.1385 49.9282 34.5393 50.3577 35.0073 50.6276C34.3478 50.9468 33.8916 51.6186 33.8916 52.3989V55.2242C33.8916 56.3118 34.7763 57.1944 35.8663 57.1944H36.5081C36.8201 57.1944 37.1163 57.1215 37.3769 56.9935C37.6396 57.1215 37.9338 57.1944 38.2458 57.1944H38.8856C38.8856 57.1944 38.8895 57.1944 38.8915 57.1944C38.8639 57.2496 38.8362 57.3048 38.8125 57.36C38.7493 57.5077 38.6703 57.7067 38.6328 57.953C38.5657 58.3825 38.6447 58.8101 38.8382 59.1746C38.7592 59.3893 38.7158 59.6198 38.7158 59.8543V60.3606C38.7158 61.4482 39.6004 62.3309 40.6904 62.3309H42.7223C42.9218 62.3309 43.1133 62.3013 43.295 62.2462C43.5912 62.3348 43.8973 62.3821 44.2093 62.3821C44.5213 62.3821 44.8214 62.3368 45.1156 62.2481C45.2381 62.2836 45.3644 62.3092 45.4948 62.321C45.0248 62.7328 44.7641 63.3574 44.8352 64.0135C44.9419 64.9809 45.7396 65.7256 46.7151 65.767C47.1574 65.7847 47.5879 65.7946 48.0263 65.7946C52.1928 65.7946 58.4486 64.9651 64.6194 61.0148C73.221 56.2822 79.226 48.5411 81.096 39.7617C81.9846 35.5926 81.9135 31.3763 80.8946 27.1658C81.2441 27.4653 81.5857 27.7707 81.9194 28.084C85.6258 31.5437 88.4476 35.7837 90.3078 40.6837C90.6059 41.4699 91.3563 41.9565 92.1541 41.9565C92.3654 41.9565 92.5806 41.923 92.7919 41.8501C93.8009 41.5073 94.3538 40.4276 94.0419 39.411H94.0458ZM17.5948 62.6698C17.6481 62.7269 17.7034 62.786 17.7567 62.8432C17.6678 62.8156 17.577 62.79 17.4862 62.7644C17.5237 62.7348 17.5592 62.7033 17.5948 62.6698ZM33.3901 28.3716C32.7088 27.6899 32.0039 26.9865 31.2752 26.3068C30.4162 25.5069 29.4506 24.7385 28.3211 23.9602C27.9716 23.7179 27.5885 23.5524 27.1916 23.4618C27.2765 23.3711 27.3614 23.2785 27.4483 23.1879C32.8648 18.6425 40.5956 15.7088 47.1693 15.7088C48.8892 15.7088 50.5144 15.9078 51.9993 16.3019C53.2848 16.6427 54.5585 17.0939 55.7907 17.6416C58.2787 18.743 60.5772 20.2128 62.625 22.0156C62.6388 22.0274 62.6506 22.0392 62.6645 22.0491C63.1739 22.4983 63.6597 22.9613 64.1237 23.4361C63.9105 23.4421 63.6913 23.4677 63.4721 23.5189C62.5085 23.7494 61.7344 24.1277 61.1696 24.6419C59.7795 25.9108 57.9588 27.5973 56.1836 29.404C55.5813 30.0168 54.9613 30.5862 54.3215 31.1201C54.4104 30.8482 54.4913 30.5724 54.5585 30.2887C55.1193 27.9224 54.8112 25.6507 53.6422 23.5327C51.9657 20.4946 48.7727 18.6071 45.3092 18.6071C43.7492 18.6071 42.1833 18.9932 40.7852 19.7242C39.9104 20.1813 39.0969 20.8039 38.5677 21.2472C38.2951 21.4757 38.0957 21.7673 37.9792 22.0865C37.7126 22.2599 37.4875 22.5003 37.3276 22.7938C37.1676 23.0894 36.9287 23.6568 36.6187 24.4804C36.5101 24.772 36.4725 25.0793 36.5041 25.3808C36.2889 25.5975 36.121 25.8674 36.0243 26.1728C35.89 26.5925 35.8288 26.8447 35.8031 27.0752C35.6511 28.4603 35.7794 29.7882 36.1862 31.0394C35.2364 30.2099 34.334 29.3134 33.3861 28.3677L33.3901 28.3716ZM40.2481 50.9724C40.8286 50.8167 41.3756 50.6237 41.8772 50.4365C42.2109 50.3104 42.5308 50.2473 42.827 50.2473C43.2219 50.2473 43.605 50.3596 43.996 50.5902C44.1204 50.6631 44.2547 50.7241 44.3929 50.7754H44.0414C43.4451 50.7754 42.9119 51.0394 42.5505 51.4551C42.436 51.463 42.3215 51.4748 42.2109 51.4985C42.1951 51.4985 41.5099 51.4985 41.5099 51.4985C41.3578 51.4985 41.2097 51.5182 41.0676 51.5497C40.9254 51.5122 40.7793 51.4827 40.6272 51.4669C40.5285 51.2837 40.4001 51.1182 40.2501 50.9763L40.2481 50.9724ZM47.037 38.5362C46.8553 38.5874 46.6954 38.6445 46.565 38.6938L46.5196 38.7095C46.2195 38.8179 45.9351 38.9873 45.6764 39.21C45.5441 39.3243 45.4118 39.4385 45.2795 39.5548C45.1038 39.4011 44.9201 39.2494 44.7227 39.1036C44.3435 38.8238 43.9368 38.6248 43.5201 38.5125C43.605 38.1598 43.6287 37.8091 43.5892 37.4643C44.1994 37.5727 44.8096 37.6298 45.402 37.6298C45.9312 37.6298 46.4505 37.5845 46.96 37.4978C46.9284 37.8367 46.9521 38.1874 47.039 38.5381L47.037 38.5362ZM48.052 51.1005C47.9335 51.2226 47.8288 51.3546 47.74 51.4965H47.6096C47.4536 51.4965 47.3036 51.5162 47.1574 51.5497C46.8988 51.4807 46.6282 51.4452 46.3458 51.4452C46.2866 51.4452 46.2293 51.4472 46.1721 51.4512C45.9786 51.2305 45.7396 51.0532 45.4671 50.9369C45.8719 50.9133 46.253 50.7951 46.5789 50.5921C46.9521 50.3577 47.3115 50.2473 47.7123 50.2473C48.0638 50.2473 48.4587 50.334 48.8853 50.5074C48.909 50.5173 48.9307 50.5251 48.9524 50.533C48.6167 50.6493 48.3067 50.8424 48.05 51.1044L48.052 51.1005ZM70.5927 39.411C70.3064 47.3629 65.4389 54.777 57.8759 58.814L51.9361 60.3941C52.0329 60.1045 52.0842 59.7991 52.0842 59.4839C52.0842 59.1864 52.0388 58.9027 51.9519 58.6327C51.9677 58.5145 51.9756 58.3943 51.9756 58.2741C51.9756 58.0476 51.948 57.8269 51.8947 57.6121C51.9914 57.6752 52.0901 57.7363 52.1968 57.7875C52.4673 57.9215 52.7596 58.016 53.0637 58.0692C53.2986 58.1106 53.5376 58.1323 53.7745 58.1323C54.2366 58.1323 54.675 58.0476 55.0758 57.884C55.5735 57.6791 56.0019 57.3462 56.312 56.9186C56.6516 56.4497 56.8333 55.8803 56.8333 55.2715V53.4648C56.8333 52.3772 55.9486 51.4945 54.8586 51.4945C54.8586 51.4945 54.1754 51.4945 54.1596 51.4945C53.9838 51.461 53.8002 51.4433 53.6126 51.4433C53.2809 51.4433 52.959 51.5004 52.6569 51.6068C52.3508 51.5004 52.0329 51.4433 51.7071 51.4433C51.6972 51.4433 51.6873 51.4433 51.6774 51.4433C51.6221 51.3625 51.5629 51.2857 51.4997 51.2108C51.8473 51.2561 52.1908 51.2817 52.5285 51.2817C52.8662 51.2817 53.1841 51.26 53.506 51.2187C54.3887 51.1024 55.1726 50.7458 55.684 50.4857C56.1737 50.2375 56.5489 49.8513 56.7681 49.3923C58.2452 49.1341 59.6709 48.1963 60.4133 46.9353C60.7372 46.3856 60.8221 45.8832 60.8063 45.4734C62.8876 44.6183 63.7189 42.7269 64.0151 42.0511C64.2501 41.5152 64.3883 40.8867 64.412 40.2306C64.4278 39.8011 64.3567 39.4464 64.2422 39.1548C64.73 38.7352 65.1999 38.2643 65.6363 37.7323L65.7094 37.6436C66.4341 36.7629 67.4273 35.5571 67.3563 33.7445C67.3148 32.6865 66.7283 31.7841 65.8753 31.3132C66.6 30.0148 66.9258 28.5095 66.8626 26.7718C69.4553 30.5823 70.7566 34.9188 70.5967 39.407L70.5927 39.411Z" fill="white"/>
<path d="M65.006 68.135C61.5637 69.8622 55.0698 72.5337 46.6771 72.443C42.8657 72.4036 28.1567 71.68 17.8731 59.5151C12.6997 53.3951 9.24158 45.0867 9.11328 36.3701C10.0074 42.2594 12.0582 46.4609 13.5031 48.9156C19.1541 58.5194 28.0462 62.6736 32.2406 64.6334C36.3323 66.5459 39.9464 67.5495 42.39 68.0976C42.3939 68.0976 42.3959 68.0995 42.3998 68.0995C44.954 68.8192 48.574 69.5645 52.8947 69.6552C57.9713 69.7616 62.1519 68.9257 65.006 68.135Z" fill="url(#paint0_linear_381_2751)"/>
<path d="M74.2832 45.8754C71.9344 53.4819 66.086 57.2458 63.6029 58.8428C63.6029 58.8448 63.6009 58.8448 63.6009 58.8448C58.6999 61.5301 52.9659 63.1508 46.8076 63.3184C61.0507 62.7348 72.1061 51.6424 72.5621 38.9826C72.8345 31.4036 69.2579 24.7159 63.9345 20.0293C65.7919 21.1019 69.0072 23.2904 71.5554 27.1784C72.1752 28.1268 77.2696 36.1986 74.2832 45.8754Z" fill="url(#paint1_linear_381_2751)"/>
<path d="M92.1467 39.4889C90.8736 36.1312 88.3273 30.8709 83.2645 26.139C81.0893 24.1043 78.9102 22.5999 77.0015 21.4919C77.0055 21.5018 77.0114 21.5116 77.0154 21.5215C75.3139 20.4095 73.4506 19.3842 71.4097 18.497C65.7507 16.0364 60.3168 15.4114 56.5981 15.3286C55.2697 14.7371 53.9019 14.254 52.5163 13.8853C43.8334 11.5805 32.7563 15.6125 26.1006 21.2533C28.6054 18.1165 34.3117 14.0194 38.9719 11.8073C50.7201 6.23346 61.7202 8.65265 65.0422 9.3782C68.3305 10.0978 71.1294 11.0916 73.0421 11.9157C75.6317 13.9051 78.3516 16.3617 80.9808 19.3783C87.7214 27.1071 90.7591 34.9483 92.1467 39.4889Z" fill="url(#paint2_linear_381_2751)"/>
<path d="M79.1624 38.8556C77.3781 47.2389 71.6007 54.461 63.6047 58.842C66.0878 57.245 71.9362 53.4811 74.2851 45.8746C77.2715 36.1978 72.177 28.126 71.5573 27.1776C69.0091 23.2896 65.7937 21.1011 63.9363 20.0285H63.9344C61.7375 18.0923 59.2426 16.4993 56.5977 15.3281C60.3163 15.4109 65.7503 16.0359 71.4092 18.4965C73.4502 19.3838 75.3134 20.409 77.0149 21.521C79.192 26.2864 80.5717 32.2329 79.1624 38.8556Z" fill="url(#paint3_linear_381_2751)"/>
<path d="M25.0184 69.1661C24.1519 69.588 19.0693 71.9579 13.3867 69.7162C9.4884 68.1763 7.41588 65.2978 6.68359 64.1601C8.30608 63.7027 11.2964 63.0915 14.9519 63.7165C19.3378 64.4657 22.3202 66.5912 23.6644 67.6874C21.9866 67.5257 20.222 67.3049 18.3765 67.0111C16.9948 66.7903 15.6704 66.5458 14.4012 66.2816C14.3183 66.2639 14.2789 66.3782 14.3558 66.4157C15.7928 67.1097 17.5969 67.8274 19.7306 68.3636C21.7241 68.8644 23.5243 69.0833 25.0184 69.1661Z" fill="url(#paint4_linear_381_2751)"/>
<path d="M16.2704 60.7474C15.5894 61.0155 11.6042 62.512 7.43552 60.4812C4.57545 59.0873 3.17601 56.7864 2.68848 55.8834C3.94383 55.633 6.24333 55.3451 8.97313 56.0332C12.2477 56.8573 14.3814 58.6417 15.3348 59.5506C14.0755 59.3298 12.751 59.0597 11.3733 58.7284C10.341 58.48 9.3521 58.2178 8.40862 57.9437C8.34743 57.926 8.30993 58.0107 8.36519 58.0423C9.41329 58.6515 10.7338 59.3002 12.3188 59.8325C13.7991 60.3274 15.1472 60.5995 16.2723 60.7513L16.2704 60.7474Z" fill="url(#paint5_linear_381_2751)"/>
<path d="M11.3678 54.5035C10.7855 54.5607 7.39249 54.8347 4.63703 52.3584C2.74611 50.6588 2.17764 48.5847 2 47.7822C3.01849 47.865 4.8502 48.1489 6.79639 49.2767C9.13142 50.6293 10.3769 52.4688 10.9098 53.3757C9.99004 52.9302 9.03273 52.4313 8.04582 51.8753C7.30761 51.4593 6.60493 51.0394 5.93975 50.6214C5.89633 50.5938 5.84896 50.6509 5.88448 50.6864C6.55558 51.3844 7.42801 52.173 8.52941 52.9301C9.55777 53.636 10.5348 54.1407 11.3658 54.5035H11.3678Z" fill="url(#paint6_linear_381_2751)"/>
<path d="M8.25073 47.4704C7.83426 47.4231 5.41632 47.1115 3.85305 44.9664C2.78127 43.4936 2.69047 41.9557 2.68652 41.3662C3.3892 41.5752 4.62877 42.0464 5.8249 43.1269C7.25987 44.4222 7.85991 45.897 8.09875 46.6127C7.52042 46.1632 6.92432 45.6722 6.31441 45.134C5.85846 44.7318 5.42816 44.3335 5.0255 43.9412C4.99984 43.9155 4.95839 43.949 4.97813 43.9786C5.34526 44.5681 5.83872 45.2503 6.49798 45.9443C7.11381 46.591 7.72372 47.0918 8.25271 47.4684L8.25073 47.4704Z" fill="url(#paint7_linear_381_2751)"/>
<path d="M7.39224 40.944C7.07446 40.873 5.23485 40.4333 4.20452 38.651C3.49789 37.4266 3.55513 36.2318 3.6025 35.7783C4.12754 35.9972 5.04537 36.4625 5.88029 37.3951C6.88102 38.513 7.22249 39.6999 7.34684 40.2717C6.93826 39.8773 6.51784 39.4495 6.09347 38.9842C5.77568 38.6372 5.47566 38.2941 5.19735 37.9589C5.17959 37.9373 5.14406 37.9589 5.15787 37.9846C5.39276 38.4696 5.71647 39.0374 6.16847 39.625C6.5889 40.1751 7.01919 40.6108 7.39619 40.946L7.39224 40.944Z" fill="url(#paint8_linear_381_2751)"/>
<path d="M73.0404 11.9156C71.1277 11.0915 68.3289 10.0978 65.0405 9.37816C61.7185 8.6526 50.7184 6.23341 38.9702 11.8072C34.31 14.0194 30.6802 16.8684 27.9543 19.5242C25.5699 21.5451 23.5171 23.9958 21.9341 26.8152C15.3613 38.5247 19.682 51.7189 25.868 58.6275C30.3525 63.6394 36.3648 65.9541 39.063 66.9931C39.7538 67.2593 40.8868 67.6733 42.3908 68.0972C39.9473 67.5491 36.3332 66.5455 32.2414 64.6331C28.0471 62.6733 19.155 58.519 13.5039 48.9152C12.0591 46.4606 9.7063 42.2708 9.11416 36.3698C9.05494 32.4107 9.68459 28.3669 11.1492 24.4059C15.8133 11.7973 26.6318 6.32607 29.8018 4.88679C39.3985 0.529485 52.4593 -0.245365 63.1022 5.82528C65.6425 7.03389 69.1973 8.96214 73.0404 11.9156Z" fill="url(#paint9_linear_381_2751)"/>
<path d="M35.4151 40.5278C34.748 40.3504 34.0789 40.1847 33.4156 39.9955C30.4312 39.1477 27.6995 37.8799 25.8855 35.2182C25.5302 34.6957 25.2894 34.0352 25.1966 33.4082C25.0901 32.6906 25.846 32.1996 26.4875 32.5407C27.7567 33.217 28.9982 33.9485 30.2279 34.6937C32.0438 35.7919 33.8736 36.8645 35.8948 37.5526C36.4455 37.7399 37.0297 37.8306 37.6002 37.9667C37.6238 37.9174 37.6475 37.8681 37.6712 37.8188C37.5192 37.7064 37.3811 37.5684 37.2133 37.4895C34.4894 36.1981 31.8958 34.6898 29.5035 32.8582C28.3923 32.0064 27.1942 31.2257 26.4619 29.9638C25.6565 28.5778 25.475 27.0872 25.7217 25.5355C25.8243 24.8928 26.5645 24.6227 27.2178 25.0722C28.1712 25.7307 29.0969 26.4484 29.9437 27.239C31.7636 28.9386 33.4374 30.8057 35.3401 32.4047C36.7633 33.5995 38.4568 34.471 40.0181 35.5041C40.4504 35.79 40.8806 36.0995 41.2438 36.4662C41.7491 36.9729 41.761 37.4718 41.384 38.0613C39.7556 40.6165 40.6931 43.6903 43.4821 44.9462C45.1638 45.7033 47.1337 45.3208 48.5943 43.9565C49.8536 42.7794 50.3313 40.7565 49.7115 39.1457C49.5694 38.777 49.3937 38.4142 49.1865 38.0771C48.8253 37.4935 48.8016 36.9335 49.3227 36.482C49.9484 35.9398 50.6215 35.4272 51.3459 35.0329C53.675 33.7612 55.7435 32.1779 57.6029 30.2852C59.1879 28.6704 60.8399 27.1207 62.5098 25.5927C62.8809 25.2536 63.4355 25.0525 63.9388 24.9302C64.4797 24.8001 64.7797 25.0545 64.8369 25.6065C65.0817 27.9409 64.6001 29.9875 62.6736 31.5865C59.8432 33.9307 56.764 35.859 53.4519 37.4363C53.2644 37.525 53.1026 37.6689 52.9289 37.7872C52.9525 37.8464 52.9782 37.9055 53.0019 37.9647C53.596 37.8168 54.204 37.7123 54.7803 37.5132C57.4351 36.5983 59.7504 35.0427 62.1269 33.6034C62.7802 33.2071 63.4572 32.8463 64.1441 32.5171C64.7205 32.241 65.358 32.6768 65.3817 33.3235C65.4251 34.4315 64.7461 35.2103 64.1086 35.9871C62.4901 37.9588 60.2873 39.0057 57.9226 39.7667C57.0048 40.0625 56.0653 40.2853 55.0251 40.5712C55.1928 40.6579 55.2501 40.7171 55.3034 40.7131C57.5298 40.5278 59.7445 40.2932 61.7913 39.2936C62.2157 39.0865 62.4545 39.2048 62.4368 39.6642C62.423 40.0369 62.3539 40.4292 62.2039 40.7683C61.663 42.0045 60.8952 43.0259 59.4721 43.3413C59.3201 43.3748 59.1681 43.4379 59.0181 43.434C57.743 43.4024 56.4699 43.3531 55.1968 43.3216C55.0764 43.3177 54.956 43.3867 54.8336 43.4221C54.9027 43.5266 54.9481 43.6942 55.0428 43.7278C55.5462 43.9072 56.0593 44.0688 56.5765 44.2088C57.1943 44.3784 57.8239 44.5105 58.4418 44.6761C58.8878 44.7964 58.9155 45.1 58.7122 45.445C58.1733 46.3599 56.8982 47.1091 55.7139 46.9888C54.8474 46.9001 54.0559 46.6339 53.3177 46.1824C53.219 46.1233 53.0966 46.1016 52.9861 46.0622C52.9407 46.1036 52.8973 46.145 52.8519 46.1844C53.0532 46.423 53.217 46.7128 53.4638 46.8883C53.8566 47.1702 54.2947 47.393 54.727 47.6119C55.104 47.8031 55.0862 48.087 54.7922 48.2369C54.3105 48.4814 53.7816 48.7041 53.2526 48.7731C52.0012 48.9368 50.807 48.6529 49.6346 48.1817C48.2489 47.6237 46.8633 47.5921 45.5369 48.4301C45.4145 48.507 45.1481 48.4794 45.0099 48.3985C43.7822 47.6769 42.5031 47.6079 41.1965 48.0989C39.9786 48.5563 38.7529 48.9486 37.4324 48.7889C36.9705 48.7337 36.5047 48.6253 36.0724 48.4597C35.8691 48.3808 35.6895 48.1265 35.6105 47.9096C35.5829 47.8347 35.881 47.6217 36.0487 47.4995C36.5481 47.1347 37.0593 46.7897 37.5587 46.4249C37.6278 46.3737 37.6436 46.2514 37.7462 46.0208C37.4659 46.1272 37.2982 46.1706 37.1481 46.2495C36.1336 46.7976 35.0875 47.1801 33.9071 46.91C33.0722 46.7187 32.3972 46.2593 31.9373 45.5535C31.5603 44.9758 31.651 44.7983 32.3932 44.5677C33.1867 44.3212 34.0177 44.199 34.8289 44.0058C35.0638 43.9505 35.2947 43.8579 35.5079 43.7435C35.6105 43.6883 35.6619 43.5424 35.7369 43.4379C35.6184 43.3965 35.5 43.3177 35.3816 43.3196C34.2308 43.3531 33.0781 43.4419 31.9274 43.432C30.6247 43.4202 29.5568 42.8918 28.9094 41.7187C28.6015 41.1627 28.2738 40.585 28.1376 39.9757C27.9718 39.2305 28.264 39.0688 28.9647 39.3724C30.5753 40.0664 32.2491 40.4943 34.0117 40.5672C34.4697 40.5869 34.9276 40.6638 35.3835 40.7151C35.3954 40.652 35.4092 40.5909 35.4211 40.5278H35.4151Z" fill="#124CEB"/>
<path d="M51.9216 23.9824C49.8748 20.2679 45.3567 19.0612 41.715 20.9658C41.1011 21.2872 40.4478 21.7545 39.8517 22.2533C40.8998 22.2612 40.7143 22.6299 40.6985 23.5388C40.6926 23.8247 40.5149 23.9213 40.2721 23.9154C39.9543 23.9075 39.299 24.0041 39.149 23.7754C39.0701 23.6551 39.0938 23.4777 39.078 23.2312C38.9576 23.452 38.7207 24.0356 38.4838 24.6705C38.9773 24.6823 38.9773 24.7789 38.9773 25.4828C38.9773 26.0086 38.7332 26.2715 38.245 26.2715C38.1187 26.2715 38.0101 26.2715 37.9213 26.2675C37.8424 26.5159 37.7891 26.7052 37.7812 26.79C37.6075 28.3752 37.8858 29.8756 38.6654 31.2597C39.8221 33.3141 41.563 34.5878 43.9 35.0156C45.5837 35.3252 47.22 35.1399 48.73 34.3433C50.7689 33.2688 52.1091 31.6067 52.646 29.3354C53.0921 27.4544 52.8454 25.6543 51.9236 23.9804L51.9216 23.9824ZM41.8433 24.1717C41.8433 23.4619 41.8788 23.4303 42.623 23.4264C43.4204 23.4244 43.4539 23.456 43.4539 24.2348C43.4539 24.7316 43.1822 24.98 42.6387 24.98C42.0953 24.98 41.8301 24.7106 41.8433 24.1717ZM42.8342 27.6536C43.325 27.6536 43.5704 27.9158 43.5704 28.4403C43.5704 28.9884 43.3171 29.2624 42.8105 29.2624C42.013 29.2624 41.9894 29.2407 41.9913 28.4462C41.9913 27.6733 42.015 27.6536 42.8342 27.6536ZM39.9445 27.279C39.9445 26.4962 39.9622 26.4805 40.7182 26.4805C41.2288 26.4805 41.4841 26.7525 41.4841 27.2967C41.4841 27.8225 41.24 28.0854 40.7518 28.0854C39.9484 28.0854 39.9445 28.0814 39.9464 27.2809L39.9445 27.279ZM41.6124 31.2301C40.7676 31.2242 40.8939 31.2794 40.888 30.3863C40.882 29.6528 40.888 29.6528 41.642 29.6528C42.4374 29.6528 42.4631 29.6784 42.4631 30.471C42.4631 30.9771 42.1795 31.2295 41.6124 31.2281V31.2301ZM43.8349 32.904C43.8349 33.3982 43.55 33.6454 42.9802 33.6454C42.4999 33.6454 42.2598 33.3792 42.2598 32.8468C42.2598 32.3316 42.5183 32.074 43.0355 32.074C43.8171 32.074 43.8349 32.0937 43.8329 32.904H43.8349ZM44.4073 26.1473C44.4073 26.6441 44.1356 26.8925 43.5921 26.8925C43.0605 26.8925 42.7953 26.6231 42.7966 26.0842C42.7966 25.3744 42.8322 25.3428 43.5763 25.3389C44.3737 25.3369 44.4073 25.3685 44.4053 26.1473H44.4073ZM44.6126 22.8349C44.6126 22.3367 44.885 22.0883 45.4297 22.0896C45.935 22.0896 46.1877 22.3486 46.1877 22.8665C46.1877 23.3935 45.9344 23.6571 45.4278 23.6571C44.6284 23.6571 44.6126 23.6413 44.6126 22.8349ZM45.7771 27.6437C45.0054 27.6437 44.9836 27.622 44.9836 26.863C44.9836 26.0881 44.9876 26.0842 45.7673 26.0842C46.2699 26.0842 46.5213 26.3398 46.5213 26.8511C46.5213 27.3795 46.2732 27.6437 45.7771 27.6437Z" fill="#124CEB"/>
<path d="M45.2112 41.745C45.8409 41.1949 46.4073 40.6981 46.9778 40.2032C47.0429 40.146 47.1179 40.0948 47.1988 40.0672C47.6133 39.9173 48.1226 39.7123 48.4226 40.079C48.6476 40.3511 48.7128 40.8637 48.6536 41.2364C48.4088 42.7585 47.3232 43.7285 46.1626 43.9414C44.2618 44.2904 43.0972 43.6891 42.2248 42.1985C42.0728 41.9383 42.0136 41.6208 41.9327 41.3251C41.8083 40.8755 41.7432 40.3826 42.1498 40.0731C42.6058 39.7261 43.1407 39.8858 43.5532 40.1914C44.0506 40.5601 44.4829 41.0136 44.9388 41.4355C45.0493 41.538 45.1382 41.6622 45.2092 41.745H45.2112Z" fill="#124CEB"/>
<path d="M38.8988 51.9102V54.7375H38.2593V53.0734L38.287 52.6002L38.1784 53.1424L37.7027 54.5107H37.075L36.6013 53.1424L36.4947 52.6002L36.5224 53.0734V54.7375H35.8809V51.9102H36.7809L37.3514 53.797L37.3908 54.0218L37.4303 53.797L38.0007 51.9102H38.9008H38.8988Z" fill="#124CEB"/>
<path d="M39.9312 53.9964C39.9352 54.0595 39.9549 54.1147 39.9904 54.1639C40.026 54.2132 40.0753 54.2507 40.1385 54.2783C40.2016 54.3059 40.2766 54.3197 40.3655 54.3197C40.4484 54.3197 40.5234 54.3118 40.5905 54.296C40.6576 54.2803 40.7148 54.2586 40.7642 54.231C40.8135 54.2054 40.851 54.1777 40.8787 54.1501L41.1313 54.5524C41.0938 54.5918 41.0425 54.6273 40.9793 54.6647C40.9142 54.7002 40.8293 54.7298 40.7247 54.7535C40.6181 54.7771 40.4859 54.789 40.324 54.789C40.1286 54.789 39.9549 54.7535 39.8029 54.6805C39.6509 54.6076 39.5325 54.5011 39.4476 54.3591C39.3628 54.2172 39.3193 54.0437 39.3193 53.8386C39.3193 53.6671 39.3568 53.5133 39.4299 53.3753C39.5049 53.2373 39.6134 53.1288 39.7555 53.048C39.8977 52.9672 40.0714 52.9277 40.2727 52.9277C40.474 52.9277 40.63 52.9632 40.7721 53.0322C40.9122 53.1012 41.0208 53.2057 41.0977 53.3438C41.1728 53.4818 41.2122 53.6533 41.2122 53.8583V53.9254C41.2122 53.9609 41.2122 53.9826 41.2083 53.9944H39.9352L39.9312 53.9964ZM40.5984 53.6553C40.5984 53.6099 40.5846 53.5646 40.5628 53.5173C40.5392 53.4719 40.5056 53.4344 40.4602 53.4049C40.4148 53.3753 40.3556 53.3615 40.2845 53.3615C40.2135 53.3615 40.1503 53.3753 40.1029 53.4049C40.0536 53.4344 40.0181 53.4699 39.9924 53.5133C39.9667 53.5567 39.951 53.604 39.947 53.6553H40.6003H40.5984Z" fill="#124CEB"/>
<path d="M42.7571 52.9277C42.8795 52.9277 42.9999 52.9534 43.1164 53.0027C43.2328 53.0519 43.3295 53.1308 43.4065 53.2393C43.4815 53.3477 43.521 53.4897 43.521 53.6651V54.7377H42.8677V53.7716C42.8677 53.6454 42.8381 53.5508 42.7769 53.4877C42.7157 53.4246 42.6387 53.393 42.542 53.393C42.4769 53.393 42.4176 53.4088 42.3604 53.4423C42.3032 53.4759 42.2578 53.5232 42.2222 53.5843C42.1867 53.6454 42.1689 53.7144 42.1689 53.7933V54.7377H41.5176V52.979H42.1689V53.2373C42.1867 53.19 42.2222 53.1426 42.2775 53.0953C42.3328 53.048 42.4018 53.0066 42.4848 52.9751C42.5677 52.9435 42.6584 52.9277 42.7552 52.9277H42.7571Z" fill="#124CEB"/>
<path d="M43.75 52.9794H44.05V52.2578H44.6955V52.9794H45.0902V53.5157H44.6955V54.0066C44.6955 54.0796 44.7053 54.1388 44.727 54.1841C44.7488 54.2294 44.7882 54.2511 44.8455 54.2511C44.8849 54.2511 44.9165 54.2432 44.9442 54.2255C44.9718 54.2078 44.9876 54.1979 44.9935 54.192L45.2165 54.6553C45.2067 54.6632 45.1751 54.679 45.1238 54.7026C45.0725 54.7263 45.0054 54.746 44.9264 54.7638C44.8455 54.7815 44.7566 54.7914 44.658 54.7914C44.4823 54.7914 44.3362 54.7421 44.2217 54.6435C44.1073 54.5449 44.05 54.3911 44.05 54.1841V53.5177H43.75V52.9814V52.9794Z" fill="#124CEB"/>
<path d="M46.3561 54.789C46.1627 54.789 45.991 54.7495 45.8429 54.6707C45.6929 54.5918 45.5765 54.4814 45.4916 54.3434C45.4067 54.2054 45.3633 54.0437 45.3633 53.8643C45.3633 53.6848 45.4067 53.5232 45.4916 53.3832C45.5765 53.2432 45.6929 53.1308 45.8429 53.05C45.9929 52.9691 46.1627 52.9277 46.3561 52.9277C46.5495 52.9277 46.7193 52.9691 46.8654 53.05C47.0134 53.1308 47.1279 53.2432 47.2108 53.3832C47.2937 53.5232 47.3351 53.6848 47.3351 53.8643C47.3351 54.0437 47.2937 54.2034 47.2108 54.3434C47.1279 54.4834 47.0134 54.5918 46.8654 54.6707C46.7173 54.7495 46.5476 54.789 46.3561 54.789ZM46.3561 54.2527C46.4311 54.2527 46.4943 54.2369 46.5495 54.2034C46.6028 54.1699 46.6463 54.1245 46.6759 54.0634C46.7055 54.0042 46.7213 53.9352 46.7213 53.8603C46.7213 53.7854 46.7055 53.7144 46.6759 53.6553C46.6463 53.5961 46.6028 53.5488 46.5495 53.5133C46.4943 53.4798 46.4311 53.4621 46.3561 53.4621C46.2811 53.4621 46.2179 53.4798 46.1627 53.5133C46.1074 53.5468 46.064 53.5941 46.0344 53.6553C46.0028 53.7144 45.989 53.7834 45.989 53.8603C45.989 53.9372 46.0048 54.0042 46.0344 54.0634C46.066 54.1225 46.1074 54.1699 46.1627 54.2034C46.2179 54.2369 46.2831 54.2527 46.3561 54.2527Z" fill="#124CEB"/>
<path d="M48.2705 54.7377H47.6191V52.979H48.2705V53.2511H48.2606C48.2725 53.2176 48.3001 53.1762 48.3435 53.1249C48.387 53.0736 48.4501 53.0283 48.5291 52.9869C48.608 52.9455 48.7067 52.9258 48.8232 52.9258C48.9041 52.9258 48.9791 52.9376 49.0482 52.9632C49.1173 52.9889 49.1666 53.0125 49.1982 53.0342L48.9456 53.5626C48.9258 53.539 48.8903 53.5133 48.839 53.4857C48.7876 53.4601 48.7245 53.4463 48.6495 53.4463C48.5626 53.4463 48.4896 53.468 48.4343 53.5133C48.3791 53.5587 48.3356 53.6119 48.31 53.673C48.2843 53.7342 48.2705 53.7953 48.2705 53.8505V54.7338V54.7377Z" fill="#124CEB"/>
<path d="M49.7314 52.6163C49.6288 52.6163 49.5419 52.5808 49.4689 52.5079C49.3978 52.4349 49.3623 52.3501 49.3623 52.2496C49.3623 52.149 49.3978 52.0623 49.4709 51.9893C49.5439 51.9164 49.6307 51.8789 49.7314 51.8789C49.7985 51.8789 49.8597 51.8947 49.915 51.9282C49.9702 51.9617 50.0156 52.0071 50.0492 52.0623C50.0827 52.1175 50.1005 52.1806 50.1005 52.2496C50.1005 52.3501 50.065 52.4349 49.992 52.5079C49.9189 52.5808 49.8321 52.6163 49.7294 52.6163H49.7314ZM49.3959 54.7358V52.9771H50.0472V54.7358H49.3959Z" fill="#124CEB"/>
<path d="M51.7083 52.9277C51.8307 52.9277 51.9511 52.9534 52.0695 53.0027C52.186 53.0519 52.2827 53.1308 52.3597 53.2393C52.4347 53.3477 52.4742 53.4897 52.4742 53.6651V54.7377H51.8208V53.7716C51.8208 53.6454 51.7912 53.5508 51.73 53.4877C51.6688 53.4246 51.5919 53.393 51.4932 53.393C51.428 53.393 51.3688 53.4088 51.3116 53.4423C51.2543 53.4759 51.2089 53.5232 51.1734 53.5843C51.1379 53.6454 51.1201 53.7144 51.1201 53.7933V54.7377H50.4688V52.979H51.1201V53.2373C51.1379 53.19 51.1734 53.1426 51.2287 53.0953C51.2839 53.048 51.353 53.0066 51.4359 52.9751C51.5188 52.9435 51.6096 52.9277 51.7063 52.9277H51.7083Z" fill="#124CEB"/>
<path d="M54.2175 54.7377V54.4538C54.2036 54.4814 54.1721 54.5228 54.1207 54.578C54.0694 54.6332 54.0003 54.6805 53.9135 54.7239C53.8267 54.7673 53.728 54.789 53.6135 54.789C53.4418 54.789 53.2917 54.7476 53.1634 54.6628C53.0351 54.58 52.9345 54.4676 52.8634 54.3256C52.7924 54.1837 52.7568 54.0299 52.7568 53.8583C52.7568 53.6868 52.7924 53.5311 52.8634 53.3911C52.9345 53.2511 53.0351 53.1387 53.1634 53.0539C53.2917 52.9691 53.4418 52.9277 53.6135 52.9277C53.724 52.9277 53.8207 52.9455 53.9036 52.981C53.9865 53.0165 54.0536 53.0579 54.105 53.1052C54.1563 53.1525 54.1918 53.1959 54.2115 53.2373V52.981H54.859V54.7397H54.2175V54.7377ZM53.7753 55.6782C53.653 55.6782 53.5306 55.6683 53.4102 55.6466C53.2898 55.6249 53.1773 55.5894 53.0726 55.5382C52.968 55.4869 52.8812 55.4159 52.8082 55.3252L53.1891 54.9289C53.2227 54.9684 53.2621 55.0058 53.3095 55.0433C53.3569 55.0808 53.4161 55.1103 53.4872 55.136C53.5582 55.1596 53.6431 55.1714 53.7457 55.1714C53.8405 55.1714 53.9214 55.1557 53.9925 55.1222C54.0635 55.0886 54.1168 55.0413 54.1563 54.9782C54.1958 54.9151 54.2155 54.8382 54.2155 54.7495V54.7061H54.857V54.787C54.857 54.9802 54.8076 55.1438 54.7129 55.2779C54.6162 55.41 54.4859 55.5106 54.3241 55.5776C54.1602 55.6446 53.9786 55.6782 53.7753 55.6782ZM53.3944 53.8603C53.3944 53.9412 53.4121 54.0121 53.4496 54.0752C53.4872 54.1383 53.5365 54.1876 53.5977 54.2231C53.6589 54.2586 53.728 54.2763 53.8049 54.2763C53.8819 54.2763 53.953 54.2586 54.0122 54.2231C54.0714 54.1876 54.1188 54.1383 54.1543 54.0752C54.1898 54.0121 54.2076 53.9392 54.2076 53.8603C54.2076 53.7815 54.1898 53.7085 54.1543 53.6454C54.1188 53.5823 54.0714 53.5311 54.0122 53.4956C53.953 53.4601 53.8819 53.4404 53.8049 53.4404C53.728 53.4404 53.6608 53.4581 53.5977 53.4956C53.5345 53.5311 53.4852 53.5823 53.4496 53.6454C53.4121 53.7085 53.3944 53.7815 53.3944 53.8603Z" fill="#124CEB"/>
<path d="M41.7326 57.5432C41.6379 57.5432 41.555 57.5649 41.482 57.6102C41.4089 57.6556 41.3497 57.7068 41.3004 57.768C41.251 57.8271 41.2135 57.8823 41.1879 57.9316C41.1622 57.9809 41.1484 58.0105 41.1444 58.0184L40.5957 57.768C40.5977 57.7502 40.6115 57.7128 40.6372 57.6556C40.6608 57.5984 40.7003 57.5333 40.7536 57.4604C40.8069 57.3874 40.876 57.3145 40.9628 57.2435C41.0497 57.1725 41.1563 57.1153 41.2826 57.068C41.4089 57.0207 41.5589 56.999 41.7326 56.999C41.932 56.999 42.0998 57.0286 42.232 57.0838C42.3643 57.141 42.4689 57.2159 42.5458 57.3086C42.6228 57.4012 42.6761 57.4998 42.7097 57.6063C42.7432 57.7128 42.759 57.8172 42.759 57.9139C42.759 58.0361 42.7353 58.1564 42.686 58.2707C42.6366 58.3851 42.5735 58.4935 42.4945 58.596C42.4156 58.6986 42.3307 58.7912 42.2419 58.876C42.1511 58.9608 42.0662 59.0357 41.9833 59.0988C41.9004 59.1619 41.8313 59.2132 41.7741 59.2506C41.7168 59.2881 41.6833 59.3098 41.6714 59.3196H42.7373V59.8756H40.7062V59.3689C40.728 59.3531 40.7753 59.3177 40.8523 59.2644C40.9293 59.2112 41.0201 59.1422 41.1267 59.0613C41.2332 58.9805 41.3438 58.8898 41.4583 58.7932C41.5727 58.6946 41.6813 58.5941 41.78 58.4896C41.8787 58.3851 41.9596 58.2825 42.0228 58.184C42.0859 58.0834 42.1175 57.9927 42.1175 57.9079C42.1175 57.7758 42.084 57.6812 42.0169 57.626C41.9497 57.5708 41.857 57.5432 41.7346 57.5432H41.7326Z" fill="#124CEB"/>
<path d="M43.0693 58.4659C43.0693 58.2194 43.1009 58.0065 43.1621 57.8231C43.2233 57.6398 43.3101 57.486 43.4167 57.3657C43.5253 57.2435 43.6477 57.1528 43.7858 57.0917C43.924 57.0306 44.0681 57.001 44.2201 57.001C44.3721 57.001 44.5161 57.0306 44.6543 57.0917C44.7925 57.1528 44.9149 57.2435 45.0214 57.3657C45.128 57.488 45.2129 57.6398 45.2741 57.8231C45.3353 58.0065 45.3669 58.2214 45.3669 58.4659C45.3669 58.7281 45.3353 58.9509 45.2741 59.1363C45.2129 59.3216 45.128 59.4734 45.0214 59.5897C44.9149 59.7061 44.7925 59.7908 44.6543 59.846C44.5161 59.9012 44.3721 59.9288 44.2201 59.9288C44.0681 59.9288 43.924 59.9012 43.7858 59.846C43.6477 59.7908 43.5253 59.7061 43.4167 59.5897C43.3082 59.4734 43.2233 59.3216 43.1621 59.1363C43.1009 58.9509 43.0693 58.7281 43.0693 58.4659ZM43.7128 58.4659C43.7128 58.671 43.7325 58.8385 43.776 58.9706C43.8174 59.1027 43.8766 59.2013 43.9516 59.2664C44.0266 59.3314 44.1174 59.365 44.222 59.365C44.3267 59.365 44.4155 59.3314 44.4905 59.2664C44.5655 59.2013 44.6227 59.1027 44.6642 58.9687C44.7056 58.8346 44.7254 58.667 44.7254 58.4639C44.7254 58.2727 44.7056 58.109 44.6642 57.975C44.6227 57.8409 44.5655 57.7384 44.4905 57.6674C44.4155 57.5964 44.3267 57.5609 44.222 57.5609C44.1174 57.5609 44.0286 57.5964 43.9516 57.6674C43.8747 57.7384 43.8174 57.8409 43.776 57.975C43.7345 58.109 43.7128 58.2727 43.7128 58.4639V58.4659Z" fill="#124CEB"/>
<path d="M46.719 57.5432C46.6242 57.5432 46.5413 57.5649 46.4683 57.6102C46.3952 57.6556 46.336 57.7068 46.2867 57.768C46.2373 57.8271 46.1998 57.8823 46.1742 57.9316C46.1485 57.9809 46.1347 58.0105 46.1308 58.0184L45.582 57.768C45.584 57.7502 45.5978 57.7128 45.6235 57.6556C45.6472 57.5984 45.6866 57.5333 45.7399 57.4604C45.7932 57.3874 45.8623 57.3145 45.9492 57.2435C46.036 57.1725 46.1426 57.1153 46.2689 57.068C46.3952 57.0207 46.5453 56.999 46.719 56.999C46.9183 56.999 47.0861 57.0286 47.2183 57.0838C47.3506 57.141 47.4552 57.2159 47.5322 57.3086C47.6091 57.4012 47.6624 57.4998 47.696 57.6063C47.7295 57.7128 47.7453 57.8172 47.7453 57.9139C47.7453 58.0361 47.7217 58.1564 47.6723 58.2707C47.623 58.3851 47.5598 58.4935 47.4808 58.596C47.4019 58.6986 47.317 58.7912 47.2282 58.876C47.1394 58.9608 47.0525 59.0357 46.9696 59.0988C46.8867 59.1619 46.8176 59.2132 46.7604 59.2506C46.7032 59.2881 46.6696 59.3098 46.6578 59.3196H47.7236V59.8756H45.6926V59.3689C45.7143 59.3531 45.7616 59.3177 45.8386 59.2644C45.9156 59.2112 46.0064 59.1422 46.113 59.0613C46.2196 58.9805 46.3301 58.8898 46.4446 58.7932C46.5591 58.6946 46.6676 58.5941 46.7663 58.4896C46.865 58.3851 46.9459 58.2825 47.0091 58.184C47.0723 58.0834 47.1038 57.9927 47.1038 57.9079C47.1038 57.7758 47.0703 57.6812 47.0032 57.626C46.9361 57.5708 46.8433 57.5432 46.7209 57.5432H46.719Z" fill="#124CEB"/>
<path d="M48.1045 57.6161C48.1203 57.559 48.1519 57.4939 48.1973 57.4229C48.2427 57.3519 48.3058 57.2829 48.3848 57.2198C48.4637 57.1548 48.5604 57.1035 48.6769 57.0621C48.7934 57.0207 48.9256 56.999 49.0776 56.999C49.2572 56.999 49.4171 57.0325 49.5572 57.0996C49.6974 57.1666 49.8059 57.2593 49.8869 57.3776C49.9678 57.4959 50.0073 57.6339 50.0073 57.7936C50.0073 57.8902 49.9895 57.9769 49.9559 58.0558C49.9224 58.1347 49.877 58.2017 49.8237 58.253C49.7684 58.3062 49.7112 58.3397 49.652 58.3555C49.721 58.3634 49.7921 58.3969 49.8632 58.4521C49.9342 58.5073 49.9934 58.5822 50.0428 58.6749C50.0921 58.7676 50.1178 58.876 50.1178 59.0022C50.1178 59.1816 50.0724 59.3413 49.9816 59.4813C49.8908 59.6213 49.7664 59.7297 49.6105 59.8106C49.4546 59.8914 49.273 59.9308 49.0697 59.9308C48.8664 59.9308 48.6808 59.8934 48.5348 59.8204C48.3887 59.7455 48.2723 59.6548 48.1854 59.5483C48.0986 59.4419 48.0413 59.3374 48.0117 59.2368L48.5999 58.945C48.6177 59.0061 48.6453 59.0712 48.6868 59.1382C48.7282 59.2053 48.7795 59.2625 48.8447 59.3078C48.9098 59.3551 48.9828 59.3768 49.0677 59.3768C49.1526 59.3768 49.2296 59.3591 49.2908 59.3255C49.3519 59.292 49.3993 59.2447 49.4329 59.1856C49.4664 59.1264 49.4822 59.0574 49.4822 58.9805C49.4822 58.9036 49.4625 58.8346 49.425 58.7814C49.3875 58.7281 49.3362 58.6887 49.273 58.6631C49.2098 58.6374 49.1407 58.6236 49.0657 58.6236H49.0105V58.1662H49.0835C49.1486 58.1662 49.2079 58.1524 49.2611 58.1268C49.3144 58.1012 49.3559 58.0617 49.3875 58.0124C49.4191 57.9631 49.4329 57.906 49.4329 57.8389C49.4329 57.7482 49.4013 57.6713 49.3401 57.6083C49.2789 57.5452 49.1901 57.5136 49.0717 57.5136C49.0006 57.5136 48.9374 57.5254 48.8841 57.5511C48.8309 57.5767 48.7855 57.6083 48.7499 57.6457C48.7144 57.6832 48.6868 57.7226 48.6651 57.762C48.6433 57.8015 48.6315 57.835 48.6256 57.8646L48.1065 57.6181L48.1045 57.6161Z" fill="#124CEB"/>
<defs>
<linearGradient id="paint0_linear_381_2751" x1="58.0108" y1="75.3334" x2="10.9517" y2="45.2127" gradientUnits="userSpaceOnUse">
<stop stop-color="#E30303"/>
<stop offset="0.44" stop-color="#F7D80E"/>
</linearGradient>
<linearGradient id="paint1_linear_381_2751" x1="75.3412" y1="21.2123" x2="53.7146" y2="63.2788" gradientUnits="userSpaceOnUse">
<stop offset="0.08" stop-color="#E30303"/>
<stop offset="0.87" stop-color="#F7D80E"/>
</linearGradient>
<linearGradient id="paint2_linear_381_2751" x1="32.9655" y1="6.71454" x2="88.8297" y2="39.997" gradientUnits="userSpaceOnUse">
<stop offset="0.26" stop-color="#F7D80E"/>
<stop offset="1" stop-color="#E30303"/>
</linearGradient>
<linearGradient id="paint3_linear_381_2751" x1="57.4661" y1="64.816" x2="72.1506" y2="11.6288" gradientUnits="userSpaceOnUse">
<stop offset="0.12" stop-color="#E30303"/>
<stop offset="0.68" stop-color="#F7D80E"/>
</linearGradient>
<linearGradient id="paint4_linear_381_2751" x1="6.68359" y1="67.0584" x2="25.0184" y2="67.0584" gradientUnits="userSpaceOnUse">
<stop stop-color="#E30303"/>
<stop offset="0.6" stop-color="#F7D80E"/>
</linearGradient>
<linearGradient id="paint5_linear_381_2751" x1="2.6865" y1="58.5667" x2="16.2704" y2="58.5667" gradientUnits="userSpaceOnUse">
<stop stop-color="#E30303"/>
<stop offset="0.6" stop-color="#F7D80E"/>
</linearGradient>
<linearGradient id="paint6_linear_381_2751" x1="2" y1="51.1616" x2="11.3678" y2="51.1616" gradientUnits="userSpaceOnUse">
<stop stop-color="#E30303"/>
<stop offset="0.6" stop-color="#F7D80E"/>
</linearGradient>
<linearGradient id="paint7_linear_381_2751" x1="2.68652" y1="44.4183" x2="8.25073" y2="44.4183" gradientUnits="userSpaceOnUse">
<stop stop-color="#E30303"/>
<stop offset="0.6" stop-color="#F7D80E"/>
</linearGradient>
<linearGradient id="paint8_linear_381_2751" x1="3.57881" y1="38.3592" x2="7.39224" y2="38.3592" gradientUnits="userSpaceOnUse">
<stop stop-color="#E30303"/>
<stop offset="0.6" stop-color="#F7D80E"/>
</linearGradient>
<linearGradient id="paint9_linear_381_2751" x1="17.0983" y1="47.886" x2="71.6831" y2="14.6437" gradientUnits="userSpaceOnUse">
<stop stop-color="#E30303"/>
<stop offset="0.91" stop-color="#F7D80E"/>
</linearGradient>
</defs>
</svg>
