<svg width="240" height="238" viewBox="0 0 240 238" fill="none" xmlns="http://www.w3.org/2000/svg">
<path d="M60.926 121.842C56.9522 120.785 52.9666 119.799 49.0162 118.671C31.2397 113.621 14.9681 106.07 4.16347 90.2159C2.04722 87.1037 0.612865 83.1695 0.0602887 79.435C-0.574586 75.1602 3.92833 72.236 7.74933 74.2677C15.309 78.2958 22.7042 82.6528 30.0287 87.092C40.8451 93.6333 51.7438 100.022 63.7829 104.121C67.0631 105.236 70.5432 105.777 73.9409 106.587C74.082 106.293 74.2231 106 74.3642 105.706C73.4589 105.037 72.6359 104.215 71.6366 103.745C55.412 96.0526 39.9634 87.0685 25.7139 76.1585C19.0948 71.0851 11.9583 66.4345 7.5965 58.9184C2.79966 50.6625 1.71802 41.7841 3.18764 32.5417C3.799 28.7132 8.20786 27.1043 12.0994 29.7819C17.778 33.7043 23.292 37.9791 28.3358 42.6884C39.1757 52.8116 49.1456 63.9331 60.4792 73.4574C68.956 80.5742 79.0435 85.765 88.3432 91.9187C90.918 93.6216 93.481 95.4654 95.6443 97.6497C98.6541 100.668 98.7246 103.639 96.479 107.151C86.7795 122.371 92.3641 140.679 108.977 148.16C118.994 152.67 130.727 150.392 139.427 142.265C146.928 135.254 149.773 123.204 146.082 113.61C145.235 111.414 144.189 109.253 142.954 107.244C140.803 103.768 140.662 100.433 143.765 97.7437C147.492 94.5141 151.502 91.4607 155.816 89.112C169.69 81.5372 182.011 72.1068 193.086 60.8327C202.527 51.2145 212.367 41.9838 222.314 32.8823C224.524 30.8623 227.828 29.6644 230.826 28.9363C234.047 28.1612 235.834 29.6762 236.175 32.9645C237.633 46.8692 234.764 59.0594 223.289 68.5836C206.43 82.5471 188.089 94.0326 168.361 103.428C167.244 103.956 166.28 104.814 165.245 105.518C165.386 105.87 165.539 106.223 165.68 106.575C169.219 105.694 172.84 105.072 176.273 103.886C192.087 98.4366 205.877 89.1707 220.033 80.5976C223.924 78.2371 227.957 76.088 232.048 74.1268C235.481 72.4826 239.279 75.078 239.42 78.93C239.679 85.5301 235.634 90.1689 231.837 94.796C222.196 106.54 209.075 112.776 194.99 117.309C189.523 119.071 183.927 120.398 177.731 122.101C178.731 122.617 179.072 122.97 179.389 122.946C192.651 121.842 205.842 120.445 218.034 114.49C220.562 113.257 221.984 113.962 221.879 116.698C221.796 118.918 221.385 121.255 220.491 123.275C217.27 130.638 212.696 136.722 204.22 138.601C203.314 138.8 202.409 139.176 201.516 139.153C193.921 138.965 186.337 138.671 178.754 138.483C178.037 138.46 177.32 138.871 176.591 139.082C177.002 139.705 177.273 140.703 177.837 140.902C180.835 141.971 183.892 142.934 186.972 143.768C190.652 144.778 194.403 145.565 198.083 146.551C200.74 147.268 200.904 149.076 199.693 151.131C196.484 156.581 188.889 161.043 181.834 160.327C176.673 159.798 171.959 158.213 167.562 155.524C166.974 155.171 166.245 155.042 165.586 154.807C165.316 155.054 165.057 155.3 164.787 155.535C165.986 156.956 166.962 158.683 168.432 159.728C170.771 161.407 173.381 162.734 175.956 164.038C178.202 165.177 178.096 166.868 176.344 167.761C173.475 169.217 170.324 170.544 167.174 170.955C159.72 171.93 152.607 170.239 145.623 167.432C137.37 164.108 129.116 163.92 121.216 168.912C120.487 169.37 118.9 169.205 118.077 168.724C110.764 164.425 103.145 164.014 95.3621 166.939C88.1081 169.663 80.807 172 72.9416 171.049C70.1905 170.72 67.4158 170.074 64.8411 169.088C63.6301 168.618 62.5602 167.103 62.0899 165.811C61.9254 165.365 63.7006 164.097 64.7 163.368C67.6745 161.196 70.7195 159.141 73.694 156.968C74.1055 156.663 74.1996 155.935 74.811 154.561C73.1415 155.195 72.1421 155.453 71.2486 155.923C65.2055 159.188 58.9743 161.466 51.9437 159.857C46.9705 158.718 42.9496 155.982 40.2103 151.777C37.9647 148.336 38.5055 147.279 42.9261 145.905C47.6524 144.437 52.6021 143.709 57.4342 142.558C58.8333 142.23 60.2088 141.678 61.4786 140.996C62.0899 140.668 62.3956 139.799 62.8424 139.176C62.137 138.929 61.4316 138.46 60.7261 138.471C53.8718 138.671 47.0058 139.2 40.1515 139.141C32.3919 139.07 26.0314 135.923 22.1751 128.935C20.341 125.624 18.3894 122.183 17.5781 118.554C16.5906 114.115 18.3306 113.152 22.5043 114.96C32.098 119.094 42.0679 121.642 52.5668 122.077C55.2944 122.194 58.022 122.652 60.7379 122.958C60.8084 122.582 60.8907 122.218 60.9613 121.842H60.926Z" fill="white"/>
<path d="M159.257 23.2847C147.065 1.15919 120.154 -6.02807 98.4621 5.31652C94.8057 7.23077 90.9142 10.0141 87.3636 12.9853C93.6065 13.0322 92.5013 15.2284 92.4073 20.6423C92.372 22.3451 91.3139 22.9206 89.8678 22.8854C87.9749 22.8384 84.0716 23.4138 83.1781 22.0515C82.7078 21.3352 82.8489 20.2782 82.7548 18.8102C82.0377 20.1255 80.6268 23.6017 79.216 27.3833C82.1552 27.4537 82.1552 28.0292 82.1552 32.2217C82.1552 35.3535 80.7013 36.9193 77.7934 36.9193C77.041 36.9193 76.3943 36.9193 75.8653 36.8958C75.395 38.3755 75.0775 39.5029 75.0305 40.0079C73.9959 49.45 75.6536 58.3871 80.2976 66.6313C87.1872 78.8684 97.5568 86.455 111.477 89.0034C121.506 90.8472 131.252 89.7433 140.246 84.9987C152.391 78.5983 160.374 68.6982 163.572 55.1693C166.229 43.9656 164.76 33.2435 159.269 23.2729L159.257 23.2847ZM99.2263 24.4121C99.2263 20.1843 99.4379 19.9964 103.87 19.9729C108.62 19.9611 108.82 20.149 108.82 24.7879C108.82 27.7473 107.201 29.2271 103.964 29.2271C100.727 29.2271 99.1479 27.6221 99.2263 24.4121ZM105.128 45.1517C108.052 45.1517 109.514 46.7137 109.514 49.8376C109.514 53.1024 108.005 54.7348 104.987 54.7348C100.237 54.7348 100.096 54.6056 100.108 49.8728C100.108 45.2692 100.249 45.1517 105.128 45.1517ZM87.9161 42.9204C87.9161 38.2581 88.0219 38.1641 92.5249 38.1641C95.566 38.1641 97.0865 39.7848 97.0865 43.0261C97.0865 46.1578 95.6326 47.7237 92.7247 47.7237C87.9396 47.7237 87.9161 47.7002 87.9279 42.9322L87.9161 42.9204ZM97.8507 66.4551C92.8188 66.4199 93.5712 66.7487 93.5359 61.4288C93.5007 57.06 93.5359 57.06 98.0271 57.06C102.765 57.06 102.918 57.2127 102.918 61.9338C102.918 64.948 101.229 66.4512 97.8507 66.4434V66.4551ZM111.089 76.4257C111.089 79.3695 109.392 80.8414 105.998 80.8414C103.137 80.8414 101.707 79.256 101.707 76.0851C101.707 73.0161 103.247 71.4815 106.327 71.4815C110.983 71.4815 111.089 71.599 111.077 76.4257H111.089ZM114.499 36.1794C114.499 39.1389 112.88 40.6186 109.643 40.6186C106.476 40.6186 104.897 39.0136 104.905 35.8036C104.905 31.5758 105.117 31.3879 109.549 31.3644C114.299 31.3527 114.499 31.5406 114.487 36.1794H114.499ZM115.721 16.4497C115.721 13.4824 117.344 12.0027 120.589 12.0105C123.598 12.0105 125.103 13.5529 125.103 16.6376C125.103 19.7771 123.595 21.3469 120.577 21.3469C115.815 21.3469 115.721 21.253 115.721 16.4497ZM122.658 45.093C118.061 45.093 117.932 44.9639 117.932 40.4425C117.932 35.8271 117.955 35.8036 122.599 35.8036C125.593 35.8036 127.09 37.3264 127.09 40.372C127.09 43.5194 125.613 45.093 122.658 45.093Z" fill="white"/>
<path d="M119.282 129.093C123.033 125.816 126.407 122.857 129.805 119.909C130.193 119.568 130.64 119.263 131.122 119.099C133.591 118.206 136.624 116.985 138.411 119.169C139.751 120.79 140.139 123.843 139.786 126.063C138.329 135.129 131.862 140.907 124.949 142.175C113.627 144.254 106.691 140.672 101.494 131.794C100.589 130.244 100.236 128.353 99.7541 126.591C99.0134 123.914 98.6254 120.978 101.047 119.134C103.763 117.067 106.949 118.018 109.407 119.839C112.369 122.035 114.944 124.736 117.66 127.249C118.318 127.86 118.847 128.6 119.271 129.093H119.282Z" fill="white"/>
<path d="M81.6815 189.629V206.47H77.8722V196.558L78.0368 193.739L77.3902 196.969L74.5568 205.119H70.818L67.9964 196.969L67.3615 193.739L67.5261 196.558V206.47H63.7051V189.629H69.0663L72.464 200.868L72.6992 202.207L72.9343 200.868L76.332 189.629H81.6932H81.6815Z" fill="white"/>
<path d="M87.8263 202.066C87.8498 202.442 87.9674 202.771 88.179 203.065C88.3906 203.358 88.6845 203.581 89.0608 203.746C89.437 203.91 89.8837 203.992 90.4128 203.992C90.9066 203.992 91.3534 203.945 91.7531 203.851C92.1528 203.757 92.4938 203.628 92.7877 203.464C93.0816 203.311 93.305 203.147 93.4696 202.982L94.9745 205.378C94.7511 205.613 94.4454 205.824 94.0692 206.048C93.6812 206.259 93.1757 206.435 92.5526 206.576C91.9177 206.717 91.13 206.787 90.1659 206.787C89.002 206.787 87.9674 206.576 87.0621 206.141C86.1568 205.707 85.4514 205.073 84.9458 204.227C84.4403 203.382 84.1816 202.348 84.1816 201.127C84.1816 200.105 84.405 199.189 84.84 198.367C85.2868 197.545 85.9334 196.899 86.7799 196.418C87.6264 195.936 88.661 195.701 89.8602 195.701C91.0594 195.701 91.9882 195.913 92.8347 196.324C93.6695 196.735 94.3161 197.357 94.7746 198.179C95.2214 199.001 95.4565 200.023 95.4565 201.244V201.644C95.4565 201.855 95.4565 201.984 95.433 202.055H87.8498L87.8263 202.066ZM91.8001 200.035C91.8001 199.765 91.7178 199.494 91.5885 199.213C91.4474 198.943 91.2476 198.719 90.9772 198.543C90.7067 198.367 90.354 198.285 89.9308 198.285C89.5075 198.285 89.1313 198.367 88.8491 198.543C88.5552 198.719 88.3436 198.931 88.1907 199.189C88.0379 199.447 87.9439 199.729 87.9203 200.035H91.8119H91.8001Z" fill="white"/>
<path d="M104.665 195.701C105.394 195.701 106.111 195.854 106.804 196.147C107.498 196.441 108.074 196.911 108.533 197.557C108.979 198.203 109.215 199.048 109.215 200.093V206.482H105.323V200.728C105.323 199.976 105.147 199.412 104.782 199.036C104.418 198.661 103.959 198.473 103.383 198.473C102.995 198.473 102.642 198.567 102.301 198.766C101.961 198.966 101.69 199.248 101.478 199.612C101.267 199.976 101.161 200.387 101.161 200.857V206.482H97.2812V196.007H101.161V197.545C101.267 197.263 101.478 196.981 101.808 196.699C102.137 196.418 102.548 196.171 103.042 195.983C103.536 195.795 104.077 195.701 104.653 195.701H104.665Z" fill="white"/>
<path d="M110.578 195.997H112.365V191.699H116.21V195.997H118.561V199.192H116.21V202.116C116.21 202.551 116.268 202.903 116.398 203.173C116.527 203.443 116.762 203.572 117.103 203.572C117.338 203.572 117.526 203.525 117.691 203.42C117.856 203.314 117.95 203.255 117.985 203.22L119.314 205.98C119.255 206.027 119.067 206.121 118.761 206.262C118.455 206.403 118.056 206.52 117.585 206.626C117.103 206.731 116.574 206.79 115.986 206.79C114.94 206.79 114.07 206.497 113.388 205.909C112.706 205.322 112.365 204.406 112.365 203.173V199.204H110.578V196.009V195.997Z" fill="white"/>
<path d="M126.101 206.787C124.949 206.787 123.926 206.553 123.044 206.083C122.151 205.613 121.457 204.955 120.952 204.133C120.446 203.311 120.188 202.348 120.188 201.28C120.188 200.211 120.446 199.248 120.952 198.414C121.457 197.58 122.151 196.911 123.044 196.429C123.938 195.948 124.949 195.701 126.101 195.701C127.253 195.701 128.265 195.948 129.135 196.429C130.016 196.911 130.698 197.58 131.192 198.414C131.686 199.248 131.933 200.211 131.933 201.28C131.933 202.348 131.686 203.299 131.192 204.133C130.698 204.967 130.016 205.613 129.135 206.083C128.253 206.553 127.242 206.787 126.101 206.787ZM126.101 203.593C126.548 203.593 126.924 203.499 127.253 203.299C127.571 203.1 127.83 202.83 128.006 202.466C128.182 202.113 128.276 201.702 128.276 201.256C128.276 200.81 128.182 200.387 128.006 200.035C127.83 199.682 127.571 199.4 127.253 199.189C126.924 198.989 126.548 198.884 126.101 198.884C125.654 198.884 125.278 198.989 124.949 199.189C124.62 199.389 124.361 199.671 124.185 200.035C123.997 200.387 123.914 200.798 123.914 201.256C123.914 201.714 124.009 202.113 124.185 202.466C124.373 202.818 124.62 203.1 124.949 203.299C125.278 203.499 125.666 203.593 126.101 203.593Z" fill="white"/>
<path d="M137.505 206.47H133.625V195.995H137.505V197.615H137.446C137.517 197.416 137.681 197.169 137.94 196.864C138.198 196.559 138.575 196.288 139.045 196.042C139.515 195.795 140.103 195.678 140.797 195.678C141.279 195.678 141.726 195.748 142.137 195.901C142.549 196.054 142.842 196.194 143.031 196.324L141.526 199.471C141.408 199.33 141.196 199.177 140.891 199.013C140.585 198.86 140.209 198.778 139.762 198.778C139.245 198.778 138.81 198.907 138.481 199.177C138.151 199.447 137.893 199.765 137.74 200.129C137.587 200.493 137.505 200.857 137.505 201.186V206.447V206.47Z" fill="white"/>
<path d="M146.201 193.835C145.589 193.835 145.072 193.623 144.637 193.189C144.214 192.754 144.002 192.249 144.002 191.65C144.002 191.051 144.214 190.535 144.649 190.1C145.084 189.666 145.601 189.442 146.201 189.442C146.6 189.442 146.965 189.536 147.294 189.736C147.623 189.936 147.893 190.206 148.093 190.535C148.293 190.863 148.399 191.239 148.399 191.65C148.399 192.249 148.187 192.754 147.752 193.189C147.317 193.623 146.8 193.835 146.189 193.835H146.201ZM144.202 206.459V195.984H148.082V206.459H144.202Z" fill="white"/>
<path d="M157.981 195.701C158.71 195.701 159.427 195.854 160.133 196.147C160.826 196.441 161.402 196.911 161.861 197.557C162.308 198.203 162.543 199.048 162.543 200.093V206.482H158.651V200.728C158.651 199.976 158.475 199.412 158.11 199.036C157.746 198.661 157.287 198.473 156.7 198.473C156.312 198.473 155.959 198.567 155.618 198.766C155.277 198.966 155.007 199.248 154.795 199.612C154.583 199.976 154.477 200.387 154.477 200.857V206.482H150.598V196.007H154.477V197.545C154.583 197.263 154.795 196.981 155.124 196.699C155.453 196.418 155.865 196.171 156.359 195.983C156.852 195.795 157.393 195.701 157.969 195.701H157.981Z" fill="white"/>
<path d="M172.933 206.482V204.791C172.85 204.955 172.662 205.202 172.356 205.531C172.051 205.86 171.639 206.141 171.122 206.4C170.605 206.658 170.017 206.787 169.335 206.787C168.312 206.787 167.419 206.541 166.654 206.036C165.89 205.543 165.291 204.873 164.867 204.028C164.444 203.182 164.232 202.266 164.232 201.244C164.232 200.223 164.444 199.295 164.867 198.461C165.291 197.627 165.89 196.958 166.654 196.453C167.419 195.948 168.312 195.701 169.335 195.701C169.993 195.701 170.569 195.807 171.063 196.018C171.557 196.23 171.957 196.476 172.262 196.758C172.568 197.04 172.78 197.298 172.897 197.545V196.018H176.754V206.494H172.933V206.482ZM170.299 212.084C169.57 212.084 168.841 212.025 168.124 211.896C167.407 211.767 166.737 211.555 166.114 211.25C165.49 210.945 164.973 210.522 164.538 209.982L166.807 207.621C167.007 207.856 167.242 208.079 167.524 208.302C167.807 208.525 168.159 208.702 168.583 208.854C169.006 208.995 169.511 209.066 170.123 209.066C170.687 209.066 171.169 208.972 171.592 208.772C172.016 208.572 172.333 208.291 172.568 207.915C172.803 207.539 172.921 207.081 172.921 206.553V206.294H176.742V206.776C176.742 207.927 176.448 208.901 175.884 209.7C175.307 210.487 174.532 211.086 173.567 211.485C172.592 211.884 171.51 212.084 170.299 212.084ZM168.03 201.256C168.03 201.738 168.136 202.16 168.359 202.536C168.583 202.912 168.876 203.206 169.241 203.417C169.605 203.628 170.017 203.734 170.475 203.734C170.934 203.734 171.357 203.628 171.71 203.417C172.063 203.206 172.345 202.912 172.556 202.536C172.768 202.16 172.874 201.726 172.874 201.256C172.874 200.786 172.768 200.352 172.556 199.976C172.345 199.6 172.063 199.295 171.71 199.083C171.357 198.872 170.934 198.755 170.475 198.755C170.017 198.755 169.617 198.86 169.241 199.083C168.865 199.295 168.571 199.6 168.359 199.976C168.136 200.352 168.03 200.786 168.03 201.256Z" fill="white"/>
<path d="M98.5611 223.188C97.9967 223.188 97.5029 223.317 97.0679 223.587C96.6329 223.857 96.2802 224.162 95.9863 224.526C95.6924 224.879 95.469 225.208 95.3161 225.501C95.1633 225.795 95.081 225.971 95.0575 226.018L91.7891 224.526C91.8008 224.421 91.8831 224.198 92.036 223.857C92.177 223.516 92.4122 223.129 92.7296 222.694C93.0471 222.26 93.4585 221.825 93.9759 221.403C94.4932 220.98 95.128 220.639 95.8805 220.357C96.6329 220.075 97.5265 219.946 98.5611 219.946C99.7485 219.946 100.748 220.122 101.536 220.451C102.323 220.792 102.946 221.238 103.405 221.79C103.863 222.342 104.181 222.929 104.381 223.563C104.581 224.198 104.675 224.82 104.675 225.395C104.675 226.124 104.534 226.84 104.24 227.521C103.946 228.202 103.57 228.848 103.099 229.459C102.629 230.069 102.123 230.621 101.594 231.126C101.054 231.631 100.548 232.078 100.054 232.454C99.5604 232.829 99.1489 233.135 98.808 233.358C98.467 233.581 98.2672 233.71 98.1966 233.769H104.545V237.081H92.4475V234.062C92.5768 233.968 92.8589 233.757 93.3175 233.44C93.776 233.123 94.3168 232.712 94.9517 232.23C95.5866 231.749 96.245 231.209 96.9269 230.633C97.6088 230.046 98.2554 229.447 98.8432 228.825C99.4311 228.202 99.9131 227.592 100.289 227.004C100.666 226.405 100.854 225.865 100.854 225.36C100.854 224.573 100.654 224.01 100.254 223.681C99.8543 223.352 99.3018 223.188 98.5728 223.188H98.5611Z" fill="white"/>
<path d="M106.518 228.684C106.518 227.216 106.706 225.947 107.07 224.855C107.435 223.763 107.952 222.847 108.587 222.131C109.233 221.403 109.962 220.862 110.785 220.498C111.608 220.134 112.467 219.958 113.372 219.958C114.277 219.958 115.135 220.134 115.958 220.498C116.781 220.862 117.51 221.403 118.145 222.131C118.78 222.859 119.286 223.763 119.65 224.855C120.015 225.947 120.203 227.227 120.203 228.684C120.203 230.246 120.015 231.573 119.65 232.677C119.286 233.781 118.78 234.685 118.145 235.378C117.51 236.071 116.781 236.576 115.958 236.904C115.135 237.233 114.277 237.398 113.372 237.398C112.467 237.398 111.608 237.233 110.785 236.904C109.962 236.576 109.233 236.071 108.587 235.378C107.94 234.685 107.435 233.781 107.07 232.677C106.706 231.573 106.518 230.246 106.518 228.684ZM110.35 228.684C110.35 229.905 110.468 230.903 110.727 231.69C110.973 232.477 111.326 233.064 111.773 233.452C112.22 233.839 112.761 234.039 113.384 234.039C114.007 234.039 114.536 233.839 114.983 233.452C115.429 233.064 115.77 232.477 116.017 231.678C116.264 230.88 116.382 229.882 116.382 228.672C116.382 227.533 116.264 226.558 116.017 225.759C115.77 224.961 115.429 224.35 114.983 223.927C114.536 223.505 114.007 223.293 113.384 223.293C112.761 223.293 112.231 223.505 111.773 223.927C111.314 224.35 110.973 224.961 110.727 225.759C110.48 226.558 110.35 227.533 110.35 228.672V228.684Z" fill="white"/>
<path d="M128.262 223.188C127.698 223.188 127.204 223.317 126.769 223.587C126.334 223.857 125.981 224.162 125.687 224.526C125.394 224.879 125.17 225.208 125.017 225.501C124.864 225.795 124.782 225.971 124.759 226.018L121.49 224.526C121.502 224.421 121.584 224.198 121.737 223.857C121.878 223.516 122.113 223.129 122.431 222.694C122.748 222.26 123.16 221.825 123.677 221.403C124.194 220.98 124.829 220.639 125.582 220.357C126.334 220.075 127.228 219.946 128.262 219.946C129.45 219.946 130.449 220.122 131.237 220.451C132.024 220.792 132.648 221.238 133.106 221.79C133.565 222.342 133.882 222.929 134.082 223.563C134.282 224.198 134.376 224.82 134.376 225.395C134.376 226.124 134.235 226.84 133.941 227.521C133.647 228.202 133.271 228.848 132.8 229.459C132.33 230.069 131.825 230.621 131.296 231.126C130.766 231.631 130.249 232.078 129.755 232.454C129.262 232.829 128.85 233.135 128.509 233.358C128.168 233.581 127.968 233.71 127.898 233.769H134.247V237.081H122.149V234.062C122.278 233.968 122.56 233.757 123.019 233.44C123.477 233.123 124.018 232.712 124.653 232.23C125.288 231.749 125.946 231.209 126.628 230.633C127.31 230.046 127.957 229.447 128.544 228.825C129.132 228.202 129.614 227.592 129.991 227.004C130.367 226.405 130.555 225.865 130.555 225.36C130.555 224.573 130.355 224.01 129.955 223.681C129.555 223.352 129.003 223.188 128.274 223.188H128.262Z" fill="white"/>
<path d="M136.515 223.622C136.61 223.282 136.798 222.894 137.068 222.471C137.338 222.048 137.715 221.637 138.185 221.262C138.655 220.874 139.231 220.569 139.925 220.322C140.619 220.075 141.406 219.946 142.312 219.946C143.382 219.946 144.334 220.146 145.169 220.545C146.003 220.944 146.65 221.496 147.132 222.201C147.614 222.906 147.849 223.728 147.849 224.679C147.849 225.255 147.743 225.771 147.543 226.241C147.344 226.711 147.073 227.11 146.756 227.415C146.427 227.732 146.086 227.932 145.733 228.026C146.144 228.073 146.568 228.273 146.991 228.602C147.414 228.93 147.767 229.377 148.061 229.929C148.355 230.481 148.508 231.126 148.508 231.878C148.508 232.947 148.237 233.898 147.696 234.732C147.155 235.566 146.415 236.212 145.486 236.693C144.557 237.175 143.476 237.409 142.265 237.409C141.054 237.409 139.948 237.186 139.078 236.752C138.208 236.306 137.515 235.765 136.998 235.131C136.48 234.497 136.139 233.874 135.963 233.276L139.466 231.537C139.572 231.902 139.737 232.289 139.984 232.688C140.231 233.088 140.536 233.428 140.924 233.698C141.312 233.98 141.747 234.109 142.253 234.109C142.758 234.109 143.217 234.004 143.581 233.804C143.946 233.604 144.228 233.323 144.428 232.97C144.628 232.618 144.722 232.207 144.722 231.749C144.722 231.291 144.604 230.88 144.381 230.563C144.157 230.246 143.852 230.011 143.476 229.858C143.099 229.705 142.688 229.623 142.241 229.623H141.912V226.899H142.347C142.735 226.899 143.088 226.816 143.405 226.664C143.722 226.511 143.969 226.276 144.157 225.983C144.346 225.689 144.428 225.348 144.428 224.949C144.428 224.409 144.24 223.951 143.875 223.575C143.511 223.199 142.982 223.011 142.276 223.011C141.853 223.011 141.477 223.082 141.159 223.235C140.842 223.387 140.572 223.575 140.36 223.798C140.148 224.021 139.984 224.256 139.854 224.491C139.725 224.726 139.655 224.926 139.619 225.102L136.527 223.634L136.515 223.622Z" fill="white"/>
</svg>
