<svg width="1104" height="623" viewBox="0 0 1104 623" fill="none" xmlns="http://www.w3.org/2000/svg">
<rect width="1104" height="623" fill="#172546"/>
<rect opacity="0.4" width="1104" height="623" fill="url(#paint0_linear_887_12063)"/>
<mask id="mask0_887_12063" style="mask-type:alpha" maskUnits="userSpaceOnUse" x="0" y="0" width="1104" height="623">
<rect width="1104" height="623" fill="#172546"/>
</mask>
<g mask="url(#mask0_887_12063)">
<g opacity="0.1">
<path d="M602.199 170.562C602.38 170.547 602.555 170.547 602.729 170.562L610.631 170.656L606 175.5C615 203.012 632.693 243.696 668.895 286.83C701.737 325.964 737.713 352.699 763.374 369.179C766.057 373.571 768.739 377.964 771.421 382.357C632.09 408.757 530.29 351.906 520.782 293.208C511.892 238.321 583.945 183.122 600.796 171.056C601.195 170.773 601.639 170.613 602.082 170.562H602.199Z" fill="#005781"/>
<path d="M771.986 369.183C746.141 352.705 709.924 325.972 676.855 286.841C639.035 242.088 621.278 199.975 612.539 172.472C611.975 170.69 609.816 169.977 608.286 171.068C591.32 183.133 518.769 238.328 527.721 293.218C537.295 351.905 639.796 408.751 780.089 382.36C777.388 377.968 774.687 373.576 771.986 369.183Z" fill="url(#paint1_radial_887_12063)"/>
<path fill-rule="evenodd" clip-rule="evenodd" d="M562.892 248.886C564.129 249.565 564.584 251.121 563.907 252.361C563.662 252.81 560.985 257.926 560.093 264.556C559.207 271.14 560.1 278.922 566.553 285.299M562.892 248.886C561.654 248.207 560.102 248.663 559.425 249.903L562.892 248.886ZM559.425 249.903C559.035 250.617 556.041 256.364 555.031 263.872L559.425 249.903ZM555.031 263.872C554.014 271.426 554.985 281.058 562.967 288.945L555.031 263.872ZM587.12 299.648C581.289 298.888 570.684 296.569 562.967 288.946L562.967 288.945M587.12 299.648C584.402 312.709 585.423 324.528 589.567 333.862C594.031 343.917 602.099 350.997 612.688 353.407C617.102 354.415 624.767 355.237 636.016 352.266C637.38 351.906 638.194 350.506 637.835 349.138C637.476 347.771 636.078 346.955 634.714 347.315C624.305 350.064 617.477 349.249 613.821 348.413L613.819 348.413C604.93 346.39 598.099 340.485 594.234 331.779C590.348 323.029 589.438 311.361 592.73 298.015L593.454 295.082L590.449 294.847C586.278 294.522 574.452 293.102 566.553 285.299" fill="#005781"/>
<path d="M1079.17 212.299C1077.27 205.263 1067.69 168.495 1077.31 151.963C1079.6 148.035 1082.98 146.742 1082.98 146.742C1091.24 142.582 1099.74 150.518 1101.16 151.883C1102.72 147.911 1107.25 137.768 1116.07 133.201C1132.53 124.685 1146.54 139.148 1148.3 155.012C1150.23 172.416 1143.11 177.622 1143.11 177.622C1147.62 175.676 1152.5 178.304 1154.51 183.75C1156.5 189.166 1155.12 195.853 1151.24 199.418C1157.34 205.808 1159.55 215.704 1157.01 223.451C1155.09 229.31 1151.04 232.135 1149.55 233.049C1149.05 235.656 1147.4 242.931 1142.57 246.482C1135.77 251.47 1124.85 247.52 1118.2 234.698" fill="url(#paint2_radial_887_12063)"/>
<path d="M790.39 189.103C793.887 182.575 814.059 149.879 808.649 131.197C807.365 126.75 802.166 123.156 802.166 123.156C795.158 117.072 785.068 122.926 783.374 123.949C782.797 119.643 780.812 108.505 773.358 101.88C759.457 89.5266 740.292 98.1896 734.846 113.507C728.874 130.315 736.744 139.556 736.744 139.556C732.846 136.554 725.786 135.376 722.559 140.304C719.346 145.203 720.836 154.814 723.741 159.261C716.338 164.159 711.9 169.851 712.535 178.136C713.017 184.405 719.923 189.126 721.142 190.393C721.004 193.098 718.463 200.775 722.303 205.444C727.698 212.002 737.912 213.232 747.359 202.087" fill="url(#paint3_radial_887_12063)"/>
<path d="M1119.82 225.104C1132.36 278.247 1139.15 343.025 1128.5 414.619C1118.58 481.35 1109.75 514.076 1081.89 546.494C1021.76 616.457 924.18 614.636 907.866 614.329C890.229 614 794.181 612.208 737.152 542.26C683.531 476.487 697.739 390.326 709.863 316.275C718.637 262.707 739.807 189.314 762.994 170.059C802.956 136.866 844.315 174.791 935.653 183.786C1025.65 192.649 1076.93 163.872 1107.03 198.982C1111.13 203.757 1116.01 208.935 1119.82 225.097V225.104Z" fill="url(#paint4_radial_887_12063)"/>
<path d="M1067.85 247.802C1067.22 246.551 1064.39 243.523 1064.39 243.523C1050.28 228.935 1032.12 227.172 1025.3 226.506C990.042 223.082 942.046 257.576 913.564 255.052C885.082 252.528 843.908 210.148 808.597 207.324C801.768 206.776 783.581 205.32 767.123 217.208C765.965 218.005 764.456 219.147 762.822 220.676C739.454 242.535 745.052 293.731 761.136 322.372C787.428 369.193 852.445 374.805 901.466 379.04C947.066 382.976 1029.22 390.972 1060.09 342.052C1083.2 305.407 1078.26 268.418 1067.85 247.802Z" fill="#005781"/>
<path d="M1066.12 240.867C1065.48 239.616 1062.65 236.587 1062.65 236.587C1048.54 222 1030.38 220.236 1023.56 219.571C988.304 216.147 940.308 250.641 911.826 248.117C883.344 245.593 842.17 203.213 806.859 200.389C800.029 199.84 781.842 198.384 765.385 210.272C764.227 211.07 762.717 212.211 761.083 213.74C737.716 235.6 743.314 286.795 759.398 315.437C785.689 362.258 850.707 367.869 899.728 372.105C945.328 376.041 1027.48 384.037 1058.35 335.116C1081.47 298.471 1076.52 261.483 1066.12 240.867Z" fill="#FDDA8F"/>
<path d="M826.902 300.585C848.925 300.585 866.779 282.732 866.779 260.709C866.779 238.685 848.925 220.832 826.902 220.832C804.879 220.832 787.025 238.685 787.025 260.709C787.025 282.732 804.879 300.585 826.902 300.585Z" fill="#1B64A6"/>
<path d="M826.905 293.648C844.141 293.648 858.113 279.288 858.113 261.574C858.113 243.859 844.141 229.499 826.905 229.499C809.669 229.499 795.697 243.859 795.697 261.574C795.697 279.288 809.669 293.648 826.905 293.648Z" fill="#34282A"/>
<path opacity="0.15" d="M826.035 281.513C838.961 281.513 849.441 271.034 849.441 258.107C849.441 245.18 838.961 234.701 826.035 234.701C813.108 234.701 802.629 245.18 802.629 258.107C802.629 271.034 813.108 281.513 826.035 281.513Z" fill="white"/>
<path opacity="0.2" d="M782.316 299.933C780.784 296.823 771.51 277.141 780.497 255.093C787.701 237.408 802.095 229.391 806.124 227.32C811.155 224.667 820.444 220.703 832.429 220.835C855.663 221.093 870.661 236.524 873.718 239.803C871.368 246.03 856.134 284.495 817.203 296.868C803.517 301.215 791.097 301.009 782.316 299.933Z" fill="white"/>
<path d="M989.875 316.188C1011.9 316.188 1029.75 298.334 1029.75 276.311C1029.75 254.288 1011.9 236.435 989.875 236.435C967.851 236.435 949.998 254.288 949.998 276.311C949.998 298.334 967.851 316.188 989.875 316.188Z" fill="#1B64A6"/>
<path d="M989.004 309.252C1006.72 309.252 1021.08 294.892 1021.08 277.177C1021.08 259.463 1006.72 245.103 989.004 245.103C971.29 245.103 956.93 259.463 956.93 277.177C956.93 294.892 971.29 309.252 989.004 309.252Z" fill="#34282A"/>
<path opacity="0.15" d="M992.472 295.383C1005.4 295.383 1015.88 284.904 1015.88 271.977C1015.88 259.05 1005.4 248.571 992.472 248.571C979.546 248.571 969.066 259.05 969.066 271.977C969.066 284.904 979.546 295.383 992.472 295.383Z" fill="white"/>
<path opacity="0.2" d="M950.381 313.816C948.876 310.774 939.767 291.519 948.594 269.951C955.669 252.65 969.806 244.807 973.764 242.781C978.705 240.186 987.828 236.308 999.599 236.438C1022.42 236.69 1037.15 251.785 1040.15 254.993C1037.84 261.084 1022.88 298.714 984.645 310.817C971.202 315.07 959.005 314.868 950.381 313.816Z" fill="white"/>
<path fill-rule="evenodd" clip-rule="evenodd" d="M830.369 224.888C802.976 224.888 780.77 246.747 780.77 273.712C780.77 300.677 802.976 322.537 830.369 322.537C857.762 322.537 879.969 300.677 879.969 273.712C879.969 246.747 857.762 224.888 830.369 224.888ZM774.889 273.712C774.889 243.55 799.728 219.099 830.369 219.099C861.01 219.099 885.85 243.55 885.85 273.712C885.85 303.874 861.01 328.326 830.369 328.326C799.728 328.326 774.889 303.874 774.889 273.712Z" fill="#231F20"/>
<path fill-rule="evenodd" clip-rule="evenodd" d="M995.078 238.85C967.685 238.85 945.479 261.056 945.479 288.449C945.479 315.842 967.685 338.049 995.078 338.049C1022.47 338.049 1044.68 315.842 1044.68 288.449C1044.68 261.056 1022.47 238.85 995.078 238.85ZM939.598 288.449C939.598 257.808 964.437 232.969 995.078 232.969C1025.72 232.969 1050.56 257.808 1050.56 288.449C1050.56 319.09 1025.72 343.93 995.078 343.93C964.437 343.93 939.598 319.09 939.598 288.449Z" fill="#231F20"/>
<path fill-rule="evenodd" clip-rule="evenodd" d="M915.017 268.712C900.59 267.095 889.939 272.346 886.559 274.19C885.161 274.953 883.435 274.389 882.705 272.929C881.974 271.469 882.515 269.667 883.913 268.904C887.746 266.812 899.59 260.983 915.627 262.781L915.628 262.781C930.38 264.437 940.168 271.596 943.686 274.438C944.934 275.446 945.162 277.319 944.197 278.622C943.232 279.924 941.438 280.163 940.19 279.155C937.081 276.644 928.287 270.202 915.017 268.712" fill="#231F20"/>
<path fill-rule="evenodd" clip-rule="evenodd" d="M1130.14 255.754C1130.68 257.287 1129.86 258.958 1128.31 259.486L1049.27 286.554C1047.72 287.082 1046.04 286.267 1045.51 284.734C1044.98 283.201 1045.8 281.531 1047.34 281.003L1126.39 253.934C1127.93 253.406 1129.61 254.221 1130.14 255.754Z" fill="#231F20"/>
<path fill-rule="evenodd" clip-rule="evenodd" d="M730.223 225.738C731.055 224.336 732.859 223.878 734.252 224.715L782.121 253.477C783.514 254.314 783.969 256.129 783.137 257.531C782.305 258.933 780.501 259.391 779.108 258.554L731.239 229.793C729.846 228.955 729.391 227.14 730.223 225.738Z" fill="#231F20"/>
<path d="M1070.25 349.741C1070.97 341.66 1059.22 334.015 1044.01 332.666C1028.8 331.316 1015.89 336.774 1015.17 344.855C1014.45 352.936 1026.2 360.581 1041.41 361.931C1056.62 363.28 1069.53 357.823 1070.25 349.741Z" fill="#F36C21"/>
<path d="M795.09 325.342C795.807 317.261 784.059 309.616 768.849 308.266C753.639 306.917 740.728 312.374 740.011 320.455C739.294 328.537 751.043 336.182 766.253 337.531C781.462 338.881 794.373 333.423 795.09 325.342Z" fill="#F36C21"/>
<path d="M824.38 242.242C824.957 235.728 821.026 230.058 815.598 229.576C810.17 229.095 805.302 233.984 804.724 240.498C804.146 247.011 808.078 252.681 813.506 253.163C818.933 253.644 823.802 248.755 824.38 242.242Z" fill="white"/>
<path d="M985.417 258.46C985.995 251.947 982.063 246.277 976.635 245.795C971.207 245.313 966.339 250.203 965.761 256.716C965.183 263.23 969.115 268.9 974.543 269.382C979.97 269.863 984.839 264.974 985.417 258.46Z" fill="white"/>
<path d="M932.662 314.785C929.139 311.981 922.178 307.207 912.19 305.097C901.031 302.736 891.925 304.92 887.584 306.278C890.748 323.557 893.92 340.844 897.085 358.123C897.357 359.592 899.187 360.042 900.07 358.846C906.901 351.062 913.969 342.253 920.994 332.366C925.257 326.361 929.131 320.48 932.655 314.785H932.662Z" fill="#F36C21"/>
<mask id="mask1_887_12063" style="mask-type:luminance" maskUnits="userSpaceOnUse" x="747" y="453" width="306" height="165">
<path d="M897.741 453.292C783.624 448.944 737.325 547.25 748.868 557.713C753.72 562.113 769.384 579.952 798.778 593.121C836.186 609.883 869.334 615.148 892.086 617.084C923.905 619.789 992.956 617.326 1051.52 578.031C1061.32 571.461 975.815 456.262 897.734 453.292H897.741Z" fill="white"/>
</mask>
<g mask="url(#mask1_887_12063)">
<path d="M1119.82 225.103C1132.36 278.246 1139.15 343.024 1128.5 414.618C1118.58 481.349 1109.75 514.075 1081.89 546.493C1021.76 616.456 924.182 614.635 907.868 614.328C890.231 613.999 794.183 612.207 737.154 542.259C683.533 476.486 697.741 390.325 709.865 316.274C718.639 262.706 739.809 189.313 762.996 170.058C802.958 136.865 844.317 174.79 935.655 183.785C1025.65 192.648 1076.93 163.871 1107.03 198.981C1111.13 203.756 1116.01 208.934 1119.82 225.096V225.103Z" fill="#FDDA8F"/>
</g>
<g opacity="0.25">
<path fill-rule="evenodd" clip-rule="evenodd" d="M829.504 228.445C802.539 228.445 780.68 250.651 780.68 278.044C780.68 305.437 802.539 327.643 829.504 327.643C856.469 327.643 878.329 305.437 878.329 278.044C878.329 250.651 856.469 228.445 829.504 228.445ZM774.891 278.044C774.891 247.403 799.342 222.563 829.504 222.563C859.666 222.563 884.118 247.403 884.118 278.044C884.118 308.685 859.666 333.524 829.504 333.524C799.342 333.524 774.891 308.685 774.891 278.044Z" fill="#231F20"/>
<path fill-rule="evenodd" clip-rule="evenodd" d="M995.08 243.955C967.687 243.955 945.481 265.815 945.481 292.78C945.481 319.745 967.687 341.604 995.08 341.604C1022.47 341.604 1044.68 319.745 1044.68 292.78C1044.68 265.815 1022.47 243.955 995.08 243.955ZM939.6 292.78C939.6 262.617 964.439 238.166 995.08 238.166C1025.72 238.166 1050.56 262.617 1050.56 292.78C1050.56 322.942 1025.72 347.393 995.08 347.393C964.439 347.393 939.6 322.942 939.6 292.78Z" fill="#231F20"/>
<path fill-rule="evenodd" clip-rule="evenodd" d="M914.197 273.912C899.369 272.295 888.422 277.546 884.949 279.391C883.512 280.154 881.738 279.589 880.987 278.129C880.236 276.669 880.792 274.867 882.229 274.104C886.168 272.012 898.341 266.183 914.824 267.981L914.825 267.981C929.987 269.638 940.047 276.796 943.662 279.638C944.945 280.646 945.18 282.519 944.188 283.822C943.195 285.124 941.351 285.363 940.069 284.355C936.874 281.844 927.836 275.402 914.197 273.912" fill="#231F20"/>
<path fill-rule="evenodd" clip-rule="evenodd" d="M1128.42 259.219C1128.94 260.752 1128.13 262.423 1126.62 262.951L1049.19 290.019C1047.68 290.547 1046.03 289.732 1045.51 288.199C1044.99 286.666 1045.79 284.995 1047.3 284.467L1124.74 257.399C1126.25 256.871 1127.9 257.686 1128.42 259.219Z" fill="#231F20"/>
<path fill-rule="evenodd" clip-rule="evenodd" d="M728.502 230.916C729.345 229.538 731.174 229.087 732.586 229.911L782.109 258.771C783.521 259.594 783.982 261.379 783.139 262.757C782.295 264.136 780.467 264.586 779.054 263.763L729.532 234.903C728.12 234.079 727.658 232.295 728.502 230.916Z" fill="#231F20"/>
</g>
<path fill-rule="evenodd" clip-rule="evenodd" d="M917.095 526.099C918.44 525.668 919.884 526.394 920.32 527.72C921.786 532.172 925.438 535.44 929.779 536.303M917.095 526.099C915.75 526.529 915.013 527.953 915.45 529.279L917.095 526.099ZM915.45 529.279C917.451 535.357 922.504 540.008 928.77 541.252L915.45 529.279ZM946.942 528.72C948.18 529.394 948.63 530.93 947.946 532.15C944.102 539.017 936.299 542.744 928.771 541.253L928.77 541.252M946.942 528.72C945.704 528.047 944.147 528.49 943.464 529.71L946.942 528.72ZM943.464 529.71C940.637 534.759 934.995 537.335 929.78 536.303L943.464 529.71Z" fill="#005781"/>
<path fill-rule="evenodd" clip-rule="evenodd" d="M875.843 520.822C877.29 520.557 878.704 521.383 879.003 522.667C879.967 526.809 883.966 529.763 888.443 529.89L888.444 529.89C892.532 530.006 896.429 527.745 898.021 524.173C898.564 522.954 900.118 522.356 901.491 522.838C902.865 523.321 903.538 524.7 902.995 525.919C900.598 531.3 894.683 534.818 888.273 534.636M875.843 520.822C874.396 521.087 873.466 522.343 873.765 523.627L875.843 520.822ZM873.765 523.627C875.216 529.862 881.258 534.437 888.272 534.636L873.765 523.627Z" fill="#005781"/>
<path fill-rule="evenodd" clip-rule="evenodd" d="M839.879 517.304C841.327 517.282 842.52 518.354 842.543 519.697C842.63 524.644 846.201 528.634 850.541 529.559L850.542 529.559C855.771 530.675 861.926 527.297 863.321 521.36C863.63 520.047 865.027 519.214 866.442 519.501C867.857 519.787 868.754 521.083 868.446 522.396C866.469 530.807 857.624 536.064 849.366 534.301C842.483 532.834 837.422 526.773 837.299 519.776C837.276 518.433 838.43 517.326 839.879 517.304Z" fill="#005781"/>
<path fill-rule="evenodd" clip-rule="evenodd" d="M896.868 562.387C898.248 562.299 899.436 563.388 899.521 564.82C899.559 565.463 899.686 567.103 900.243 568.872C900.808 570.663 901.727 572.313 903.173 573.318C905.014 574.596 907.97 574.993 911.385 573.849C914.75 572.722 918.342 570.147 921.16 565.91C921.945 564.729 923.505 564.432 924.643 565.247C925.781 566.062 926.068 567.68 925.282 568.861C921.875 573.984 917.398 577.296 912.923 578.794C908.499 580.276 903.847 580.039 900.386 577.636L900.385 577.635C897.647 575.731 896.23 572.856 895.483 570.488C894.73 568.098 894.57 565.945 894.522 565.14C894.437 563.707 895.488 562.475 896.868 562.387Z" fill="#005781"/>
<path fill-rule="evenodd" clip-rule="evenodd" d="M844.22 553.871C845.567 553.373 847.049 554.098 847.531 555.491C850.749 564.795 858.91 568.727 864.408 567.026M844.22 553.871C842.874 554.369 842.172 555.902 842.654 557.294L844.22 553.871ZM842.654 557.294C846.554 568.571 857.112 574.876 865.895 572.156L842.654 557.294ZM875.434 556.57C876.786 557.054 877.502 558.579 877.034 559.977C876.835 560.57 876.013 562.949 874.316 565.485C872.627 568.009 869.922 570.907 865.897 572.155L865.895 572.156M875.434 556.57C874.082 556.087 872.607 556.827 872.139 558.225L875.434 556.57ZM872.139 558.225C872.005 558.626 871.366 560.482 870.057 562.437L872.139 558.225ZM870.057 562.437C868.74 564.405 866.895 566.254 864.409 567.025L870.057 562.437Z" fill="#005781"/>
<g style="mix-blend-mode:multiply" opacity="0.28">
<path d="M721.146 517.381C725.84 526.035 731.441 534.448 738.075 542.548C795.179 612.219 891.339 614.004 909.007 614.332C925.349 614.63 1023.05 616.444 1083.26 546.765C1111.15 514.475 1119.99 481.879 1129.93 415.412C1130.74 410.037 1131.44 404.697 1132.05 399.409C1112.63 425.42 1059.74 488.937 965.95 521.723C849.179 562.535 748.641 527.907 721.146 517.389V517.381Z" fill="#005781"/>
</g>
<path d="M983.776 576.273C988.768 575.893 995.41 580.77 1002.12 586.548C1015.58 598.139 1018.29 613.344 1019.32 618.741C1019.8 625.681 1015.39 631.473 1008.88 631.759C1002.11 632.058 996.115 626.157 996.427 618.902C994.189 632.461 985.164 639.745 979.844 638.538C975.172 637.478 971.146 629.345 971.669 619.202C970.674 628 962.935 632.848 957.485 631.283C953.422 630.113 951.054 624.27 951.911 617.673C953.248 611.786 954.934 602.213 964.33 591.389C971.299 583.352 978.268 576.69 983.769 576.265L983.776 576.273Z" fill="#F36C21"/>
<path d="M806.928 581.475C811.92 581.095 818.562 585.973 825.269 591.75C838.735 603.342 841.438 618.546 842.47 623.943C842.949 630.883 838.539 636.676 832.035 636.961C825.262 637.261 819.267 631.359 819.58 624.104C817.341 637.663 808.316 644.947 802.997 643.74C798.324 642.68 794.298 634.547 794.822 624.404C793.826 633.202 786.087 638.05 780.637 636.485C776.575 635.315 774.206 629.472 775.063 622.875C776.4 616.988 778.086 607.415 787.482 596.592C794.451 588.554 801.42 581.892 806.921 581.468L806.928 581.475Z" fill="#F36C21"/>
<path d="M1127.42 392.073C1111.32 388.159 1095.22 384.245 1079.12 380.338C1066.44 404.362 1044.92 438.442 1010.04 471.214C970.811 508.083 930.956 528.018 904.016 538.73L899.721 534.393L900.767 542.016C900.774 542.104 900.782 542.192 900.804 542.279V542.309H900.811C900.891 542.659 901.045 543.002 901.294 543.302C938.639 589.474 994.364 611.775 1041.71 598.433C1109.89 579.221 1159.09 486.549 1127.41 392.073H1127.42Z" fill="#005781"/>
<path d="M1082.51 373.403C1069.55 397.413 1047.52 431.461 1011.79 464.158C970.747 501.714 928.981 521.602 901.331 532.087C899.722 532.694 899.205 534.71 900.304 536.033C938.809 582.327 996.111 604.787 1044.71 591.577C1114.71 572.544 1165 479.933 1132.17 385.291C1115.62 381.331 1099.07 377.363 1082.51 373.403H1082.51Z" fill="url(#paint5_radial_887_12063)"/>
<path fill-rule="evenodd" clip-rule="evenodd" d="M1092.19 413.323C1093.58 413.066 1094.92 413.973 1095.18 415.348C1096.99 424.923 1093.31 434.843 1085.51 441.166L1085.5 441.167C1079.58 445.966 1073.02 447.295 1068.99 447.64C1075.22 472.318 1063.59 495.219 1046.64 501.333L1046.64 501.333C1039.73 503.823 1032.86 503.15 1027.43 501.699C1025.65 501.222 1024 500.656 1022.53 500.077C1026.65 513.202 1022.27 528.047 1011.17 537.905M1092.19 413.323C1090.8 413.579 1089.88 414.902 1090.14 416.278L1092.19 413.323ZM1090.14 416.278C1091.6 424.003 1088.63 432.077 1082.25 437.249L1090.14 416.278ZM1082.25 437.249C1075.44 442.764 1067.51 442.729 1065.72 442.676L1062.13 442.57L1063.19 445.959C1070.72 469.935 1059.35 491.351 1044.89 496.572C1039.3 498.584 1033.58 498.096 1028.77 496.808C1023.96 495.521 1020.23 493.486 1018.75 492.632L1010.56 487.905L1015.22 496.065C1022.18 508.228 1019.13 524.024 1007.75 534.136L1007.75 534.136C997.243 543.466 981.715 546.081 969.201 540.622C967.905 540.058 966.392 540.637 965.82 541.917C965.249 543.197 965.835 544.693 967.131 545.258C981.568 551.555 999.234 548.51 1011.17 537.905" fill="#005781"/>
<path fill-rule="evenodd" clip-rule="evenodd" d="M1115.11 474.153C1116.44 473.615 1117.96 474.247 1118.5 475.566C1122.46 485.193 1121.9 492.478 1120.99 496.777C1118.81 507.025 1111.36 515.901 1100.69 522.251C1090.53 528.293 1077.31 532.155 1062.38 532.843C1061.88 538.283 1059.9 548.697 1051.69 557.673M1115.11 474.153C1113.79 474.691 1113.15 476.197 1113.69 477.516L1115.11 474.153ZM1113.69 477.516C1117.2 486.044 1116.64 492.259 1115.91 495.712L1113.69 477.516ZM1115.91 495.712L1115.91 495.713L1115.91 495.712ZM1115.91 495.713C1114.11 504.166 1107.84 511.981 1098.02 517.826L1115.91 495.713ZM1098.02 517.826C1088.21 523.661 1075.03 527.417 1059.89 527.769L1098.02 517.826ZM1059.89 527.769L1057.45 527.826L1059.89 527.769ZM1057.45 527.826L1057.36 530.245L1057.45 527.826ZM1057.36 530.245C1057.21 533.955 1056.27 544.998 1047.85 554.205L1057.36 530.245ZM1047.85 554.205L1047.85 554.205L1047.85 554.205ZM1024.9 570.706C1016.59 571.648 1010.09 570.387 1009.27 570.215C1007.87 569.919 1006.98 568.55 1007.27 567.156C1007.57 565.763 1008.95 564.873 1010.35 565.169C1010.86 565.277 1016.76 566.437 1024.31 565.581C1031.85 564.726 1040.83 561.89 1047.85 554.205M1024.9 570.706C1033.22 569.762 1043.55 566.582 1051.69 557.673L1024.9 570.706Z" fill="#005781"/>
</g>
</g>
<rect x="1.5" y="1.5" width="1101" height="620" stroke="url(#paint6_linear_887_12063)" stroke-width="3"/>
<rect x="1.5" y="1.5" width="1101" height="620" stroke="url(#paint7_linear_887_12063)" stroke-width="3"/>
<defs>
<linearGradient id="paint0_linear_887_12063" x1="552" y1="0" x2="552" y2="623" gradientUnits="userSpaceOnUse">
<stop stop-color="#124CEB" stop-opacity="0"/>
<stop offset="1" stop-color="#124CEB"/>
</linearGradient>
<radialGradient id="paint1_radial_887_12063" cx="0" cy="0" r="1" gradientUnits="userSpaceOnUse" gradientTransform="translate(716.552 162.358) rotate(103.605) scale(200.323 251.853)">
<stop stop-color="#359BDC"/>
<stop offset="0.94" stop-color="#2174BB"/>
</radialGradient>
<radialGradient id="paint2_radial_887_12063" cx="0" cy="0" r="1" gradientUnits="userSpaceOnUse" gradientTransform="translate(1077.34 191.996) rotate(5.01531) scale(96.7065 95.674)">
<stop stop-color="#359BDC"/>
<stop offset="0.84" stop-color="#2174BB"/>
</radialGradient>
<radialGradient id="paint3_radial_887_12063" cx="0" cy="0" r="1" gradientUnits="userSpaceOnUse" gradientTransform="translate(800.652 165.377) rotate(5.14589) scale(88.8025 90.1175)">
<stop stop-color="#359BDC"/>
<stop offset="0.82" stop-color="#2174BB"/>
</radialGradient>
<radialGradient id="paint4_radial_887_12063" cx="0" cy="0" r="1" gradientUnits="userSpaceOnUse" gradientTransform="translate(924.029 152.478) rotate(-174.93) scale(455.516 455.554)">
<stop stop-color="#359BDC"/>
<stop offset="0.7" stop-color="#2174BB"/>
</radialGradient>
<radialGradient id="paint5_radial_887_12063" cx="0" cy="0" r="1" gradientUnits="userSpaceOnUse" gradientTransform="translate(945.527 430.136) rotate(5.08826) scale(206.341 207.077)">
<stop stop-color="#359BDC"/>
<stop offset="0.89" stop-color="#2174BB"/>
</radialGradient>
<linearGradient id="paint6_linear_887_12063" x1="552" y1="0" x2="552" y2="623" gradientUnits="userSpaceOnUse">
<stop stop-color="#004BEF" stop-opacity="0"/>
<stop offset="1" stop-color="#004BEF"/>
</linearGradient>
<linearGradient id="paint7_linear_887_12063" x1="552" y1="0" x2="552" y2="623" gradientUnits="userSpaceOnUse">
<stop stop-color="#004BEF" stop-opacity="0"/>
<stop offset="1" stop-color="#004BEF"/>
</linearGradient>
</defs>
</svg>
