<svg width="1104" height="623" viewBox="0 0 1104 623" fill="none" xmlns="http://www.w3.org/2000/svg">
<rect width="1104" height="623" fill="#172546"/>
<rect opacity="0.4" width="1104" height="623" fill="url(#paint0_linear_887_11897)"/>
<mask id="mask0_887_11897" style="mask-type:alpha" maskUnits="userSpaceOnUse" x="0" y="0" width="1104" height="623">
<rect width="1104" height="623" fill="#172546"/>
</mask>
<g mask="url(#mask0_887_11897)">
<g opacity="0.1">
<path d="M835.978 547.232H842.257V519.474H833.42L827.82 537.999L827.432 540.205L827.064 537.999L821.464 519.474H812.627V547.232H818.925V530.894L818.634 526.249L819.7 531.572L824.351 545.006H830.513L835.183 531.572L836.269 526.249L835.978 530.894V547.232Z" fill="white"/>
<path d="M851.116 546.672C852.609 547.388 854.314 547.736 856.232 547.736C857.821 547.736 859.139 547.62 860.166 547.388C861.213 547.156 862.046 546.865 862.666 546.517C863.305 546.168 863.79 545.801 864.158 545.414L861.678 541.465C861.406 541.736 861.038 541.987 860.554 542.258C860.069 542.51 859.507 542.723 858.848 542.897C858.19 543.071 857.453 543.129 856.639 543.129C855.767 543.129 855.031 542.994 854.411 542.723C853.791 542.452 853.306 542.084 852.957 541.6C852.609 541.116 852.415 540.574 852.376 539.955H864.875C864.895 539.839 864.914 539.626 864.914 539.277V538.619C864.914 536.606 864.546 534.922 863.79 533.567C863.054 532.212 861.988 531.186 860.593 530.508C859.197 529.831 857.589 529.482 855.69 529.482C853.713 529.482 852.027 529.889 850.613 530.663C849.217 531.457 848.152 532.522 847.415 533.877C846.679 535.232 846.311 536.741 846.311 538.426C846.311 540.439 846.737 542.142 847.57 543.536C848.403 544.93 849.586 545.975 851.058 546.691L851.116 546.672ZM852.957 535.232C853.209 534.806 853.577 534.438 854.043 534.167C854.527 533.896 855.108 533.741 855.825 533.741C856.542 533.741 857.104 533.877 857.55 534.167C857.996 534.457 858.345 534.825 858.558 535.27C858.79 535.715 858.907 536.161 858.907 536.625H852.492C852.531 536.141 852.686 535.677 852.938 535.232H852.957Z" fill="white"/>
<path d="M887.611 547.214V536.684C887.611 534.961 887.242 533.567 886.487 532.503C885.75 531.438 884.801 530.664 883.638 530.18C882.495 529.696 881.313 529.444 880.092 529.444C879.142 529.444 878.251 529.599 877.437 529.909C876.623 530.219 875.945 530.625 875.402 531.09C874.86 531.554 874.511 532.019 874.336 532.483V529.948H867.941V547.214H874.336V537.942C874.336 537.168 874.511 536.49 874.86 535.89C875.208 535.29 875.654 534.826 876.216 534.497C876.778 534.168 877.359 534.013 877.999 534.013C878.948 534.013 879.723 534.322 880.305 534.942C880.886 535.561 881.196 536.49 881.196 537.729V547.214H887.611Z" fill="white"/>
<path d="M894.508 546.273C895.632 547.241 897.047 547.725 898.791 547.725C899.76 547.725 900.632 547.628 901.427 547.454C902.221 547.28 902.861 547.067 903.364 546.854C903.868 546.621 904.178 546.466 904.275 546.389L902.085 541.84C902.085 541.84 901.872 542.014 901.601 542.169C901.33 542.343 901.02 542.421 900.632 542.421C900.07 542.421 899.682 542.208 899.469 541.763C899.256 541.317 899.159 540.737 899.159 540.021V535.201H903.035V529.935H899.159V522.851H892.822V529.935H889.877V535.201H892.822V541.743C892.822 543.776 893.384 545.286 894.508 546.254V546.273Z" fill="white"/>
<path d="M910.42 546.556C911.893 547.331 913.559 547.718 915.458 547.718C917.357 547.718 919.024 547.331 920.458 546.556C921.911 545.782 923.035 544.698 923.849 543.343C924.663 541.988 925.07 540.401 925.07 538.639C925.07 536.878 924.663 535.29 923.849 533.916C923.035 532.542 921.911 531.438 920.458 530.645C919.005 529.851 917.338 529.444 915.458 529.444C913.579 529.444 911.873 529.851 910.42 530.645C908.947 531.438 907.804 532.542 906.971 533.916C906.137 535.29 905.711 536.878 905.711 538.639C905.711 540.401 906.118 541.969 906.971 543.343C907.823 544.717 908.967 545.782 910.42 546.556ZM912.3 536.607C912.61 536.026 913.017 535.561 913.559 535.213C914.102 534.884 914.741 534.71 915.458 534.71C916.175 534.71 916.815 534.884 917.357 535.213C917.881 535.542 918.307 536.007 918.598 536.607C918.888 537.187 919.043 537.865 919.043 538.62C919.043 539.375 918.888 540.033 918.598 540.614C918.307 541.194 917.881 541.659 917.357 541.988C916.815 542.317 916.195 542.472 915.458 542.472C914.722 542.472 914.082 542.317 913.559 541.988C913.017 541.659 912.59 541.214 912.3 540.614C911.99 540.033 911.854 539.355 911.854 538.62C911.854 537.884 912.009 537.187 912.3 536.607Z" fill="white"/>
<path d="M927.846 529.966V547.233H934.241V538.561C934.241 538.019 934.376 537.438 934.628 536.819C934.88 536.199 935.287 535.677 935.849 535.251C936.411 534.825 937.109 534.593 937.961 534.593C938.698 534.593 939.318 534.728 939.822 534.98C940.325 535.232 940.674 535.483 940.868 535.735L943.348 530.547C943.038 530.315 942.554 530.083 941.876 529.85C941.197 529.599 940.461 529.482 939.667 529.482C938.523 529.482 937.574 529.676 936.779 530.082C935.985 530.489 935.384 530.934 934.958 531.438C934.609 531.844 934.376 532.173 934.241 532.463V529.986H927.846V529.966Z" fill="white"/>
<path d="M951.688 529.948H945.293V547.215H951.688V529.948Z" fill="white"/>
<path d="M951.734 520.971C951.405 520.429 950.959 519.984 950.416 519.655C949.874 519.326 949.273 519.171 948.614 519.171C947.626 519.171 946.754 519.539 946.056 520.255C945.358 520.971 944.99 521.823 944.99 522.81C944.99 523.797 945.339 524.63 946.037 525.346C946.734 526.062 947.587 526.411 948.614 526.411C949.641 526.411 950.474 526.062 951.191 525.346C951.908 524.63 952.257 523.797 952.257 522.81C952.257 522.133 952.083 521.533 951.753 520.971H951.734Z" fill="white"/>
<path d="M975.552 547.214V536.684C975.552 534.961 975.184 533.567 974.428 532.503C973.692 531.438 972.742 530.664 971.579 530.18C970.436 529.696 969.254 529.444 968.033 529.444C967.084 529.444 966.192 529.599 965.378 529.909C964.564 530.219 963.867 530.625 963.344 531.09C962.801 531.554 962.452 532.019 962.278 532.483V529.948H955.883V547.214H962.278V537.942C962.278 537.168 962.452 536.49 962.801 535.89C963.15 535.29 963.595 534.826 964.157 534.497C964.719 534.168 965.301 534.013 965.94 534.013C966.89 534.013 967.665 534.322 968.266 534.942C968.866 535.561 969.157 536.49 969.157 537.729V547.214H975.571H975.552Z" fill="white"/>
<path d="M992.637 547.215V547.312C992.637 548.202 992.443 548.938 992.056 549.557C991.668 550.177 991.125 550.641 990.447 550.97C989.769 551.299 988.955 551.454 988.025 551.454C987.037 551.454 986.184 551.338 985.486 551.106C984.789 550.874 984.207 550.564 983.742 550.196C983.277 549.828 982.87 549.46 982.56 549.073L978.82 552.964C979.518 553.855 980.39 554.532 981.417 555.055C982.444 555.577 983.548 555.926 984.731 556.119C985.913 556.332 987.114 556.429 988.316 556.429C990.312 556.429 992.114 556.1 993.703 555.442C995.311 554.784 996.571 553.796 997.52 552.5C998.47 551.203 998.935 549.596 998.935 547.68V529.929H992.579V532.445C992.385 532.058 992.036 531.613 991.532 531.148C991.029 530.684 990.37 530.277 989.556 529.929C988.742 529.58 987.792 529.406 986.707 529.406C985.021 529.406 983.548 529.813 982.289 530.645C981.029 531.478 980.041 532.581 979.343 533.955C978.646 535.33 978.297 536.859 978.297 538.543C978.297 540.227 978.646 541.756 979.343 543.131C980.041 544.505 981.029 545.608 982.289 546.441C983.548 547.254 985.021 547.68 986.707 547.68C987.831 547.68 988.819 547.467 989.653 547.041C990.486 546.615 991.164 546.131 991.687 545.608C992.191 545.066 992.521 544.66 992.637 544.389V547.176V547.215ZM992.036 540.711C991.687 541.33 991.222 541.814 990.641 542.163C990.06 542.511 989.362 542.685 988.606 542.685C987.85 542.685 987.192 542.511 986.572 542.163C985.951 541.814 985.467 541.33 985.118 540.711C984.75 540.091 984.576 539.375 984.576 538.601C984.576 537.827 984.75 537.11 985.118 536.491C985.486 535.872 985.971 535.368 986.572 535.02C987.172 534.671 987.85 534.478 988.606 534.478C989.362 534.478 990.06 534.652 990.641 535.02C991.222 535.368 991.687 535.872 992.036 536.491C992.385 537.11 992.559 537.827 992.559 538.601C992.559 539.375 992.385 540.091 992.036 540.711Z" fill="white"/>
<path d="M872.514 590.059C873.328 589.44 874.161 588.704 875.052 587.872C875.944 587.039 876.758 586.11 877.533 585.123C878.308 584.136 878.928 583.052 879.412 581.929C879.897 580.806 880.129 579.625 880.129 578.425C880.129 577.457 879.974 576.451 879.645 575.405C879.316 574.36 878.792 573.373 878.037 572.482C877.281 571.573 876.254 570.837 874.955 570.276C873.657 569.714 872.029 569.443 870.053 569.443C868.347 569.443 866.875 569.676 865.634 570.121C864.394 570.566 863.328 571.147 862.495 571.844C861.642 572.521 860.964 573.237 860.441 573.973C859.918 574.709 859.55 575.347 859.298 575.889C859.065 576.451 858.929 576.819 858.891 576.993L864.278 579.451C864.278 579.451 864.452 579.083 864.704 578.599C864.956 578.115 865.324 577.573 865.809 576.993C866.293 576.412 866.894 575.889 867.592 575.444C868.309 574.999 869.122 574.786 870.053 574.786C871.254 574.786 872.165 575.057 872.824 575.599C873.483 576.141 873.812 577.051 873.812 578.367C873.812 579.199 873.502 580.09 872.882 581.077C872.262 582.064 871.467 583.052 870.498 584.078C869.529 585.103 868.464 586.091 867.34 587.059C866.216 588.026 865.131 588.898 864.084 589.691C863.038 590.485 862.146 591.162 861.41 591.685C860.673 592.208 860.189 592.556 859.976 592.711V597.686H879.916V592.227H869.452C869.568 592.15 869.898 591.917 870.46 591.549C871.022 591.182 871.7 590.698 872.514 590.059Z" fill="white"/>
<path d="M886.62 594.86C887.685 596.002 888.887 596.834 890.243 597.376C891.6 597.918 893.014 598.189 894.507 598.189C895.999 598.189 897.413 597.918 898.77 597.376C900.126 596.834 901.328 596.002 902.374 594.86C903.421 593.717 904.254 592.227 904.855 590.407C905.455 588.588 905.766 586.4 905.766 583.826C905.766 581.406 905.455 579.316 904.855 577.515C904.254 575.715 903.421 574.205 902.374 573.024C901.328 571.844 900.126 570.934 898.77 570.334C897.413 569.734 895.999 569.443 894.507 569.443C893.014 569.443 891.6 569.734 890.243 570.334C888.887 570.934 887.685 571.824 886.62 573.024C885.554 574.225 884.72 575.715 884.12 577.515C883.5 579.316 883.209 581.426 883.209 583.826C883.209 586.4 883.519 588.588 884.12 590.407C884.72 592.227 885.573 593.717 886.62 594.86ZM890.127 579.045C890.534 577.728 891.115 576.722 891.852 576.025C892.588 575.328 893.48 574.98 894.507 574.98C895.534 574.98 896.406 575.328 897.142 576.025C897.878 576.722 898.44 577.728 898.847 579.045C899.254 580.361 899.448 581.968 899.448 583.845C899.448 585.839 899.254 587.484 898.847 588.801C898.44 590.117 897.878 591.085 897.142 591.724C896.406 592.362 895.534 592.692 894.507 592.692C893.48 592.692 892.608 592.362 891.852 591.724C891.115 591.085 890.534 590.117 890.127 588.82C889.72 587.523 889.507 585.858 889.507 583.865C889.507 581.987 889.701 580.38 890.127 579.064V579.045Z" fill="white"/>
<path d="M919.436 584.066C918.467 585.092 917.401 586.079 916.277 587.047C915.153 588.015 914.068 588.886 913.022 589.679C911.975 590.473 911.084 591.151 910.347 591.673C909.611 592.196 909.127 592.544 908.913 592.699V597.674H928.854V592.215H918.389C918.506 592.138 918.835 591.905 919.397 591.538C919.959 591.17 920.637 590.686 921.451 590.047C922.265 589.428 923.098 588.692 923.99 587.86C924.881 587.027 925.695 586.098 926.47 585.111C927.245 584.124 927.865 583.04 928.35 581.917C928.834 580.794 929.067 579.614 929.067 578.413C929.067 577.446 928.912 576.439 928.582 575.394C928.253 574.348 927.73 573.361 926.974 572.471C926.218 571.561 925.191 570.825 923.893 570.264C922.595 569.703 920.967 569.432 918.99 569.432C917.285 569.432 915.812 569.664 914.572 570.109C913.332 570.554 912.266 571.135 911.433 571.832C910.58 572.509 909.902 573.226 909.378 573.961C908.855 574.697 908.487 575.336 908.235 575.878C908.003 576.439 907.867 576.807 907.828 576.981L913.215 579.439C913.215 579.439 913.39 579.072 913.642 578.588C913.894 578.104 914.262 577.562 914.746 576.981C915.231 576.4 915.831 575.878 916.529 575.432C917.246 574.987 918.06 574.774 918.99 574.774C920.192 574.774 921.102 575.045 921.761 575.587C922.42 576.129 922.75 577.039 922.75 578.355C922.75 579.188 922.439 580.078 921.819 581.065C921.199 582.053 920.405 583.04 919.436 584.066Z" fill="white"/>
<path d="M944.235 592.273C943.634 592.602 942.898 592.777 942.045 592.777C941.193 592.777 940.495 592.544 939.855 592.099C939.216 591.634 938.712 591.092 938.305 590.434C937.898 589.776 937.627 589.137 937.453 588.537L931.678 591.402C931.968 592.389 932.53 593.396 933.383 594.461C934.236 595.506 935.379 596.396 936.813 597.132C938.247 597.868 940.01 598.216 942.065 598.216C944.119 598.216 945.824 597.829 947.374 597.035C948.925 596.242 950.126 595.177 951.017 593.803C951.909 592.428 952.355 590.86 952.355 589.099C952.355 587.86 952.122 586.795 951.618 585.885C951.114 584.976 950.552 584.24 949.855 583.698C949.157 583.156 948.479 582.827 947.781 582.75C948.363 582.595 948.925 582.266 949.467 581.743C949.99 581.22 950.436 580.581 950.766 579.807C951.095 579.033 951.269 578.162 951.269 577.233C951.269 575.684 950.882 574.31 950.087 573.148C949.293 571.987 948.227 571.077 946.851 570.419C945.475 569.761 943.906 569.432 942.142 569.432C940.65 569.432 939.352 569.645 938.208 570.051C937.065 570.458 936.115 570.98 935.34 571.6C934.565 572.238 933.945 572.897 933.499 573.593C933.054 574.29 932.744 574.929 932.589 575.49L937.685 577.91C937.743 577.639 937.879 577.291 938.073 576.904C938.266 576.516 938.557 576.149 938.906 575.761C939.255 575.394 939.7 575.084 940.224 574.832C940.747 574.581 941.367 574.465 942.065 574.465C943.208 574.465 944.099 574.774 944.7 575.394C945.301 576.013 945.611 576.768 945.611 577.659C945.611 578.317 945.456 578.878 945.165 579.362C944.855 579.846 944.448 580.214 943.925 580.485C943.402 580.736 942.82 580.872 942.181 580.872H941.464V585.363H942.006C942.743 585.363 943.44 585.498 944.041 585.75C944.661 586.002 945.146 586.389 945.533 586.911C945.902 587.434 946.095 588.073 946.095 588.866C946.095 589.66 945.94 590.299 945.611 590.88C945.281 591.46 944.816 591.925 944.216 592.254L944.235 592.273Z" fill="white"/>
<path d="M1365 397.51C1352.5 364.544 1327.5 312.899 1277.8 266.441C1256.44 246.464 1235.05 231.695 1216.31 220.816C1216.35 220.913 1216.41 221.009 1216.44 221.106C1237.82 267.893 1251.36 326.275 1237.53 391.296C1220.01 473.603 1163.29 544.509 1084.81 587.521H1084.79L1084.77 587.541C1015.8 631.908 946.56 632.585 919.895 631.462L1035.7 600.626C1115.66 558.756 1169.63 479.411 1172.75 392.535C1175.42 318.125 1140.31 252.465 1088.04 206.453H1088.02C1066.45 187.444 1041.96 171.803 1015.99 160.305C1002.95 154.497 989.522 149.755 975.918 146.135C890.769 123.526 782.153 163.015 716.789 218.299C700.977 234.482 687.082 252.794 675.688 273.081C611.157 388.044 653.577 517.583 714.309 585.411C758.337 634.618 817.364 657.343 843.854 667.545C850.637 670.158 861.76 674.223 876.526 678.385C876.565 678.385 876.584 678.404 876.623 678.404C901.699 685.469 937.239 692.787 979.658 693.677C1029.5 694.722 1070.54 686.515 1098.56 678.752C1064.77 695.709 1001.01 721.939 918.616 721.048C881.196 720.661 736.788 713.557 635.826 594.122C585.035 534.037 551.084 452.465 549.824 366.886C549.243 328.017 555.425 288.315 569.804 249.426C615.595 125.636 721.808 71.9191 752.93 57.7882C847.148 15.0085 975.376 7.40102 1079.86 67.0023C1104.8 78.8683 1139.69 97.7998 1177.42 126.797H1177.44C1202.86 146.329 1229.56 170.448 1255.38 200.065C1321.55 275.945 1351.38 352.93 1365 397.51Z" fill="white"/>
<path d="M620.093 606.222C609.047 604.75 595.793 602.079 581.278 597.201C565.717 591.994 552.753 585.606 542.463 579.625C541.92 579.315 542.289 578.483 542.889 578.657C552.152 581.347 561.861 583.941 571.996 586.361C585.522 589.613 598.525 592.265 610.888 594.433C601.529 585.509 580.6 567.991 548.432 559.9C521.631 553.144 499.055 555.97 486.73 558.428C491.517 567.313 505.256 589.884 533.336 603.57C574.263 623.508 613.408 608.816 620.093 606.183V606.222Z" fill="white"/>
<path d="M505.87 523.86C532.942 548.173 566.234 545.482 571.951 544.921C563.793 541.359 554.2 536.404 544.104 529.474C533.291 522.06 524.726 514.298 518.137 507.445C517.788 507.077 518.253 506.535 518.679 506.806C525.21 510.91 532.109 515.033 539.356 519.118C549.045 524.576 558.444 529.474 567.474 533.848C562.242 524.944 550.014 506.884 527.09 493.605C507.983 482.532 490.019 479.745 480 478.932C481.725 486.81 487.306 507.174 505.89 523.86H505.87Z" fill="white"/>
<path d="M541.337 475.875C536.143 472.158 530.155 467.261 524.109 460.912C517.637 454.098 512.792 447.4 509.188 441.612C508.994 441.303 509.401 440.993 509.653 441.245C513.625 445.097 517.831 449.007 522.307 452.956C528.276 458.221 534.147 463.06 539.825 467.474C537.48 460.447 531.609 445.987 517.501 433.25C505.758 422.642 493.569 418.016 486.67 415.964C486.709 421.732 487.581 436.85 498.123 451.31C513.47 472.371 537.228 475.43 541.298 475.894L541.337 475.875Z" fill="white"/>
<path d="M532.927 411.786C529.225 408.496 525.02 404.218 520.873 398.817C516.435 393.029 513.257 387.454 510.951 382.712C510.835 382.46 511.164 382.247 511.339 382.46C514.091 385.751 517.017 389.119 520.137 392.526C524.303 397.075 528.431 401.295 532.442 405.166C531.221 399.553 527.869 387.899 518.044 376.924C509.847 367.768 500.836 363.199 495.681 361.051C495.235 365.503 494.673 377.234 501.592 389.254C511.688 406.773 529.768 411.09 532.888 411.767L532.927 411.786Z" fill="white"/>
<path d="M902.199 485C903.555 485.794 906.152 486.084 907.373 485.31C920.395 477.083 933.999 477.412 947.602 482.871C959.113 487.497 970.837 490.285 983.123 488.678C988.317 488.001 993.51 485.813 998.238 483.413C1001.13 481.942 1001.3 479.154 997.599 477.277C993.336 475.128 989.034 472.941 985.197 470.173C982.774 468.43 981.166 465.604 979.189 463.262C979.635 462.855 980.061 462.449 980.507 462.062C981.592 462.449 982.794 462.662 983.763 463.243C991.01 467.675 998.8 470.289 1007.29 471.16C1018.92 472.341 1031.43 464.985 1036.72 456.003C1038.72 452.615 1038.47 449.615 1034.07 448.454C1027.98 446.828 1021.82 445.511 1015.76 443.866C1010.68 442.492 1005.66 440.904 1000.7 439.143C999.769 438.814 999.324 437.168 998.645 436.142C999.827 435.794 1001.03 435.116 1002.21 435.155C1014.73 435.484 1027.23 435.949 1039.73 436.258C1041.2 436.297 1042.71 435.678 1044.18 435.349C1058.16 432.252 1065.69 422.205 1071 410.087C1072.46 406.758 1073.16 402.906 1073.29 399.247C1073.47 394.737 1071.12 393.556 1066.95 395.608C1046.86 405.442 1025.1 407.726 1003.26 409.545C1002.73 409.584 1002.17 409.023 1000.53 408.152C1010.74 405.345 1019.98 403.157 1028.97 400.254C1052.17 392.782 1073.81 382.503 1089.7 363.146C1095.96 355.519 1102.63 347.873 1102.2 336.994C1101.95 330.645 1095.71 326.367 1090.05 329.077C1083.29 332.31 1076.64 335.852 1070.25 339.743C1046.92 353.874 1024.19 369.147 998.122 378.128C992.464 380.083 986.495 381.109 980.662 382.561C980.43 381.98 980.178 381.4 979.945 380.819C981.65 379.658 983.239 378.264 985.08 377.373C1017.6 361.907 1047.83 342.975 1075.62 319.94C1094.55 304.261 1099.26 284.168 1096.86 261.229C1096.29 255.809 1093.35 253.312 1088.04 254.59C1083.08 255.771 1077.65 257.745 1074.01 261.094C1057.61 276.076 1041.39 291.311 1025.83 307.164C1007.6 325.747 987.27 341.291 964.404 353.777C957.292 357.668 950.684 362.681 944.541 368.005C939.425 372.437 939.657 377.935 943.203 383.665C945.238 386.955 946.963 390.517 948.358 394.156C954.443 409.971 949.773 429.832 937.39 441.388C923.05 454.783 903.71 458.539 887.2 451.106C859.818 438.775 850.613 408.597 866.6 383.51C870.282 377.722 870.166 372.844 865.225 367.85C861.659 364.269 857.434 361.229 853.19 358.403C837.862 348.26 821.235 339.704 807.263 327.974C788.583 312.294 772.15 293.943 754.283 277.257C745.969 269.495 736.881 262.449 727.521 255.984C721.107 251.551 713.84 254.203 712.832 260.533C710.41 275.767 712.193 290.382 720.099 304.009C727.289 316.398 739.032 324.063 749.961 332.426C773.448 350.409 798.931 365.217 825.654 377.896C827.301 378.67 828.657 380.045 830.149 381.129C829.917 381.613 829.684 382.097 829.452 382.581C823.871 381.245 818.135 380.354 812.709 378.516C792.865 371.76 774.921 361.229 757.073 350.447C744.981 343.15 732.792 335.968 720.351 329.309C714.053 325.941 706.631 330.78 707.677 337.826C708.588 343.982 710.952 350.467 714.441 355.596C732.249 381.729 759.069 394.156 788.369 402.499C794.881 404.358 801.469 405.984 808 407.726C807.884 408.345 807.748 408.945 807.632 409.565C803.136 409.061 798.659 408.306 794.164 408.113C776.878 407.397 760.426 403.196 744.613 396.382C737.734 393.421 734.865 394.989 736.493 402.306C737.83 408.287 741.047 413.959 744.07 419.418C750.446 430.935 760.91 436.123 773.7 436.239C784.998 436.336 796.295 435.465 807.612 435.136C808.756 435.097 809.938 435.891 811.1 436.297C810.364 437.323 809.86 438.756 808.853 439.298C806.779 440.42 804.492 441.33 802.186 441.872C794.222 443.769 786.063 444.969 778.273 447.389C771.006 449.654 770.096 451.396 773.797 457.068C778.312 463.978 784.939 468.488 793.137 470.386C804.725 473.037 814.996 469.282 824.956 463.901C826.409 463.107 828.076 462.701 830.828 461.655C829.801 463.92 829.665 465.14 828.987 465.624C824.103 469.205 819.065 472.612 814.162 476.173C812.515 477.373 809.589 479.483 809.86 480.2C810.635 482.31 812.399 484.826 814.395 485.6C818.639 487.246 823.212 488.291 827.747 488.833C840.711 490.401 852.745 486.549 864.701 482.058C877.53 477.238 890.087 477.915 902.141 485H902.199Z" fill="white"/>
<path d="M835.833 267.738C834.593 267.738 833.527 267.738 832.655 267.7C831.88 270.139 831.357 271.997 831.279 272.829C829.574 288.393 832.306 303.124 839.961 316.712C851.316 336.883 868.408 349.388 891.352 353.588C907.882 356.627 923.947 354.808 938.772 346.987C958.789 336.438 971.947 320.119 977.218 297.82C981.598 279.353 979.176 261.68 970.126 245.245C950.03 208.776 905.673 196.929 869.92 215.628C863.893 218.784 857.479 223.371 851.627 228.269C861.916 228.346 860.095 231.966 859.94 240.89C859.882 243.697 858.138 244.645 855.754 244.587C852.634 244.51 846.201 245.458 844.728 243.213C843.953 242.032 844.185 240.29 844.03 237.87C842.848 240.038 840.523 245.768 838.197 252.001C843.042 252.117 843.042 253.066 843.042 259.976C843.042 265.138 840.645 267.719 835.852 267.719L835.833 267.738ZM882.341 340.135C877.626 340.135 875.268 337.522 875.268 332.295C875.268 327.069 877.807 324.539 882.884 324.707C890.558 324.707 890.732 324.901 890.713 332.857C890.713 337.709 887.916 340.135 882.322 340.135H882.341ZM880.655 297.103C872.827 297.103 872.594 296.891 872.613 289.09C872.613 281.501 872.846 281.308 880.888 281.308C885.707 281.308 888.116 283.882 888.116 289.031C888.116 294.413 885.629 297.103 880.655 297.103ZM917.106 273.41C917.106 278.598 914.671 281.192 909.801 281.192C902.224 281.192 902.011 280.979 902.011 273.526C902.011 265.919 902.049 265.88 909.704 265.88C914.639 265.88 917.106 268.39 917.106 273.41ZM906.371 226.662C911.332 226.662 913.812 229.204 913.812 234.289C913.812 239.464 911.325 242.051 906.351 242.051C898.503 242.051 898.348 241.896 898.348 233.979C898.348 229.088 901.022 226.649 906.371 226.662ZM896.333 266.519C896.333 271.397 893.665 273.836 888.329 273.836C883.11 273.836 880.507 271.19 880.52 265.899C880.52 258.931 880.869 258.621 888.174 258.582C896.003 258.563 896.333 258.873 896.313 266.519H896.333ZM871.16 247.123C871.16 240.154 871.509 239.844 878.815 239.806C886.643 239.786 886.973 240.096 886.973 247.742C886.973 252.62 884.305 255.059 878.97 255.059C873.75 255.059 871.147 252.414 871.16 247.123ZM877.245 308.989C877.245 313.957 874.461 316.435 868.893 316.422C860.599 316.364 861.839 316.906 861.781 308.137C861.723 300.936 861.781 300.936 869.183 300.936C876.993 300.936 877.245 301.188 877.245 308.97V308.989ZM860.114 269.79C865.127 269.79 867.633 272.462 867.633 277.804C867.633 282.966 865.237 285.547 860.444 285.547C852.557 285.547 852.518 285.508 852.537 277.649C852.537 269.964 852.712 269.81 860.134 269.81L860.114 269.79Z" fill="white"/>
<path d="M923.707 403.188C922.912 403.478 922.176 403.981 921.536 404.523C915.936 409.382 910.374 414.26 904.193 419.661C903.495 418.848 902.623 417.628 901.538 416.622C897.061 412.479 892.817 408.027 887.934 404.407C883.865 401.388 878.632 399.839 874.156 403.246C870.164 406.285 870.804 411.124 872.024 415.538C872.819 418.441 873.4 421.558 874.892 424.113C883.438 438.747 894.872 444.651 913.552 441.225C924.947 439.134 935.605 429.591 938.008 414.667C938.589 411.008 937.95 405.975 935.741 403.304C932.776 399.723 927.796 401.717 923.726 403.188H923.707Z" fill="white"/>
</g>
</g>
<rect x="1.5" y="1.5" width="1101" height="620" stroke="url(#paint1_linear_887_11897)" stroke-width="3"/>
<rect x="1.5" y="1.5" width="1101" height="620" stroke="url(#paint2_linear_887_11897)" stroke-width="3"/>
<defs>
<linearGradient id="paint0_linear_887_11897" x1="552" y1="0" x2="552" y2="623" gradientUnits="userSpaceOnUse">
<stop stop-color="#124CEB" stop-opacity="0"/>
<stop offset="1" stop-color="#124CEB"/>
</linearGradient>
<linearGradient id="paint1_linear_887_11897" x1="552" y1="0" x2="552" y2="623" gradientUnits="userSpaceOnUse">
<stop stop-color="#004BEF" stop-opacity="0"/>
<stop offset="1" stop-color="#004BEF"/>
</linearGradient>
<linearGradient id="paint2_linear_887_11897" x1="552" y1="0" x2="552" y2="623" gradientUnits="userSpaceOnUse">
<stop stop-color="#004BEF" stop-opacity="0"/>
<stop offset="1" stop-color="#004BEF"/>
</linearGradient>
</defs>
</svg>
