<svg width="110" height="87" viewBox="0 0 110 87" fill="none" xmlns="http://www.w3.org/2000/svg">
<path d="M44.2461 65.0332H45.0265V61.583H43.9282L43.2321 63.8855L43.1839 64.1598L43.1382 63.8855L42.4421 61.583H41.3438V65.0332H42.1266V63.0026L42.0904 62.4251L42.2229 63.0868L42.801 64.7565H43.5669L44.1474 63.0868L44.2823 62.4251L44.2461 63.0026V65.0332Z" fill="white"/>
<path d="M46.1266 64.9647C46.3121 65.0537 46.5241 65.097 46.7625 65.097C46.96 65.097 47.1238 65.0825 47.2515 65.0537C47.3815 65.0248 47.4851 64.9887 47.5622 64.9454C47.6417 64.9021 47.7019 64.8564 47.7476 64.8083L47.4393 64.3174C47.4056 64.3511 47.3599 64.3824 47.2996 64.4161C47.2394 64.4474 47.1696 64.4738 47.0877 64.4955C47.0058 64.5171 46.9143 64.5244 46.8131 64.5244C46.7047 64.5244 46.6132 64.5075 46.5361 64.4738C46.459 64.4401 46.3988 64.3944 46.3555 64.3343C46.3121 64.2741 46.288 64.2068 46.2832 64.1298H47.8368C47.8392 64.1153 47.8416 64.0889 47.8416 64.0456V63.9638C47.8416 63.7135 47.7958 63.5042 47.7019 63.3358C47.6104 63.1674 47.4779 63.0399 47.3045 62.9556C47.131 62.8714 46.9311 62.8281 46.6951 62.8281C46.4494 62.8281 46.2398 62.8787 46.064 62.9749C45.8906 63.0735 45.7581 63.2059 45.6666 63.3743C45.5751 63.5427 45.5293 63.7304 45.5293 63.9397C45.5293 64.1899 45.5823 64.4017 45.6859 64.5749C45.7894 64.7481 45.9364 64.878 46.1194 64.9671L46.1266 64.9647ZM46.3555 63.5427C46.3868 63.4898 46.4325 63.4441 46.4903 63.4104C46.5506 63.3767 46.6228 63.3574 46.7119 63.3574C46.8011 63.3574 46.8709 63.3743 46.9263 63.4104C46.9817 63.4465 47.0251 63.4922 47.0516 63.5475C47.0805 63.6029 47.0949 63.6582 47.0949 63.7159H46.2976C46.3025 63.6558 46.3217 63.598 46.3531 63.5427H46.3555Z" fill="white"/>
<path d="M50.6635 65.032V63.7231C50.6635 63.509 50.6177 63.3357 50.5238 63.2034C50.4323 63.0711 50.3143 62.9748 50.1697 62.9147C50.0276 62.8545 49.8807 62.8232 49.729 62.8232C49.6109 62.8232 49.5001 62.8425 49.399 62.881C49.2978 62.9195 49.2135 62.97 49.1461 63.0278C49.0786 63.0855 49.0353 63.1432 49.0136 63.201V62.8858H48.2188V65.032H49.0136V63.8795C49.0136 63.7832 49.0353 63.699 49.0786 63.6244C49.122 63.5499 49.1774 63.4921 49.2472 63.4512C49.3171 63.4103 49.3893 63.3911 49.4688 63.3911C49.5868 63.3911 49.6832 63.4296 49.7555 63.5066C49.8277 63.5835 49.8662 63.699 49.8662 63.853V65.032H50.6635Z" fill="white"/>
<path d="M51.521 64.9152C51.6607 65.0355 51.8365 65.0956 52.0533 65.0956C52.1737 65.0956 52.2821 65.0836 52.3809 65.0619C52.4796 65.0403 52.5591 65.0138 52.6217 64.9873C52.6843 64.9585 52.7229 64.9392 52.7349 64.9296L52.4627 64.3642C52.4627 64.3642 52.4363 64.3858 52.4025 64.4051C52.3688 64.4267 52.3303 64.4364 52.2821 64.4364C52.2123 64.4364 52.1641 64.4099 52.1376 64.3546C52.1111 64.2992 52.099 64.227 52.099 64.138V63.5389H52.5808V62.8845H52.099V62.0039H51.3114V62.8845H50.9453V63.5389H51.3114V64.3522C51.3114 64.6048 51.3813 64.7925 51.521 64.9128V64.9152Z" fill="white"/>
<path d="M53.4994 64.9502C53.6824 65.0464 53.8896 65.0945 54.1256 65.0945C54.3616 65.0945 54.5688 65.0464 54.747 64.9502C54.9277 64.8539 55.0674 64.7192 55.1685 64.5508C55.2697 64.3823 55.3203 64.185 55.3203 63.9661C55.3203 63.7471 55.2697 63.5499 55.1685 63.379C55.0674 63.2082 54.9277 63.0711 54.747 62.9724C54.5664 62.8738 54.3592 62.8232 54.1256 62.8232C53.892 62.8232 53.68 62.8738 53.4994 62.9724C53.3163 63.0711 53.1742 63.2082 53.0706 63.379C52.9671 63.5499 52.9141 63.7471 52.9141 63.9661C52.9141 64.185 52.9646 64.3799 53.0706 64.5508C53.1766 64.7216 53.3187 64.8539 53.4994 64.9502ZM53.733 63.7135C53.7715 63.6413 53.8221 63.5835 53.8896 63.5402C53.957 63.4993 54.0365 63.4777 54.1256 63.4777C54.2147 63.4777 54.2942 63.4993 54.3616 63.5402C54.4267 63.5811 54.4797 63.6389 54.5158 63.7135C54.5519 63.7856 54.5712 63.8699 54.5712 63.9637C54.5712 64.0575 54.5519 64.1393 54.5158 64.2115C54.4797 64.2837 54.4267 64.3414 54.3616 64.3823C54.2942 64.4232 54.2171 64.4425 54.1256 64.4425C54.0341 64.4425 53.9546 64.4232 53.8896 64.3823C53.8221 64.3414 53.7691 64.2861 53.733 64.2115C53.6945 64.1393 53.6776 64.0551 53.6776 63.9637C53.6776 63.8723 53.6969 63.7856 53.733 63.7135Z" fill="white"/>
<path d="M55.6641 62.8883V65.0344H56.4589V63.9565C56.4589 63.8892 56.4758 63.817 56.5071 63.74C56.5384 63.663 56.589 63.598 56.6588 63.5451C56.7287 63.4922 56.8154 63.4633 56.9214 63.4633C57.0129 63.4633 57.09 63.4802 57.1526 63.5114C57.2152 63.5427 57.2586 63.574 57.2827 63.6053L57.591 62.9605C57.5524 62.9316 57.4922 62.9027 57.4079 62.8738C57.3236 62.8426 57.2321 62.8281 57.1333 62.8281C56.9912 62.8281 56.8732 62.8522 56.7744 62.9027C56.6757 62.9532 56.601 63.0086 56.548 63.0711C56.5047 63.1217 56.4758 63.1626 56.4589 63.1987V62.8907H55.6641V62.8883Z" fill="white"/>
<path d="M58.6288 62.8867H57.834V65.0329H58.6288V62.8867Z" fill="white"/>
<path d="M58.6331 61.7716C58.5922 61.7042 58.5368 61.6489 58.4693 61.608C58.4019 61.5671 58.3272 61.5479 58.2453 61.5479C58.1225 61.5479 58.0141 61.5936 57.9274 61.6826C57.8407 61.7716 57.7949 61.8775 57.7949 62.0002C57.7949 62.1229 57.8383 62.2263 57.925 62.3154C58.0117 62.4044 58.1177 62.4477 58.2453 62.4477C58.373 62.4477 58.4766 62.4044 58.5657 62.3154C58.6548 62.2263 58.6982 62.1229 58.6982 62.0002C58.6982 61.916 58.6765 61.8414 58.6355 61.7716H58.6331Z" fill="white"/>
<path d="M61.5932 65.032V63.7231C61.5932 63.509 61.5474 63.3357 61.4535 63.2034C61.362 63.0711 61.2439 62.9748 61.0994 62.9147C60.9573 62.8545 60.8104 62.8232 60.6586 62.8232C60.5406 62.8232 60.4298 62.8425 60.3287 62.881C60.2275 62.9195 60.1408 62.97 60.0758 63.0278C60.0083 63.0855 59.965 63.1432 59.9433 63.201V62.8858H59.1484V65.032H59.9433V63.8795C59.9433 63.7832 59.965 63.699 60.0083 63.6244C60.0517 63.5499 60.1071 63.4921 60.1769 63.4512C60.2468 63.4103 60.319 63.3911 60.3985 63.3911C60.5165 63.3911 60.6129 63.4296 60.6875 63.5066C60.7622 63.5835 60.7983 63.699 60.7983 63.853V65.032H61.5956H61.5932Z" fill="white"/>
<path d="M63.7179 65.0329V65.0449C63.7179 65.1556 63.6938 65.247 63.6457 65.324C63.5975 65.401 63.5301 65.4587 63.4458 65.4996C63.3615 65.5405 63.2603 65.5598 63.1447 65.5598C63.0218 65.5598 62.9159 65.5453 62.8291 65.5165C62.7424 65.4876 62.6702 65.4491 62.6124 65.4034C62.5546 65.3577 62.504 65.312 62.4654 65.2638L62.0006 65.7474C62.0873 65.8581 62.1957 65.9423 62.3233 66.0073C62.451 66.0722 62.5883 66.1156 62.7352 66.1396C62.8821 66.1661 63.0315 66.1781 63.1808 66.1781C63.4289 66.1781 63.6529 66.1372 63.8504 66.0554C64.0503 65.9736 64.2069 65.8509 64.3249 65.6897C64.4429 65.5285 64.5007 65.3288 64.5007 65.0906V62.8843H63.7107V63.1971C63.6866 63.149 63.6433 63.0936 63.5806 63.0359C63.518 62.9781 63.4361 62.9276 63.335 62.8843C63.2338 62.841 63.1158 62.8193 62.9809 62.8193C62.7713 62.8193 62.5883 62.8699 62.4317 62.9733C62.2752 63.0768 62.1523 63.2139 62.0656 63.3847C61.9789 63.5556 61.9355 63.7456 61.9355 63.955C61.9355 64.1643 61.9789 64.3544 62.0656 64.5252C62.1523 64.696 62.2752 64.8332 62.4317 64.9366C62.5883 65.0377 62.7713 65.0906 62.9809 65.0906C63.1206 65.0906 63.2434 65.0641 63.347 65.0112C63.4506 64.9583 63.5349 64.8981 63.5999 64.8332C63.6625 64.7658 63.7035 64.7153 63.7179 64.6816V65.028V65.0329ZM63.6433 64.2244C63.5999 64.3014 63.5421 64.3616 63.4698 64.4049C63.3976 64.4482 63.3109 64.4699 63.2169 64.4699C63.123 64.4699 63.0411 64.4482 62.964 64.4049C62.887 64.3616 62.8267 64.3014 62.7834 64.2244C62.7376 64.1474 62.7159 64.0584 62.7159 63.9622C62.7159 63.8659 62.7376 63.7769 62.7834 63.6999C62.8292 63.6229 62.8894 63.5604 62.964 63.5171C63.0387 63.4738 63.123 63.4497 63.2169 63.4497C63.3109 63.4497 63.3976 63.4714 63.4698 63.5171C63.5421 63.5604 63.5999 63.6229 63.6433 63.6999C63.6866 63.7769 63.7083 63.8659 63.7083 63.9622C63.7083 64.0584 63.6866 64.1474 63.6433 64.2244Z" fill="white"/>
<path d="M48.787 70.3573C48.8882 70.2803 48.9917 70.1889 49.1025 70.0854C49.2133 69.982 49.3145 69.8665 49.4108 69.7438C49.5072 69.6211 49.5843 69.4863 49.6445 69.3468C49.7047 69.2072 49.7336 69.0605 49.7336 68.9113C49.7336 68.791 49.7143 68.6659 49.6734 68.536C49.6324 68.4061 49.5674 68.2833 49.4735 68.1727C49.3795 68.0596 49.2519 67.9682 49.0905 67.8984C48.9291 67.8286 48.7268 67.7949 48.4811 67.7949C48.2692 67.7949 48.0861 67.8238 47.932 67.8791C47.7778 67.9345 47.6453 68.0067 47.5418 68.0933C47.4358 68.1775 47.3515 68.2665 47.2864 68.3579C47.2214 68.4494 47.1756 68.5288 47.1443 68.5961C47.1154 68.6659 47.0986 68.7116 47.0938 68.7333L47.7633 69.0388C47.7633 69.0388 47.785 68.9931 47.8163 68.933C47.8476 68.8728 47.8934 68.8054 47.9536 68.7333C48.0138 68.6611 48.0885 68.5961 48.1752 68.5408C48.2643 68.4854 48.3655 68.459 48.4811 68.459C48.6305 68.459 48.7437 68.4927 48.8256 68.56C48.9074 68.6274 48.9484 68.7405 48.9484 68.9041C48.9484 69.0075 48.9099 69.1182 48.8328 69.2409C48.7557 69.3636 48.6569 69.4863 48.5365 69.6139C48.4161 69.7414 48.2836 69.8641 48.1439 69.9844C48.0042 70.1047 47.8693 70.213 47.7393 70.3116C47.6092 70.4102 47.4984 70.4945 47.4069 70.5594C47.3153 70.6244 47.2551 70.6677 47.2286 70.6869V71.3053H49.7071V70.6268H48.4065C48.4209 70.6172 48.4618 70.5883 48.5317 70.5426C48.6016 70.4969 48.6859 70.4367 48.787 70.3573Z" fill="white"/>
<path d="M50.5411 70.954C50.6736 71.096 50.8229 71.1994 50.9915 71.2668C51.1601 71.3342 51.3359 71.3678 51.5214 71.3678C51.7069 71.3678 51.8827 71.3342 52.0513 71.2668C52.2199 71.1994 52.3693 71.096 52.4993 70.954C52.6294 70.812 52.733 70.6268 52.8076 70.4006C52.8823 70.1745 52.9208 69.9026 52.9208 69.5826C52.9208 69.2818 52.8823 69.022 52.8076 68.7982C52.733 68.5745 52.6294 68.3868 52.4993 68.24C52.3693 68.0933 52.2199 67.9802 52.0513 67.9056C51.8827 67.831 51.7069 67.7949 51.5214 67.7949C51.3359 67.7949 51.1601 67.831 50.9915 67.9056C50.8229 67.9802 50.6736 68.0909 50.5411 68.24C50.4086 68.3892 50.3051 68.5745 50.2304 68.7982C50.1533 69.022 50.1172 69.2842 50.1172 69.5826C50.1172 69.9026 50.1557 70.1745 50.2304 70.4006C50.3051 70.6268 50.411 70.812 50.5411 70.954ZM50.9771 68.9883C51.0276 68.8247 51.0999 68.6996 51.1914 68.613C51.283 68.5264 51.3938 68.483 51.5214 68.483C51.6491 68.483 51.7575 68.5264 51.849 68.613C51.9405 68.6996 52.0104 68.8247 52.0609 68.9883C52.1115 69.1519 52.1356 69.3516 52.1356 69.585C52.1356 69.8328 52.1115 70.0373 52.0609 70.2009C52.0104 70.3645 51.9405 70.4848 51.849 70.5642C51.7575 70.6436 51.6491 70.6845 51.5214 70.6845C51.3938 70.6845 51.2854 70.6436 51.1914 70.5642C51.0999 70.4848 51.0276 70.3645 50.9771 70.2033C50.9265 70.0421 50.9 69.8352 50.9 69.5874C50.9 69.354 50.9241 69.1543 50.9771 68.9907V68.9883Z" fill="white"/>
<path d="M54.6185 69.6129C54.4981 69.7404 54.3656 69.8631 54.2259 69.9834C54.0862 70.1037 53.9514 70.212 53.8213 70.3106C53.6912 70.4093 53.5804 70.4935 53.4889 70.5584C53.3974 70.6234 53.3372 70.6667 53.3107 70.686V71.3043H55.7891V70.6258H54.4885C54.5029 70.6162 54.5439 70.5873 54.6137 70.5416C54.6836 70.4959 54.7679 70.4357 54.869 70.3563C54.9702 70.2793 55.0738 70.1879 55.1846 70.0845C55.2954 69.981 55.3965 69.8655 55.4929 69.7428C55.5892 69.6201 55.6663 69.4854 55.7265 69.3458C55.7867 69.2063 55.8156 69.0595 55.8156 68.9103C55.8156 68.79 55.7964 68.6649 55.7554 68.535C55.7145 68.4051 55.6494 68.2824 55.5555 68.1717C55.4616 68.0586 55.3339 67.9672 55.1725 67.8974C55.0112 67.8276 54.8088 67.7939 54.5632 67.7939C54.3512 67.7939 54.1681 67.8228 54.014 67.8781C53.8598 67.9335 53.7274 68.0057 53.6238 68.0923C53.5178 68.1765 53.4335 68.2655 53.3685 68.3569C53.3034 68.4484 53.2577 68.5278 53.2264 68.5951C53.1975 68.6649 53.1806 68.7106 53.1758 68.7323L53.8454 69.0378C53.8454 69.0378 53.8671 68.9921 53.8984 68.932C53.9297 68.8718 53.9754 68.8045 54.0357 68.7323C54.0959 68.6601 54.1705 68.5951 54.2573 68.5398C54.3464 68.4845 54.4475 68.458 54.5632 68.458C54.7125 68.458 54.8257 68.4917 54.9076 68.5591C54.9895 68.6264 55.0304 68.7395 55.0304 68.9031C55.0304 69.0066 54.9919 69.1172 54.9148 69.2399C54.8377 69.3627 54.739 69.4854 54.6185 69.6129Z" fill="white"/>
<path d="M57.7014 70.633C57.6267 70.6739 57.5352 70.6956 57.4292 70.6956C57.3233 70.6956 57.2366 70.6667 57.1571 70.6114C57.0776 70.5536 57.015 70.4863 56.9644 70.4044C56.9138 70.3226 56.8801 70.2433 56.8584 70.1687L56.1406 70.5247C56.1768 70.6475 56.2466 70.7726 56.3526 70.9049C56.4586 71.0348 56.6007 71.1455 56.7789 71.2369C56.9572 71.3284 57.1763 71.3717 57.4316 71.3717C57.687 71.3717 57.8989 71.3235 58.0916 71.2249C58.2843 71.1263 58.4336 70.9939 58.5444 70.8231C58.6552 70.6523 58.7106 70.4574 58.7106 70.2384C58.7106 70.0845 58.6817 69.9521 58.6191 69.839C58.5565 69.726 58.4866 69.6345 58.3999 69.5672C58.3132 69.4998 58.2289 69.4589 58.1422 69.4493C58.2145 69.43 58.2843 69.3891 58.3517 69.3242C58.4168 69.2592 58.4722 69.1798 58.5131 69.0836C58.5541 68.9873 58.5757 68.8791 58.5757 68.7636C58.5757 68.5711 58.5276 68.4003 58.4288 68.2559C58.3301 68.1115 58.1976 67.9985 58.0266 67.9166C57.8556 67.8348 57.6605 67.7939 57.4413 67.7939C57.2558 67.7939 57.0944 67.8204 56.9523 67.8709C56.8102 67.9215 56.6922 67.9864 56.5959 68.0634C56.4995 68.1428 56.4224 68.2246 56.367 68.3112C56.3116 68.3978 56.2731 68.4773 56.2538 68.547L56.8873 68.8478C56.8945 68.8141 56.9114 68.7708 56.9355 68.7227C56.9596 68.6745 56.9957 68.6288 57.039 68.5807C57.0824 68.535 57.1378 68.4965 57.2028 68.4652C57.2679 68.4339 57.3449 68.4195 57.4316 68.4195C57.5738 68.4195 57.6846 68.458 57.7592 68.535C57.8339 68.612 57.8724 68.7058 57.8724 68.8165C57.8724 68.8983 57.8532 68.9681 57.817 69.0282C57.7785 69.0884 57.7279 69.1341 57.6629 69.1678C57.5978 69.199 57.5256 69.2159 57.4461 69.2159H57.357V69.7741H57.4244C57.516 69.7741 57.6027 69.7909 57.6773 69.8222C57.7544 69.8535 57.8146 69.9016 57.8628 69.9666C57.9086 70.0315 57.9326 70.1109 57.9326 70.2096C57.9326 70.3082 57.9134 70.3876 57.8724 70.4598C57.8315 70.532 57.7737 70.5897 57.699 70.6306L57.7014 70.633Z" fill="white"/>
<path d="M110 46.425C108.446 42.3276 105.339 35.9083 99.1609 30.1339C96.5066 27.651 93.8475 25.8152 91.5184 24.463C91.5232 24.475 91.5304 24.4871 91.5352 24.4991C94.1919 30.3144 95.8756 37.5709 94.1558 45.6526C91.9784 55.883 84.9284 64.6961 75.1734 70.0423H75.171L75.1686 70.0447C66.5963 75.5592 57.9903 75.6434 54.676 75.5039L69.07 71.6711C79.0079 66.467 85.716 56.6048 86.1038 45.8066C86.4361 36.558 82.0717 28.3968 75.5757 22.6777H75.5732C72.8924 20.3151 69.8479 18.371 66.6204 16.9418C64.9994 16.22 63.3302 15.6306 61.6393 15.1807C51.0558 12.3704 37.5555 17.2787 29.4312 24.1502C27.4658 26.1616 25.7388 28.4377 24.3225 30.9592C16.3018 45.2484 21.5743 61.3494 29.1229 69.78C34.5953 75.8961 41.932 78.7207 45.2246 79.9887C46.0676 80.3135 47.4501 80.8187 49.2855 81.336C49.2903 81.336 49.2927 81.3384 49.2975 81.3384C52.4143 82.2166 56.8317 83.1261 62.1042 83.2368C68.2992 83.3667 73.4007 82.3465 76.8835 81.3817C72.6829 83.4894 64.7585 86.7495 54.517 86.6389C49.866 86.5907 31.9169 85.7077 19.368 70.8627C13.0549 63.3945 8.83503 53.2556 8.67847 42.6187C8.60621 37.7874 9.37456 32.8527 11.1618 28.0191C16.8533 12.6327 30.055 5.95605 33.9233 4.19967C45.634 -1.11759 61.5719 -2.06315 74.5592 5.34492C77.6591 6.8198 81.9946 9.17287 86.6842 12.7771H86.6867C89.8468 15.2047 93.1659 18.2026 96.3741 21.8838C104.6 31.3153 108.306 40.884 110 46.425Z" fill="white"/>
<path d="M15.0811 79.2858C14.9896 79.2401 15.0377 79.1029 15.1365 79.1222C16.6828 79.4446 18.3014 79.7429 19.9875 80.0124C22.2371 80.3709 24.3928 80.6404 26.4402 80.8377C24.7999 79.4999 21.1605 76.9063 15.8085 75.992C11.3477 75.2293 7.69864 75.9751 5.71875 76.5333C6.61235 77.9216 9.14141 81.4344 13.8984 83.3134C20.8329 86.0515 27.0351 83.1571 28.0925 82.6422C26.2691 82.5411 24.0725 82.2741 21.6398 81.6629C19.036 81.0085 16.8346 80.1327 15.0811 79.2858Z" fill="white"/>
<path d="M17.4121 72.3667C16.0392 72.1838 14.3917 71.8518 12.5876 71.2455C10.6535 70.5982 9.04213 69.8043 7.76315 69.0608C7.69571 69.0223 7.74147 68.9189 7.81614 68.9405C8.96746 69.275 10.1742 69.5974 11.4339 69.8981C13.1151 70.3023 14.7313 70.6319 16.268 70.9014C15.1046 69.7922 12.5033 67.6148 8.505 66.6091C5.17387 65.7694 2.36782 66.1207 0.835938 66.4262C1.43087 67.5306 3.13858 70.336 6.62868 72.037C11.7157 74.5152 16.5811 72.6891 17.4121 72.3618V72.3667Z" fill="white"/>
<path d="M3.21552 62.1293C6.58037 65.1512 10.7184 64.8168 11.4289 64.747C10.4149 64.3043 9.22263 63.6883 7.96773 62.827C6.62372 61.9055 5.55911 60.9407 4.74018 60.089C4.69682 60.0432 4.75463 59.9759 4.80762 60.0096C5.61932 60.5196 6.47679 61.0321 7.37762 61.5398C8.58193 62.2183 9.75012 62.827 10.8725 63.3707C10.2222 62.264 8.70236 60.0192 5.85296 58.3687C3.47806 56.9924 1.24526 56.646 0 56.5449C0.214368 57.5242 0.908052 60.0553 3.21792 62.1293H3.21552Z" fill="white"/>
<path d="M7.62286 56.1653C6.97735 55.7034 6.23308 55.0947 5.48159 54.3055C4.67711 53.4586 4.07495 52.6261 3.62695 51.9067C3.60286 51.8682 3.65344 51.8297 3.68476 51.861C4.17852 52.3398 4.7012 52.8258 5.25759 53.3166C5.99944 53.971 6.72926 54.5725 7.43499 55.1211C7.14354 54.2477 6.41373 52.4505 4.66025 50.8673C3.20062 49.5488 1.6856 48.9738 0.828125 48.7188C0.832942 49.4357 0.94133 51.3148 2.25162 53.1121C4.15925 55.7298 7.11223 56.11 7.61804 56.1677L7.62286 56.1653Z" fill="white"/>
<path d="M6.57885 48.2007C6.1188 47.7916 5.59613 47.2599 5.08069 46.5886C4.52911 45.8692 4.13409 45.1763 3.84747 44.5868C3.83302 44.5556 3.87396 44.5291 3.89564 44.5556C4.23767 44.9646 4.60137 45.3832 4.98916 45.8067C5.50701 46.3721 6.02005 46.8966 6.51863 47.3778C6.36689 46.6801 5.9502 45.2317 4.72903 43.8675C3.71018 42.7294 2.59017 42.1616 1.94947 41.8945C1.89407 42.4479 1.82422 43.9059 2.6841 45.4001C3.939 47.5775 6.18624 48.114 6.57403 48.1983L6.57885 48.2007Z" fill="white"/>
<path d="M52.4773 57.2992C52.6459 57.3978 52.9686 57.4339 53.1204 57.3377C54.739 56.3151 56.4298 56.356 58.1207 57.0345C59.5514 57.6096 61.0086 57.956 62.5357 57.7563C63.1812 57.6721 63.8267 57.4002 64.4144 57.1019C64.7733 56.919 64.795 56.5726 64.3349 56.3392C63.805 56.0721 63.2703 55.8002 62.7934 55.4562C62.4923 55.2396 62.2924 54.8884 62.0467 54.5972C62.1021 54.5467 62.1551 54.4962 62.2105 54.4481C62.3454 54.4962 62.4947 54.5227 62.6152 54.5948C63.516 55.1458 64.4843 55.4706 65.5392 55.5789C66.9844 55.7257 68.5404 54.8114 69.1979 53.695C69.446 53.2739 69.4147 52.901 68.868 52.7567C68.1116 52.5546 67.3457 52.3909 66.5918 52.1864C65.9607 52.0156 65.3369 51.8183 64.7203 51.5994C64.6047 51.5585 64.5493 51.354 64.465 51.2264C64.6119 51.1831 64.7612 51.0989 64.9082 51.1037C66.4641 51.1446 68.0177 51.2024 69.5713 51.2409C69.7543 51.2457 69.9422 51.1687 70.1253 51.1278C71.8619 50.7428 72.7988 49.4941 73.4588 47.988C73.6394 47.5741 73.7262 47.0953 73.743 46.6406C73.7647 46.08 73.4732 45.9332 72.9554 46.1883C70.4576 47.4105 67.7528 47.6944 65.0382 47.9206C64.9732 47.9254 64.9034 47.8556 64.6986 47.7474C65.968 47.3985 67.1169 47.1266 68.2345 46.7657C71.1176 45.837 73.8081 44.5594 75.7831 42.1534C76.5611 41.2054 77.3897 40.2551 77.3367 38.9029C77.3054 38.1137 76.5298 37.582 75.8265 37.9189C74.9859 38.3207 74.1597 38.761 73.3649 39.2446C70.4649 41.0009 67.6396 42.8993 64.4 44.0157C63.6966 44.2587 62.9548 44.3862 62.2298 44.5666C62.2009 44.4944 62.1696 44.4223 62.1407 44.3501C62.3526 44.2057 62.5501 44.0325 62.7789 43.9218C66.8206 41.9994 70.5781 39.6464 74.0321 36.7832C76.3853 34.8344 76.9706 32.3369 76.6719 29.4858C76.6021 28.8121 76.2359 28.5018 75.576 28.6606C74.9594 28.8073 74.285 29.0527 73.8321 29.469C71.7944 31.3312 69.7784 33.2247 67.8443 35.1953C65.5778 37.505 63.0511 39.437 60.2089 40.9889C59.325 41.4725 58.5036 42.0957 57.7401 42.7573C57.1042 43.3083 57.1331 43.9916 57.5739 44.7038C57.8268 45.1128 58.0412 45.5555 58.2146 46.0078C58.9709 47.9735 58.3904 50.4421 56.8513 51.8785C55.0689 53.5434 52.6651 54.0102 50.613 53.0863C47.2096 51.5537 46.0655 47.8027 48.0526 44.6845C48.5102 43.9651 48.4958 43.3588 47.8816 42.7381C47.4384 42.293 46.9133 41.9152 46.3858 41.5639C44.4806 40.3032 42.414 39.2397 40.6774 37.7817C38.3555 35.8328 36.313 33.552 34.0922 31.478C33.0589 30.5132 31.9293 29.6374 30.7659 28.8338C29.9686 28.2828 29.0654 28.6124 28.9402 29.3992C28.6391 31.2927 28.8607 33.1093 29.8434 34.8031C30.737 36.3429 32.1966 37.2957 33.5551 38.3351C36.4743 40.5703 39.6417 42.4109 42.9632 43.9868C43.1679 44.083 43.3365 44.2538 43.522 44.3886C43.4931 44.4487 43.4642 44.5089 43.4353 44.569C42.7416 44.403 42.0286 44.2923 41.3542 44.0638C38.8878 43.2241 36.6574 41.9152 34.4391 40.5751C32.9361 39.668 31.421 38.7754 29.8747 37.9477C29.0919 37.5291 28.1694 38.1306 28.2995 39.0064C28.4127 39.7715 28.7065 40.5775 29.1401 41.2151C31.3536 44.4632 34.6871 46.0078 38.329 47.0448C39.1383 47.2758 39.9572 47.4779 40.7689 47.6944C40.7545 47.7714 40.7376 47.846 40.7232 47.923C40.1644 47.8604 39.608 47.7666 39.0492 47.7425C36.9007 47.6535 34.8557 47.1314 32.8903 46.2845C32.0352 45.9164 31.6788 46.1113 31.8811 47.0207C32.0473 47.7642 32.4471 48.4692 32.8229 49.1477C33.6153 50.5792 34.916 51.224 36.5057 51.2385C37.9099 51.2505 39.3141 51.1422 40.7207 51.1013C40.8629 51.0965 41.0098 51.1952 41.1543 51.2457C41.0628 51.3732 41.0001 51.5512 40.8749 51.6186C40.6172 51.7582 40.333 51.8712 40.0463 51.9386C39.0564 52.1744 38.0424 52.3236 37.0741 52.6243C36.1709 52.9058 36.0576 53.1224 36.5177 53.8273C37.0789 54.6863 37.9027 55.2469 38.9215 55.4827C40.3619 55.8123 41.6384 55.3455 42.8765 54.6766C43.0571 54.578 43.2643 54.5275 43.6063 54.3975C43.4786 54.679 43.4618 54.8306 43.3775 54.8908C42.7705 55.3359 42.1442 55.7593 41.5349 56.202C41.3301 56.3512 40.9664 56.6135 41.0001 56.7025C41.0965 56.9647 41.3157 57.2775 41.5638 57.3738C42.0913 57.5783 42.6597 57.7082 43.2233 57.7756C44.8347 57.9705 46.3304 57.4917 47.8166 56.9335C49.4111 56.3344 50.9719 56.4186 52.47 57.2992H52.4773Z" fill="white"/>
<path d="M44.2283 30.2957C44.0741 30.2957 43.9416 30.2957 43.8332 30.2908C43.7369 30.594 43.6719 30.825 43.6622 30.9284C43.4503 32.8629 43.7899 34.6938 44.7413 36.3828C46.1527 38.8899 48.2772 40.4442 51.129 40.9663C53.1835 41.344 55.1803 41.1178 57.0229 40.1458C59.511 38.8346 61.1464 36.8063 61.8016 34.0346C62.3459 31.7393 62.0449 29.5426 60.92 27.4999C58.4223 22.967 52.9089 21.4945 48.465 23.8187C47.7159 24.2109 46.9187 24.7811 46.1913 25.3898C47.4703 25.3994 47.2439 25.8494 47.2246 26.9585C47.2174 27.3074 47.0006 27.4253 46.7043 27.4181C46.3165 27.4085 45.5169 27.5263 45.3338 27.2473C45.2375 27.1005 45.2664 26.8839 45.2471 26.5832C45.1002 26.8527 44.8111 27.5648 44.5221 28.3396C45.1243 28.354 45.1243 28.4719 45.1243 29.3308C45.1243 29.9724 44.8264 30.2932 44.2307 30.2932L44.2283 30.2957ZM50.009 39.2941C49.4229 39.2941 49.1298 38.9693 49.1298 38.3197C49.1298 37.67 49.4453 37.3557 50.0764 37.3765C51.0302 37.3765 51.0519 37.4006 51.0495 38.3894C51.0495 38.9925 50.7018 39.2941 50.0066 39.2941H50.009ZM49.7994 33.9456C48.8263 33.9456 48.7974 33.9191 48.7998 32.9495C48.7998 32.0063 48.8287 31.9823 49.8283 31.9823C50.4273 31.9823 50.7267 32.3023 50.7267 32.9423C50.7267 33.6111 50.4176 33.9456 49.7994 33.9456ZM54.33 31.0006C54.33 31.6454 54.0274 31.9678 53.422 31.9678C52.4802 31.9678 52.4537 31.9414 52.4537 31.015C52.4537 30.0695 52.4585 30.0647 53.4099 30.0647C54.0233 30.0647 54.33 30.3767 54.33 31.0006ZM52.9957 25.1901C53.6123 25.1901 53.9206 25.5061 53.9206 26.1381C53.9206 26.7813 53.6115 27.1029 52.9932 27.1029C52.0178 27.1029 51.9985 27.0836 51.9985 26.0996C51.9985 25.4917 52.3309 25.1885 52.9957 25.1901ZM51.748 30.1441C51.748 30.7504 51.4164 31.0535 50.7532 31.0535C50.1045 31.0535 49.7809 30.7247 49.7825 30.0671C49.7825 29.2009 49.8259 29.1624 50.734 29.1576C51.707 29.1552 51.748 29.1937 51.7456 30.1441H51.748ZM48.6192 27.7333C48.6192 26.8671 48.6625 26.8286 49.5706 26.8238C50.5437 26.8214 50.5846 26.8599 50.5846 27.8103C50.5846 28.4166 50.253 28.7197 49.5899 28.7197C48.9411 28.7197 48.6176 28.3909 48.6192 27.7333ZM49.3755 35.4228C49.3755 36.0404 49.0295 36.3483 48.3374 36.3467C47.3065 36.3395 47.4606 36.4069 47.4534 35.317C47.4462 34.4219 47.4534 34.4219 48.3735 34.4219C49.3442 34.4219 49.3755 34.4532 49.3755 35.4204V35.4228ZM47.2463 30.5507C47.8693 30.5507 48.1808 30.8827 48.1808 31.5468C48.1808 32.1884 47.8829 32.5092 47.2872 32.5092C46.3069 32.5092 46.3021 32.5044 46.3045 31.5275C46.3045 30.5723 46.3262 30.5531 47.2487 30.5531L47.2463 30.5507Z" fill="white"/>
<path d="M55.1508 47.1304C55.0521 47.1665 54.9605 47.2291 54.881 47.2964C54.1849 47.9003 53.4937 48.5066 52.7253 49.1779C52.6386 49.0769 52.5302 48.9253 52.3953 48.8002C51.8389 48.2853 51.3115 47.7319 50.7045 47.282C50.1987 46.9066 49.5483 46.7142 48.992 47.1376C48.4958 47.5154 48.5753 48.1169 48.727 48.6654C48.8258 49.0263 48.898 49.4137 49.0835 49.7313C50.1457 51.5502 51.5668 52.2841 53.8887 51.8582C55.305 51.5983 56.6297 50.4122 56.9284 48.5572C57.0006 48.1024 56.9211 47.4769 56.6466 47.1448C56.278 46.6997 55.659 46.9476 55.1532 47.1304H55.1508Z" fill="white"/>
</svg>
