<svg width="75" height="60" viewBox="0 0 75 60" fill="none" xmlns="http://www.w3.org/2000/svg">
<path d="M55.0743 21.4728C61.0038 21.4728 65.8107 16.6659 65.8107 10.7364C65.8107 4.80684 61.0038 0 55.0743 0C49.1447 0 44.3379 4.80684 44.3379 10.7364C44.3379 16.6659 49.1447 21.4728 55.0743 21.4728Z" fill="white"/>
<path d="M74.986 31.2841V55.4319C74.986 57.4217 73.3679 59.0398 71.378 59.0398H70.7512C68.7614 59.0398 67.1432 57.4217 67.1432 55.4319V31.0873C67.1432 30.7302 66.8517 30.4386 66.4945 30.4386C66.1374 30.4386 65.8458 30.7302 65.8458 31.0873V53.4931C65.8458 56.5544 63.3677 59.0325 60.3064 59.0325H49.9198C46.8586 59.0325 44.3804 56.5544 44.3804 53.4931V31.0873C44.3804 30.7302 44.0888 30.4386 43.7317 30.4386C43.3745 30.4386 43.083 30.7302 43.083 31.0873V55.4319C43.083 57.4217 41.4649 59.0398 39.475 59.0398H38.8482C36.8583 59.0398 35.2402 57.4217 35.2402 55.4319V31.2841C35.2402 30.3949 35.386 29.5421 35.663 28.7476C36.7199 25.6645 39.6427 23.4414 43.083 23.4414H67.1578C69.3226 23.4414 71.2833 24.3161 72.7046 25.7374C73.5428 26.5756 74.1915 27.596 74.5778 28.7476C74.8475 29.5421 75.0006 30.3949 75.0006 31.2841H74.986Z" fill="white"/>
<path d="M15.7194 29.2924C20.4131 29.2924 24.2182 25.4874 24.2182 20.7936C24.2182 16.0999 20.4131 12.2949 15.7194 12.2949C11.0257 12.2949 7.2207 16.0999 7.2207 20.7936C7.2207 25.4874 11.0257 29.2924 15.7194 29.2924Z" fill="white"/>
<path d="M31.4876 37.0641V56.1826C31.4876 57.7569 30.212 59.0398 28.6303 59.0398H28.1347C26.5603 59.0398 25.2775 57.7642 25.2775 56.1826V36.911C25.2775 36.6268 25.0443 36.3935 24.76 36.3935C24.4757 36.3935 24.2425 36.6268 24.2425 36.911V54.6519C24.2425 57.0718 22.2745 59.0398 19.8547 59.0398H11.6329C9.21303 59.0398 7.24505 57.0718 7.24505 54.6519V36.911C7.24505 36.6268 7.01181 36.3935 6.72755 36.3935C6.44329 36.3935 6.21005 36.6268 6.21005 36.911V56.1826C6.21005 57.7569 4.93451 59.0398 3.35284 59.0398H2.8572C1.28283 59.0398 0 57.7642 0 56.1826V37.0641C0 36.3644 0.116621 35.6865 0.335284 35.0597C1.16621 32.6179 3.48404 30.8613 6.21005 30.8613H25.2702C26.9831 30.8613 28.5356 31.5538 29.6581 32.6762C30.3213 33.3395 30.8316 34.1486 31.145 35.0597C31.3636 35.6865 31.4803 36.3644 31.4803 37.0641H31.4876Z" fill="white"/>
</svg>
