<svg width="63" height="70" viewBox="0 0 63 70" fill="none" xmlns="http://www.w3.org/2000/svg">
<path d="M25.6351 23.9772C25.6351 27.5651 22.7165 30.4828 19.1296 30.4828C15.5427 30.4828 12.623 27.5651 12.623 23.9772C12.623 20.3894 15.5417 17.4707 19.1296 17.4707C22.7174 17.4707 25.6351 20.3894 25.6351 23.9772Z" fill="white"/>
<path d="M41.054 17.4697C37.4671 17.4697 34.5484 20.3884 34.5484 23.9763C34.5484 27.5641 37.4671 30.4818 41.054 30.4818C44.6409 30.4818 47.5605 27.5641 47.5605 23.9763C47.5605 20.3884 44.6418 17.4697 41.054 17.4697ZM60.2062 33.5837H60.2043C60.184 26.6385 59.0347 20.3575 57.437 14.955C58.3154 15.6994 59.2912 15.7785 59.9092 15.2289C60.5003 14.7024 60.6314 13.7208 60.6652 13.3699C60.8484 13.232 61.3459 12.8116 61.5291 12.0142C61.7711 10.9603 61.3652 9.67693 60.4916 8.9017C60.9573 8.38584 61.0605 7.4843 60.7356 6.79103C60.4087 6.09486 59.7415 5.80367 59.1735 6.11125C59.214 6.07269 60.0317 5.28396 59.5862 3.06144C59.1697 0.982589 57.167 -0.768428 55.1142 0.549655C54.4354 0.984517 53.9967 1.67972 53.7219 2.27753C53.5502 2.64972 53.4422 2.98527 53.3815 3.19354C53.18 3.02962 51.9747 2.07794 50.942 2.72493C50.942 2.72493 50.5149 2.93416 50.2613 3.48087C50.027 3.98709 49.9257 4.61383 49.9142 5.29167C49.9016 6.03315 49.9961 6.83731 50.1417 7.61447C48.3743 7.54504 46.3302 7.89023 43.9177 8.30195C40.7001 8.85252 36.8278 9.51879 32.0771 9.47251C25.0731 9.40405 20.1556 7.86806 16.3122 7.5219C15.7279 7.46887 15.1686 7.44477 14.6306 7.45634C14.8129 6.75824 14.9363 6.05437 14.9469 5.40352C14.9546 4.8867 14.8929 4.40363 14.729 3.98709C14.5091 3.42591 13.784 3.02094 13.784 3.02094C12.7919 2.31417 11.5316 3.19064 11.3205 3.34299C11.2877 3.19739 11.2356 2.99105 11.1585 2.75193C10.9435 2.08662 10.5279 1.16772 9.74975 0.599795C7.77889 -0.838816 5.35678 0.50723 4.81682 2.55619C4.22383 4.80474 5.36642 5.90973 5.36546 5.90973C4.81875 5.56744 3.87671 5.49608 3.50838 6.172C3.14198 6.84406 3.44763 8.07247 3.88153 8.61532C2.9636 9.33656 2.44581 10.1263 2.62419 11.1927C2.75918 11.9997 3.72243 12.531 3.89696 12.6805C3.90949 13.0324 3.66362 14.0574 4.22286 14.6176C4.81971 15.2163 5.74632 15.3822 6.6469 14.7458C6.23422 16.0031 5.86299 17.3964 5.5342 18.8563C5.52938 18.8794 5.52359 18.9025 5.51877 18.9257C5.6229 18.7647 5.83214 18.703 6.00956 18.7888L12.194 21.7749C13.1293 18.8341 15.886 16.6983 19.1316 16.6983C22.6972 16.6983 25.6728 19.2776 26.2909 22.6688C27.0565 22.2166 28.4527 21.5908 30.2856 21.6255C31.9152 21.6554 33.1735 22.2011 33.9043 22.6186C34.5417 19.2526 37.5057 16.6983 41.054 16.6983C44.6023 16.6983 47.3079 19.0346 48.1082 22.1838L57.759 17.8728C57.9538 17.786 58.1814 17.8728 58.2682 18.0675C58.3549 18.2613 58.2681 18.4899 58.0734 18.5766L48.2605 22.96C48.3078 23.2917 48.3319 23.6311 48.3319 23.9763C48.3319 27.9893 45.0671 31.2532 41.054 31.2532C37.0409 31.2532 33.7771 27.9893 33.7771 23.9763C33.7771 23.7998 33.7838 23.6253 33.7963 23.4527C33.7896 23.4498 33.7828 23.4459 33.7761 23.4421C33.1879 23.0651 31.9508 22.4277 30.2712 22.3969C28.4671 22.3612 27.1375 23.0371 26.5059 23.4421C26.4702 23.4652 26.4317 23.4816 26.3921 23.4913C26.4027 23.6513 26.4085 23.8133 26.4085 23.9763C26.4085 27.9893 23.1437 31.2532 19.1316 31.2532C15.1195 31.2532 11.8537 27.9893 11.8537 23.9763C11.8537 23.4835 11.9028 23.0014 11.9973 22.5357L5.45995 19.1889C4.71365 22.5916 4.19972 26.3203 3.96349 29.5022C3.91721 30.1289 3.87092 30.7614 3.82561 31.3998C3.80921 31.3834 3.79282 31.367 3.77643 31.3506C2.53356 34.1121 1.64744 36.8042 1.06698 39.3767C-1.83434 51.0293 1.54813 60.3629 6.79732 62.5613C9.10565 63.5284 11.7544 63.1061 14.2285 62.1419C14.2411 62.1496 14.2536 62.1573 14.2661 62.165C14.35 62.218 14.4349 62.2701 14.5197 62.3222C14.5805 62.3598 14.6412 62.3974 14.702 62.434C14.7762 62.4784 14.8514 62.5227 14.9266 62.5671C14.9989 62.6095 15.0713 62.6519 15.1436 62.6934C15.2101 62.731 15.2766 62.7686 15.3432 62.8052C15.4232 62.8506 15.5032 62.8959 15.5842 62.9393C15.6488 62.9749 15.7144 63.0097 15.779 63.0444C15.8282 63.0704 15.8773 63.0974 15.9265 63.1234C15.7356 63.3172 15.5437 63.5255 15.3509 63.7405C14.0887 65.1531 13.8486 66.4114 13.6625 67.1866C13.5382 68.0544 13.8438 68.8287 14.3799 68.9888C15.1002 69.2038 16.1358 68.5761 16.2814 67.419C16.1955 68.7545 16.7162 69.8334 17.3352 69.9809C18.0382 70.1487 19.2482 69.2019 19.5664 67.419C19.5134 68.3746 20.2992 69.1623 21.1989 69.1334C22.0618 69.1064 22.6558 68.3495 22.6037 67.4344C22.5343 67.0478 22.4041 66.2832 22.0194 65.4173C22.0242 65.4173 22.03 65.4192 22.0348 65.4212C22.1891 65.4597 22.3434 65.4973 22.4967 65.533C22.515 65.5378 22.5343 65.5417 22.5536 65.5465C22.6972 65.5803 22.8409 65.6121 22.9846 65.6439C23.0039 65.6478 23.0232 65.6516 23.0434 65.6564C23.1909 65.6882 23.3385 65.7191 23.485 65.749C23.4966 65.7509 23.5072 65.7538 23.5188 65.7557C23.8032 65.8126 24.0848 65.8647 24.3634 65.9129C24.7154 65.9746 25.0634 66.0296 25.4048 66.0788C25.4173 66.0807 25.4308 66.0826 25.4443 66.0845C25.5803 66.1038 25.7152 66.1221 25.8502 66.1395C25.8705 66.1414 25.8907 66.1443 25.9119 66.1472C26.0411 66.1636 26.1694 66.179 26.2967 66.1945C26.316 66.1964 26.3352 66.1983 26.3545 66.2012C26.4895 66.2166 26.6226 66.2311 26.7547 66.2446C26.7643 66.2456 26.774 66.2465 26.7836 66.2475C27.0815 66.2784 27.3737 66.3053 27.6591 66.3275C27.9262 66.3487 28.1885 66.3661 28.444 66.3815C28.4594 66.3815 28.4748 66.3834 28.4912 66.3834C28.604 66.3902 28.7168 66.396 28.8277 66.4018C28.847 66.4027 28.8673 66.4037 28.8865 66.4047C28.9955 66.4095 29.1035 66.4133 29.2096 66.4182C29.226 66.4182 29.2433 66.4182 29.2597 66.4201C29.3754 66.4239 29.4882 66.4278 29.6001 66.4307H29.6174C29.7997 66.4355 29.9771 66.4394 30.1497 66.4413C30.3203 66.4432 30.4871 66.4442 30.6482 66.4442H30.6723C30.7677 66.4442 30.8622 66.4442 30.9538 66.4432C30.9731 66.4432 30.9905 66.4432 31.0088 66.4432C31.0907 66.4432 31.1708 66.4413 31.2498 66.4403C31.2701 66.4403 31.2913 66.4394 31.3116 66.4394C31.3877 66.4384 31.462 66.4365 31.5353 66.4345C31.5545 66.4345 31.5738 66.4336 31.5931 66.4336C31.6693 66.4317 31.7426 66.4297 31.8149 66.4268C31.8293 66.4268 31.8438 66.4259 31.8583 66.4259C32.0289 66.4201 32.19 66.4143 32.3404 66.4066C32.3683 66.4056 32.3944 66.4047 32.4214 66.4027C32.4648 66.4008 32.5072 66.3989 32.5486 66.3969C32.5891 66.395 32.6267 66.3931 32.6653 66.3912C32.6894 66.3892 32.7135 66.3883 32.7367 66.3873C32.7858 66.3844 32.8331 66.3815 32.8784 66.3786C32.8842 66.3786 32.89 66.3777 32.8958 66.3777C33.1137 66.3642 33.2978 66.3516 33.4405 66.342C33.7067 66.3237 34.1377 66.2928 34.6998 66.2359C34.7143 66.234 34.7297 66.233 34.7442 66.2311C34.8001 66.2253 34.855 66.2195 34.9129 66.2137C34.9418 66.2099 34.9717 66.207 35.0016 66.2041C35.0479 66.1983 35.0951 66.1935 35.1424 66.1877C35.1916 66.1819 35.2417 66.1761 35.2928 66.1704C35.3246 66.1665 35.3555 66.1626 35.3883 66.1588C35.6418 66.1279 35.9138 66.0923 36.2011 66.0508C36.3158 66.0344 36.4315 66.017 36.5521 65.9987C36.5598 65.9978 36.5675 65.9968 36.5752 65.9949C36.6707 65.9804 36.7681 65.965 36.8674 65.9486C36.8847 65.9457 36.9021 65.9428 36.9194 65.9399C37.0091 65.9254 37.0997 65.91 37.1904 65.8946C37.201 65.8927 37.2106 65.8917 37.2203 65.8898C37.1181 66.2253 37.0525 66.5233 36.9937 66.7701C36.8693 67.6379 37.174 68.4122 37.7111 68.5732C38.4313 68.7882 39.4669 68.1605 39.6125 67.0025C39.5257 68.3389 40.0474 69.4169 40.6664 69.5644C41.3693 69.7322 42.5794 68.7863 42.8976 67.0025C42.8445 67.958 43.6304 68.7458 44.53 68.7178C45.393 68.6898 45.9869 67.9339 45.9349 67.0179C45.8326 66.4538 45.6022 65.0818 44.638 63.7666C44.7469 63.7212 44.8559 63.675 44.9639 63.6287C44.9928 63.6161 45.0217 63.6046 45.0507 63.592C46.9926 63.673 48.896 63.3915 50.6692 62.7165C53.8395 61.5103 56.5663 59.0564 58.5025 55.8446C62.5338 50.1836 63.8741 41.7246 60.2062 33.5847V33.5837ZM31.6876 31.1182C30.8622 32.4893 30.0166 33.7197 29.1922 34.814C29.0881 34.9789 28.8374 34.9432 28.7843 34.7552C28.1615 32.5424 27.5376 30.3304 26.9147 28.1185C27.4798 27.89 28.6725 27.4976 30.194 27.6731C31.5545 27.8293 32.5409 28.3673 33.0452 28.6913C32.6402 29.4742 32.189 30.2861 31.6876 31.1182ZM41.054 30.4818C44.6418 30.4818 47.5605 27.5641 47.5605 23.9763C47.5605 20.3884 44.6418 17.4697 41.054 17.4697C37.4661 17.4697 34.5484 20.3884 34.5484 23.9763C34.5484 27.5641 37.4671 30.4818 41.054 30.4818ZM41.054 17.4697C37.4671 17.4697 34.5484 20.3884 34.5484 23.9763C34.5484 27.5641 37.4671 30.4818 41.054 30.4818C44.6409 30.4818 47.5605 27.5641 47.5605 23.9763C47.5605 20.3884 44.6418 17.4697 41.054 17.4697Z" fill="white"/>
<path d="M5.51783 18.9258C5.49854 19.0135 5.4783 19.1013 5.45901 19.189C5.44841 19.1167 5.45901 19.0396 5.49372 18.9682C5.50047 18.9537 5.50915 18.9393 5.51783 18.9258Z" fill="#231F20"/>
</svg>
