<svg width="77" height="57" viewBox="0 0 77 57" fill="none" xmlns="http://www.w3.org/2000/svg">
<path d="M2.18014 25.8483C8.62535 6.65636 47.236 -7.37972 67.0331 5.98387C68.9261 7.26212 74.2162 10.9397 75.8291 17.2845C79.5096 31.7643 60.0347 45.7701 58.3657 46.9423C46.7425 55.1066 29.451 59.2873 23.9503 53.1363C21.1949 50.0544 23.5247 46.7546 20.1747 43.2276C15.0547 37.8365 6.32141 42.0312 2.45894 37.3148C-0.470165 33.7388 1.60608 27.5591 2.18014 25.8483ZM33.9847 42.8422C37.1682 42.8717 39.7738 40.7166 39.8064 38.0283C39.8368 35.3393 37.2801 33.1367 34.0973 33.1085C30.9138 33.079 28.3082 35.2341 28.2756 37.9224C28.2452 40.6115 30.8019 42.8141 33.9847 42.8422Z" fill="white"/>
</svg>
