<svg width="93" height="135" viewBox="0 0 93 135" fill="none" xmlns="http://www.w3.org/2000/svg">
<g filter="url(#filter0_d_648_3433)">
<rect opacity="0.5" x="7" y="7" width="79" height="117" fill="#3A3D47"/>
<rect x="5.5" y="1.5" width="82" height="124" stroke="url(#paint0_linear_648_3433)" stroke-width="3"/>
<g opacity="0.2">
<mask id="mask0_648_3433" style="mask-type:alpha" maskUnits="userSpaceOnUse" x="7" y="55" width="79" height="69">
<rect x="7" y="55.5391" width="79" height="68.4605" fill="url(#paint1_linear_648_3433)"/>
</mask>
<g mask="url(#mask0_648_3433)">
<rect x="7" y="-1732.49" width="79" height="1856.49" fill="url(#paint2_linear_648_3433)"/>
</g>
</g>
<path d="M67.5694 29H26.4305C24.537 29 23 30.3883 23 32.1041V36.8238C23 37.2405 23.2483 37.6258 23.6506 37.8279L44.6514 48.1621C46.1149 48.9052 47.8975 48.9228 49.3818 48.2111L70.3243 37.8405C70.7377 37.6396 70.9985 37.2493 70.9985 36.8238V32.1041C70.9985 30.3895 69.4643 29 67.568 29H67.5694ZM47 45.5776C45.4269 45.5776 44.152 44.4241 44.152 43.0007C44.152 41.5773 45.4269 40.4212 47 40.4212C48.573 40.4212 49.8506 41.5747 49.8506 43.0007C49.8506 44.4266 48.5758 45.5776 47 45.5776Z" fill="url(#paint3_linear_648_3433)"/>
<path d="M71.0005 40.0332V53.8983C71.0005 55.6117 69.4662 56.9999 67.5727 56.9999H26.4297C24.5362 56.9999 23.002 55.6117 23.002 53.8983V40.052L44.6187 50.6988C46.0836 51.4431 47.8675 51.4619 49.3504 50.749L71.0005 40.0345V40.0332Z" fill="url(#paint4_linear_648_3433)"/>
<path d="M49.851 43.0013C49.851 44.4248 48.5761 45.5783 47.0003 45.5783C45.4244 45.5783 44.1523 44.4248 44.1523 43.0013C44.1523 41.5779 45.4272 40.4219 47.0003 40.4219C48.5734 40.4219 49.851 41.5754 49.851 43.0013Z" fill="#207BC4"/>
</g>
<defs>
<filter id="filter0_d_648_3433" x="0" y="0" width="93" height="135" filterUnits="userSpaceOnUse" color-interpolation-filters="sRGB">
<feFlood flood-opacity="0" result="BackgroundImageFix"/>
<feColorMatrix in="SourceAlpha" type="matrix" values="0 0 0 0 0 0 0 0 0 0 0 0 0 0 0 0 0 0 127 0" result="hardAlpha"/>
<feOffset dy="4"/>
<feGaussianBlur stdDeviation="2"/>
<feComposite in2="hardAlpha" operator="out"/>
<feColorMatrix type="matrix" values="0 0 0 0 0 0 0 0 0 0 0 0 0 0 0 0 0 0 0.25 0"/>
<feBlend mode="normal" in2="BackgroundImageFix" result="effect1_dropShadow_648_3433"/>
<feBlend mode="normal" in="SourceGraphic" in2="effect1_dropShadow_648_3433" result="shape"/>
</filter>
<linearGradient id="paint0_linear_648_3433" x1="46.5" y1="3" x2="46.5" y2="124" gradientUnits="userSpaceOnUse">
<stop offset="0.239583" stop-color="#1B57EB" stop-opacity="0"/>
<stop offset="1" stop-color="#1B57EB"/>
</linearGradient>
<linearGradient id="paint1_linear_648_3433" x1="46.5" y1="55.5391" x2="46.5" y2="124" gradientUnits="userSpaceOnUse">
<stop stop-color="#004BEF" stop-opacity="0"/>
<stop offset="1" stop-color="#004BEF"/>
</linearGradient>
<linearGradient id="paint2_linear_648_3433" x1="46.5" y1="-1732.49" x2="46.5" y2="123.996" gradientUnits="userSpaceOnUse">
<stop stop-color="#004BEF" stop-opacity="0"/>
<stop offset="1" stop-color="#004BEF"/>
</linearGradient>
<linearGradient id="paint3_linear_648_3433" x1="31.6353" y1="20.6942" x2="57.0501" y2="47.6727" gradientUnits="userSpaceOnUse">
<stop stop-color="#1063A6"/>
<stop offset="1" stop-color="#43A7E2"/>
</linearGradient>
<linearGradient id="paint4_linear_648_3433" x1="24.1395" y1="27.7572" x2="49.5543" y2="54.7344" gradientUnits="userSpaceOnUse">
<stop stop-color="#207AC3"/>
<stop offset="1" stop-color="#1A98E9"/>
</linearGradient>
</defs>
</svg>
