<svg width="93" height="135" viewBox="0 0 93 135" fill="none" xmlns="http://www.w3.org/2000/svg">
<g filter="url(#filter0_d_648_3419)">
<rect opacity="0.5" x="7" y="7" width="79" height="117" fill="#3A3D47"/>
<rect x="5.5" y="1.5" width="82" height="124" stroke="url(#paint0_linear_648_3419)" stroke-width="3"/>
<g opacity="0.2">
<mask id="mask0_648_3419" style="mask-type:alpha" maskUnits="userSpaceOnUse" x="7" y="55" width="79" height="69">
<rect x="7" y="55.5391" width="79" height="68.4605" fill="url(#paint1_linear_648_3419)"/>
</mask>
<g mask="url(#mask0_648_3419)">
<rect x="7" y="-1732.49" width="79" height="1856.49" fill="url(#paint2_linear_648_3419)"/>
</g>
</g>
<path d="M30.7744 28.9961H34.0149C34.3886 28.9961 34.6924 29.3024 34.6924 29.679V32.0767H30.0957V29.679C30.0957 29.3024 30.3996 28.9961 30.7732 28.9961H30.7744Z" fill="url(#paint3_linear_648_3419)"/>
<path d="M68.1415 34.1694V54.5703C68.1415 55.9123 67.0618 57.0007 65.7304 57.0007H28.4111C27.0798 57.0007 26 55.911 26 54.5703V34.1694C26 32.8275 27.0798 31.7391 28.4111 31.7391H36.4501C37.064 31.7391 37.5622 31.2369 37.5622 30.618C37.5622 29.7217 38.2833 28.9961 39.1712 28.9961H65.7205C67.0518 28.9961 68.1316 30.0845 68.1316 31.4265V33.9309H68.1278C68.1353 34.01 68.1403 34.0891 68.1403 34.1694H68.1415Z" fill="url(#paint4_linear_648_3419)"/>
<path d="M47.4004 54.5895C53.1821 54.5895 57.8691 49.865 57.8691 44.0369C57.8691 38.2089 53.1821 33.4844 47.4004 33.4844C41.6187 33.4844 36.9316 38.2089 36.9316 44.0369C36.9316 49.865 41.6187 54.5895 47.4004 54.5895Z" fill="url(#paint5_linear_648_3419)"/>
<path d="M47.3993 51.8901C51.7015 51.8901 55.1892 48.3745 55.1892 44.0378C55.1892 39.7011 51.7015 36.1855 47.3993 36.1855C43.097 36.1855 39.6094 39.7011 39.6094 44.0378C39.6094 48.3745 43.097 51.8901 47.3993 51.8901Z" fill="url(#paint6_linear_648_3419)"/>
<path d="M65.701 31.1504H60.3197C60.1064 31.1504 59.9336 31.3246 59.9336 31.5396V33.7314C59.9336 33.9463 60.1064 34.1206 60.3197 34.1206H65.701C65.9142 34.1206 66.0871 33.9463 66.0871 33.7314V31.5396C66.0871 31.3246 65.9142 31.1504 65.701 31.1504Z" fill="url(#paint7_radial_648_3419)"/>
</g>
<defs>
<filter id="filter0_d_648_3419" x="0" y="0" width="93" height="135" filterUnits="userSpaceOnUse" color-interpolation-filters="sRGB">
<feFlood flood-opacity="0" result="BackgroundImageFix"/>
<feColorMatrix in="SourceAlpha" type="matrix" values="0 0 0 0 0 0 0 0 0 0 0 0 0 0 0 0 0 0 127 0" result="hardAlpha"/>
<feOffset dy="4"/>
<feGaussianBlur stdDeviation="2"/>
<feComposite in2="hardAlpha" operator="out"/>
<feColorMatrix type="matrix" values="0 0 0 0 0 0 0 0 0 0 0 0 0 0 0 0 0 0 0.25 0"/>
<feBlend mode="normal" in2="BackgroundImageFix" result="effect1_dropShadow_648_3419"/>
<feBlend mode="normal" in="SourceGraphic" in2="effect1_dropShadow_648_3419" result="shape"/>
</filter>
<linearGradient id="paint0_linear_648_3419" x1="46.5" y1="3" x2="46.5" y2="124" gradientUnits="userSpaceOnUse">
<stop offset="0.239583" stop-color="#1B57EB" stop-opacity="0"/>
<stop offset="1" stop-color="#1B57EB"/>
</linearGradient>
<linearGradient id="paint1_linear_648_3419" x1="46.5" y1="55.5391" x2="46.5" y2="124" gradientUnits="userSpaceOnUse">
<stop stop-color="#004BEF" stop-opacity="0"/>
<stop offset="1" stop-color="#004BEF"/>
</linearGradient>
<linearGradient id="paint2_linear_648_3419" x1="46.5" y1="-1732.49" x2="46.5" y2="123.996" gradientUnits="userSpaceOnUse">
<stop stop-color="#004BEF" stop-opacity="0"/>
<stop offset="1" stop-color="#004BEF"/>
</linearGradient>
<linearGradient id="paint3_linear_648_3419" x1="32.4781" y1="28.617" x2="32.3238" y2="32.7181" gradientUnits="userSpaceOnUse">
<stop stop-color="#199FF2"/>
<stop offset="1" stop-color="#2174BB"/>
</linearGradient>
<linearGradient id="paint4_linear_648_3419" x1="22.7545" y1="29.2748" x2="69.7212" y2="55.3645" gradientUnits="userSpaceOnUse">
<stop stop-color="#199FF2"/>
<stop offset="1" stop-color="#2174BB"/>
</linearGradient>
<linearGradient id="paint5_linear_648_3419" x1="59.2216" y1="43.9968" x2="42.8933" y2="44.0511" gradientUnits="userSpaceOnUse">
<stop stop-color="#359BDC"/>
<stop offset="1" stop-color="#69CAF4"/>
</linearGradient>
<linearGradient id="paint6_linear_648_3419" x1="36.2443" y1="37.638" x2="57.1382" y2="49.4345" gradientUnits="userSpaceOnUse">
<stop stop-color="#2174BB"/>
<stop offset="1" stop-color="#055999"/>
</linearGradient>
<radialGradient id="paint7_radial_648_3419" cx="0" cy="0" r="1" gradientUnits="userSpaceOnUse" gradientTransform="translate(65.1278 34.2685) rotate(-136.962) scale(2.43041 3.2755)">
<stop stop-color="#359BDC"/>
<stop offset="0.82" stop-color="#2174BB"/>
</radialGradient>
</defs>
</svg>
