<svg width="225" height="76" viewBox="0 0 225 76" fill="none" xmlns="http://www.w3.org/2000/svg">
<g filter="url(#filter0_d_239_228)">
<path opacity="0.5" d="M217.191 65L217.191 15.8923L100.334 15.8923L95.3591 5.55383L7.1914 5.55383L7.1914 15.8923L7.1914 54.6615L7.1914 65L217.191 65Z" fill="#3A3D46"/>
<path d="M217.191 66.5L218.691 66.5L218.691 65L218.691 15.8923L218.691 14.3923L217.191 14.3923L101.277 14.3923L96.7107 4.90336L96.3019 4.05383L95.3591 4.05383L7.19141 4.05383L5.69141 4.05383L5.69141 5.55383L5.69141 15.8923L5.69141 54.6615L5.69141 65L5.69141 66.5L7.19141 66.5L217.191 66.5Z" stroke="url(#paint0_linear_239_228)" stroke-width="3"/>
<path opacity="0.2" d="M217.191 65L217.191 15.8923L100.334 15.8923L95.3591 5.55383L7.1914 5.55383L7.1914 15.8923L7.1914 54.6615L7.1914 65L217.191 65Z" fill="url(#paint1_linear_239_228)"/>
<path d="M62.9096 8.45971C62.4933 7.08559 61.1025 3.07445 57.9851 2.29076C57.791 2.24178 57.5876 2.20471 57.3747 2.18221C57.2074 1.92274 56.055 0.195169 53.9843 0.0217504C53.6349 -0.00737339 52.4423 -0.107983 51.6231 0.609522C50.5309 1.56664 50.4238 3.69797 51.6351 5.6956C51.4237 5.65853 50.4117 5.501 49.7572 6.09406C48.9487 6.82613 48.9112 8.4928 50.0758 9.81926C51.3045 10.9088 52.5333 11.9982 53.7634 13.0864L62.9136 8.45838L62.9096 8.45971Z" fill="url(#paint2_radial_239_228)"/>
<path d="M23.0052 9.0959C23.0917 8.02505 24.0033 7.28532 24.2696 7.06852C25.8514 5.78481 27.853 6.2368 28.1481 6.30776C28.3147 6.1803 28.4839 6.06731 28.6544 5.97008C31.3957 4.41045 35.1325 6.33535 36.3694 7.03567C39.0333 5.51152 41.6041 4.90317 43.2423 4.53396C44.95 4.14898 52.7005 2.58804 60.3591 6.73084C62.6715 7.9817 65.2593 9.38102 66.8516 12.3899C66.8516 12.3899 67.068 12.8077 67.253 13.2637C70.5006 21.2589 63.8651 37.0129 63.8651 37.0129C60.2568 45.581 58.452 49.8643 54.9473 51.6973C51.2406 53.6366 45.3855 54.3632 40.2138 52.8194C39.6563 52.6538 39.171 52.4843 39.0962 52.4567C39.0962 52.4567 36.9268 51.6671 35.084 50.34C33.7461 49.3769 31.1897 46.5914 29.5489 41.6576C26.3643 32.0856 28.1573 19.0318 28.4891 16.7311C28.4038 16.7337 28.3199 16.7377 28.2346 16.7403C26.5007 16.5826 25.3832 15.3633 25.4514 14.2898C25.5078 13.42 26.3302 12.8445 26.5059 12.7276C24.2788 12.1219 22.8911 10.5241 23.0065 9.0959H23.0052Z" fill="url(#paint3_radial_239_228)"/>
<mask id="mask0_239_228" style="mask-type:luminance" maskUnits="userSpaceOnUse" x="38" y="35" width="26" height="21">
<path d="M63.5361 36.8482C61.4827 35.9652 57.4795 34.6452 52.7989 35.7628C42.0316 38.3318 38.2485 51.2674 38.0494 51.9867C43.5437 56.4622 50.8464 56.8232 56.3382 52.9444C61.1538 49.5439 63.8977 43.363 63.5361 36.8482Z" fill="white"/>
</mask>
<g mask="url(#mask0_239_228)">
<path d="M23.0052 9.09688C23.0917 8.02603 24.0033 7.28629 24.2696 7.06949C25.8514 5.78579 27.853 6.23778 28.1481 6.30873C28.3147 6.18128 28.4839 6.06828 28.6544 5.97105C31.3957 4.41143 35.1325 6.33632 36.3694 7.03665C39.0333 5.51249 41.6041 4.90415 43.2423 4.53493C44.95 4.14995 52.7005 2.58901 60.3591 6.73182C62.6715 7.98267 65.2593 9.382 66.8516 12.3909C66.8516 12.3909 67.068 12.8087 67.253 13.2646C70.5006 21.2599 63.8651 37.0138 63.8651 37.0138C60.2568 45.5819 58.452 49.8653 54.9473 51.6982C51.2406 53.6376 45.3855 54.3642 40.2138 52.8203C39.6563 52.6548 39.171 52.4853 39.0962 52.4577C39.0962 52.4577 36.9268 51.668 35.084 50.341C33.7461 49.3779 31.1897 46.5923 29.5489 41.6586C26.3643 32.0866 28.1573 19.0328 28.4891 16.7321C28.4038 16.7347 28.3199 16.7387 28.2346 16.7413C26.5007 16.5836 25.3832 15.3643 25.4514 14.2908C25.5078 13.421 26.3302 12.8455 26.5059 12.7286C24.2788 12.1228 22.8911 10.5251 23.0065 9.09688H23.0052Z" fill="#FDDA8F"/>
</g>
<path d="M64.0762 17.4373C63.2303 18.0482 61.819 18.8961 59.9396 19.2456C57.6889 19.6637 55.8344 19.3892 53.328 18.3679C52.4073 17.9926 49.9586 16.3266 47.2738 15.783C46.6876 15.6639 46.1852 15.6872 45.7472 15.8024C44.7032 16.0768 44.071 16.8069 43.7851 17.1434C42.6965 18.4223 39.6982 23.8045 42.4551 28.4606C43.9241 30.9407 46.2836 31.9607 47.4942 32.4837C47.4942 32.4837 51.5587 34.2402 58.6792 32.8099C59.975 32.5497 61.1738 32.1419 61.1738 32.1419C61.6118 31.9931 61.945 31.8623 62.0184 31.8326C63.9595 31.0391 65.0875 26.6795 65.1425 26.4594C65.6291 24.5152 67.1532 18.399 65.2645 17.4373C64.8461 17.225 64.3727 17.335 64.0776 17.436L64.0762 17.4373Z" fill="#005781"/>
<path d="M64.649 16.8362C63.7848 17.4458 62.3423 18.2928 60.4193 18.6365C58.1165 19.049 56.2184 18.7688 53.6506 17.7377C52.7067 17.3589 50.1963 15.6818 47.4457 15.1306C45.6821 14.7765 44.6664 15.652 43.8805 16.4847C42.6665 17.7701 39.8088 22.9869 42.3257 27.4903C43.4915 29.576 45.2813 30.554 46.5136 31.2271C50.1598 33.2194 53.6688 32.8342 59.1674 32.2298C60.6974 32.0624 61.6269 31.8705 62.5825 31.2596C64.4584 30.0572 65.0902 28.0882 65.7652 25.8832C66.6411 23.018 67.6176 17.7182 65.8644 16.8414C65.4362 16.6274 64.9506 16.7363 64.649 16.8362Z" fill="#FDDA8F"/>
<path d="M60.2953 28.5631L59.811 32.5639C59.7921 32.7184 59.6129 32.7706 59.526 32.6478C59.1052 32.2307 58.6288 31.6969 58.1556 31.0317C57.6803 30.3617 57.3241 29.7208 57.058 29.1699C57.0558 29.1663 57.0023 29.0897 57.0357 28.9985C57.0558 28.9437 57.0992 28.9012 57.1593 28.8902C57.3541 28.7078 57.8395 28.3029 58.5742 28.1752C59.3023 28.0475 59.8734 28.2615 60.1116 28.3673C60.1728 28.433 60.234 28.4974 60.2964 28.5631H60.2953Z" fill="#F36C21"/>
<path d="M44.4239 29.1945C42.4603 28.7896 41.0428 27.6161 41.2578 26.5733C41.4728 25.5306 43.2389 25.0135 45.2024 25.4183C47.166 25.8232 48.5835 26.9967 48.3685 28.0394C48.1535 29.0822 46.3875 29.5993 44.4239 29.1945Z" fill="#F36C21"/>
<g opacity="0.25">
<path fill-rule="evenodd" clip-rule="evenodd" d="M65.4387 21.5157C65.7716 22.3364 65.856 23.4001 65.5891 24.5068C65.3222 25.6135 64.7621 26.5218 64.0917 27.1005C63.4206 27.6797 62.667 27.9097 61.9775 27.7434C61.2879 27.5771 60.7221 27.0289 60.3888 26.2074C60.0558 25.3867 59.9714 24.323 60.2383 23.2163C60.5053 22.1096 61.0653 21.2013 61.7358 20.6226C62.4069 20.0434 63.1605 19.8134 63.85 19.9797C64.5395 20.146 65.1054 20.6942 65.4387 21.5157ZM66.1673 21.2201C65.7662 20.2313 65.0335 19.4563 64.0343 19.2153C63.0352 18.9743 62.0298 19.3302 61.222 20.0273C60.4136 20.725 59.775 21.7836 59.4739 23.0319C59.1729 24.2802 59.2587 25.5136 59.6602 26.503C60.0613 27.4918 60.794 28.2668 61.7931 28.5078C62.7922 28.7488 63.7977 28.3929 64.6054 27.6958C65.4138 26.9981 66.0524 25.9395 66.3535 24.6912C66.6546 23.4429 66.5687 22.2095 66.1673 21.2201Z" fill="#231F20"/>
<path fill-rule="evenodd" clip-rule="evenodd" d="M54.7662 21.2903C55.1496 22.2017 55.2514 23.3771 54.9576 24.5951C54.6639 25.8131 54.0374 26.8128 53.2808 27.4492C52.5239 28.0858 51.6614 28.3432 50.8607 28.1501C50.0601 27.957 49.4097 27.3347 49.0262 26.4231C48.6429 25.5117 48.5411 24.3364 48.8348 23.1183C49.1286 21.9003 49.755 20.9006 50.5117 20.2642C51.2685 19.6276 52.1311 19.3702 52.9317 19.5633C53.7324 19.7564 54.3828 20.3787 54.7662 21.2903ZM55.491 20.9854C55.0362 19.9042 54.2173 19.0645 53.1161 18.7989C52.0149 18.5333 50.9032 18.9074 50.0055 19.6624C49.1077 20.4176 48.3995 21.5698 48.0704 22.934C47.7414 24.2982 47.8466 25.6466 48.3014 26.728C48.7562 27.8092 49.5752 28.6489 50.6764 28.9145C51.7776 29.1801 52.8893 28.806 53.7869 28.051C54.6847 27.2958 55.393 26.1437 55.722 24.7794C56.0511 23.4152 55.9459 22.0668 55.491 20.9854Z" fill="#231F20"/>
<path fill-rule="evenodd" clip-rule="evenodd" d="M57.8729 23.9665C58.6756 23.8894 59.3318 24.0613 59.7402 24.2108C59.9683 24.2943 60.209 24.1378 60.2779 23.8613C60.3467 23.5848 60.2177 23.2929 59.9896 23.2094C59.5122 23.0346 58.7448 22.8334 57.8046 22.9237L57.8043 22.9237C56.6205 23.0385 55.7416 23.5593 55.2755 23.8897C55.0699 24.0355 55.0006 24.3559 55.1209 24.6052C55.2411 24.8546 55.5054 24.9385 55.7111 24.7927C56.1106 24.5095 56.8624 24.0645 57.8729 23.9665Z" fill="#231F20"/>
<path fill-rule="evenodd" clip-rule="evenodd" d="M34.1537 15.3059C34.0707 15.5181 34.1645 15.762 34.3632 15.8506L48.6326 22.2151C48.8313 22.3037 49.0597 22.2035 49.1426 21.9913C49.2256 21.779 49.1318 21.5352 48.9331 21.4465L34.6637 15.0821C34.465 14.9934 34.2367 15.0936 34.1537 15.3059Z" fill="#231F20"/>
</g>
<path opacity="0.15" d="M52.4443 24.2101C51.3601 24.2101 50.4813 23.1848 50.4813 21.92C50.4813 20.6552 51.3601 19.6299 52.4443 19.6299C53.5284 19.6299 54.4072 20.6552 54.4072 21.92C54.4072 23.1848 53.5284 24.2101 52.4443 24.2101Z" fill="white"/>
<path opacity="0.2" d="M51.6891 19.0206C51.522 19.3965 50.6355 21.4817 51.5274 23.8051C52.259 25.7102 53.7331 26.588 54.1696 26.8274C56.1759 24.1475 56.1085 21.0634 54.6641 19.7453C53.6873 18.8533 52.2725 18.946 51.6891 19.0206Z" fill="white"/>
<path opacity="0.15" d="M63.5678 24.2101C62.4837 24.2101 61.6048 23.3313 61.6048 22.2471C61.6048 21.163 62.4837 20.2842 63.5678 20.2842C64.6519 20.2842 65.5308 21.163 65.5308 22.2471C65.5308 23.3313 64.6519 24.2101 63.5678 24.2101Z" fill="white"/>
<path opacity="0.2" d="M62.779 19.0125C62.6167 19.3849 61.7587 21.4546 62.6767 23.7818C63.431 25.6904 64.9108 26.5838 65.35 26.8274C67.3182 24.1795 67.2118 21.1031 65.7551 19.7714C64.7704 18.8696 63.36 18.9452 62.779 19.0125Z" fill="white"/>
<path d="M62.9577 28.769C62.846 27.9004 63.8873 27.0507 65.2835 26.8711C66.6798 26.6915 67.9023 27.25 68.014 28.1186C68.1257 28.9872 67.0844 29.837 65.6882 30.0166C64.2919 30.1962 63.0694 29.6377 62.9577 28.769Z" fill="#F36C21"/>
<path d="M39.341 15.0514C39.0034 15.5021 38.6075 15.8928 38.1819 16.222C37.7562 16.5513 37.2853 16.803 36.7963 16.9478C36.3072 17.0956 35.7988 17.1132 35.3111 17.0269C34.8233 16.9303 34.3602 16.7108 33.9501 16.4064L33.8078 16.3055L33.6667 16.4211C33.2786 16.7371 32.8672 17.0152 32.4351 17.2347C32.0043 17.4541 31.5515 17.618 31.0922 17.6927C30.6342 17.7731 30.1698 17.7439 29.748 17.5917C29.541 17.5039 29.3405 17.4 29.1658 17.2508C28.9899 17.103 28.8347 16.9215 28.7014 16.7181C28.616 16.5879 28.4543 16.5615 28.3392 16.6566C28.224 16.7532 28.2007 16.9361 28.2848 17.0664C28.4452 17.3107 28.6367 17.5346 28.8566 17.7205C29.0766 17.9078 29.3276 18.0409 29.5837 18.1463C30.1025 18.3351 30.6498 18.3614 31.166 18.2721C31.6847 18.1858 32.1802 18.0058 32.6486 17.7673C33.1169 17.5288 33.5568 17.2303 33.9695 16.8952L33.6861 16.9098C34.1726 17.2112 34.7108 17.4102 35.2606 17.4673C35.8104 17.5156 36.3655 17.4424 36.8752 17.2376C37.3862 17.0356 37.8545 16.7283 38.2672 16.3523C38.6799 15.9762 39.05 15.546 39.3566 15.0646C39.3592 15.0602 39.3579 15.0543 39.354 15.0514C39.3501 15.0485 39.3449 15.0499 39.3423 15.0529L39.341 15.0514Z" fill="#005A87"/>
<path d="M69.0423 19.6299L62.9138 33.205L63.3326 33.3706L69.4543 19.7994L69.457 19.7943L69.0423 19.6299Z" fill="#F7D05E"/>
<path d="M69.5853 19.6352L63.5681 33.8037L64.0914 34.0249L70.1113 19.8511L69.588 19.6299L69.5853 19.6352Z" fill="#F7D80E"/>
<path d="M64.2224 33.8542L64.6083 34.0249L70.1113 20.4562L69.7218 20.2842L64.2224 33.8542Z" fill="#F7BB0E"/>
<path d="M68.8574 19.6299L68.8027 19.757L69.1796 19.9151L69.6635 20.1188L70.0578 20.2842L70.1113 20.157L68.8574 19.6299Z" fill="#7E9FAD"/>
<path d="M68.8181 19.6299L68.8027 19.6728L70.0947 20.2842L70.1113 20.2413L68.8181 19.6299Z" fill="#A3CEE0"/>
<path d="M68.8027 19.6314L70.1113 20.2842V20.2827L68.804 19.6299L68.8027 19.6314Z" fill="#A3CEE0"/>
<path d="M68.8219 19.6299L68.8027 19.6808L70.0909 20.2842L70.1113 20.2333L68.8219 19.6299Z" fill="#A3CEE0"/>
<path d="M68.8513 18.9756L68.8027 19.0905L70.0602 19.6299L70.1113 19.5086H70.1101L70.1076 19.515L68.8513 18.9756Z" fill="#7E9FAD"/>
<path d="M69.457 18.3213L68.8027 18.9756H68.8052L68.8103 18.9703L69.457 18.3213Z" fill="#EC89A8"/>
<path d="M68.8053 18.9756L68.8027 18.9832L70.1087 19.6299L70.1113 19.6223L68.8053 18.9756Z" fill="#7E9FAD"/>
<path d="M69.1946 18.3852L68.8027 19.1154L70.3401 19.6299L70.7656 18.8358L69.2282 18.3213L69.1946 18.3852Z" fill="#EC89A8"/>
<path d="M69.4855 18.5087L69.457 18.5611L70.706 18.9756L70.7345 18.9232C70.8188 18.7679 70.7259 18.5873 70.5276 18.5223L69.9972 18.3456C69.799 18.2796 69.5697 18.3524 69.4855 18.5087Z" fill="#EC89A8"/>
<path d="M70.7633 18.9756L70.1113 19.6299H70.1136L70.7656 18.9756H70.7633Z" fill="#A3CEE0"/>
<path fill-rule="evenodd" clip-rule="evenodd" d="M64.285 34.0249L70.1113 20.3095L70.0514 20.2842L64.2224 34.0057V34.0136H64.2581L64.285 34.0249Z" fill="#C49A6C"/>
<path fill-rule="evenodd" clip-rule="evenodd" d="M63.6312 33.3641L69.457 19.6552L69.3971 19.6299L63.5707 33.3401L63.5681 33.3465L63.6286 33.3706L63.631 33.3647L63.6312 33.3641Z" fill="#C49A6C"/>
<path fill-rule="evenodd" clip-rule="evenodd" d="M54.2206 44.5119C54.0774 44.452 53.9223 44.5482 53.8743 44.7268C53.6944 45.3953 53.1902 45.813 52.6768 45.7722C52.2398 45.7368 51.8386 45.3698 51.6634 44.8202C51.6076 44.6451 51.4486 44.5596 51.3082 44.6292C51.1678 44.6988 51.0992 44.8971 51.155 45.0721C51.4038 45.8526 51.9818 46.3996 52.6416 46.4529L52.6418 46.4529C53.4141 46.5144 54.1379 45.8918 54.393 44.9438C54.441 44.7652 54.3638 44.5718 54.2206 44.5119Z" fill="#005781"/>
<path fill-rule="evenodd" clip-rule="evenodd" d="M59.4098 47.114C59.26 47.095 59.1197 47.1788 59.0964 47.3012C59.0634 47.4743 58.9726 47.7177 58.7435 47.8524L58.7434 47.8525C58.5554 47.9631 58.2613 48.0073 57.9101 47.9387C57.5626 47.8709 57.1801 47.6951 56.8483 47.3959C56.7465 47.3041 56.5729 47.2972 56.4606 47.3804C56.3483 47.4636 56.3398 47.6055 56.4416 47.6973C56.8412 48.0576 57.3185 48.2846 57.7826 48.3752C58.2432 48.465 58.7127 48.4234 59.0641 48.2166M59.4098 47.114C59.5596 47.1331 59.6621 47.2478 59.6388 47.3702ZM59.6388 47.3702C59.6004 47.5718 59.4799 47.9721 59.0641 48.2166Z" fill="#005781"/>
<path fill-rule="evenodd" clip-rule="evenodd" d="M55.5919 48.4627C55.4652 48.3837 55.295 48.4172 55.2119 48.5376L55.2117 48.5378C55.2029 48.5506 55.0817 48.726 54.8614 48.8946C54.6405 49.0636 54.3341 49.2156 53.9478 49.207M55.5919 48.4627C55.7186 48.5416 55.754 48.7032 55.6708 48.8235ZM55.6708 48.8235C55.6494 48.8545 55.4914 49.0818 55.2058 49.3004ZM55.2058 49.3004C54.9192 49.5197 54.4901 49.7404 53.935 49.7281ZM52.5326 48.7339C52.4212 48.8315 52.4141 48.9963 52.5169 49.1021C52.6068 49.1948 53.1134 49.7098 53.935 49.7281L53.935 49.7281M52.5326 48.7339C52.6441 48.6364 52.8177 48.6431 52.9205 48.7489ZM52.9205 48.7489C52.9925 48.823 53.3641 49.194 53.9478 49.207Z" fill="#005781"/>
<path fill-rule="evenodd" clip-rule="evenodd" d="M47.493 47.1113C47.3366 47.1113 47.2098 47.232 47.2098 47.3809C47.2098 48.0606 47.6168 48.6828 48.2556 48.9453L48.2559 48.9454C49.0198 49.2585 49.9441 48.9857 50.4331 48.2944C50.5205 48.1709 50.4861 48.0034 50.3565 47.9202C50.2268 47.837 50.0508 47.8697 49.9635 47.9932C49.6173 48.4826 48.9787 48.6546 48.4799 48.4502C48.0627 48.2787 47.7761 47.8604 47.7761 47.3809C47.7761 47.232 47.6493 47.1113 47.493 47.1113Z" fill="#005781"/>
<path fill-rule="evenodd" clip-rule="evenodd" d="M56.4629 44.5199C56.3642 44.5645 56.3409 44.6516 56.4108 44.7146C56.4732 44.7709 56.82 45.0768 57.4688 45.1381C57.9066 45.1796 58.2692 45.0895 58.5188 44.991C58.7666 44.8931 58.9159 44.7821 58.9398 44.763C59.0153 44.7028 59 44.6149 58.9057 44.5667C58.8113 44.5185 58.6736 44.5282 58.5981 44.5885C58.5981 44.5885 58.5981 44.5885 58.598 44.5885C58.5964 44.5897 58.5678 44.6116 58.5151 44.6429C58.4612 44.675 58.3844 44.7155 58.2885 44.7533C58.0963 44.8292 57.838 44.8907 57.533 44.8617L57.5328 44.8617C57.0721 44.8182 56.8171 44.5974 56.7679 44.5531C56.6981 44.4901 56.5615 44.4753 56.4629 44.5199Z" fill="#005781"/>
<path d="M66.3829 27.1425C66.3621 27.0459 66.3491 26.9465 66.3491 26.8458C66.3491 25.7516 67.575 24.8643 69.0868 24.8643C69.3026 24.8643 69.5106 24.8847 69.7108 24.9187C71.2643 24.8153 72.8112 25.7693 73.5236 27.0418C74.8808 29.467 73.4209 33.4315 70.6338 34.4236C68.7995 35.0769 66.2828 34.4794 65.2818 32.6054C64.1898 30.5626 65.5613 28.249 66.3842 27.1439L66.3829 27.1425Z" fill="url(#paint4_radial_239_228)"/>
<path d="M59.1622 55.5936C58.6818 55.4812 58.2027 54.838 57.7449 54.1111C56.8253 52.6508 57.0236 51.1775 57.0875 50.6519C57.2498 50.0009 57.8367 49.6009 58.4556 49.7656C59.101 49.9382 59.4883 50.6559 59.2434 51.3121C59.8569 50.1342 60.9229 49.7316 61.386 49.9996C61.7932 50.2349 61.9303 51.099 61.5777 52.0142C61.933 51.2363 62.8047 51.0193 63.2704 51.3239C63.6178 51.5501 63.6657 52.1567 63.3889 52.7358C63.0881 53.2365 62.6436 54.0653 61.4392 54.7805C60.5449 55.3125 59.6919 55.7191 59.1622 55.5949V55.5936Z" fill="#F36C21"/>
<path d="M71.4199 31.4072L70.3496 33.3702H62.2594L63.3616 31.4098L71.4199 31.4072Z" fill="#BCBEC0"/>
<path d="M47.8732 53.5392L57.9762 32.1085C57.9894 32.0798 58.0185 32.0615 58.0501 32.0615H75.5773C75.5971 32.0615 75.6143 32.0707 75.6275 32.0811C75.6275 32.0811 75.9866 32.4207 75.9998 32.4468C76.009 32.4651 75.7027 32.452 75.5258 32.4429L65.6446 53.6071C65.6314 53.6358 65.6023 53.6541 65.5706 53.6541H47.9458C47.8864 53.6541 47.8468 53.5927 47.8719 53.5392H47.8732Z" fill="#AE0303"/>
<path d="M75.9193 32.7158H58.5889C58.5575 32.7158 58.5288 32.7341 58.5158 32.7628L48.5261 54.1935C48.5013 54.247 48.5405 54.3084 48.5992 54.3084H66.0263C66.0576 54.3084 66.0863 54.2901 66.0994 54.2614L75.9924 32.8308C76.0172 32.7772 75.9781 32.7158 75.9193 32.7158Z" fill="#E30303"/>
<path d="M62.3828 27.8346C61.0144 27.6051 60.1431 25.9996 60.4368 24.2486C60.7304 22.4976 62.0778 21.2642 63.4462 21.4937C64.8145 21.7231 65.6858 23.3286 65.3921 25.0796C65.0985 26.8306 63.7512 28.064 62.3828 27.8346Z" fill="#1B64A6"/>
<path d="M62.6436 28.135C63.5471 28.1725 64.6474 27.0803 64.8469 25.3955C65.0346 23.8037 64.3084 22.3646 63.2603 22.2536C63.2355 22.2508 63.2094 22.2494 63.1834 22.248C62.2799 22.2105 61.1796 23.3027 60.9801 24.9875C60.7924 26.5793 61.5186 28.0184 62.5667 28.1295C62.5915 28.1322 62.6176 28.1336 62.6436 28.135Z" fill="#34282A"/>
<path d="M63.9464 27.0648C63.5906 27.0509 63.3146 26.719 63.33 26.3234C63.3454 25.9278 63.6464 25.6183 64.0022 25.6321C64.358 25.646 64.634 25.9779 64.6186 26.3735C64.6032 26.7692 64.3022 27.0786 63.9464 27.0648Z" fill="white"/>
<path d="M51.6603 28.265C50.2036 28.0787 49.2161 26.4162 49.4546 24.5517C49.6931 22.6872 51.0674 21.3268 52.5241 21.5132C53.9807 21.6995 54.9683 23.362 54.7298 25.2265C54.4912 27.091 53.117 28.4514 51.6603 28.265Z" fill="#1B64A6"/>
<path d="M52.2815 28.136C53.19 28.136 54.2557 27.0026 54.3931 25.315C54.5231 23.7203 53.7408 22.3164 52.685 22.2497C52.659 22.2484 52.633 22.2471 52.6083 22.2471C51.6998 22.2471 50.6341 23.3804 50.4954 25.068C50.3655 26.6628 51.1477 28.0667 52.2035 28.1333C52.2295 28.1347 52.2555 28.136 52.2803 28.136H52.2815Z" fill="#34282A"/>
<path d="M53.0986 27.4815C52.7372 27.4815 52.4443 27.1885 52.4443 26.8272C52.4443 26.4658 52.7372 26.1729 53.0986 26.1729C53.46 26.1729 53.7529 26.4658 53.7529 26.8272C53.7529 27.1885 53.46 27.4815 53.0986 27.4815Z" fill="white"/>
<path fill-rule="evenodd" clip-rule="evenodd" d="M55.2517 20.9993C55.6469 21.939 55.7494 23.1432 55.4497 24.3856C55.1501 25.628 54.51 26.6531 53.7298 27.3093C52.9495 27.9656 52.0454 28.2424 51.1947 28.0372C50.3439 27.8321 49.6654 27.1736 49.2701 26.2337C48.8748 25.2939 48.7724 24.0898 49.0721 22.8474C49.3717 21.605 50.0118 20.5799 50.792 19.9237C51.5723 19.2673 52.4764 18.9905 53.3271 19.1957C54.1779 19.4009 54.8564 20.0594 55.2517 20.9993ZM55.7349 20.796C55.292 19.7431 54.5011 18.9396 53.45 18.6861C52.3989 18.4326 51.3288 18.7872 50.4546 19.5225C49.5803 20.2579 48.8856 21.3846 48.5625 22.7245C48.2393 24.0643 48.344 25.3839 48.7869 26.4369C49.2298 27.4899 50.0206 28.2933 51.0718 28.5468C52.1229 28.8003 53.193 28.4458 54.0672 27.7105C54.9415 26.9751 55.6361 25.8483 55.9593 24.5085C56.2825 23.1686 56.1778 21.8491 55.7349 20.796Z" fill="#231F20"/>
<path fill-rule="evenodd" clip-rule="evenodd" d="M65.807 21.196C66.1393 22.0448 66.2159 23.1396 65.9421 24.2752C65.6682 25.4108 65.1009 26.3503 64.4182 26.9543C63.7347 27.559 62.9568 27.8125 62.2377 27.6391C61.5186 27.4656 60.9418 26.8854 60.6091 26.0356C60.2769 25.1868 60.2002 24.092 60.4741 22.9564C60.748 21.8208 61.3153 20.8813 61.998 20.2773C62.6814 19.6726 63.4593 19.4191 64.1784 19.5925C64.8976 19.766 65.4743 20.3462 65.807 21.196ZM66.2951 21.0049C65.9195 20.0454 65.2329 19.3076 64.3013 19.0829C63.3698 18.8583 62.4223 19.202 61.6506 19.8847C60.8781 20.5682 60.2604 21.6064 59.9645 22.8335C59.6685 24.0606 59.745 25.2662 60.121 26.2267C60.4966 27.1862 61.1833 27.924 62.1148 28.1487C63.0463 28.3733 63.9938 28.0296 64.7655 27.3469C65.538 26.6634 66.1557 25.6252 66.4517 24.3981C66.7476 23.171 66.6711 21.9654 66.2951 21.0049Z" fill="#231F20"/>
<path fill-rule="evenodd" clip-rule="evenodd" d="M58.1752 23.4826C58.9396 23.4183 59.5643 23.5616 59.9531 23.6863C60.0938 23.7314 60.2424 23.6468 60.2849 23.4974C60.3275 23.3479 60.2478 23.1902 60.107 23.145C59.6756 23.0068 58.9823 22.8476 58.133 22.919L58.1328 22.919C57.0635 23.0098 56.2694 23.4218 55.8481 23.6833C55.7211 23.7621 55.6784 23.9352 55.7526 24.07C55.8268 24.2047 55.9899 24.2501 56.1169 24.1713C56.4971 23.9353 57.2128 23.5643 58.1752 23.4826Z" fill="#231F20"/>
<path fill-rule="evenodd" clip-rule="evenodd" d="M34.7983 15.2112C34.742 15.345 34.8056 15.4987 34.9404 15.5546L49.4606 21.5727C49.5954 21.6285 49.7504 21.5654 49.8067 21.4316C49.8629 21.2978 49.7993 21.1441 49.6645 21.0882L35.1443 15.0701C35.0095 15.0143 34.8546 15.0774 34.7983 15.2112Z" fill="#231F20"/>
<path d="M38.4045 30.0986C40.8761 32.1692 44.8333 34.9946 50.2643 37.033C55.6468 39.0525 60.3934 39.5166 63.5586 39.5731C63.5756 40.4786 63.6347 43.2219 62.9764 44.4813C61.0844 48.1032 56.1883 48.6346 53.2984 48.9467C44.5107 49.8993 37.0867 45.2751 33.4691 42.6286" fill="url(#paint5_linear_239_228)"/>
<path d="M37.8571 30.0986C40.3821 32.0978 44.4258 34.8258 49.9752 36.7939C55.475 38.7437 60.3243 39.1919 63.5585 39.2464C63.5755 40.1207 63.6367 42.7694 62.9641 43.9853C61.0309 47.4823 56.029 47.9954 53.0764 48.2968C44.0986 49.2165 36.5118 44.7517 32.8148 42.1965L37.8571 30.0986Z" fill="url(#paint6_radial_239_228)"/>
<path d="M46.8415 56.9259C47.4228 56.9144 48.138 56.3327 48.8504 55.6553C50.2793 54.2966 50.4229 52.6688 50.4814 52.0896C50.4591 51.3548 49.8834 50.791 49.1278 50.8267C48.3401 50.865 47.7128 51.5487 47.8299 52.3078C47.4186 50.9045 46.2922 50.2297 45.69 50.4121C45.1616 50.5715 44.7852 51.4697 44.9609 52.531C44.7476 51.6151 43.7968 51.1839 43.1834 51.4059C42.7262 51.5704 42.5171 52.2108 42.6899 52.8959C42.9102 53.5019 43.2127 54.4918 44.4214 55.5341C45.3178 56.3084 46.1988 56.9373 46.8415 56.9259Z" fill="#F36C21"/>
<path fill-rule="evenodd" clip-rule="evenodd" d="M36.5051 31.4902C36.4049 31.3822 36.2395 31.3792 36.1358 31.4836C35.2732 32.3507 35.2013 33.7623 35.9336 34.6779L36.1344 34.504L35.9336 34.6779C36.6215 35.5379 37.8404 35.7408 38.7826 35.1853C38.8718 35.9333 39.2118 37.3222 40.4921 38.2153M36.5051 31.4902C36.6053 31.5982 36.6025 31.7703 36.4987 31.8747ZM36.4987 31.8747C35.8279 32.5491 35.7823 33.6388 36.3351 34.33ZM39.286 34.0579L38.8382 34.4772C38.0866 35.1811 36.9331 35.0776 36.3351 34.33M39.286 34.0579L39.2741 34.6847ZM39.2741 34.6847C39.2716 34.8133 39.2662 36.7057 40.7831 37.7637ZM44.9751 37.5425L44.4447 37.8615C43.2876 38.5576 41.8616 38.5171 40.7832 37.7638L40.7831 37.7637M44.9751 37.5425L44.8291 38.1617ZM44.2425 38.5718C44.1801 39.6162 44.639 40.6248 45.4641 41.1728L45.4641 41.1728C46.523 41.8758 47.9754 41.6833 48.9116 40.7079C49.4812 41.4641 51.0083 43.1884 53.588 43.6997L53.588 43.6997C56.7636 44.329 59.1246 42.6441 59.5322 42.3424C59.6498 42.2554 59.6773 42.0857 59.5937 41.9633C59.5102 41.8409 59.3471 41.8122 59.2295 41.8992C58.8509 42.1794 56.6432 43.7516 53.6857 43.1656C50.9143 42.6162 49.4412 40.5591 49.1428 40.1215L48.9417 39.8264L48.7253 40.1096C47.9679 41.1013 46.6537 41.3176 45.7451 40.7144M44.2425 38.5718C43.0133 39.1088 41.599 38.9885 40.4922 38.2154ZM44.8291 38.1617C44.59 39.1757 44.9802 40.2064 45.7451 40.7143Z" fill="#005781"/>
<path fill-rule="evenodd" clip-rule="evenodd" d="M34.8957 36.7445C34.8058 36.6282 34.6394 36.6074 34.5241 36.698C33.9332 37.1624 33.4648 37.6871 33.1696 38.1757C33.0222 38.4197 32.9135 38.6621 32.8575 38.8894C32.8022 39.1138 32.7929 39.3463 32.8749 39.5518C32.9661 39.7817 33.1578 39.9461 33.3861 40.0516C33.6151 40.1575 33.8983 40.2134 34.2135 40.2204C34.6824 40.2308 35.2444 40.1336 35.8546 39.9033C35.7811 40.1099 35.7271 40.3167 35.6962 40.5168C35.6331 40.9264 35.6625 41.3445 35.8673 41.6671C36.1568 42.1234 36.7499 42.328 37.3932 42.2737C37.8938 42.2315 38.4517 42.0338 38.999 41.6492C39.0002 42.0554 39.0759 42.5661 39.3723 43.0122C40.0385 44.0155 41.4861 44.2493 42.8293 43.567C42.9847 43.924 43.2916 44.4452 43.863 44.7932C44.5457 45.2092 45.2622 45.1698 45.7965 45.0328C46.1291 44.9475 46.4023 44.8219 46.5725 44.7317C46.7864 44.9305 47.0881 45.1698 47.4812 45.3715L47.4813 45.3715C48.6884 45.9901 49.8685 45.796 50.606 45.6746L50.6216 45.6721L50.6217 45.6721C51.1699 45.5818 51.9997 45.3794 52.9575 44.8688C53.0868 44.7999 53.1362 44.6384 53.0679 44.508C52.9995 44.3776 52.8393 44.3278 52.71 44.3967C51.8142 44.8742 51.042 45.0617 50.5363 45.145C49.7951 45.2669 48.767 45.4313 47.7212 44.8954C47.2938 44.6761 46.9893 44.4042 46.802 44.2129L46.6499 44.0574L46.4687 44.1769C46.4478 44.1907 46.1221 44.3982 45.666 44.5152C45.211 44.6318 44.6551 44.6518 44.1369 44.3361L44.1368 44.3361C43.5334 43.9686 43.2952 43.339 43.2209 43.1033L43.1191 42.7798L42.8313 42.9557C41.5648 43.7298 40.313 43.469 39.8124 42.715L39.8123 42.715C39.4299 42.1394 39.5276 41.3759 39.5788 41.093L39.7221 40.3L39.1376 40.8498C38.5135 41.437 37.8692 41.6976 37.349 41.7415C36.8177 41.7863 36.4583 41.6077 36.3134 41.3792L36.3133 41.3791C36.207 41.2116 36.1662 40.9455 36.2196 40.5987C36.2721 40.258 36.4109 39.8742 36.6162 39.5073L37.0458 38.7396L36.2659 39.1379C35.4678 39.5454 34.7531 39.6981 34.2251 39.6864C33.9606 39.6806 33.753 39.6337 33.6068 39.5661C33.4602 39.4983 33.3924 39.4187 33.3665 39.3531L33.3662 39.3526C33.3409 39.2891 33.3313 39.1811 33.3715 39.0182C33.4109 38.858 33.4935 38.6661 33.6219 38.4536C33.8785 38.0288 34.3006 37.5508 34.8496 37.1193C34.965 37.0286 34.9856 36.8608 34.8957 36.7445Z" fill="#005781"/>
<path d="M71.4199 32.0615L70.4261 34.0245H62.9137L63.9372 32.0654L71.4199 32.0615Z" fill="#E6E7E8"/>
<path d="M71.0619 31.4072L71.4199 31.8146L63.6937 31.819L63.2678 32.7159L62.9137 32.2997L63.3357 31.4102L71.0619 31.4072Z" fill="#BCBEC0"/>
<path d="M64.2222 31.817L63.6214 31.4072L62.9135 32.2987L63.5076 32.7159L64.2222 31.817Z" fill="#D1D3D4"/>
</g>
<defs>
<filter id="filter0_d_239_228" x="0.191406" y="0" width="224" height="76" filterUnits="userSpaceOnUse" color-interpolation-filters="sRGB">
<feFlood flood-opacity="0" result="BackgroundImageFix"/>
<feColorMatrix in="SourceAlpha" type="matrix" values="0 0 0 0 0 0 0 0 0 0 0 0 0 0 0 0 0 0 127 0" result="hardAlpha"/>
<feOffset dy="4"/>
<feGaussianBlur stdDeviation="2"/>
<feComposite in2="hardAlpha" operator="out"/>
<feColorMatrix type="matrix" values="0 0 0 0 0 0 0 0 0 0 0 0 0 0 0 0 0 0 0.25 0"/>
<feBlend mode="normal" in2="BackgroundImageFix" result="effect1_dropShadow_239_228"/>
<feBlend mode="normal" in="SourceGraphic" in2="effect1_dropShadow_239_228" result="shape"/>
</filter>
<linearGradient id="paint0_linear_239_228" x1="112.191" y1="65" x2="112.191" y2="5.55384" gradientUnits="userSpaceOnUse">
<stop stop-color="#124CEB"/>
<stop offset="1" stop-color="#004BEF" stop-opacity="0"/>
</linearGradient>
<linearGradient id="paint1_linear_239_228" x1="112.191" y1="65" x2="112.191" y2="5.55384" gradientUnits="userSpaceOnUse">
<stop stop-color="#004BEF"/>
<stop offset="1" stop-color="#004BEF" stop-opacity="0"/>
</linearGradient>
<radialGradient id="paint2_radial_239_228" cx="0" cy="0" r="1" gradientUnits="userSpaceOnUse" gradientTransform="translate(62.3251 13.001) rotate(-149.786) scale(11.1425 11.0824)">
<stop stop-color="#359BDC"/>
<stop offset="0.34" stop-color="#277FC5"/>
<stop offset="0.96" stop-color="#2174BB"/>
</radialGradient>
<radialGradient id="paint3_radial_239_228" cx="0" cy="0" r="1" gradientUnits="userSpaceOnUse" gradientTransform="translate(33.8996 2.13605) rotate(180) scale(69.0678 69.1886)">
<stop offset="0.05" stop-color="#359BDC"/>
<stop offset="0.93" stop-color="#2174BB"/>
</radialGradient>
<radialGradient id="paint4_radial_239_228" cx="0" cy="0" r="1" gradientUnits="userSpaceOnUse" gradientTransform="translate(65.82 23.472) rotate(180) scale(13.3078 13.9321)">
<stop stop-color="#359BDC"/>
<stop offset="1" stop-color="#2174BB"/>
</radialGradient>
<linearGradient id="paint5_linear_239_228" x1="63.5691" y1="39.5866" x2="33.4704" y2="39.5866" gradientUnits="userSpaceOnUse">
<stop stop-color="#005A87"/>
<stop offset="0.99" stop-color="#005A87"/>
</linearGradient>
<radialGradient id="paint6_radial_239_228" cx="0" cy="0" r="1" gradientUnits="userSpaceOnUse" gradientTransform="translate(48.2724 32.5018) rotate(180) scale(26.4442 25.8352)">
<stop stop-color="#359BDC"/>
<stop offset="0.93" stop-color="#2174BB"/>
</radialGradient>
</defs>
</svg>
