<svg width="331" height="98" viewBox="0 0 331 98" fill="none" xmlns="http://www.w3.org/2000/svg">
<path opacity="0.5" d="M328 95L328 19L147.15 19L139.45 2.99998L3.00001 2.99997L3.00001 19L3 79L3 95L328 95Z" fill="#3A3D46"/>
<path d="M328 96.5L329.5 96.5L329.5 95L329.5 19L329.5 17.5L328 17.5L148.093 17.5L140.802 2.34952L140.393 1.49998L139.45 1.49998L3.00001 1.49997L1.50001 1.49997L1.50001 2.99997L1.50001 19L1.5 79L1.5 95L1.5 96.5L3 96.5L328 96.5Z" stroke="url(#paint0_linear_587_1170)" stroke-width="3"/>
<path opacity="0.2" d="M328 95L328 19L147.15 19L139.45 2.99998L3.00001 2.99997L3.00001 19L3 79L3 95L328 95Z" fill="url(#paint1_linear_587_1170)"/>
<path d="M74.1115 78.5355C72.1211 82.9132 67.8265 85.9996 62.7615 85.9996H53.9429C46.6416 85.9996 40.8905 79.5724 41.4525 72.0429L41.6984 68.7457C42.1784 62.3306 46.4004 57.0808 52.0485 55.2226C53.7813 56.3056 55.8185 56.9258 57.9893 56.9258C60.16 56.9258 62.3471 56.2547 64.1267 55.0967C64.1267 55.0967 64.1291 55.0983 64.1337 55.1015C69.7584 56.7828 74.0717 61.8025 74.8047 68.0819L75.2004 71.4857C75.4954 74.0028 75.0716 76.4254 74.1115 78.5379V78.5355Z" fill="url(#paint2_linear_587_1170)"/>
<path d="M69.5246 43.1604C69.5246 44.4541 69.3232 45.6993 68.9532 46.8694C68.1149 49.5415 66.3844 51.797 64.1271 53.2651C62.3474 54.4231 60.2446 55.0942 57.9896 55.0942C55.7346 55.0942 53.7816 54.474 52.0465 53.3911C48.6979 51.3028 46.4546 47.5017 46.4546 43.1604C46.4546 36.5733 51.6203 31.2266 57.9896 31.2266C61.3381 31.2266 64.3565 32.7068 66.4687 35.0688C68.3631 37.1983 69.5246 40.0376 69.5246 43.1604Z" fill="url(#paint3_linear_587_1170)"/>
<path d="M82.4435 78.5362H75.7464C76.7064 76.4212 77.1279 73.9986 76.8352 71.4839L76.4395 68.0801C75.7065 61.8007 71.3932 55.5601 65.7686 53.8812C67.4686 51.5676 69.8337 51.037 72.5547 50.1382C74.1564 51.1339 76.0344 51.7081 78.0341 51.7081C80.0339 51.7081 82.0571 51.0879 83.6986 50.0195C88.8877 51.57 92.8732 56.2045 93.5499 61.9994L93.9152 65.1415C94.7465 72.264 89.3748 78.5362 82.4411 78.5362H82.4435Z" fill="url(#paint4_linear_587_1170)"/>
<path d="M88.6815 39.0059C88.6815 42.9379 86.6934 46.3852 83.7031 48.3306C83.7031 48.3306 83.7008 48.3306 83.7008 48.333C83.4596 48.4881 83.2137 48.6358 82.9608 48.7691C82.7828 48.8684 82.6002 48.9605 82.4175 49.0453C81.0805 49.6703 79.5982 50.0192 78.0386 50.0192C76.0342 50.0192 74.1562 49.4474 72.5569 48.4469C71.8426 48.0011 71.1823 47.4706 70.5875 46.8698C70.9598 45.6996 71.1589 44.4544 71.1589 43.1607C71.1589 40.038 69.9998 37.1987 68.103 35.0692C69.6321 30.9338 73.5052 28 78.0363 28C83.9185 28 88.6815 32.93 88.6815 39.0059Z" fill="url(#paint5_linear_587_1170)"/>
<path d="M33.5568 78.5362H40.2539C39.2938 76.4212 38.8723 73.9986 39.165 71.4839L39.5608 68.0801C40.2937 61.8007 44.607 55.5601 50.2317 53.8812C48.5316 51.5676 46.1665 51.037 43.4455 50.1382C41.8439 51.1339 39.9658 51.7081 37.9661 51.7081C35.9663 51.7081 33.9431 51.0879 32.3016 50.0195C27.1125 51.57 23.127 56.2045 22.4503 61.9994L22.085 65.1415C21.2537 72.264 26.6255 78.5362 33.5591 78.5362H33.5568Z" fill="url(#paint6_linear_587_1170)"/>
<path d="M44.8435 43.1607C44.8435 44.4544 45.0449 45.6996 45.4149 46.8698C44.8201 47.4706 44.1597 48.0011 43.4455 48.4469C41.8462 49.4474 39.9682 50.0192 37.9637 50.0192C36.4042 50.0192 34.9219 49.6703 33.5848 49.0453C33.3624 48.9411 33.1446 48.8297 32.9315 48.7109C32.7161 48.5922 32.5077 48.4663 32.3039 48.333C32.3039 48.3306 32.3016 48.3306 32.3016 48.3306C29.309 46.3852 27.3232 42.9379 27.3232 39.0059C27.3232 32.93 32.0862 28 37.966 28C42.4971 28 46.3702 30.9338 47.8993 35.0692C46.0026 37.1987 44.8435 40.038 44.8435 43.1607Z" fill="url(#paint7_linear_587_1170)"/>
<defs>
<linearGradient id="paint0_linear_587_1170" x1="165.5" y1="95" x2="165.5" y2="2.99999" gradientUnits="userSpaceOnUse">
<stop stop-color="#124CEB"/>
<stop offset="1" stop-color="#004BEF" stop-opacity="0"/>
</linearGradient>
<linearGradient id="paint1_linear_587_1170" x1="165.5" y1="95" x2="165.5" y2="2.99999" gradientUnits="userSpaceOnUse">
<stop stop-color="#004BEF"/>
<stop offset="1" stop-color="#004BEF" stop-opacity="0"/>
</linearGradient>
<linearGradient id="paint2_linear_587_1170" x1="35.1933" y1="38.1069" x2="58.4718" y2="69.3347" gradientUnits="userSpaceOnUse">
<stop stop-color="#199FF2"/>
<stop offset="1" stop-color="#2174BB"/>
</linearGradient>
<linearGradient id="paint3_linear_587_1170" x1="47.8807" y1="28.6489" x2="71.1616" y2="59.8766" gradientUnits="userSpaceOnUse">
<stop stop-color="#199FF2"/>
<stop offset="1" stop-color="#2174BB"/>
</linearGradient>
<linearGradient id="paint4_linear_587_1170" x1="65.7686" y1="64.2791" x2="94.0042" y2="64.2791" gradientUnits="userSpaceOnUse">
<stop stop-color="#199FF2"/>
<stop offset="1" stop-color="#2174BB"/>
</linearGradient>
<linearGradient id="paint5_linear_587_1170" x1="68.103" y1="39.0108" x2="88.6815" y2="39.0108" gradientUnits="userSpaceOnUse">
<stop stop-color="#199FF2"/>
<stop offset="1" stop-color="#2174BB"/>
</linearGradient>
<linearGradient id="paint6_linear_587_1170" x1="21.9984" y1="64.2791" x2="50.234" y2="64.2791" gradientUnits="userSpaceOnUse">
<stop stop-color="#199FF2"/>
<stop offset="1" stop-color="#2174BB"/>
</linearGradient>
<linearGradient id="paint7_linear_587_1170" x1="27.3232" y1="39.0108" x2="47.8993" y2="39.0108" gradientUnits="userSpaceOnUse">
<stop stop-color="#199FF2"/>
<stop offset="1" stop-color="#2174BB"/>
</linearGradient>
</defs>
</svg>
