<svg width="295" height="88" viewBox="0 0 295 88" fill="none" xmlns="http://www.w3.org/2000/svg">
<path opacity="0.2" d="M292 84.8086L292 17.2271L131.183 17.227L124.336 2.99935L3.00001 2.99934L3.00001 17.227L3 70.5809L3 84.8086L292 84.8086Z" fill="#3A3D46"/>
<path d="M292 86.3086L293.5 86.3086L293.5 84.8086L293.5 17.2271L293.5 15.7271L292 15.7271L132.125 15.727L125.687 2.34889L125.278 1.49935L124.336 1.49935L3.00001 1.49934L1.50001 1.49934L1.50001 2.99934L1.50001 17.227L1.5 70.5809L1.5 84.8086L1.5 86.3086L3 86.3086L292 86.3086Z" stroke="url(#paint0_linear_648_3330)" stroke-width="3"/>
<path opacity="0.2" d="M292 84.8086L292 17.2271L131.183 17.227L124.336 2.99935L3.00001 2.99934L3.00001 17.227L3 70.5809L3 84.8086L292 84.8086Z" fill="url(#paint1_linear_648_3330)"/>
<defs>
<linearGradient id="paint0_linear_648_3330" x1="147.5" y1="84.8086" x2="147.5" y2="2.99935" gradientUnits="userSpaceOnUse">
<stop stop-color="#124CEB"/>
<stop offset="1" stop-color="#004BEF" stop-opacity="0"/>
</linearGradient>
<linearGradient id="paint1_linear_648_3330" x1="147.5" y1="84.8086" x2="147.5" y2="2.99935" gradientUnits="userSpaceOnUse">
<stop stop-color="#004BEF"/>
<stop offset="1" stop-color="#004BEF" stop-opacity="0"/>
</linearGradient>
</defs>
</svg>
