<svg width="295" height="92" viewBox="0 0 295 92" fill="none" xmlns="http://www.w3.org/2000/svg">
<g filter="url(#filter0_d_648_3414)">
<path d="M131.634 14.5556L124.977 3H7V14.5556V57.8889V69.4444H163.366L170.023 81H288V69.4444V26.1111V14.5556H131.634Z" fill="#1F324F"/>
<path opacity="0.2" d="M131.634 14.5556L124.977 3H7V14.5556V57.8889V69.4444H163.366L170.023 81H288V69.4444V26.1111V14.5556H131.634Z" fill="url(#paint0_linear_648_3414)"/>
<path d="M7 70.9444H162.499L168.724 81.7488L169.156 82.5H170.023H288H289.5V81V69.4444V26.1111V14.5556V13.0556H288H132.501L126.276 2.25119L125.844 1.5H124.977H7H5.5V3V14.5556V57.8889V69.4444V70.9444H7Z" stroke="url(#paint1_linear_648_3414)" stroke-width="3"/>
</g>
<defs>
<filter id="filter0_d_648_3414" x="0" y="0" width="295" height="92" filterUnits="userSpaceOnUse" color-interpolation-filters="sRGB">
<feFlood flood-opacity="0" result="BackgroundImageFix"/>
<feColorMatrix in="SourceAlpha" type="matrix" values="0 0 0 0 0 0 0 0 0 0 0 0 0 0 0 0 0 0 127 0" result="hardAlpha"/>
<feOffset dy="4"/>
<feGaussianBlur stdDeviation="2"/>
<feComposite in2="hardAlpha" operator="out"/>
<feColorMatrix type="matrix" values="0 0 0 0 0 0 0 0 0 0 0 0 0 0 0 0 0 0 0.25 0"/>
<feBlend mode="normal" in2="BackgroundImageFix" result="effect1_dropShadow_648_3414"/>
<feBlend mode="normal" in="SourceGraphic" in2="effect1_dropShadow_648_3414" result="shape"/>
</filter>
<linearGradient id="paint0_linear_648_3414" x1="147.5" y1="3" x2="147.5" y2="81" gradientUnits="userSpaceOnUse">
<stop stop-color="#F7D80E" stop-opacity="0"/>
<stop offset="1" stop-color="#F7D80E"/>
</linearGradient>
<linearGradient id="paint1_linear_648_3414" x1="147.5" y1="3" x2="147.5" y2="81" gradientUnits="userSpaceOnUse">
<stop stop-color="#F7D80E" stop-opacity="0"/>
<stop offset="1" stop-color="#F7D80E"/>
</linearGradient>
</defs>
</svg>
