<svg width="53" height="57" viewBox="0 0 53 57" fill="none" xmlns="http://www.w3.org/2000/svg">
<path d="M39.9096 8.45971C39.4933 7.0856 38.1025 3.07445 34.9851 2.29076C34.791 2.24178 34.5876 2.20471 34.3747 2.18221C34.2074 1.92274 33.055 0.195169 30.9843 0.0217504C30.6349 -0.00737339 29.4423 -0.107983 28.6231 0.609522C27.5309 1.56664 27.4238 3.69797 28.6351 5.6956C28.4237 5.65853 27.4117 5.501 26.7572 6.09406C25.9487 6.82613 25.9112 8.4928 27.0758 9.81926C28.3045 10.9088 29.5333 11.9982 30.7634 13.0864L39.9136 8.45838L39.9096 8.45971Z" fill="url(#paint0_radial_239_242)"/>
<path d="M0.00517654 9.0959C0.0917435 8.02505 1.00333 7.28532 1.26959 7.06852C2.85141 5.78481 4.85296 6.2368 5.14808 6.30776C5.31465 6.1803 5.48385 6.06731 5.65436 5.97008C8.39567 4.41045 12.1325 6.33535 13.3694 7.03567C16.0333 5.51152 18.6041 4.90317 20.2423 4.53396C21.95 4.14898 29.7005 2.58804 37.3591 6.73084C39.6715 7.9817 42.2593 9.38102 43.8516 12.3899C43.8516 12.3899 44.068 12.8077 44.253 13.2637C47.5006 21.2589 40.8651 37.0129 40.8651 37.0129C37.2568 45.581 35.452 49.8643 31.9473 51.6973C28.2406 53.6366 22.3855 54.3632 17.2138 52.8194C16.6563 52.6538 16.171 52.4843 16.0962 52.4567C16.0962 52.4567 13.9268 51.6671 12.084 50.34C10.7461 49.3769 8.18974 46.5914 6.5489 41.6576C3.36426 32.0856 5.15725 19.0318 5.4891 16.7311C5.40384 16.7337 5.3199 16.7377 5.23465 16.7403C3.50067 16.5826 2.38316 15.3633 2.45137 14.2898C2.50777 13.42 3.33015 12.8445 3.50591 12.7276C1.27877 12.1219 -0.108936 10.5241 0.0064888 9.0959H0.00517654Z" fill="url(#paint1_radial_239_242)"/>
<mask id="mask0_239_242" style="mask-type:luminance" maskUnits="userSpaceOnUse" x="15" y="35" width="26" height="21">
<path d="M40.5361 36.8482C38.4827 35.9652 34.4795 34.6452 29.7989 35.7628C19.0316 38.3318 15.2485 51.2674 15.0494 51.9867C20.5437 56.4622 27.8464 56.8232 33.3382 52.9444C38.1538 49.5439 40.8977 43.363 40.5361 36.8482Z" fill="white"/>
</mask>
<g mask="url(#mask0_239_242)">
<path d="M0.00517654 9.09688C0.0917435 8.02603 1.00333 7.28629 1.26959 7.06949C2.85141 5.78579 4.85296 6.23778 5.14808 6.30873C5.31465 6.18128 5.48385 6.06828 5.65436 5.97105C8.39567 4.41143 12.1325 6.33632 13.3694 7.03665C16.0333 5.51249 18.6041 4.90415 20.2423 4.53493C21.95 4.14995 29.7005 2.58901 37.3591 6.73182C39.6715 7.98267 42.2593 9.382 43.8516 12.3909C43.8516 12.3909 44.068 12.8087 44.253 13.2646C47.5006 21.2599 40.8651 37.0138 40.8651 37.0138C37.2568 45.5819 35.452 49.8653 31.9473 51.6982C28.2406 53.6376 22.3855 54.3642 17.2138 52.8203C16.6563 52.6548 16.171 52.4853 16.0962 52.4577C16.0962 52.4577 13.9268 51.668 12.084 50.341C10.7461 49.3779 8.18974 46.5923 6.5489 41.6586C3.36426 32.0866 5.15725 19.0328 5.4891 16.7321C5.40384 16.7347 5.3199 16.7387 5.23465 16.7413C3.50067 16.5836 2.38316 15.3643 2.45137 14.2908C2.50777 13.421 3.33015 12.8455 3.50591 12.7286C1.27877 12.1228 -0.108936 10.5251 0.0064888 9.09688H0.00517654Z" fill="#FDDA8F"/>
</g>
<path d="M41.0762 17.4373C40.2303 18.0482 38.819 18.8961 36.9396 19.2456C34.6889 19.6637 32.8344 19.3892 30.328 18.3679C29.4073 17.9926 26.9586 16.3266 24.2738 15.783C23.6876 15.6639 23.1852 15.6872 22.7472 15.8024C21.7032 16.0768 21.071 16.8069 20.7851 17.1434C19.6965 18.4223 16.6982 23.8045 19.4551 28.4606C20.9241 30.9407 23.2836 31.9607 24.4942 32.4837C24.4942 32.4837 28.5587 34.2402 35.6792 32.8099C36.975 32.5497 38.1738 32.1419 38.1738 32.1419C38.6118 31.9931 38.945 31.8623 39.0184 31.8326C40.9595 31.0391 42.0875 26.6795 42.1425 26.4594C42.6291 24.5152 44.1532 18.399 42.2645 17.4373C41.8461 17.225 41.3727 17.335 41.0776 17.436L41.0762 17.4373Z" fill="#005781"/>
<path d="M41.649 16.8362C40.7848 17.4458 39.3423 18.2928 37.4193 18.6365C35.1165 19.049 33.2184 18.7688 30.6506 17.7377C29.7067 17.3589 27.1963 15.6818 24.4457 15.1306C22.6821 14.7765 21.6664 15.652 20.8805 16.4847C19.6665 17.7701 16.8088 22.9869 19.3257 27.4903C20.4915 29.576 22.2813 30.554 23.5136 31.2271C27.1598 33.2194 30.6688 32.8342 36.1674 32.2298C37.6974 32.0624 38.6269 31.8705 39.5825 31.2596C41.4584 30.0572 42.0902 28.0882 42.7652 25.8832C43.6411 23.018 44.6176 17.7182 42.8644 16.8414C42.4362 16.6274 41.9506 16.7363 41.649 16.8362Z" fill="#FDDA8F"/>
<path d="M37.2953 28.5631L36.811 32.5639C36.7921 32.7184 36.6129 32.7706 36.526 32.6478C36.1052 32.2307 35.6288 31.6969 35.1556 31.0317C34.6803 30.3617 34.3241 29.7208 34.058 29.1699C34.0558 29.1663 34.0023 29.0897 34.0357 28.9985C34.0558 28.9437 34.0992 28.9012 34.1593 28.8902C34.3541 28.7078 34.8395 28.3029 35.5742 28.1752C36.3023 28.0475 36.8734 28.2615 37.1116 28.3673C37.1728 28.433 37.234 28.4974 37.2964 28.5631H37.2953Z" fill="#F36C21"/>
<path d="M21.4239 29.1945C19.4603 28.7896 18.0428 27.6161 18.2578 26.5733C18.4728 25.5306 20.2389 25.0135 22.2024 25.4183C24.166 25.8232 25.5835 26.9967 25.3685 28.0394C25.1535 29.0822 23.3875 29.5993 21.4239 29.1945Z" fill="#F36C21"/>
<g opacity="0.25">
<path fill-rule="evenodd" clip-rule="evenodd" d="M42.4387 21.5157C42.7716 22.3364 42.856 23.4001 42.5891 24.5068C42.3222 25.6135 41.7621 26.5218 41.0917 27.1005C40.4206 27.6797 39.667 27.9097 38.9775 27.7434C38.2879 27.5771 37.7221 27.0289 37.3888 26.2074C37.0558 25.3867 36.9714 24.323 37.2383 23.2163C37.5053 22.1096 38.0653 21.2013 38.7358 20.6226C39.4069 20.0434 40.1605 19.8134 40.85 19.9797C41.5395 20.146 42.1054 20.6942 42.4387 21.5157ZM43.1673 21.2201C42.7662 20.2313 42.0335 19.4563 41.0343 19.2153C40.0352 18.9743 39.0298 19.3302 38.222 20.0273C37.4136 20.725 36.775 21.7836 36.4739 23.0319C36.1729 24.2802 36.2587 25.5136 36.6602 26.503C37.0613 27.4918 37.794 28.2668 38.7931 28.5078C39.7922 28.7488 40.7977 28.3929 41.6054 27.6958C42.4138 26.9981 43.0524 25.9395 43.3535 24.6912C43.6546 23.4429 43.5687 22.2095 43.1673 21.2201Z" fill="#231F20"/>
<path fill-rule="evenodd" clip-rule="evenodd" d="M31.7662 21.2903C32.1496 22.2017 32.2514 23.3771 31.9576 24.5951C31.6639 25.8131 31.0374 26.8128 30.2808 27.4492C29.5239 28.0858 28.6614 28.3432 27.8607 28.1501C27.0601 27.957 26.4097 27.3347 26.0262 26.4231C25.6429 25.5117 25.541 24.3364 25.8348 23.1183C26.1286 21.9003 26.755 20.9006 27.5117 20.2642C28.2685 19.6276 29.1311 19.3702 29.9317 19.5633C30.7324 19.7564 31.3828 20.3787 31.7662 21.2903ZM32.491 20.9854C32.0362 19.9042 31.2173 19.0645 30.1161 18.7989C29.0149 18.5333 27.9032 18.9074 27.0055 19.6624C26.1077 20.4176 25.3995 21.5698 25.0704 22.934C24.7414 24.2982 24.8466 25.6466 25.3014 26.728C25.7562 27.8092 26.5752 28.6489 27.6764 28.9145C28.7776 29.1801 29.8893 28.806 30.7869 28.051C31.6847 27.2958 32.393 26.1437 32.722 24.7794C33.0511 23.4152 32.9459 22.0668 32.491 20.9854Z" fill="#231F20"/>
<path fill-rule="evenodd" clip-rule="evenodd" d="M34.8729 23.9665C35.6756 23.8894 36.3318 24.0613 36.7402 24.2108C36.9683 24.2943 37.209 24.1378 37.2779 23.8613C37.3467 23.5848 37.2177 23.2929 36.9896 23.2094C36.5122 23.0346 35.7448 22.8334 34.8046 22.9237L34.8043 22.9237C33.6205 23.0385 32.7416 23.5593 32.2755 23.8897C32.0699 24.0355 32.0006 24.3559 32.1209 24.6052C32.2411 24.8546 32.5054 24.9385 32.7111 24.7927C33.1106 24.5095 33.8624 24.0645 34.8729 23.9665Z" fill="#231F20"/>
<path fill-rule="evenodd" clip-rule="evenodd" d="M11.1537 15.3059C11.0707 15.5181 11.1645 15.762 11.3632 15.8506L25.6326 22.2151C25.8313 22.3037 26.0597 22.2035 26.1426 21.9913C26.2256 21.779 26.1318 21.5352 25.9331 21.4465L11.6637 15.0821C11.465 14.9934 11.2367 15.0936 11.1537 15.3059Z" fill="#231F20"/>
</g>
<path opacity="0.15" d="M29.4443 24.2101C28.3601 24.2101 27.4813 23.1848 27.4813 21.92C27.4813 20.6552 28.3601 19.6299 29.4443 19.6299C30.5284 19.6299 31.4072 20.6552 31.4072 21.92C31.4072 23.1848 30.5284 24.2101 29.4443 24.2101Z" fill="white"/>
<path opacity="0.2" d="M28.6891 19.0206C28.522 19.3965 27.6355 21.4817 28.5274 23.8051C29.259 25.7102 30.7331 26.588 31.1696 26.8274C33.1759 24.1475 33.1085 21.0634 31.6641 19.7453C30.6873 18.8533 29.2725 18.946 28.6891 19.0206Z" fill="white"/>
<path opacity="0.15" d="M40.5678 24.2101C39.4837 24.2101 38.6048 23.3313 38.6048 22.2471C38.6048 21.163 39.4837 20.2842 40.5678 20.2842C41.6519 20.2842 42.5308 21.163 42.5308 22.2471C42.5308 23.3313 41.6519 24.2101 40.5678 24.2101Z" fill="white"/>
<path opacity="0.2" d="M39.779 19.0125C39.6167 19.3849 38.7587 21.4546 39.6767 23.7818C40.431 25.6904 41.9108 26.5838 42.35 26.8274C44.3182 24.1795 44.2118 21.1031 42.7551 19.7714C41.7704 18.8696 40.36 18.9452 39.779 19.0125Z" fill="white"/>
<path d="M39.9577 28.769C39.846 27.9004 40.8873 27.0507 42.2835 26.8711C43.6798 26.6915 44.9023 27.25 45.014 28.1186C45.1257 28.9872 44.0844 29.837 42.6882 30.0166C41.2919 30.1962 40.0694 29.6377 39.9577 28.769Z" fill="#F36C21"/>
<path d="M16.341 15.0514C16.0034 15.5021 15.6075 15.8928 15.1819 16.222C14.7562 16.5513 14.2853 16.803 13.7963 16.9478C13.3072 17.0956 12.7988 17.1132 12.3111 17.0269C11.8233 16.9303 11.3602 16.7108 10.9501 16.4064L10.8078 16.3055L10.6667 16.4211C10.2786 16.7371 9.86721 17.0152 9.43511 17.2347C9.00429 17.4541 8.55149 17.618 8.09221 17.6927C7.63423 17.7731 7.16978 17.7439 6.74803 17.5917C6.54103 17.5039 6.3405 17.4 6.16585 17.2508C5.9899 17.103 5.83465 16.9215 5.7014 16.7181C5.61601 16.5879 5.4543 16.5615 5.33916 16.6566C5.22401 16.7532 5.20072 16.9361 5.28482 17.0664C5.44524 17.3107 5.63671 17.5346 5.85665 17.7205C6.07658 17.9078 6.32757 18.0409 6.58372 18.1463C7.10251 18.3351 7.64976 18.3614 8.16596 18.2721C8.68474 18.1858 9.18024 18.0058 9.64857 17.7673C10.1169 17.5288 10.5568 17.2303 10.9695 16.8952L10.6861 16.9098C11.1726 17.2112 11.7108 17.4102 12.2606 17.4673C12.8104 17.5156 13.3655 17.4424 13.8752 17.2376C14.3862 17.0356 14.8545 16.7283 15.2672 16.3523C15.6799 15.9762 16.05 15.546 16.3566 15.0646C16.3592 15.0602 16.3579 15.0543 16.354 15.0514C16.3501 15.0485 16.3449 15.0499 16.3423 15.0529L16.341 15.0514Z" fill="#005A87"/>
<path d="M46.0423 19.6299L39.9138 33.205L40.3326 33.3706L46.4543 19.7994L46.457 19.7943L46.0423 19.6299Z" fill="#F7D05E"/>
<path d="M46.5853 19.6352L40.5681 33.8037L41.0914 34.0249L47.1113 19.8511L46.588 19.6299L46.5853 19.6352Z" fill="#F7D80E"/>
<path d="M41.2224 33.8542L41.6083 34.0249L47.1113 20.4562L46.7218 20.2842L41.2224 33.8542Z" fill="#F7BB0E"/>
<path d="M45.8574 19.6299L45.8027 19.757L46.1796 19.9151L46.6635 20.1188L47.0578 20.2842L47.1113 20.157L45.8574 19.6299Z" fill="#7E9FAD"/>
<path d="M45.8181 19.6299L45.8027 19.6728L47.0947 20.2842L47.1113 20.2413L45.8181 19.6299Z" fill="#A3CEE0"/>
<path d="M45.8027 19.6314L47.1113 20.2842V20.2827L45.804 19.6299L45.8027 19.6314Z" fill="#A3CEE0"/>
<path d="M45.8219 19.6299L45.8027 19.6808L47.0909 20.2842L47.1113 20.2333L45.8219 19.6299Z" fill="#A3CEE0"/>
<path d="M45.8513 18.9756L45.8027 19.0905L47.0602 19.6299L47.1113 19.5086H47.1101L47.1076 19.515L45.8513 18.9756Z" fill="#7E9FAD"/>
<path d="M46.457 18.3213L45.8027 18.9756H45.8052L45.8103 18.9703L46.457 18.3213Z" fill="#EC89A8"/>
<path d="M45.8053 18.9756L45.8027 18.9832L47.1087 19.6299L47.1113 19.6223L45.8053 18.9756Z" fill="#7E9FAD"/>
<path d="M46.1946 18.3852L45.8027 19.1154L47.3401 19.6299L47.7656 18.8358L46.2282 18.3213L46.1946 18.3852Z" fill="#EC89A8"/>
<path d="M46.4855 18.5087L46.457 18.5611L47.706 18.9756L47.7345 18.9232C47.8188 18.7679 47.7259 18.5873 47.5276 18.5223L46.9972 18.3456C46.799 18.2796 46.5697 18.3524 46.4855 18.5087Z" fill="#EC89A8"/>
<path d="M47.7633 18.9756L47.1113 19.6299H47.1136L47.7656 18.9756H47.7633Z" fill="#A3CEE0"/>
<path fill-rule="evenodd" clip-rule="evenodd" d="M41.285 34.0249L47.1113 20.3095L47.0514 20.2842L41.2224 34.0057V34.0136H41.2581L41.285 34.0249Z" fill="#C49A6C"/>
<path fill-rule="evenodd" clip-rule="evenodd" d="M40.6312 33.3641L46.457 19.6552L46.3971 19.6299L40.5707 33.3401L40.5681 33.3465L40.6286 33.3706L40.631 33.3647L40.6312 33.3641Z" fill="#C49A6C"/>
<path fill-rule="evenodd" clip-rule="evenodd" d="M31.2206 44.5119C31.0774 44.452 30.9223 44.5482 30.8743 44.7268C30.6944 45.3953 30.1902 45.813 29.6768 45.7722C29.2398 45.7368 28.8386 45.3698 28.6634 44.8202C28.6076 44.6451 28.4486 44.5596 28.3082 44.6292C28.1678 44.6988 28.0992 44.8971 28.155 45.0721C28.4038 45.8526 28.9818 46.3996 29.6416 46.4529L29.6418 46.4529C30.4141 46.5144 31.1379 45.8918 31.393 44.9438C31.441 44.7652 31.3638 44.5718 31.2206 44.5119Z" fill="#005781"/>
<path fill-rule="evenodd" clip-rule="evenodd" d="M36.4098 47.114C36.26 47.095 36.1197 47.1788 36.0964 47.3012C36.0634 47.4743 35.9726 47.7177 35.7435 47.8524L35.7434 47.8525C35.5554 47.9631 35.2613 48.0073 34.9101 47.9387C34.5626 47.8709 34.1801 47.6951 33.8483 47.3959C33.7465 47.3041 33.5729 47.2972 33.4606 47.3804C33.3483 47.4636 33.3398 47.6055 33.4416 47.6973C33.8412 48.0576 34.3185 48.2846 34.7826 48.3752C35.2432 48.465 35.7127 48.4234 36.0641 48.2166M36.4098 47.114C36.5596 47.1331 36.6621 47.2478 36.6388 47.3702L36.4098 47.114ZM36.6388 47.3702C36.6004 47.5718 36.4799 47.9721 36.0641 48.2166L36.6388 47.3702Z" fill="#005781"/>
<path fill-rule="evenodd" clip-rule="evenodd" d="M32.5919 48.4627C32.4652 48.3837 32.295 48.4172 32.2119 48.5376L32.2117 48.5378C32.2029 48.5506 32.0817 48.726 31.8614 48.8946C31.6405 49.0636 31.3341 49.2156 30.9478 49.207M32.5919 48.4627C32.7186 48.5416 32.754 48.7032 32.6708 48.8235L32.5919 48.4627ZM32.6708 48.8235C32.6494 48.8545 32.4914 49.0818 32.2058 49.3004L32.6708 48.8235ZM32.2058 49.3004C31.9192 49.5197 31.4901 49.7404 30.935 49.7281L32.2058 49.3004ZM29.5326 48.7339C29.4212 48.8315 29.4141 48.9963 29.5169 49.1021C29.6068 49.1948 30.1134 49.7098 30.935 49.7281L30.935 49.7281M29.5326 48.7339C29.6441 48.6364 29.8177 48.6431 29.9205 48.7489L29.5326 48.7339ZM29.9205 48.7489C29.9925 48.823 30.3641 49.194 30.9478 49.207L29.9205 48.7489Z" fill="#005781"/>
<path fill-rule="evenodd" clip-rule="evenodd" d="M24.493 47.1113C24.3366 47.1113 24.2098 47.232 24.2098 47.3809C24.2098 48.0606 24.6168 48.6828 25.2556 48.9453L25.2559 48.9454C26.0198 49.2585 26.9441 48.9857 27.4331 48.2944C27.5205 48.1709 27.4861 48.0034 27.3565 47.9202C27.2268 47.837 27.0508 47.8697 26.9635 47.9932C26.6173 48.4826 25.9787 48.6546 25.4799 48.4502C25.0627 48.2787 24.7761 47.8604 24.7761 47.3809C24.7761 47.232 24.6493 47.1113 24.493 47.1113Z" fill="#005781"/>
<path fill-rule="evenodd" clip-rule="evenodd" d="M33.4629 44.5199C33.3642 44.5645 33.3409 44.6516 33.4108 44.7146C33.4732 44.7709 33.82 45.0768 34.4688 45.1381C34.9066 45.1796 35.2692 45.0895 35.5188 44.991C35.7666 44.8931 35.9159 44.7821 35.9398 44.763C36.0153 44.7028 36 44.6149 35.9057 44.5667C35.8113 44.5185 35.6736 44.5282 35.5981 44.5885C35.5981 44.5885 35.5981 44.5885 35.598 44.5885C35.5964 44.5897 35.5678 44.6116 35.5151 44.6429C35.4612 44.675 35.3844 44.7155 35.2885 44.7533C35.0963 44.8292 34.838 44.8907 34.533 44.8617L34.5328 44.8617C34.0721 44.8182 33.8171 44.5974 33.7679 44.5531C33.6981 44.4901 33.5615 44.4753 33.4629 44.5199Z" fill="#005781"/>
<path d="M43.3829 27.1425C43.3621 27.0459 43.3491 26.9465 43.3491 26.8458C43.3491 25.7516 44.575 24.8643 46.0868 24.8643C46.3026 24.8643 46.5106 24.8847 46.7108 24.9187C48.2643 24.8153 49.8112 25.7693 50.5236 27.0418C51.8808 29.467 50.4209 33.4315 47.6338 34.4236C45.7995 35.0769 43.2828 34.4794 42.2818 32.6054C41.1898 30.5626 42.5613 28.249 43.3842 27.1439L43.3829 27.1425Z" fill="url(#paint2_radial_239_242)"/>
<path d="M36.1622 55.5936C35.6818 55.4812 35.2027 54.838 34.7449 54.1111C33.8253 52.6508 34.0236 51.1775 34.0875 50.6519C34.2498 50.0009 34.8367 49.6009 35.4556 49.7656C36.101 49.9382 36.4883 50.6559 36.2434 51.3121C36.8569 50.1342 37.9229 49.7316 38.386 49.9996C38.7932 50.2349 38.9303 51.099 38.5777 52.0142C38.933 51.2363 39.8047 51.0193 40.2704 51.3239C40.6178 51.5501 40.6657 52.1567 40.3889 52.7358C40.0881 53.2365 39.6436 54.0654 38.4392 54.7805C37.5449 55.3125 36.6919 55.7191 36.1622 55.5949V55.5936Z" fill="#F36C21"/>
<path d="M48.4199 31.4072L47.3496 33.3702H39.2594L40.3616 31.4098L48.4199 31.4072Z" fill="#BCBEC0"/>
<path d="M24.8732 53.5392L34.9762 32.1085C34.9894 32.0798 35.0185 32.0615 35.0501 32.0615H52.5773C52.5971 32.0615 52.6143 32.0707 52.6275 32.0811C52.6275 32.0811 52.9866 32.4207 52.9998 32.4468C53.009 32.4651 52.7027 32.452 52.5258 32.4429L42.6446 53.6071C42.6314 53.6358 42.6023 53.6541 42.5706 53.6541H24.9458C24.8864 53.6541 24.8468 53.5927 24.8719 53.5392H24.8732Z" fill="#AE0303"/>
<path d="M52.9193 32.7158H35.5889C35.5575 32.7158 35.5288 32.7341 35.5158 32.7628L25.5261 54.1935C25.5013 54.247 25.5405 54.3084 25.5992 54.3084H43.0263C43.0576 54.3084 43.0863 54.2901 43.0994 54.2614L52.9924 32.8308C53.0172 32.7772 52.9781 32.7158 52.9193 32.7158Z" fill="#E30303"/>
<path d="M39.3828 27.8346C38.0144 27.6051 37.1431 25.9996 37.4368 24.2486C37.7304 22.4976 39.0778 21.2642 40.4462 21.4937C41.8145 21.7231 42.6858 23.3286 42.3921 25.0796C42.0985 26.8306 40.7512 28.064 39.3828 27.8346Z" fill="#1B64A6"/>
<path d="M39.6436 28.135C40.5471 28.1725 41.6474 27.0803 41.8469 25.3955C42.0346 23.8037 41.3084 22.3646 40.2603 22.2536C40.2355 22.2508 40.2094 22.2494 40.1834 22.248C39.2799 22.2105 38.1796 23.3027 37.9801 24.9875C37.7924 26.5793 38.5186 28.0184 39.5667 28.1295C39.5915 28.1322 39.6176 28.1336 39.6436 28.135Z" fill="#34282A"/>
<path d="M40.9464 27.0648C40.5906 27.0509 40.3146 26.719 40.33 26.3234C40.3454 25.9278 40.6464 25.6183 41.0022 25.6321C41.358 25.646 41.634 25.9779 41.6186 26.3735C41.6032 26.7692 41.3022 27.0786 40.9464 27.0648Z" fill="white"/>
<path d="M28.6603 28.265C27.2036 28.0787 26.2161 26.4162 26.4546 24.5517C26.6931 22.6872 28.0674 21.3268 29.5241 21.5132C30.9807 21.6995 31.9683 23.362 31.7298 25.2265C31.4912 27.091 30.117 28.4514 28.6603 28.265Z" fill="#1B64A6"/>
<path d="M29.2815 28.136C30.19 28.136 31.2557 27.0026 31.3931 25.315C31.5231 23.7203 30.7408 22.3164 29.685 22.2497C29.659 22.2484 29.633 22.2471 29.6083 22.2471C28.6998 22.2471 27.6341 23.3804 27.4954 25.068C27.3655 26.6628 28.1477 28.0667 29.2035 28.1333C29.2295 28.1347 29.2555 28.136 29.2803 28.136H29.2815Z" fill="#34282A"/>
<path d="M30.0986 27.4815C29.7372 27.4815 29.4443 27.1885 29.4443 26.8272C29.4443 26.4658 29.7372 26.1729 30.0986 26.1729C30.46 26.1729 30.7529 26.4658 30.7529 26.8272C30.7529 27.1885 30.46 27.4815 30.0986 27.4815Z" fill="white"/>
<path fill-rule="evenodd" clip-rule="evenodd" d="M32.2517 20.9993C32.6469 21.939 32.7494 23.1432 32.4497 24.3856C32.1501 25.628 31.51 26.6531 30.7298 27.3093C29.9495 27.9656 29.0454 28.2424 28.1947 28.0372C27.3439 27.8321 26.6654 27.1736 26.2701 26.2337C25.8748 25.2939 25.7724 24.0898 26.0721 22.8474C26.3717 21.605 27.0118 20.5799 27.792 19.9237C28.5723 19.2673 29.4764 18.9905 30.3271 19.1957C31.1779 19.4009 31.8564 20.0594 32.2517 20.9993ZM32.7349 20.796C32.292 19.7431 31.5011 18.9396 30.45 18.6861C29.3989 18.4326 28.3288 18.7872 27.4546 19.5225C26.5803 20.2579 25.8856 21.3846 25.5625 22.7245C25.2393 24.0643 25.344 25.3839 25.7869 26.4369C26.2298 27.4899 27.0206 28.2933 28.0718 28.5468C29.1229 28.8003 30.193 28.4458 31.0672 27.7105C31.9415 26.9751 32.6361 25.8483 32.9593 24.5085C33.2825 23.1686 33.1778 21.8491 32.7349 20.796Z" fill="#231F20"/>
<path fill-rule="evenodd" clip-rule="evenodd" d="M42.807 21.196C43.1393 22.0448 43.2159 23.1396 42.9421 24.2752C42.6682 25.4108 42.1009 26.3503 41.4182 26.9543C40.7347 27.559 39.9568 27.8125 39.2377 27.6391C38.5186 27.4656 37.9418 26.8854 37.6091 26.0356C37.2769 25.1868 37.2002 24.092 37.4741 22.9564C37.748 21.8208 38.3153 20.8813 38.998 20.2773C39.6814 19.6726 40.4593 19.4191 41.1784 19.5925C41.8976 19.766 42.4743 20.3462 42.807 21.196ZM43.2951 21.0049C42.9195 20.0454 42.2329 19.3076 41.3013 19.0829C40.3698 18.8583 39.4223 19.202 38.6506 19.8847C37.8781 20.5682 37.2604 21.6064 36.9645 22.8335C36.6685 24.0606 36.745 25.2662 37.121 26.2267C37.4966 27.1862 38.1833 27.924 39.1148 28.1487C40.0463 28.3733 40.9938 28.0296 41.7655 27.3469C42.538 26.6634 43.1557 25.6252 43.4517 24.3981C43.7476 23.171 43.6711 21.9654 43.2951 21.0049Z" fill="#231F20"/>
<path fill-rule="evenodd" clip-rule="evenodd" d="M35.1752 23.4826C35.9396 23.4183 36.5643 23.5616 36.9531 23.6863C37.0938 23.7314 37.2424 23.6468 37.2849 23.4974C37.3275 23.3479 37.2478 23.1902 37.107 23.145C36.6756 23.0068 35.9823 22.8476 35.133 22.919L35.1328 22.919C34.0635 23.0098 33.2694 23.4218 32.8481 23.6833C32.7211 23.7621 32.6784 23.9352 32.7526 24.07C32.8268 24.2047 32.9899 24.2501 33.1169 24.1713C33.4971 23.9353 34.2128 23.5643 35.1752 23.4826Z" fill="#231F20"/>
<path fill-rule="evenodd" clip-rule="evenodd" d="M11.7983 15.2112C11.742 15.345 11.8056 15.4987 11.9404 15.5546L26.4606 21.5727C26.5954 21.6285 26.7504 21.5654 26.8067 21.4316C26.8629 21.2978 26.7993 21.1441 26.6645 21.0882L12.1443 15.0701C12.0095 15.0143 11.8546 15.0774 11.7983 15.2112Z" fill="#231F20"/>
<path d="M15.4045 30.0986C17.8761 32.1692 21.8333 34.9946 27.2643 37.033C32.6468 39.0525 37.3934 39.5166 40.5586 39.5731C40.5756 40.4786 40.6347 43.2219 39.9764 44.4813C38.0844 48.1032 33.1883 48.6346 30.2984 48.9467C21.5107 49.8993 14.0867 45.2751 10.4691 42.6286" fill="url(#paint3_linear_239_242)"/>
<path d="M14.8571 30.0986C17.3821 32.0978 21.4258 34.8258 26.9752 36.7939C32.475 38.7437 37.3243 39.1919 40.5585 39.2464C40.5755 40.1207 40.6367 42.7694 39.9641 43.9853C38.0309 47.4823 33.029 47.9954 30.0764 48.2968C21.0986 49.2165 13.5118 44.7517 9.81479 42.1965L14.8571 30.0986Z" fill="url(#paint4_radial_239_242)"/>
<path d="M23.8415 56.9259C24.4228 56.9144 25.138 56.3327 25.8504 55.6553C27.2793 54.2966 27.4229 52.6688 27.4814 52.0896C27.4591 51.3548 26.8834 50.791 26.1278 50.8267C25.3401 50.865 24.7128 51.5487 24.8299 52.3078C24.4186 50.9045 23.2922 50.2297 22.69 50.4121C22.1616 50.5715 21.7852 51.4697 21.9609 52.531C21.7476 51.6151 20.7968 51.1839 20.1834 51.4059C19.7262 51.5704 19.5171 52.2108 19.6899 52.8959C19.9102 53.5019 20.2127 54.4918 21.4214 55.5341C22.3178 56.3084 23.1988 56.9373 23.8415 56.9259Z" fill="#F36C21"/>
<path fill-rule="evenodd" clip-rule="evenodd" d="M13.5051 31.4902C13.4049 31.3822 13.2395 31.3792 13.1358 31.4836C12.2732 32.3507 12.2013 33.7623 12.9336 34.6779L13.1344 34.504L12.9336 34.6779C13.6215 35.5379 14.8404 35.7408 15.7826 35.1853C15.8718 35.9333 16.2118 37.3222 17.4921 38.2153M13.5051 31.4902C13.6053 31.5982 13.6025 31.7703 13.4987 31.8747L13.5051 31.4902ZM13.4987 31.8747C12.8279 32.5491 12.7823 33.6388 13.3351 34.33L13.4987 31.8747ZM16.286 34.0579L15.8382 34.4772C15.0866 35.1811 13.9331 35.0776 13.3351 34.33M16.286 34.0579L16.2741 34.6847L16.286 34.0579ZM16.2741 34.6847C16.2716 34.8133 16.2662 36.7057 17.7831 37.7637L16.2741 34.6847ZM21.9751 37.5425L21.4447 37.8615C20.2876 38.5576 18.8616 38.5171 17.7832 37.7638L17.7831 37.7637M21.9751 37.5425L21.8291 38.1617L21.9751 37.5425ZM21.2425 38.5718C21.1801 39.6162 21.639 40.6248 22.4641 41.1728L22.4641 41.1728C23.523 41.8758 24.9754 41.6833 25.9116 40.7079C26.4812 41.4641 28.0083 43.1884 30.588 43.6997L30.588 43.6997C33.7636 44.329 36.1246 42.6441 36.5322 42.3424C36.6498 42.2554 36.6773 42.0857 36.5937 41.9633C36.5102 41.8409 36.3471 41.8122 36.2295 41.8992C35.8509 42.1794 33.6432 43.7516 30.6857 43.1656C27.9143 42.6162 26.4412 40.5591 26.1428 40.1215L25.9417 39.8264L25.7253 40.1096C24.9679 41.1013 23.6537 41.3176 22.7451 40.7144M21.2425 38.5718C20.0133 39.1088 18.5991 38.9885 17.4922 38.2154L21.2425 38.5718ZM21.8291 38.1617C21.59 39.1757 21.9802 40.2064 22.7451 40.7143L21.8291 38.1617Z" fill="#005781"/>
<path fill-rule="evenodd" clip-rule="evenodd" d="M11.8957 36.7445C11.8058 36.6282 11.6394 36.6074 11.5241 36.698C10.9332 37.1624 10.4648 37.6871 10.1696 38.1757C10.0222 38.4197 9.91349 38.6621 9.85751 38.8894C9.80221 39.1138 9.79294 39.3463 9.87486 39.5518C9.96614 39.7817 10.1578 39.9461 10.3861 40.0516C10.6151 40.1575 10.8983 40.2134 11.2135 40.2204C11.6824 40.2308 12.2444 40.1336 12.8546 39.9033C12.7811 40.1099 12.7271 40.3167 12.6962 40.5168C12.6331 40.9264 12.6625 41.3445 12.8673 41.6671C13.1568 42.1234 13.7499 42.328 14.3932 42.2737C14.8938 42.2315 15.4517 42.0338 15.999 41.6492C16.0002 42.0554 16.0759 42.5661 16.3723 43.0122C17.0385 44.0155 18.4861 44.2493 19.8293 43.567C19.9847 43.924 20.2916 44.4452 20.863 44.7932C21.5457 45.2092 22.2622 45.1698 22.7965 45.0328C23.1291 44.9475 23.4023 44.8219 23.5725 44.7317C23.7864 44.9305 24.0881 45.1698 24.4812 45.3715L24.4813 45.3715C25.6884 45.9901 26.8685 45.796 27.606 45.6746L27.6216 45.6721L27.6217 45.6721C28.1699 45.5818 28.9997 45.3794 29.9575 44.8688C30.0868 44.7999 30.1362 44.6384 30.0679 44.508C29.9995 44.3776 29.8393 44.3278 29.71 44.3967C28.8142 44.8742 28.042 45.0617 27.5363 45.145C26.7951 45.2669 25.767 45.4313 24.7212 44.8954C24.2938 44.6761 23.9893 44.4042 23.802 44.2129L23.6499 44.0574L23.4687 44.1769C23.4478 44.1907 23.1221 44.3982 22.666 44.5152C22.211 44.6318 21.6551 44.6518 21.1369 44.3361L21.1368 44.3361C20.5334 43.9686 20.2952 43.339 20.2209 43.1033L20.1191 42.7798L19.8313 42.9557C18.5648 43.7298 17.313 43.469 16.8124 42.715L16.8123 42.715C16.4299 42.1394 16.5276 41.3759 16.5788 41.093L16.7221 40.3L16.1376 40.8498C15.5135 41.437 14.8692 41.6976 14.349 41.7415C13.8177 41.7863 13.4583 41.6077 13.3134 41.3792L13.3133 41.3791C13.207 41.2116 13.1662 40.9455 13.2196 40.5987C13.2721 40.258 13.4109 39.8742 13.6162 39.5073L14.0458 38.7396L13.2659 39.1379C12.4678 39.5454 11.7531 39.6981 11.2251 39.6864C10.9606 39.6806 10.753 39.6337 10.6068 39.5661C10.4602 39.4983 10.3924 39.4187 10.3665 39.3531L10.3662 39.3526C10.3409 39.2891 10.3313 39.1811 10.3715 39.0182C10.4109 38.858 10.4935 38.6661 10.6219 38.4536C10.8785 38.0288 11.3006 37.5508 11.8496 37.1193C11.965 37.0286 11.9856 36.8608 11.8957 36.7445Z" fill="#005781"/>
<path d="M48.4199 32.0615L47.4261 34.0245H39.9137L40.9372 32.0654L48.4199 32.0615Z" fill="#E6E7E8"/>
<path d="M48.0619 31.4072L48.4199 31.8146L40.6937 31.819L40.2678 32.7159L39.9137 32.2997L40.3357 31.4102L48.0619 31.4072Z" fill="#BCBEC0"/>
<path d="M41.2222 31.817L40.6214 31.4072L39.9135 32.2987L40.5076 32.7159L41.2222 31.817Z" fill="#D1D3D4"/>
<defs>
<radialGradient id="paint0_radial_239_242" cx="0" cy="0" r="1" gradientUnits="userSpaceOnUse" gradientTransform="translate(39.3251 13.001) rotate(-149.786) scale(11.1425 11.0824)">
<stop stop-color="#359BDC"/>
<stop offset="0.34" stop-color="#277FC5"/>
<stop offset="0.96" stop-color="#2174BB"/>
</radialGradient>
<radialGradient id="paint1_radial_239_242" cx="0" cy="0" r="1" gradientUnits="userSpaceOnUse" gradientTransform="translate(10.8996 2.13605) rotate(180) scale(69.0678 69.1886)">
<stop offset="0.05" stop-color="#359BDC"/>
<stop offset="0.93" stop-color="#2174BB"/>
</radialGradient>
<radialGradient id="paint2_radial_239_242" cx="0" cy="0" r="1" gradientUnits="userSpaceOnUse" gradientTransform="translate(42.82 23.472) rotate(180) scale(13.3078 13.9321)">
<stop stop-color="#359BDC"/>
<stop offset="1" stop-color="#2174BB"/>
</radialGradient>
<linearGradient id="paint3_linear_239_242" x1="40.5691" y1="39.5866" x2="10.4704" y2="39.5866" gradientUnits="userSpaceOnUse">
<stop stop-color="#005A87"/>
<stop offset="0.99" stop-color="#005A87"/>
</linearGradient>
<radialGradient id="paint4_radial_239_242" cx="0" cy="0" r="1" gradientUnits="userSpaceOnUse" gradientTransform="translate(25.2724 32.5018) rotate(180) scale(26.4442 25.8352)">
<stop stop-color="#359BDC"/>
<stop offset="0.93" stop-color="#2174BB"/>
</radialGradient>
</defs>
</svg>
