<svg width="138" height="148" viewBox="0 0 138 148" fill="none" xmlns="http://www.w3.org/2000/svg">
<path d="M34.1879 21.7138C35.2447 18.1869 38.7751 7.89131 46.6887 5.87977C47.1814 5.75405 47.6979 5.65891 48.2381 5.60115C48.6628 4.93517 51.5884 0.500948 56.8449 0.0558276C57.7318 -0.0189256 60.7593 -0.277164 62.8388 1.56448C65.6114 4.02114 65.8832 9.49171 62.8082 14.6191C63.345 14.524 65.9138 14.1196 67.5754 15.6419C69.6277 17.5209 69.7228 21.7988 66.7667 25.2035C63.6474 27.9999 60.5282 30.7963 57.4056 33.5894L34.1777 21.7104L34.1879 21.7138Z" fill="url(#paint0_radial_887_13394)"/>
<path d="M137.776 23.6544C137.551 20.8851 135.19 18.9721 134.5 18.4114C130.402 15.0917 125.217 16.2606 124.453 16.4441C124.021 16.1145 123.583 15.8223 123.141 15.5708C116.039 11.5376 106.359 16.5154 103.155 18.3265C96.2537 14.385 89.5939 12.8118 85.3499 11.857C80.9259 10.8614 60.8479 6.82471 41.0077 17.5382C35.0173 20.773 28.3133 24.3917 24.1883 32.1728C24.1883 32.1728 23.6276 33.2533 23.1485 34.4324C14.7354 55.1084 31.9252 95.8489 31.9252 95.8489C41.2728 118.006 45.9482 129.083 55.0273 133.823C64.6297 138.839 79.7978 140.718 93.1956 136.725C94.6397 136.297 95.8969 135.859 96.0906 135.787C96.0906 135.787 101.711 133.745 106.485 130.313C109.95 127.823 116.573 120.619 120.824 107.86C129.074 83.1069 124.429 49.349 123.569 43.3994C123.79 43.4062 124.007 43.4164 124.228 43.4231C128.72 43.0154 131.615 39.8622 131.439 37.0861C131.292 34.8367 129.162 33.3485 128.707 33.0461C134.476 31.4796 138.071 27.3478 137.772 23.6544H137.776Z" fill="url(#paint1_radial_887_13394)"/>
<mask id="mask0_887_13394" style="mask-type:luminance" maskUnits="userSpaceOnUse" x="31" y="91" width="67" height="54">
<path d="M31.6899 95.1866C37.0143 92.8591 47.3948 89.3796 59.532 92.3256C87.4523 99.0975 97.2619 133.195 97.7784 135.091C83.5312 146.889 64.5948 147.84 50.3544 137.616C37.8672 128.652 30.7521 112.359 31.6899 95.1866Z" fill="white"/>
</mask>
<g mask="url(#mask0_887_13394)">
<path d="M137.776 23.6544C137.551 20.8851 135.19 18.9721 134.5 18.4114C130.402 15.0917 125.217 16.2606 124.453 16.4441C124.021 16.1145 123.583 15.8223 123.141 15.5708C116.039 11.5376 106.359 16.5154 103.155 18.3265C96.2537 14.385 89.5939 12.8118 85.3499 11.857C80.9259 10.8614 60.8479 6.82471 41.0077 17.5382C35.0173 20.773 28.3133 24.3917 24.1883 32.1728C24.1883 32.1728 23.6276 33.2533 23.1485 34.4324C14.7354 55.1084 31.9252 95.8489 31.9252 95.8489C41.2728 118.006 45.9482 129.083 55.0273 133.823C64.6297 138.839 79.7978 140.718 93.1956 136.725C94.6397 136.297 95.8969 135.859 96.0906 135.787C96.0906 135.787 101.711 133.745 106.485 130.313C109.95 127.823 116.573 120.619 120.824 107.86C129.074 83.1069 124.429 49.349 123.569 43.3994C123.79 43.4062 124.007 43.4164 124.228 43.4231C128.72 43.0154 131.615 39.8622 131.439 37.0861C131.292 34.8367 129.162 33.3485 128.707 33.0461C134.476 31.4796 138.071 27.3478 137.772 23.6544H137.776Z" fill="#FDDA8F"/>
</g>
<path d="M30.8754 45.1247C33.0671 46.7285 36.7232 48.9541 41.5923 49.8715C47.4231 50.9691 52.2276 50.2487 58.721 47.5678C61.1063 46.5824 67.4501 42.2094 74.4055 40.7822C75.9244 40.4696 77.2258 40.5308 78.3606 40.8332C81.0653 41.5536 82.7031 43.47 83.4439 44.3534C86.2641 47.7105 94.0316 61.8388 86.8893 74.061C83.0837 80.5713 76.9709 83.2488 73.8347 84.6215C73.8347 84.6215 63.3047 89.2325 44.8577 85.4778C41.5006 84.7948 38.3949 83.7245 38.3949 83.7245C37.26 83.3338 36.397 82.9906 36.2067 82.9124C31.1778 80.8295 28.2557 69.3855 28.113 68.8079C26.8524 63.7043 22.904 47.6493 27.797 45.1247C28.8809 44.5675 30.1075 44.8563 30.872 45.1213L30.8754 45.1247Z" fill="#005781"/>
<path d="M29.0351 42.9913C31.2845 44.5883 35.0391 46.8071 40.0442 47.7076C46.038 48.7881 50.9785 48.0542 57.6621 45.3529C60.1188 44.3607 66.6529 39.9672 73.8122 38.5231C78.4027 37.5955 81.0463 39.8891 83.0918 42.0705C86.2518 45.4378 93.6898 59.104 87.1387 70.9014C84.1044 76.3652 79.4459 78.9272 76.2383 80.6907C66.748 85.9098 57.6146 84.9006 43.3028 83.3172C39.3205 82.8789 36.9012 82.376 34.4139 80.7756C29.5312 77.6258 27.8866 72.4678 26.1299 66.6915C23.85 59.1856 21.3083 45.3019 25.8717 43.0049C26.9862 42.4443 28.2502 42.7297 29.0351 42.9913Z" fill="#FDDA8F"/>
<path d="M40.0503 74.0516L41.5283 85.2306C41.5861 85.6621 42.1332 85.8082 42.3982 85.465C43.6826 84.2995 45.1369 82.8079 46.581 80.9492C48.0319 79.077 49.1192 77.2863 49.9313 75.7471C49.9381 75.7369 50.1012 75.5228 49.9992 75.268C49.9381 75.1151 49.8056 74.9962 49.6221 74.9656C49.0274 74.4559 47.546 73.3244 45.3034 72.9677C43.0812 72.6109 41.3381 73.2089 40.6109 73.5045C40.424 73.688 40.2372 73.8681 40.0469 74.0516H40.0503Z" fill="#F36C21"/>
<path d="M81.8696 75.6927C86.9607 74.643 90.636 71.6004 90.0785 68.8968C89.5211 66.1932 84.9421 64.8524 79.851 65.9021C74.7599 66.9518 71.0847 69.9944 71.6421 72.698C72.1996 75.4016 76.7786 76.7424 81.8696 75.6927Z" fill="#F36C21"/>
<g opacity="0.25">
<path d="M35.2148 74.1095C30.801 74.1095 26.4347 69.9403 25.0076 64.0212C24.2465 60.8612 24.4164 57.6672 25.4901 55.0203C26.6114 52.2578 28.5754 50.4128 31.0218 49.8215C35.9386 48.6357 41.2426 53.0767 42.8464 59.7195C43.6075 62.8795 43.4376 66.0735 42.3639 68.7205C41.2426 71.483 39.2787 73.328 36.8322 73.9192C36.2953 74.0483 35.7551 74.1095 35.2148 74.1095ZM32.6732 51.6666C32.2791 51.6666 31.8883 51.7108 31.4975 51.8059C29.7069 52.2374 28.2458 53.6509 27.3793 55.7882C26.4653 58.041 26.326 60.7967 26.9886 63.5455C28.3273 69.0942 32.5271 72.8591 36.3531 71.9383C38.1438 71.5067 39.6049 70.0932 40.4713 67.956C41.3853 65.7032 41.5247 62.9475 40.8621 60.1986C39.6592 55.214 36.1458 51.6666 32.6732 51.6666Z" fill="#231F20"/>
<path d="M63.7837 75.1934C61.66 75.1934 59.5126 74.3507 57.5894 72.7333C55.1837 70.7116 53.4032 67.6977 52.5707 64.2488C50.8276 57.0182 53.8585 50.0627 59.3291 48.741C64.7996 47.4226 70.6678 52.234 72.4109 59.4646C73.2433 62.9135 73.0293 66.4065 71.8128 69.3015C70.5488 72.3052 68.364 74.3167 65.6559 74.9691C65.0375 75.1186 64.4123 75.1934 63.7837 75.1934ZM61.1945 50.5588C60.729 50.5588 60.2669 50.6132 59.8082 50.7219C55.4317 51.7787 53.0736 57.6298 54.5551 63.7697C55.2856 66.7972 56.8282 69.4272 58.9009 71.1703C60.8853 72.8386 63.1143 73.4842 65.1768 72.9881C67.2393 72.4921 68.9281 70.9019 69.9338 68.5098C70.9838 66.0123 71.1604 62.9678 70.4299 59.9403C69.1047 54.446 65.1496 50.5588 61.1945 50.5588Z" fill="#231F20"/>
<path d="M52.5712 63.6306C52.3979 63.6306 52.2213 63.5864 52.0582 63.4913C50.4985 62.5807 48.7316 62.0234 46.9512 61.8807C45.4629 61.7618 43.978 61.9215 42.5373 62.3564C41.9971 62.5195 41.4296 62.2137 41.2665 61.6734C41.1034 61.1332 41.4092 60.5657 41.9495 60.4026C43.6348 59.8963 45.3712 59.7061 47.1143 59.8488C49.2006 60.0153 51.2665 60.6643 53.0877 61.7312C53.5736 62.0166 53.7367 62.6384 53.4547 63.1243C53.2644 63.4505 52.9246 63.6306 52.5746 63.6306H52.5712Z" fill="#231F20"/>
<path d="M70.2296 57.3751C69.832 57.3751 69.4515 57.1406 69.2884 56.7499C69.0709 56.23 69.3155 55.632 69.8354 55.4179L107.141 39.8387C107.66 39.6246 108.259 39.8659 108.473 40.3857C108.69 40.9056 108.445 41.5036 107.926 41.7177L70.6203 57.2969C70.4912 57.3513 70.3587 57.3751 70.2262 57.3751H70.2296Z" fill="#231F20"/>
</g>
<path opacity="0.15" d="M60.6212 62.0325C63.5262 62.0325 65.8811 59.6776 65.8811 56.7726C65.8811 53.8676 63.5262 51.5127 60.6212 51.5127C57.7163 51.5127 55.3613 53.8676 55.3613 56.7726C55.3613 59.6776 57.7163 62.0325 60.6212 62.0325Z" fill="white"/>
<path opacity="0.2" d="M62.4048 49.6336C62.8261 50.6257 65.0619 56.1303 62.8125 62.2634C60.9675 67.2923 57.2502 69.6096 56.1493 70.2416C51.0899 63.1673 51.2598 55.026 54.9023 51.5466C57.3657 49.1918 60.9335 49.4365 62.4048 49.6336Z" fill="white"/>
<path opacity="0.15" d="M32.1125 61.9847C34.7397 61.9847 36.8695 59.8549 36.8695 57.2277C36.8695 54.6005 34.7397 52.4707 32.1125 52.4707C29.4853 52.4707 27.3555 54.6005 27.3555 57.2277C27.3555 59.8549 29.4853 61.9847 32.1125 61.9847Z" fill="white"/>
<path opacity="0.2" d="M34.5175 50.0524C34.9219 50.9562 37.0591 55.9783 34.7724 61.6255C32.8933 66.2568 29.2067 68.4247 28.1125 69.0159C23.2094 62.5905 23.4745 55.1254 27.1034 51.894C29.5566 49.7058 33.07 49.8893 34.5175 50.0524Z" fill="white"/>
<path d="M33.8159 74.591C34.1056 72.3388 31.4057 70.1356 27.7856 69.67C24.1654 69.2043 20.9959 70.6525 20.7062 72.9046C20.4165 75.1567 23.1163 77.3599 26.7365 77.8256C30.3566 78.2913 33.5262 76.8431 33.8159 74.591Z" fill="#F36C21"/>
<path d="M95.0931 39.1482C95.98 40.1948 97.0197 41.102 98.1376 41.8665C99.2555 42.6311 100.492 43.2155 101.777 43.5519C103.061 43.8951 104.397 43.9358 105.678 43.7354C106.958 43.5111 108.175 43.0014 109.252 42.2947L109.626 42.0602L109.996 42.3286C111.016 43.0626 112.096 43.7082 113.231 44.2179C114.362 44.7275 115.552 45.1081 116.758 45.2814C117.961 45.4683 119.181 45.4003 120.288 45.0469C120.832 44.8431 121.359 44.6018 121.817 44.2552C122.279 43.912 122.687 43.4907 123.037 43.0184C123.261 42.716 123.686 42.6548 123.989 42.8757C124.291 43.1 124.352 43.5247 124.131 43.8271C123.71 44.3945 123.207 44.9144 122.629 45.3459C122.052 45.7809 121.393 46.0901 120.72 46.3347C119.357 46.7731 117.92 46.8342 116.564 46.6269C115.202 46.4265 113.9 46.0085 112.67 45.4547C111.44 44.9008 110.285 44.2077 109.201 43.4295L109.945 43.4635C108.668 44.1635 107.254 44.6256 105.81 44.7581C104.366 44.8702 102.908 44.7004 101.569 44.2246C100.227 43.7557 98.9973 43.0422 97.9134 42.1689C96.8295 41.2957 95.8577 40.2967 95.0524 39.1788C95.0456 39.1686 95.049 39.155 95.0592 39.1482C95.0694 39.1414 95.0829 39.1448 95.0897 39.1516L95.0931 39.1482Z" fill="#005A87"/>
<path d="M18.3245 50.8604L33.5401 86.7792L32.5004 87.2175L17.3017 51.3089L17.2949 51.2953L18.3245 50.8604Z" fill="#F7D05E"/>
<path d="M17.3012 51.3095L32.4999 87.2182L31.1781 87.7788L15.9727 51.8565L17.2944 51.2959L17.3012 51.3095Z" fill="#F7D80E"/>
<path d="M31.1791 87.7787L30.1121 88.2306L14.8965 52.3118L15.9736 51.8564L31.1791 87.7787Z" fill="#F7BB0E"/>
<path d="M18.1751 50.5107L18.3246 50.8607L17.295 51.2957L15.9732 51.8563L14.8961 52.3116L14.75 51.9616L18.1751 50.5107Z" fill="#7E9FAD"/>
<path d="M18.1335 50.4082L18.1743 50.5101L14.7493 51.961L14.7051 51.8591L18.1335 50.4082Z" fill="#A3CEE0"/>
<path d="M18.1335 50.4087L14.7051 51.8596V51.8562L18.1301 50.4053L18.1335 50.4087Z" fill="#A3CEE0"/>
<path d="M18.0788 50.2832L18.1298 50.4055L14.7048 51.8564L14.6504 51.7341L18.0788 50.2832Z" fill="#A3CEE0"/>
<path d="M17.947 49.9736L18.0795 50.2828L14.651 51.7337L14.5117 51.4075H14.5151L14.5219 51.4245L17.947 49.9736Z" fill="#7E9FAD"/>
<path d="M17.0664 47.8975L17.9499 49.9736H17.9465L17.9397 49.9566L17.0664 47.8975Z" fill="#EC89A8"/>
<path d="M17.9407 49.957L17.9475 49.974L14.5224 51.4249L14.5156 51.4079L17.9407 49.957Z" fill="#7E9FAD"/>
<path d="M17.0662 47.8979L17.9395 49.957L14.5144 51.4079L13.5664 49.1687L16.9915 47.7178L17.0662 47.8979Z" fill="#EC89A8"/>
<path d="M16.9146 47.534L16.9928 47.7175L13.5677 49.1684L13.4896 48.9849C13.2585 48.4412 13.5133 47.8092 14.057 47.5816L15.5113 46.9631C16.055 46.7321 16.6836 46.9869 16.9146 47.534Z" fill="#EC89A8"/>
<path d="M14.7493 51.9613L14.8954 52.3113L14.7051 51.8594L14.7493 51.9613Z" fill="#F7BB0E"/>
<path d="M14.6504 51.7334L14.7048 51.8557V51.8591L14.6504 51.7334Z" fill="#EC89A8"/>
<path d="M13.5679 49.1689L14.5159 51.4081H14.5125L13.5645 49.1689H13.5679Z" fill="#A3CEE0"/>
<path d="M15.9727 51.8564L31.1781 87.7787V87.7821" stroke="#C49A6C" stroke-width="0.5" stroke-miterlimit="10"/>
<path d="M17.3008 51.3096L32.4994 87.2182L32.5062 87.2352" stroke="#C49A6C" stroke-width="0.5" stroke-miterlimit="10"/>
<path d="M60.3286 119.675C58.5074 119.675 56.8526 118.468 56.2444 116.661C56.1255 116.304 56.3157 115.92 56.6725 115.801C57.0293 115.682 57.4132 115.872 57.5322 116.229C57.9739 117.541 59.2005 118.397 60.5087 118.312C61.6096 118.241 62.595 117.497 63.0265 116.416C63.1658 116.066 63.56 115.896 63.91 116.035C64.26 116.175 64.4298 116.569 64.2905 116.919C63.6687 118.482 62.2178 119.562 60.597 119.668C60.5053 119.675 60.417 119.678 60.3286 119.678V119.675Z" fill="#005781"/>
<path d="M45.6494 126.226C44.8951 126.226 44.1917 126.029 43.6175 125.614C42.6695 124.931 42.3195 123.844 42.1938 123.052C42.136 122.682 42.3875 122.332 42.7578 122.274C43.1282 122.216 43.4782 122.468 43.536 122.838C43.6209 123.375 43.8418 124.099 44.4092 124.51C45.4116 125.23 47.4911 124.904 49.1017 123.127C49.3531 122.848 49.7812 122.828 50.0633 123.079C50.3419 123.331 50.3623 123.762 50.1108 124.041C48.8332 125.451 47.1445 126.226 45.6528 126.226H45.6494Z" fill="#005781"/>
<path d="M57.1691 128.353C54.5052 128.353 53.0373 126.083 52.9762 125.984C52.7757 125.668 52.8708 125.247 53.1868 125.046C53.5028 124.846 53.9242 124.941 54.1247 125.257C54.1348 125.274 55.2494 126.993 57.1725 126.993C57.1963 126.993 57.2235 126.993 57.2473 126.993C58.6268 126.959 59.5409 126.073 59.7889 125.801C60.0403 125.522 60.4719 125.502 60.7505 125.757C61.0291 126.008 61.0495 126.44 60.7947 126.718C60.3597 127.197 59.1467 128.312 57.2813 128.356C57.2439 128.356 57.2065 128.356 57.1691 128.356V128.353Z" fill="#005781"/>
<path d="M69.7362 126.912C68.3397 126.912 66.9602 126.201 66.1141 124.941C65.9034 124.628 65.9884 124.207 66.2976 123.996C66.6102 123.789 67.0315 123.87 67.2422 124.18C68.0407 125.369 69.5731 125.862 70.8032 125.332C71.8293 124.89 72.4919 123.83 72.4919 122.634C72.4919 122.26 72.7977 121.954 73.1715 121.954C73.5452 121.954 73.8511 122.26 73.8511 122.634C73.8511 124.373 72.8657 125.923 71.34 126.579C70.8235 126.803 70.2765 126.908 69.7362 126.908V126.912Z" fill="#005781"/>
<path d="M47.5698 117.754C45.249 117.754 43.754 115.97 43.686 115.885C43.4481 115.596 43.4889 115.168 43.7777 114.93C44.0666 114.693 44.4947 114.733 44.7359 115.022C44.7495 115.039 46.1053 116.65 48.0489 116.358C49.4182 116.154 50.2133 115.158 50.424 114.859C50.6414 114.553 51.0628 114.479 51.372 114.696C51.6778 114.913 51.7525 115.335 51.5351 115.644C51.1647 116.171 50.1012 117.428 48.2493 117.703C48.0149 117.737 47.7906 117.754 47.5698 117.754Z" fill="#005781"/>
<path d="M24.4774 70.9488C24.5317 70.7075 24.5657 70.4595 24.5657 70.208C24.5657 67.4762 21.3615 65.2607 17.4098 65.2607C16.8458 65.2607 16.3021 65.3117 15.7788 65.3967C11.7184 65.1384 7.67491 67.5203 5.81288 70.6973C2.26551 76.7523 6.08131 86.6503 13.3663 89.1274C18.1607 90.7583 24.739 89.2667 27.3554 84.5878C30.2096 79.4876 26.6248 73.7112 24.474 70.9522L24.4774 70.9488Z" fill="url(#paint2_radial_887_13394)"/>
<path d="M43.4517 144.356C44.6784 144.064 45.9016 142.392 47.0705 140.503C49.4184 136.708 48.9121 132.878 48.749 131.512C48.3345 129.82 46.836 128.781 45.256 129.209C43.608 129.657 42.6193 131.523 43.2445 133.228C41.6781 130.167 38.9564 129.12 37.7739 129.817C36.7342 130.428 36.3842 132.674 37.2846 135.053C36.3774 133.031 34.1518 132.467 32.9625 133.259C32.0757 133.847 31.9534 135.423 32.6601 136.929C33.428 138.23 34.5629 140.384 37.638 142.243C39.9214 143.626 42.0994 144.683 43.4517 144.36V144.356Z" fill="#F36C21"/>
<path d="M12.3652 81.5566L14.985 86.7316H34.7878L32.0899 81.5634L12.3652 81.5566Z" fill="#BCBEC0"/>
<path d="M72.4342 139.532L46.4337 83.7796C46.3997 83.7048 46.3249 83.6572 46.2434 83.6572H1.13667C1.0857 83.6572 1.04153 83.681 1.00755 83.7082C1.00755 83.7082 0.0833329 84.5916 0.0493543 84.6596C0.0255692 84.7072 0.813875 84.6732 1.26919 84.6494L26.6988 139.708C26.7328 139.783 26.8076 139.831 26.8891 139.831H72.2473C72.4002 139.831 72.5021 139.671 72.4376 139.532H72.4342Z" fill="#AE0303"/>
<path d="M0.209996 84.584H45.3167C45.3982 84.584 45.473 84.6316 45.507 84.7063L71.5075 140.459C71.572 140.598 71.4701 140.758 71.3172 140.758H25.959C25.8775 140.758 25.8027 140.71 25.7688 140.635L0.0197154 84.883C-0.0448441 84.7437 0.057092 84.584 0.209996 84.584Z" fill="#E30303"/>
<path d="M35.3061 72.1668C38.854 71.5718 41.1129 67.4091 40.3515 62.8693C39.5902 58.3294 36.0969 55.1314 32.549 55.7264C29.0011 56.3214 26.7422 60.484 27.5035 65.0239C28.2649 69.5638 31.7582 72.7617 35.3061 72.1668Z" fill="#1B64A6"/>
<path d="M34.5754 72.1953C32.2207 72.2871 29.3529 69.613 28.833 65.4879C28.3437 61.5906 30.2363 58.067 32.9682 57.7952C33.0328 57.7884 33.1007 57.785 33.1687 57.7816C35.5234 57.6898 38.3912 60.364 38.9111 64.489C39.4004 68.3863 37.5078 71.9099 34.7759 72.1817C34.7113 72.1885 34.6434 72.1919 34.5754 72.1953Z" fill="#34282A"/>
<path d="M31.2526 70.1719C32.1752 70.1359 32.8907 69.2753 32.8508 68.2496C32.8108 67.2239 32.0306 66.4215 31.108 66.4574C30.1854 66.4933 29.4699 67.354 29.5098 68.3797C29.5498 69.4054 30.33 70.2078 31.2526 70.1719Z" fill="white"/>
<path d="M63.1073 73.2853C66.8841 72.8022 69.4445 68.4917 68.8261 63.6576C68.2077 58.8235 64.6447 55.2963 60.8678 55.7795C57.091 56.2626 54.5306 60.5731 55.149 65.4072C55.7674 70.2413 59.3305 73.7685 63.1073 73.2853Z" fill="#1B64A6"/>
<path d="M61.9762 73.2185C59.4821 73.2185 56.5566 70.2726 56.1794 65.8859C55.8226 61.7405 57.9701 58.0912 60.8685 57.9179C60.9398 57.9145 61.0112 57.9111 61.0791 57.9111C63.5732 57.9111 66.4987 60.8571 66.8793 65.2437C67.2361 69.3891 65.0886 73.0384 62.1902 73.2117C62.1189 73.2151 62.0475 73.2185 61.9796 73.2185H61.9762Z" fill="#34282A"/>
<path d="M58.9012 71.006C59.8789 71.006 60.6714 70.1252 60.6714 69.0387C60.6714 67.9521 59.8789 67.0713 58.9012 67.0713C57.9234 67.0713 57.1309 67.9521 57.1309 69.0387C57.1309 70.1252 57.9234 71.006 58.9012 71.006Z" fill="white"/>
<path d="M62.871 74.2241C58.1377 74.2241 53.4725 69.8136 51.9604 63.5446C50.2615 56.494 53.1802 49.722 58.4673 48.4478C63.7544 47.1736 69.439 51.8695 71.1414 58.9201C71.9569 62.2976 71.7496 65.7158 70.5603 68.5462C69.3405 71.448 67.2372 73.3882 64.6345 74.0168C64.05 74.1561 63.4622 74.2241 62.8744 74.2241H62.871ZM60.2478 49.5963C59.7585 49.5963 59.2692 49.6541 58.7867 49.7696C54.2268 50.8705 51.7599 56.9051 53.2822 63.2252C54.8078 69.5452 59.7585 73.7925 64.3151 72.695C66.4863 72.1718 68.2566 70.5102 69.3065 68.0196C70.3836 65.4576 70.5671 62.3383 69.8196 59.2395C68.4571 53.5922 64.3592 49.5963 60.2478 49.5963Z" fill="#231F20"/>
<path d="M34.5216 73.1605C30.3354 73.1605 26.1526 69.0593 24.7527 63.2626C23.1897 56.7828 25.6905 50.6021 30.3286 49.4842C32.6222 48.9303 35.0618 49.6677 37.2025 51.5637C39.2752 53.3951 40.828 56.1134 41.5756 59.2089C42.3231 62.3044 42.177 65.4304 41.1678 68.006C40.1247 70.6665 38.2898 72.4368 35.9963 72.9873C35.507 73.1062 35.0143 73.1605 34.5216 73.1605ZM31.8271 50.6633C31.4295 50.6633 31.0354 50.7108 30.648 50.8026C26.7405 51.7438 24.6882 57.1906 26.0745 62.9432C27.4608 68.6957 31.7693 72.6067 35.6803 71.6621C37.5287 71.217 39.0272 69.7389 39.9038 67.5065C40.811 65.1857 40.9368 62.3519 40.2538 59.5249C39.5708 56.6979 38.1675 54.231 36.3021 52.5797C34.8818 51.3224 33.3289 50.6667 31.8271 50.6667V50.6633Z" fill="#231F20"/>
<path d="M51.6264 62.6649C51.5109 62.6649 51.3919 62.6343 51.2832 62.5731C49.6794 61.6387 47.865 61.0645 46.0301 60.9184C44.4977 60.796 42.972 60.9591 41.4905 61.4077C41.1338 61.5164 40.7532 61.3125 40.6445 60.9523C40.5357 60.5922 40.7396 60.215 41.0998 60.1063C42.7444 59.6102 44.4399 59.4301 46.1388 59.5626C48.1742 59.7257 50.1891 60.3611 51.9696 61.3975C52.2924 61.5877 52.4045 62.0023 52.2142 62.3285C52.0885 62.5459 51.8608 62.6649 51.6264 62.6649Z" fill="#231F20"/>
<path d="M69.2852 56.4092C69.0201 56.4092 68.7653 56.2529 68.6566 55.9913C68.5105 55.6447 68.677 55.2471 69.0235 55.101L106.329 39.5218C106.675 39.3757 107.073 39.5422 107.219 39.8888C107.365 40.2354 107.199 40.6329 106.852 40.779L69.5468 56.3582C69.4619 56.3956 69.3735 56.4126 69.2852 56.4126V56.4092Z" fill="#231F20"/>
<path d="M98.2732 78.7227C91.8682 83.952 81.6134 91.0875 67.5395 96.2353C53.5912 101.335 41.2909 102.508 33.0885 102.65C33.0443 104.937 32.8914 111.865 34.5971 115.046C39.5002 124.193 52.1879 125.535 59.6768 126.323C82.4493 128.729 101.688 117.051 111.063 110.367" fill="url(#paint3_linear_887_13394)"/>
<path d="M99.4952 77.5684C92.9136 82.7977 82.3734 89.9332 67.9087 95.081C53.5731 100.181 40.933 101.353 32.5029 101.496C32.4587 103.783 32.299 110.711 34.0523 113.892C39.0913 123.039 52.129 124.381 59.8251 125.169C83.2263 127.575 103.002 115.896 112.638 109.213L99.4952 77.5684Z" fill="url(#paint4_radial_887_13394)"/>
<path d="M75.5515 147.594C74.1346 147.564 72.3915 146.014 70.6552 144.21C67.1724 140.591 66.8224 136.256 66.6797 134.713C66.7341 132.756 68.1374 131.254 69.979 131.349C71.8988 131.451 73.4279 133.272 73.1424 135.294C74.1448 131.557 76.8903 129.759 78.3582 130.245C79.646 130.67 80.5634 133.062 80.1352 135.889C80.6551 133.449 82.9725 132.301 84.4675 132.892C85.582 133.33 86.0917 135.036 85.6704 136.861C85.1335 138.475 84.3962 141.111 81.4502 143.887C79.2654 145.95 77.1179 147.625 75.5515 147.594Z" fill="#F36C21"/>
<path d="M53.7836 112.892C47.7932 112.892 43.3658 110.133 41.9828 109.151C41.677 108.933 41.6057 108.509 41.8231 108.203C42.0406 107.897 42.4653 107.826 42.7711 108.043C44.3104 109.137 49.9033 112.596 57.1917 111.21C63.8855 109.936 67.6877 105.464 69.0095 103.602L69.5328 102.865L70.0968 103.571C72.0064 105.974 75.4145 106.64 77.8507 105.084C79.8623 103.799 80.8409 101.176 80.2326 98.7057L79.8521 97.1563L81.2316 97.9548C84.2217 99.6809 87.9628 99.5858 90.7592 97.7102C94.7551 95.0292 94.6906 90.2213 94.6838 90.0174L94.6464 88.4442L95.8153 89.4975C96.7599 90.347 97.9797 90.7649 99.2539 90.6732C100.464 90.5848 101.585 90.0242 102.329 89.1339C103.81 87.3535 103.624 84.6589 101.904 82.9974C101.636 82.7358 101.626 82.3076 101.887 82.0358C102.149 81.764 102.577 81.7572 102.849 82.0188C105.078 84.1731 105.309 87.6797 103.376 90.0038C102.397 91.1795 100.932 91.9168 99.3559 92.0323C98.1496 92.1173 96.9807 91.8522 95.958 91.2712C95.7201 93.14 94.8265 96.6228 91.517 98.845C88.6594 100.761 84.9557 101.071 81.7617 99.7387C81.9316 102.355 80.7457 104.859 78.5813 106.239C75.7984 108.016 72.0166 107.476 69.6109 105.077C67.8508 107.323 63.9059 111.325 57.4465 112.555C56.1723 112.797 54.9491 112.902 53.7836 112.902V112.892Z" fill="#005781"/>
<path d="M69.4316 119.039C68.1778 119.039 67.0531 118.855 66.139 118.706C64.0969 118.373 62.0786 117.683 60.1452 116.66C59.8122 116.483 59.6865 116.072 59.8632 115.743C60.0399 115.41 60.451 115.284 60.7806 115.461C62.5849 116.415 64.4605 117.054 66.3599 117.367C68.1608 117.662 70.8825 118.104 73.5838 116.731C74.4434 116.293 75.2385 115.712 75.9453 114.995L76.3361 114.601L76.8016 114.903C76.8321 114.924 80.0397 116.969 82.7886 115.311C84.2361 114.438 84.8851 112.97 85.1399 112.171L85.405 111.353L86.1389 111.798C89.1154 113.602 92.4453 113.337 93.886 111.186C94.8103 109.807 94.6574 108.009 94.4841 107.058L94.1171 105.039L95.619 106.439C97.3655 108.067 99.4348 108.913 101.151 108.695C101.939 108.597 102.564 108.264 102.867 107.788C103.465 106.854 103.145 104.893 102.092 103.024L100.991 101.071L102.989 102.083C106.054 103.636 108.497 103.677 109.656 103.238C110.06 103.086 110.335 102.871 110.43 102.63C110.77 101.784 109.611 99.2731 106.625 96.9456C106.329 96.7145 106.275 96.2864 106.506 95.9908C106.737 95.6952 107.165 95.6408 107.461 95.8719C110.614 98.3319 112.394 101.387 111.691 103.133C111.446 103.738 110.909 104.214 110.135 104.506C108.602 105.083 106.37 104.89 104.042 104.023C104.606 105.586 104.79 107.296 104.012 108.515C103.482 109.344 102.523 109.888 101.321 110.038C99.6352 110.252 97.7188 109.674 95.9757 108.464C95.9757 109.548 95.7651 110.826 95.0175 111.937C93.2846 114.523 89.5707 115.073 86.1457 113.347C85.7108 114.332 84.9123 115.613 83.492 116.47C80.6955 118.155 77.6884 116.911 76.5399 116.31C75.8298 116.966 75.0449 117.513 74.2056 117.938C72.5372 118.787 70.8995 119.035 69.4384 119.035L69.4316 119.039Z" fill="#005781"/>
<path d="M11.4492 82.502L14.069 87.6803H33.8718L31.1738 82.5121L11.4492 82.502Z" fill="#E6E7E8"/>
<path d="M12.3632 81.5566L11.4492 82.5012L31.1738 82.5114L32.2612 84.5909L33.165 83.6259L32.0879 81.5634L12.3632 81.5566Z" fill="#BCBEC0"/>
<path d="M31.1738 82.5115L32.0879 81.5635L33.165 83.626L32.2611 84.591L31.1738 82.5115Z" fill="#D1D3D4"/>
<defs>
<radialGradient id="paint0_radial_887_13394" cx="0" cy="0" r="1" gradientUnits="userSpaceOnUse" gradientTransform="translate(35.6415 33.3822) rotate(-30.49) scale(28.3654 28.3654)">
<stop stop-color="#359BDC"/>
<stop offset="0.34" stop-color="#277FC5"/>
<stop offset="0.96" stop-color="#2174BB"/>
</radialGradient>
<radialGradient id="paint1_radial_887_13394" cx="0" cy="0" r="1" gradientUnits="userSpaceOnUse" gradientTransform="translate(109.553 5.65584) scale(178.925 178.925)">
<stop offset="0.05" stop-color="#359BDC"/>
<stop offset="0.93" stop-color="#2174BB"/>
</radialGradient>
<radialGradient id="paint2_radial_887_13394" cx="0" cy="0" r="1" gradientUnits="userSpaceOnUse" gradientTransform="translate(25.9487 61.7847) scale(34.784 34.784)">
<stop stop-color="#359BDC"/>
<stop offset="1" stop-color="#2174BB"/>
</radialGradient>
<linearGradient id="paint3_linear_887_13394" x1="33.0613" y1="102.684" x2="111.059" y2="102.684" gradientUnits="userSpaceOnUse">
<stop stop-color="#005A87"/>
<stop offset="0.99" stop-color="#005A87"/>
</linearGradient>
<radialGradient id="paint4_radial_887_13394" cx="0" cy="0" r="1" gradientUnits="userSpaceOnUse" gradientTransform="translate(72.3218 83.8544) scale(68.9283 67.5768)">
<stop stop-color="#359BDC"/>
<stop offset="0.93" stop-color="#2174BB"/>
</radialGradient>
</defs>
</svg>
